<svg width="34" height="34" viewBox="0 0 34 34" fill="none" xmlns="http://www.w3.org/2000/svg">
  <path d="M15.6592 6.9245H25.4663C26.9711 6.9245 27.7235 6.9245 28.2982 7.21736C28.8038 7.47495 29.2148 7.88599 29.4724 8.39156C29.7653 8.96631 29.7653 9.71871 29.7653 11.2235V12.97C29.7653 14.2219 29.7653 14.8478 29.5607 15.3416C29.288 16 28.765 16.523 28.1066 16.7957C27.6129 17.0003 26.9869 17.0003 25.735 17.0003M18.3461 27.076H8.53901C7.03422 27.076 6.28182 27.076 5.70707 26.7832C5.2015 26.5256 4.79047 26.1145 4.53287 25.609C4.24002 25.0342 4.24002 24.2818 4.24002 22.777V21.0306C4.24002 19.7786 4.24002 19.1527 4.44454 18.6589C4.71724 18.0006 5.24031 17.4775 5.89866 17.2048C6.39243 17.0003 7.0184 17.0003 8.27032 17.0003M14.7188 20.3589H19.2865C19.6627 20.3589 19.8508 20.3589 19.9945 20.2856C20.1209 20.2212 20.2236 20.1185 20.288 19.9921C20.3612 19.8484 20.3612 19.6603 20.3612 19.2841V14.7164C20.3612 14.3402 20.3612 14.1521 20.288 14.0084C20.2236 13.882 20.1209 13.7793 19.9945 13.7149C19.8508 13.6417 19.6627 13.6417 19.2865 13.6417H14.7188C14.3426 13.6417 14.1545 13.6417 14.0108 13.7149C13.8844 13.7793 13.7817 13.882 13.7173 14.0084C13.6441 14.1521 13.6441 14.3402 13.6441 14.7164V19.2841C13.6441 19.6603 13.6441 19.8484 13.7173 19.9921C13.7817 20.1185 13.8844 20.2212 14.0108 20.2856C14.1545 20.3589 14.3426 20.3589 14.7188 20.3589ZM24.7946 30.4346H29.3622C29.7384 30.4346 29.9265 30.4346 30.0702 30.3614C30.1966 30.297 30.2994 30.1942 30.3638 30.0678C30.437 29.9242 30.437 29.7361 30.437 29.3599V24.7922C30.437 24.416 30.437 24.2279 30.3638 24.0842C30.2994 23.9578 30.1966 23.855 30.0702 23.7906C29.9265 23.7174 29.7384 23.7174 29.3622 23.7174H24.7946C24.4184 23.7174 24.2303 23.7174 24.0866 23.7906C23.9602 23.855 23.8574 23.9578 23.793 24.0842C23.7198 24.2279 23.7198 24.416 23.7198 24.7922V29.3599C23.7198 29.7361 23.7198 29.9242 23.793 30.0678C23.8574 30.1942 23.9602 30.297 24.0866 30.3614C24.2303 30.4346 24.4184 30.4346 24.7946 30.4346ZM4.64305 10.2831H9.21072C9.58692 10.2831 9.77502 10.2831 9.91871 10.2099C10.0451 10.1455 10.1479 10.0427 10.2123 9.91633C10.2855 9.77264 10.2855 9.58454 10.2855 9.20834V4.64067C10.2855 4.26447 10.2855 4.07637 10.2123 3.93268C10.1479 3.80629 10.0451 3.70353 9.91871 3.63913C9.77502 3.56592 9.58692 3.56592 9.21072 3.56592H4.64305C4.26685 3.56592 4.07875 3.56592 3.93506 3.63913C3.80867 3.70353 3.70591 3.80629 3.64151 3.93268C3.5683 4.07637 3.5683 4.26447 3.5683 4.64067V9.20834C3.5683 9.58454 3.5683 9.77264 3.64151 9.91633C3.70591 10.0427 3.80867 10.1455 3.93506 10.2099C4.07875 10.2831 4.26685 10.2831 4.64305 10.2831Z" stroke="url(#paint0_linear_0_3163)" stroke-width="2.82828" stroke-linecap="round" stroke-linejoin="round"/>
  <defs>
    <linearGradient id="paint0_linear_0_3163" x1="26.3587" y1="27.6758" x2="6.80693" y2="6.9245" gradientUnits="userSpaceOnUse">
      <stop stop-color="#8424DE"/>
      <stop offset="1" stop-color="#83D9FF"/>
    </linearGradient>
  </defs>
</svg>
