<svg width="39" height="38" viewBox="0 0 39 38" fill="none" xmlns="http://www.w3.org/2000/svg">
  <path d="M22.6668 17.4167H13.1668M16.3335 23.7501H13.1668M25.8335 11.0834H13.1668M32.1668 15.8334V10.7667C32.1668 8.1065 32.1668 6.77637 31.6491 5.76029C31.1937 4.86652 30.4671 4.13987 29.5733 3.68447C28.5572 3.16675 27.2271 3.16675 24.5668 3.16675H14.4335C11.7732 3.16675 10.4431 3.16675 9.42704 3.68447C8.53327 4.13987 7.80661 4.86652 7.35122 5.76029C6.8335 6.77637 6.8335 8.1065 6.8335 10.7667V27.2334C6.8335 29.8937 6.8335 31.2238 7.35122 32.2399C7.80661 33.1336 8.53327 33.8603 9.42704 34.3157C10.4431 34.8334 11.7732 34.8334 14.4335 34.8334H20.2918M29.0002 33.2501C29.0002 33.2501 33.7502 30.9861 33.7502 27.59V23.628L30.2865 22.3903C29.4543 22.0922 28.5442 22.0922 27.712 22.3903L24.2502 23.628V27.59C24.2502 30.9861 29.0002 33.2501 29.0002 33.2501Z" stroke="#AEAEAE" stroke-width="3" stroke-linecap="round" stroke-linejoin="round"/>
</svg>
