<svg width="34" height="34" viewBox="0 0 34 34" fill="none" xmlns="http://www.w3.org/2000/svg">
  <path d="M19.6879 15.6566H11.6273M14.3142 21.0303H11.6273M22.3748 10.2828H11.6273M27.7485 14.3131V10.0142C27.7485 7.75698 27.7485 6.62839 27.3093 5.76626C26.9229 5.00791 26.3063 4.39135 25.548 4.00495C24.6858 3.56567 23.5572 3.56567 21.3001 3.56567H12.7021C10.4449 3.56567 9.31631 3.56567 8.45419 4.00495C7.69584 4.39135 7.07928 5.00791 6.69288 5.76626C6.2536 6.62839 6.2536 7.75698 6.2536 10.0142V23.9859C6.2536 26.2431 6.2536 27.3716 6.69288 28.2338C7.07928 28.9921 7.69584 29.6087 8.45419 29.9951C9.31631 30.4344 10.4449 30.4344 12.7021 30.4344H17.6728M25.0617 29.0909C25.0617 29.0909 29.092 27.1699 29.092 24.2884V20.9267L26.1531 19.8766C25.447 19.6236 24.6748 19.6236 23.9687 19.8766L21.0314 20.9267V24.2884C21.0314 27.1699 25.0617 29.0909 25.0617 29.0909Z" stroke="url(#paint0_linear_0_3155)" stroke-width="2.54545" stroke-linecap="round" stroke-linejoin="round"/>
  <defs>
    <linearGradient id="paint0_linear_0_3155" x1="25.6254" y1="27.6755" x2="6.1424" y2="10.0989" gradientUnits="userSpaceOnUse">
      <stop stop-color="#8424DE"/>
      <stop offset="1" stop-color="#83D9FF"/>
    </linearGradient>
  </defs>
</svg>
