<svg width="38" height="38" viewBox="0 0 38 38" fill="none" xmlns="http://www.w3.org/2000/svg">
  <path d="M34.8334 16.6249L34.0823 10.6156C33.7876 8.25861 33.6403 7.0801 33.0856 6.19201C32.597 5.40956 31.891 4.78635 31.054 4.39848C30.1039 3.95825 28.9163 3.95825 26.5409 3.95825H11.4592C9.08389 3.95825 7.89623 3.95825 6.9462 4.39848C6.10918 4.78635 5.40321 5.40956 4.91452 6.19201C4.35985 7.0801 4.21254 8.2586 3.91791 10.6156L3.16675 16.6249M8.70842 22.9583H29.2918M8.70842 22.9583C5.64784 22.9583 3.16675 20.4772 3.16675 17.4166C3.16675 14.356 5.64784 11.8749 8.70842 11.8749H29.2918C32.3523 11.8749 34.8334 14.356 34.8334 17.4166C34.8334 20.4772 32.3523 22.9583 29.2918 22.9583M8.70842 22.9583C5.64784 22.9583 3.16675 25.4393 3.16675 28.4999C3.16675 31.5605 5.64784 34.0416 8.70842 34.0416H29.2918C32.3523 34.0416 34.8334 31.5605 34.8334 28.4999C34.8334 25.4393 32.3523 22.9583 29.2918 22.9583M9.50008 17.4166H9.51592M9.50008 28.4999H9.51592M19.0001 17.4166H28.5001M19.0001 28.4999H28.5001" stroke="url(#paint0_linear_13_11)" stroke-width="3" stroke-linecap="round" stroke-linejoin="round"/>
  <defs>
    <linearGradient id="paint0_linear_13_11" x1="30.9042" y1="31.8316" x2="9.10838" y2="7.48109" gradientUnits="userSpaceOnUse">
      <stop stop-color="#8424DE"/>
      <stop offset="1" stop-color="#83D9FF"/>
    </linearGradient>
  </defs>
</svg>
