<svg width="34" height="34" viewBox="0 0 34 34" fill="none" xmlns="http://www.w3.org/2000/svg">
  <path d="M30.4331 14.985L29.7957 9.8862C29.5457 7.88634 29.4207 6.88639 28.9501 6.13286C28.5354 5.46897 27.9364 4.94018 27.2262 4.61108C26.4202 4.23755 25.4124 4.23755 23.397 4.23755H10.6004C8.58497 4.23755 7.57725 4.23755 6.77117 4.61108C6.06097 4.94018 5.46197 5.46897 5.04732 6.13286C4.57669 6.88639 4.4517 7.88633 4.20171 9.8862L3.56436 14.985M8.26638 20.3588H25.731M8.26638 20.3588C5.66953 20.3588 3.56436 18.2536 3.56436 15.6567C3.56436 13.0599 5.66953 10.9547 8.26638 10.9547H25.731C28.3279 10.9547 30.4331 13.0599 30.4331 15.6567C30.4331 18.2536 28.3279 20.3588 25.731 20.3588M8.26638 20.3588C5.66953 20.3588 3.56436 22.4639 3.56436 25.0608C3.56436 27.6576 5.66953 29.7628 8.26638 29.7628H25.731C28.3279 29.7628 30.4331 27.6576 30.4331 25.0608C30.4331 22.4639 28.3279 20.3588 25.731 20.3588M8.9381 15.6567H8.95153M8.9381 25.0608H8.95153M16.9987 15.6567H25.0593M16.9987 25.0608H25.0593" stroke="url(#paint0_linear_0_3151)" stroke-width="2.54545" stroke-linecap="round" stroke-linejoin="round"/>
  <defs>
    <linearGradient id="paint0_linear_0_3151" x1="26.3548" y1="27.1419" x2="7.86136" y2="6.48088" gradientUnits="userSpaceOnUse">
      <stop stop-color="#8424DE"/>
      <stop offset="1" stop-color="#83D9FF"/>
    </linearGradient>
  </defs>
</svg>
