<?xml version="1.0" standalone="no"?>
<!DOCTYPE svg PUBLIC "-//W3C//DTD SVG 20010904//EN"
 "http://www.w3.org/TR/2001/REC-SVG-20010904/DTD/svg10.dtd">
<svg version="1.0" xmlns="http://www.w3.org/2000/svg"
 width="700.000000pt" height="700.000000pt" viewBox="0 0 700.000000 700.000000"
 preserveAspectRatio="xMidYMid meet">
<metadata>
Created by potrace 1.14, written by Peter Selinger 2001-2017
</metadata>
<g transform="translate(0.000000,700.000000) scale(0.100000,-0.100000)"
fill="#000000" stroke="none">
<path d="M3320 5923 c-120 -8 -242 -27 -253 -38 -7 -7 -321 -794 -697 -1749
-376 -955 -687 -1736 -691 -1736 -12 0 -104 188 -154 314 -50 129 -94 284
-122 436 -25 134 -24 513 0 655 104 591 417 1090 891 1417 l79 55 84 213 c46
117 81 215 79 218 -9 8 -259 -128 -371 -203 -146 -98 -249 -181 -372 -304
-203 -203 -339 -393 -468 -656 -123 -249 -189 -461 -229 -736 -22 -145 -22
-522 0 -668 52 -362 195 -728 411 -1053 l64 -98 140 0 140 0 20 44 c34 78
1529 3877 1529 3887 0 5 -8 8 -17 7 -10 -1 -38 -3 -63 -5z"/>
<path d="M3765 5768 c-109 -273 -1297 -3293 -1302 -3311 -5 -16 59 -17 1241
-17 l1247 0 -3 153 -3 152 -1019 3 c-807 2 -1017 5 -1013 15 50 128 1156 2937
1181 2997 26 64 31 87 22 92 -14 8 -255 58 -279 58 -10 0 -34 -47 -72 -142z"/>
<path d="M4477 5587 c-20 -51 -45 -116 -56 -144 l-21 -53 62 -31 c137 -69 280
-167 410 -281 36 -32 69 -58 72 -58 3 0 6 90 6 199 l0 200 -117 78 c-65 44
-163 102 -219 131 l-101 51 -36 -92z"/>
<path d="M5040 5128 l0 -203 71 -85 c212 -254 372 -580 443 -902 25 -117 40
-229 51 -380 l6 -88 -283 -2 -283 -3 0 -150 0 -150 426 -3 427 -2 7 127 c10
165 0 420 -20 553 -64 411 -240 813 -505 1152 -69 88 -313 338 -330 338 -6 0
-10 -73 -10 -202z"/>
<path d="M3582 3329 l-60 -154 141 -6 c78 -4 400 -7 715 -8 l572 -1 0 155 0
155 -443 0 c-244 0 -538 3 -654 7 l-210 6 -61 -154z"/>
<path d="M5040 2591 l0 -149 327 -7 c309 -7 327 -6 340 11 14 19 113 268 113
284 0 6 -140 10 -390 10 l-390 0 0 -149z"/>
<path d="M5051 2027 c-6 -8 -8 -17 -4 -20 3 -4 88 -7 188 -7 169 0 183 1 200
20 18 20 17 20 -177 20 -151 0 -198 -3 -207 -13z"/>
<path d="M1639 1913 c11 -16 44 -55 74 -88 l54 -59 31 83 c18 45 32 85 32 87
0 2 -48 4 -106 4 l-105 0 20 -27z"/>
<path d="M5052 1928 c-14 -14 -17 -318 -3 -318 25 0 311 296 311 322 0 13
-294 10 -308 -4z"/>
<path d="M4855 1845 c-570 -490 -1367 -634 -2075 -375 -127 46 -331 149 -454
230 -60 39 -110 70 -111 68 -1 -2 -27 -67 -58 -146 l-56 -143 67 -43 c312
-201 651 -331 992 -380 494 -70 1011 19 1450 250 116 61 329 199 336 218 2 6
3 99 2 205 l-3 193 -90 -77z"/>
</g>
</svg>
