<svg width="50" height="48" viewBox="0 0 50 48" fill="none" xmlns="http://www.w3.org/2000/svg">
<path d="M18.1648 24L22.722 28.4L32.9756 18.5M18.6249 42.9219C19.3717 42.8266 20.1261 43.0221 20.721 43.4646L23.4627 45.4958C24.3689 46.1681 25.6296 46.1681 26.5334 45.4958L29.3788 43.3863C29.9105 42.9928 30.5813 42.8192 31.2446 42.9048L34.8039 43.357C35.9355 43.5012 37.0266 42.8926 37.4646 41.8733L38.8341 38.676C39.0898 38.0772 39.5809 37.603 40.2012 37.3561L43.5124 36.0337C44.5681 35.6132 45.1984 34.5573 45.0491 33.4646L44.5984 30.1525C44.4997 29.4314 44.7022 28.703 45.1604 28.1285L47.2641 25.4813C47.9603 24.6062 47.9603 23.3889 47.2641 22.5163L45.0794 19.7688C44.6719 19.2555 44.4921 18.6077 44.5807 17.9673L45.0491 14.5305C45.1984 13.4378 44.5681 12.3843 43.5124 11.9614L40.2012 10.639C39.5809 10.3922 39.0898 9.91795 38.8341 9.31907L37.4646 6.12183C37.0291 5.10252 35.9355 4.49387 34.8039 4.63809L31.2446 5.0903C30.5813 5.1783 29.9105 5.00475 29.3814 4.61365L26.5359 2.50415C25.6296 1.83195 24.3689 1.83195 23.4652 2.50415L20.6197 4.61365C20.0881 5.00475 19.4173 5.1783 18.754 5.09519L15.1947 4.64298C14.0631 4.49876 12.972 5.10741 12.534 6.12672L11.167 9.32396C10.9088 9.92039 10.4177 10.3946 9.79996 10.6439L6.48871 11.9639C5.43306 12.3868 4.8027 13.4403 4.95207 14.5329L5.4204 17.9697C5.50647 18.6101 5.32673 19.2579 4.92169 19.7688L2.73697 22.5163C2.0408 23.3913 2.0408 24.6086 2.73697 25.4813L4.92169 28.2288C5.32926 28.7421 5.509 29.3898 5.4204 30.0303L4.95207 33.4671C4.8027 34.5597 5.43306 35.6132 6.48871 36.0361L9.79996 37.3585C10.4202 37.6054 10.9113 38.0796 11.167 38.6785L12.5365 41.8757C12.972 42.895 14.0656 43.5037 15.1972 43.3595L18.6249 42.9219Z" stroke="url(#paint0_linear_70_1079)" stroke-width="3.83" stroke-linecap="round" stroke-linejoin="round"/>
<defs>
<linearGradient id="paint0_linear_70_1079" x1="47.7863" y1="2" x2="3.81335" y2="47.5434" gradientUnits="userSpaceOnUse">
<stop offset="0.270833" stop-color="#8424DE"/>
<stop offset="0.557292" stop-color="#5B61E4"/>
<stop offset="1" stop-color="#83D9FF"/>
</linearGradient>
</defs>
</svg>
