<svg width="500" height="500" viewBox="0 0 500 500" fill="none" xmlns="http://www.w3.org/2000/svg">
<path d="M238.402 359.53H45.3116C43.798 359.527 42.3472 358.925 41.2769 357.855C40.2066 356.784 39.6042 355.334 39.6016 353.82V82.39C39.6173 80.8851 40.2256 79.4471 41.2944 78.3876C42.3633 77.3281 43.8066 76.7325 45.3116 76.73H238.402C239.914 76.7326 241.364 77.3354 242.433 78.4059C243.501 79.4765 244.102 80.9273 244.102 82.44V353.82C244.102 355.333 243.501 356.783 242.433 357.854C241.364 358.925 239.914 359.527 238.402 359.53ZM45.3116 76.93C43.8643 76.9326 42.4771 77.5087 41.4537 78.5321C40.4303 79.5555 39.8542 80.9427 39.8516 82.39V353.82C39.8542 355.267 40.4303 356.654 41.4537 357.678C42.4771 358.701 43.8643 359.277 45.3116 359.28H238.402C239.848 359.277 241.234 358.701 242.256 357.677C243.278 356.654 243.852 355.266 243.852 353.82V82.39C243.852 80.9436 243.278 79.5564 242.256 78.5327C241.234 77.509 239.848 76.9326 238.402 76.93H45.3116Z" fill="#F0F0F0"/>
<path d="M454.702 359.53H261.602C260.09 359.527 258.64 358.925 257.571 357.854C256.503 356.783 255.902 355.333 255.902 353.82V82.39C255.916 80.886 256.522 79.448 257.589 78.3882C258.656 77.3284 260.098 76.7326 261.602 76.73H454.702C456.206 76.7326 457.649 77.3284 458.716 78.3882C459.783 79.448 460.389 80.886 460.402 82.39V353.82C460.402 355.333 459.802 356.783 458.733 357.854C457.665 358.925 456.215 359.527 454.702 359.53ZM261.602 76.93C260.156 76.9326 258.77 77.509 257.748 78.5327C256.726 79.5564 256.152 80.9436 256.152 82.39V353.82C256.152 355.266 256.726 356.654 257.748 357.677C258.77 358.701 260.156 359.277 261.602 359.28H454.702C456.151 359.277 457.539 358.702 458.564 357.678C459.589 356.655 460.167 355.268 460.172 353.82V82.39C460.167 80.9418 459.589 79.5546 458.564 78.5315C457.539 77.5084 456.151 76.9326 454.702 76.93H261.602Z" fill="#F0F0F0"/>
<path d="M95.003 410.21H53.793V410.46H95.003V410.21Z" fill="#E0E0E0"/>
<path d="M232.781 408.21H222.781V408.46H232.781V408.21Z" fill="#E0E0E0"/>
<path d="M132.832 416.75H86.582V417H132.832V416.75Z" fill="#E0E0E0"/>
<path d="M329.633 410.08H301.703V410.33H329.633V410.08Z" fill="#E0E0E0"/>
<path d="M439.41 410.08H411.48V410.33H439.41V410.08Z" fill="#E0E0E0"/>
<path d="M178.053 382.55H136.723V382.8H178.053V382.55Z" fill="#E0E0E0"/>
<path d="M131.883 391.09H85.6328V391.34H131.883V391.09Z" fill="#E0E0E0"/>
<path d="M291.85 384.42H270.25V384.67H291.85V384.42Z" fill="#E0E0E0"/>
<path d="M328.68 384.42H300.75V384.67H328.68V384.42Z" fill="#E0E0E0"/>
<path d="M463.381 388.65H400.941V388.9H463.381V388.65Z" fill="#E0E0E0"/>
<path d="M79.1108 241.65H47.8008V274.98H79.1108V241.65Z" fill="#E6E6E6"/>
<path d="M47.8013 241.65H39.7812V274.98H47.8013V241.65Z" fill="#F0F0F0"/>
<path d="M87.3208 236.51H63.8008V274.98H87.3208V236.51Z" fill="#E6E6E6"/>
<path d="M63.8117 236.51H57.0117V274.98H63.8117V236.51Z" fill="#F0F0F0"/>
<path d="M90.5605 241.65H70.7305V274.98H90.5605V241.65Z" fill="#F0F0F0"/>
<path d="M70.7331 241.65H66.2031V274.98H70.7331V241.65Z" fill="#F5F5F5"/>
<path d="M112.971 247.29H86.9609V274.98H112.971V247.29Z" fill="#E6E6E6"/>
<path d="M86.9608 247.29H80.3008V274.98H86.9608V247.29Z" fill="#F5F5F5"/>
<path d="M119.79 243.02H100.25V274.98H119.79V243.02Z" fill="#E6E6E6"/>
<path d="M100.263 243.02H94.6133V274.98H100.263V243.02Z" fill="#F0F0F0"/>
<path d="M124.992 247.29H106.012V274.98H124.992V247.29Z" fill="#F0F0F0"/>
<path d="M106.002 247.29H102.242V274.98H106.002V247.29Z" fill="#F5F5F5"/>
<path d="M197.923 241.83H166.613V275.16H197.923V241.83Z" fill="#E6E6E6"/>
<path d="M166.61 241.83H158.59V275.16H166.61V241.83Z" fill="#F0F0F0"/>
<path d="M206.133 236.69H182.613V275.16H206.133V236.69Z" fill="#E6E6E6"/>
<path d="M182.62 236.69H175.82V275.16H182.62V236.69Z" fill="#F0F0F0"/>
<path d="M209.373 241.83H189.543V275.16H209.373V241.83Z" fill="#F0F0F0"/>
<path d="M189.542 241.83H185.012V275.16H189.542V241.83Z" fill="#F5F5F5"/>
<path d="M243.852 275.14H39.8516V284.79H243.852V275.14Z" fill="#E0E0E0"/>
<path d="M231.783 247.47H205.773V275.16H231.783V247.47Z" fill="#E6E6E6"/>
<path d="M205.773 247.47H199.113V275.16H205.773V247.47Z" fill="#F5F5F5"/>
<path d="M238.603 243.2H219.062V275.16H238.603V243.2Z" fill="#E6E6E6"/>
<path d="M219.072 243.2H213.422V275.16H219.072V243.2Z" fill="#F0F0F0"/>
<path d="M243.8 247.47H224.82V275.16H243.8V247.47Z" fill="#F0F0F0"/>
<path d="M224.811 247.47H221.051V275.16H224.811V247.47Z" fill="#F5F5F5"/>
<path d="M204.002 101.88H40.1719V201.71H204.002V101.88Z" fill="#EBEBEB"/>
<path d="M205.223 101.84H204.023V201.67H205.223V101.84Z" fill="#E0E0E0"/>
<path d="M46.1228 106.22H45.1328V196.05H46.1228V106.22Z" fill="#E0E0E0"/>
<path d="M198.661 106.22H45.0312V196.05H198.661V106.22Z" fill="white"/>
<path d="M149.031 136.15H136.371V154.33H149.031V136.15Z" fill="#F5F5F5"/>
<path d="M65.0897 164.96H52.4297V183.14H65.0897V164.96Z" fill="#F5F5F5"/>
<path d="M63.8631 127.04H51.2031V139.7H63.8631V127.04Z" fill="#F5F5F5"/>
<path d="M126.832 170.76H114.172V183.42H126.832V170.76Z" fill="#F5F5F5"/>
<path d="M189.01 137.72H156.59V183.28H189.01V137.72Z" fill="#F5F5F5"/>
<path d="M184.321 144.31H161.031V144.81H184.321V144.31Z" fill="#E0E0E0"/>
<path d="M172.922 144.8H172.422V178.54H172.922V144.8Z" fill="#E0E0E0"/>
<path d="M183.621 144.8H183.121V178.54H183.621V144.8Z" fill="#E0E0E0"/>
<path d="M163.422 144.8H162.922V178.54H163.422V144.8Z" fill="#E0E0E0"/>
<path d="M161.75 144.8H161.25V178.54H161.75V144.8Z" fill="#E0E0E0"/>
<path d="M183.12 146.58H161.5V147.08H183.12V146.58Z" fill="#E0E0E0"/>
<path d="M103.84 123.97V128.25H113.82V123.97H103.84Z" fill="#F5F5F5"/>
<path d="M105.793 156.17V159.5H115.773V156.17H105.793Z" fill="#F5F5F5"/>
<path d="M107.412 122.57H74.9922V168.13H107.412V122.57Z" fill="#F0F0F0"/>
<path d="M103.562 163.54V166.87H113.542V163.54H103.562Z" fill="#F5F5F5"/>
<path d="M105.223 133.09V136.42H115.203V133.09H105.223Z" fill="#F5F5F5"/>
<path d="M103.031 141.35V144.68H113.011V141.35H103.031Z" fill="#F5F5F5"/>
<path d="M100.913 128.17H78.8125V132.09H100.913V128.17Z" fill="#E6E6E6"/>
<path d="M101.272 144.92H79.1725L78.8125 143.14H100.913L101.272 144.92Z" fill="#E6E6E6"/>
<path d="M86.6525 136.01H78.8125V139.93H86.6525V136.01Z" fill="#E6E6E6"/>
<path d="M273.193 303.21C276.189 304.462 278.985 306.147 281.492 308.21C282.969 309.21 284.205 310.525 285.112 312.06C285.555 312.833 285.76 313.72 285.702 314.61C285.643 315.499 285.323 316.351 284.783 317.06C283.373 318.63 280.783 318.5 278.973 317.41C277.163 316.32 275.973 314.51 274.663 312.84C272.723 310.32 265.022 305.03 264.812 302.36C267.473 301.55 270.643 302.24 273.193 303.21Z" fill="#E6E6E6"/>
<path d="M272.86 317C273.029 319.068 274.01 320.985 275.59 322.33C277.25 323.54 279.94 323.45 281.05 321.72C282.16 319.99 281.28 317.72 280.25 315.97C278.501 312.771 276.164 309.931 273.36 307.6C272.88 310.87 272.36 313.63 272.86 317Z" fill="#E0E0E0"/>
<path d="M265.922 305.51C266.001 308.087 265.604 310.656 264.752 313.09C263.902 315.525 263.562 318.108 263.752 320.68C264.072 323 265.892 325.5 268.192 325.11C269.782 324.84 270.822 323.32 271.482 321.84C273.412 317.49 274.922 311.71 273.152 307.29C271.482 303.12 266.262 299.29 261.832 298.17C262.822 301 265.592 302.17 265.922 305.51Z" fill="#E6E6E6"/>
<path d="M252.171 301.67C250.573 303.464 249.392 305.59 248.714 307.895C248.037 310.2 247.878 312.626 248.251 315C246.533 314.526 244.719 314.517 242.996 314.974C241.273 315.431 239.702 316.338 238.445 317.601C237.187 318.865 236.288 320.44 235.84 322.165C235.391 323.89 235.409 325.704 235.891 327.42C237.511 328.27 239.491 326.84 240.281 325.18C241.071 323.52 241.211 321.58 242.131 319.99C243.051 318.4 245.351 317.32 246.711 318.55C247.431 326.38 246.351 337.4 247.071 345.23C247.171 344.72 253.221 344.76 253.191 344.63C252.451 340.71 251.421 325.79 253.351 326.24C254.881 326.61 255.201 328.65 255.011 330.24C254.821 331.83 254.541 333.65 255.701 334.69C255.992 334.933 256.333 335.109 256.7 335.205C257.067 335.301 257.45 335.315 257.823 335.245C258.196 335.175 258.549 335.024 258.856 334.802C259.163 334.579 259.418 334.292 259.601 333.96C260.901 331.96 260.141 329.62 259.281 327.59C258.501 325.77 257.501 323.85 255.701 323.02C253.901 322.19 251.221 323.23 251.201 325.21C250.201 320.28 249.201 315.11 250.611 310.28C252.021 305.45 256.831 301.28 261.741 302.28C264.151 302.79 267.741 304.85 269.481 302.01C270.721 300.01 269.541 298.62 267.791 297.62C262.811 294.68 255.591 297.87 252.171 301.67Z" fill="#F0F0F0"/>
<path d="M260.553 302.27C260.035 304.608 260.32 307.053 261.363 309.21C262.363 311.03 264.483 312.21 266.093 311.12C267.343 310.25 267.793 308.36 267.813 306.66C267.913 300.24 262.473 291.79 260.553 302.27Z" fill="#F0F0F0"/>
<path d="M269.341 296.1C271.242 296.703 272.988 297.714 274.457 299.061C275.927 300.408 277.085 302.059 277.852 303.9C278.134 304.433 278.282 305.027 278.282 305.63C278.282 306.233 278.134 306.827 277.852 307.36C276.992 308.59 275.141 308.53 273.741 308C270.741 306.88 268.652 304.37 266.352 302.21C264.822 300.77 259.611 299.09 260.751 296.82C261.891 294.55 267.521 295.54 269.341 296.1Z" fill="#F0F0F0"/>
<path d="M260.981 375.09H240.251L229.391 335.17H271.841L260.981 375.09Z" fill="#E6E6E6"/>
<path d="M262.383 369.15H238.723V370.04H262.383V369.15Z" fill="white"/>
<path d="M147.34 361.42L147.99 373.87H187.08L172.88 361.42H147.34Z" fill="#EBEBEB"/>
<path d="M157.383 366.87L158.333 380.29L197.653 380.17L186.203 366.87H157.383Z" fill="#E6E6E6"/>
<path d="M158.7 354.17L149.75 361.27C149.75 361.27 178.75 366.53 178.09 366.46C177.43 366.39 177.09 356.85 177.09 356.85L158.7 354.17Z" fill="#EBEBEB"/>
<path d="M170.492 361.54L168.262 368.87H195.622C195.172 368.87 190.162 361.7 190.162 361.7L170.492 361.54Z" fill="#F0F0F0"/>
<path d="M169.563 352.09L165.773 358.75L192.453 364.8C192.013 364.69 188.723 356.59 188.723 356.59L169.563 352.09Z" fill="#F5F5F5"/>
<path d="M167.123 356.29L153.223 362.7C153.223 362.7 168.323 370.83 174.723 370.25C178.643 369.89 183.933 360.39 183.933 360.39L167.123 356.29Z" fill="#FAFAFA"/>
<path d="M249.999 423.78C357.082 423.78 443.889 418.712 443.889 412.46C443.889 406.208 357.082 401.14 249.999 401.14C142.917 401.14 56.1094 406.208 56.1094 412.46C56.1094 418.712 142.917 423.78 249.999 423.78Z" fill="#F5F5F5"/>
<path d="M226.432 177.4C221.822 174.22 218.082 169.29 217.732 163.7C208.402 163.049 199.305 160.493 191.002 156.19L190.672 156.58C191.282 161.69 191.902 166.84 193.592 171.69C195.282 176.54 198.182 181.14 202.482 183.97C207.712 187.4 214.322 187.83 220.582 187.91C227.862 188 235.512 187.66 241.782 183.96C236.472 182.29 231.002 180.58 226.432 177.4Z" fill="#8424DE"/>
<path opacity="0.7" d="M226.432 177.4C221.822 174.22 218.082 169.29 217.732 163.7C208.402 163.049 199.305 160.493 191.002 156.19L190.672 156.58C191.282 161.69 191.902 166.84 193.592 171.69C195.282 176.54 198.182 181.14 202.482 183.97C207.712 187.4 214.322 187.83 220.582 187.91C227.862 188 235.512 187.66 241.782 183.96C236.472 182.29 231.002 180.58 226.432 177.4Z" fill="white"/>
<path d="M286.831 195.51C286.831 189.96 285.441 184.21 281.831 180.01C278.891 176.63 274.781 174.52 271.181 171.84C266.109 168.034 262.053 163.037 259.371 157.29L259.871 159.66C266.398 172.228 268.174 186.729 264.871 200.5C271.516 203.872 277.93 207.68 284.071 211.9C285.431 206.51 286.791 201.07 286.831 195.51Z" fill="#8424DE"/>
<path opacity="0.7" d="M286.831 195.51C286.831 189.96 285.441 184.21 281.831 180.01C278.891 176.63 274.781 174.52 271.181 171.84C266.109 168.034 262.053 163.037 259.371 157.29L259.871 159.66C266.398 172.228 268.174 186.729 264.871 200.5C271.516 203.872 277.93 207.68 284.071 211.9C285.431 206.51 286.791 201.07 286.831 195.51Z" fill="white"/>
<path d="M190.059 385.48L205.119 390.48C206.448 390.994 207.84 391.331 209.259 391.48C212.109 391.65 214.829 390.35 217.259 388.87C223.34 385.169 228.555 380.203 232.549 374.31L218.819 372.06C217.249 371.81 213.919 370.58 212.439 371.06C211.149 371.48 209.919 373.64 208.949 374.61C206.342 377.209 203.403 379.452 200.209 381.28C198.239 382.44 192.399 386.15 190.059 385.48Z" fill="#8424DE"/>
<path opacity="0.6" d="M190.059 385.48L205.119 390.48C206.448 390.994 207.84 391.331 209.259 391.48C212.109 391.65 214.829 390.35 217.259 388.87C223.34 385.169 228.555 380.203 232.549 374.31L218.819 372.06C217.249 371.81 213.919 370.58 212.439 371.06C211.149 371.48 209.919 373.64 208.949 374.61C206.342 377.209 203.403 379.452 200.209 381.28C198.239 382.44 192.399 386.15 190.059 385.48Z" fill="white"/>
<path d="M236.609 380.12L245.609 393.2C246.37 394.407 247.28 395.512 248.319 396.49C250.489 398.34 253.439 398.94 256.319 399.22C263.413 399.932 270.576 399.103 277.319 396.79L267.709 386.74C266.609 385.59 264.709 382.6 263.219 382.09C261.939 381.65 259.659 382.63 258.289 382.82C254.642 383.327 250.944 383.354 247.289 382.9C244.999 382.61 238.079 382.06 236.609 380.12Z" fill="#8424DE"/>
<path opacity="0.6" d="M236.609 380.12L245.609 393.2C246.37 394.407 247.28 395.512 248.319 396.49C250.489 398.34 253.439 398.94 256.319 399.22C263.413 399.932 270.576 399.103 277.319 396.79L267.709 386.74C266.609 385.59 264.709 382.6 263.219 382.09C261.939 381.65 259.659 382.63 258.289 382.82C254.642 383.327 250.944 383.354 247.289 382.9C244.999 382.61 238.079 382.06 236.609 380.12Z" fill="white"/>
<path d="M252.282 390.27L238.632 382.16C237.444 381.375 236.156 380.752 234.802 380.31C232.052 379.53 229.122 380.23 226.422 381.16C219.703 383.494 213.564 387.245 208.422 392.16L221.362 397.27C222.832 397.85 225.832 399.76 227.362 399.61C228.712 399.48 230.362 397.61 231.522 396.88C234.637 394.896 237.999 393.33 241.522 392.22C243.652 391.5 250.142 389.12 252.282 390.27Z" fill="#8424DE"/>
<path opacity="0.7" d="M252.282 390.27L238.632 382.16C237.444 381.375 236.156 380.752 234.802 380.31C232.052 379.53 229.122 380.23 226.422 381.16C219.703 383.494 213.564 387.245 208.422 392.16L221.362 397.27C222.832 397.85 225.832 399.76 227.362 399.61C228.712 399.48 230.362 397.61 231.522 396.88C234.637 394.896 237.999 393.33 241.522 392.22C243.652 391.5 250.142 389.12 252.282 390.27Z" fill="white"/>
<path d="M130.25 200.38C142.843 202.112 155.618 202.038 168.19 200.16C168.558 200.156 168.921 200.073 169.254 199.916C169.587 199.758 169.883 199.531 170.12 199.25C170.7 198.3 169.89 197.16 169.23 196.25C168.032 194.631 167.184 192.78 166.74 190.816C166.296 188.852 166.265 186.817 166.65 184.84C157.268 193.377 145.441 198.753 132.84 200.21L130.25 200.38Z" fill="#8424DE"/>
<path opacity="0.4" d="M130.25 200.38C142.843 202.112 155.618 202.038 168.19 200.16C168.558 200.156 168.921 200.073 169.254 199.916C169.587 199.758 169.883 199.531 170.12 199.25C170.7 198.3 169.89 197.16 169.23 196.25C168.032 194.631 167.184 192.78 166.74 190.816C166.296 188.852 166.265 186.817 166.65 184.84C157.268 193.377 145.441 198.753 132.84 200.21L130.25 200.38Z" fill="white"/>
<path d="M55.0898 303.3V253.41C57.1516 253.41 59.1932 253.816 61.098 254.605C63.0028 255.394 64.7335 256.55 66.1914 258.008C67.6493 259.466 68.8058 261.197 69.5948 263.102C70.3838 265.007 70.7898 267.048 70.7898 269.11V287.6C70.7898 289.662 70.3838 291.703 69.5948 293.608C68.8058 295.513 67.6493 297.244 66.1914 298.701C64.7335 300.159 63.0028 301.316 61.098 302.105C59.1932 302.894 57.1516 303.3 55.0898 303.3Z" fill="#8424DE"/>
<path d="M102.86 360.78H65.19C56.8 360.78 52.19 354.78 52.19 343.78L52 269.08H55L55.17 343.76C55.17 353.06 58.54 357.76 65.17 357.76H102.84L102.86 360.78Z" fill="#263238"/>
<path d="M126.898 358.28H73.0984C65.0984 358.28 58.6484 353.72 58.6484 348.09C58.6484 342.46 65.1184 337.9 73.0984 337.9H126.898C134.898 337.9 141.348 342.46 141.348 348.09C141.348 353.72 134.878 358.28 126.898 358.28Z" fill="#8424DE"/>
<path d="M55.0898 303.3V253.41C57.1516 253.41 59.1932 253.816 61.098 254.605C63.0028 255.394 64.7335 256.55 66.1914 258.008C67.6493 259.466 68.8058 261.197 69.5948 263.102C70.3838 265.007 70.7898 267.048 70.7898 269.11V287.6C70.7898 289.662 70.3838 291.703 69.5948 293.608C68.8058 295.513 67.6493 297.244 66.1914 298.701C64.7335 300.159 63.0028 301.316 61.098 302.105C59.1932 302.894 57.1516 303.3 55.0898 303.3Z" fill="#8424DE"/>
<path d="M126.898 358.28H73.0984C65.0984 358.28 58.6484 353.72 58.6484 348.09C58.6484 342.46 65.1184 337.9 73.0984 337.9H126.898C134.898 337.9 141.348 342.46 141.348 348.09C141.348 353.72 134.878 358.28 126.898 358.28Z" fill="#8424DE"/>
<path d="M103.022 359.28H94.4219V390.03H103.022V359.28Z" fill="#263238"/>
<path d="M63.3398 399.77L94.4198 390.03H103.03L136.29 399.77V402.62H63.3398V399.77Z" fill="#263238"/>
<path d="M70.2298 402.62H63.3398V409.51H70.2298V402.62Z" fill="#263238"/>
<path d="M66.9497 420.75C69.8602 420.75 72.2197 418.391 72.2197 415.48C72.2197 412.569 69.8602 410.21 66.9497 410.21C64.0391 410.21 61.6797 412.569 61.6797 415.48C61.6797 418.391 64.0391 420.75 66.9497 420.75Z" fill="#263238"/>
<path d="M136.05 402.62H129.16V409.51H136.05V402.62Z" fill="#263238"/>
<path d="M132.77 420.75C135.681 420.75 138.04 418.391 138.04 415.48C138.04 412.569 135.681 410.21 132.77 410.21C129.859 410.21 127.5 412.569 127.5 415.48C127.5 418.391 129.859 420.75 132.77 420.75Z" fill="#263238"/>
<path d="M107.468 298.31H95.1981L73.5781 424.25H79.0381L107.468 298.31Z" fill="#263238"/>
<path opacity="0.1" d="M107.468 298.31H95.1981L73.5781 424.25H79.0381L107.468 298.31Z" fill="white"/>
<path d="M182.109 298.31H194.379L215.999 424.25H210.539L182.109 298.31Z" fill="#263238"/>
<path opacity="0.1" d="M182.109 298.31H194.379L215.999 424.25H210.539L182.109 298.31Z" fill="white"/>
<path d="M201.1 288.56H89.1797V307.81H201.1V288.56Z" fill="#263238"/>
<path opacity="0.2" d="M201.1 288.56H89.1797V307.81H201.1V288.56Z" fill="white"/>
<path d="M204.261 288.56H84.0013C83.2834 288.561 82.5723 288.421 81.9087 288.147C81.2451 287.873 80.642 287.471 80.134 286.964C79.6259 286.457 79.2228 285.855 78.9478 285.192C78.6728 284.529 78.5312 283.818 78.5313 283.1C78.5313 282.382 78.6727 281.67 78.9476 281.007C79.2225 280.343 79.6254 279.74 80.1334 279.232C80.6413 278.724 81.2443 278.321 81.908 278.046C82.5716 277.771 83.2829 277.63 84.0013 277.63H204.261C204.979 277.63 205.69 277.771 206.353 278.046C207.016 278.321 207.618 278.725 208.126 279.233C208.633 279.741 209.035 280.344 209.309 281.007C209.582 281.671 209.723 282.382 209.721 283.1C209.723 283.817 209.582 284.528 209.308 285.191C209.034 285.854 208.632 286.456 208.125 286.964C207.618 287.471 207.015 287.873 206.352 288.147C205.689 288.421 204.979 288.561 204.261 288.56Z" fill="#8424DE"/>
<path opacity="0.3" d="M204.261 288.56H84.0013C83.2834 288.561 82.5723 288.421 81.9087 288.147C81.2451 287.873 80.642 287.471 80.134 286.964C79.6259 286.457 79.2228 285.855 78.9478 285.192C78.6728 284.529 78.5312 283.818 78.5313 283.1C78.5313 282.382 78.6727 281.67 78.9476 281.007C79.2225 280.343 79.6254 279.74 80.1334 279.232C80.6413 278.724 81.2443 278.321 81.908 278.046C82.5716 277.771 83.2829 277.63 84.0013 277.63H204.261C204.979 277.63 205.69 277.771 206.353 278.046C207.016 278.321 207.618 278.725 208.126 279.233C208.633 279.741 209.035 280.344 209.309 281.007C209.582 281.671 209.723 282.382 209.721 283.1C209.723 283.817 209.582 284.528 209.308 285.191C209.034 285.854 208.632 286.456 208.125 286.964C207.618 287.471 207.015 287.873 206.352 288.147C205.689 288.421 204.979 288.561 204.261 288.56Z" fill="black"/>
<path d="M270.087 107.75C272.18 96.6518 264.88 85.9578 253.781 83.8647C242.682 81.7716 231.988 89.072 229.895 100.171C227.802 111.269 235.103 121.963 246.201 124.056C257.3 126.149 267.994 118.849 270.087 107.75Z" fill="#8424DE"/>
<path opacity="0.8" d="M249.75 120.39C258.813 120.39 266.16 113.043 266.16 103.98C266.16 94.9171 258.813 87.5701 249.75 87.5701C240.687 87.5701 233.34 94.9171 233.34 103.98C233.34 113.043 240.687 120.39 249.75 120.39Z" fill="white"/>
<path d="M251.371 105.34C251.369 105.668 251.27 105.988 251.086 106.259C250.903 106.531 250.643 106.742 250.339 106.866C250.036 106.991 249.702 107.022 249.381 106.957C249.059 106.892 248.765 106.733 248.533 106.5C248.302 106.268 248.145 105.972 248.082 105.65C248.019 105.328 248.052 104.995 248.178 104.692C248.304 104.39 248.517 104.131 248.79 103.949C249.062 103.767 249.383 103.67 249.711 103.67C249.93 103.67 250.146 103.713 250.348 103.797C250.55 103.881 250.734 104.004 250.888 104.16C251.042 104.315 251.164 104.499 251.247 104.702C251.33 104.904 251.372 105.121 251.371 105.34Z" fill="#8424DE"/>
<path d="M249.521 105.95L242.461 99.31L243.141 98.58L249.541 104.6L261.011 94.47L261.671 95.22L249.521 105.95Z" fill="#8424DE"/>
<path d="M101.78 277.04H156.73V263.38H101.78V277.04Z" fill="#8424DE"/>
<path opacity="0.6" d="M101.96 277.09H156.91V263.43H101.96V277.09Z" fill="white"/>
<path opacity="0.6" d="M101.781 277.09H143.961V263.43H101.781V277.09Z" fill="white"/>
<path d="M102.05 275.3L156.73 277L156.67 275.61L102.02 274.9L102.05 275.3Z" fill="#8424DE"/>
<path d="M156.733 268.98L102.133 265.91V266.37L156.733 270.02V268.98Z" fill="#8424DE"/>
<path d="M156.733 264.86L102.133 266.11V266.56L156.733 265.9V264.86Z" fill="#8424DE"/>
<path d="M156.891 271.67L102.281 274.33V273.93L156.891 270.76V271.67Z" fill="#8424DE"/>
<path d="M101.922 263.56L156.522 263.6V264.05H101.922V263.56Z" fill="#8424DE"/>
<path d="M105.73 236.35H160.68V222.69H105.73V236.35Z" fill="#8424DE"/>
<path opacity="0.6" d="M105.902 236.41H160.852V222.75H105.902V236.41Z" fill="white"/>
<path opacity="0.6" d="M105.722 236.41H147.902V222.75H105.722V236.41Z" fill="white"/>
<path d="M105.991 234.61L160.681 236.31L160.611 234.92L105.961 234.21L105.991 234.61Z" fill="#8424DE"/>
<path d="M160.682 228.29L106.082 225.22V225.68L160.682 229.33V228.29Z" fill="#8424DE"/>
<path d="M160.682 224.16L106.082 225.41V225.86L160.682 225.2V224.16Z" fill="#8424DE"/>
<path d="M160.833 230.97L106.223 233.63V233.23L160.833 230.06V230.97Z" fill="#8424DE"/>
<path d="M105.042 263.19H159.992V249.53H105.042V263.19Z" fill="#8424DE"/>
<path opacity="0.6" d="M105.222 263.25H160.172V249.59H105.222V263.25Z" fill="white"/>
<path opacity="0.6" d="M147.34 249.58H105.16V263.24H147.34V249.58Z" fill="white"/>
<path d="M159.753 261.05L105.103 261.76L105.043 263.15L159.723 261.45L159.753 261.05Z" fill="#8424DE"/>
<path d="M105.391 249.7L159.991 249.75V250.2H105.391V249.7Z" fill="#8424DE"/>
<path d="M105.043 256.17L159.643 252.52V252.06L105.043 255.13V256.17Z" fill="#8424DE"/>
<path d="M159.991 251L105.391 252.25V252.7L159.991 252.04V251Z" fill="#8424DE"/>
<path d="M160.153 257.81L105.543 260.48V260.07L160.153 256.9V257.81Z" fill="#8424DE"/>
<path d="M158.092 236.64L103.162 236.92L103.082 250.31H158.092V236.64Z" fill="#8424DE"/>
<path opacity="0.6" d="M103.14 250.31H158.09V236.65H103.14V250.31Z" fill="white"/>
<path opacity="0.6" d="M145.262 236.64H103.082V250.3H145.262V236.64Z" fill="white"/>
<path d="M146.91 236.92H103.16V238.31H145.97L146.91 236.92Z" fill="#8424DE"/>
<path d="M157.77 242.52L103.16 243.03V243.43H157.77V242.52Z" fill="#8424DE"/>
<path d="M103.16 248.84L157.77 246.18V246.58L103.16 249.75V248.84Z" fill="#8424DE"/>
<path d="M103.16 243.7L157.77 244.79V245.18L103.16 244.61V243.7Z" fill="#8424DE"/>
<path d="M172.12 206.92H117.52V213.8H172.12V206.92Z" fill="#8424DE"/>
<path opacity="0.6" d="M172.12 206.92H117.52V213.8H172.12V206.92Z" fill="white"/>
<path opacity="0.6" d="M161.03 206.92H117.52V213.8H161.03V206.92Z" fill="white"/>
<path d="M172.151 211.8L117.551 212.07V212.27H172.151V211.8Z" fill="#8424DE"/>
<path d="M117.551 209.23L172.151 207.84V208.05L117.551 209.7V209.23Z" fill="#8424DE"/>
<path d="M117.371 208.85L171.971 209.41V209.62L117.371 209.32V208.85Z" fill="#8424DE"/>
<path d="M164.483 203.89H109.883V207.21H164.483V203.89Z" fill="#8424DE"/>
<path opacity="0.6" d="M164.483 203.92H109.883V207.21H164.483V203.92Z" fill="white"/>
<path opacity="0.6" d="M153.393 203.71H109.883V207.2H153.393V203.71Z" fill="white"/>
<path d="M109.91 206.42L164.5 205.03V205.24L109.91 206.89V206.42Z" fill="#8424DE"/>
<path d="M109.91 204.75L164.5 205.31V205.52L109.91 205.22V204.75Z" fill="#8424DE"/>
<path d="M169.561 200.51H114.961V203.83H169.561V200.51Z" fill="#8424DE"/>
<path opacity="0.6" d="M169.561 200.53H114.961V203.82H169.561V200.53Z" fill="white"/>
<path opacity="0.6" d="M158.471 200.33H114.961V203.82H158.471V200.33Z" fill="white"/>
<path d="M114.99 202L169.61 202.67L169.6 202.88L114.98 202.47L114.99 202Z" fill="#8424DE"/>
<path d="M114.992 201.37L169.592 201.93V202.14L114.992 201.84V201.37Z" fill="#8424DE"/>
<path d="M168.42 213.8H113.82V222.66H168.42V213.8Z" fill="#8424DE"/>
<path opacity="0.6" d="M168.42 213.8H113.82V222.66H168.42V213.8Z" fill="white"/>
<path opacity="0.6" d="M155.95 213.8H113.82V222.66H155.95V213.8Z" fill="white"/>
<path d="M168.08 216.56L113.48 216.25V216.01H168.08V216.56Z" fill="#8424DE"/>
<path d="M113.852 217.84L168.452 219.44V219.2L113.852 217.3V217.84Z" fill="#8424DE"/>
<path d="M168.453 213.81H116.953L118.093 214.9H168.453V213.81Z" fill="#8424DE"/>
<path d="M114.043 221.29L168.643 220.63V220.4L114.043 220.74V221.29Z" fill="#8424DE"/>
<path d="M157 274.56L172.37 210.07C173.45 210.32 174.89 211.4 174.63 212.48L159.75 275L157 274.56Z" fill="#263238"/>
<path d="M95 274.25H161.3C161.3 275.136 160.948 275.985 160.322 276.612C159.695 277.238 158.846 277.59 157.96 277.59H98.29C97.4129 277.577 96.5761 277.219 95.9605 276.594C95.3449 275.969 94.9999 275.127 95 274.25Z" fill="#263238"/>
<path d="M168.863 262.08V266C168.862 266.329 168.926 266.654 169.052 266.958C169.177 267.262 169.361 267.538 169.593 267.77L172.773 270.94C173.054 271.22 173.396 271.429 173.773 271.55C174.427 272.958 175.468 274.15 176.775 274.986C178.083 275.822 179.602 276.268 181.153 276.27H182.343C183.413 276.27 184.473 276.059 185.461 275.649C186.449 275.24 187.347 274.639 188.103 273.882C188.859 273.125 189.458 272.227 189.867 271.238C190.275 270.249 190.485 269.19 190.483 268.12V258.79H173.003V259.55H171.333C171.005 259.554 170.681 259.623 170.379 259.752C170.077 259.881 169.804 260.068 169.574 260.303C169.345 260.538 169.164 260.816 169.042 261.121C168.92 261.426 168.86 261.752 168.863 262.08ZM170.863 262.08C170.863 261.947 170.916 261.82 171.01 261.726C171.104 261.633 171.231 261.58 171.363 261.58H173.003V268.15C173.003 268.24 173.003 268.33 173.003 268.42L171.003 266.42C170.911 266.322 170.858 266.194 170.853 266.06L170.863 262.08Z" fill="#8424DE"/>
<path d="M194.652 277.63H169.512C168.362 277.528 167.292 277 166.512 276.15H197.572C196.813 276.985 195.774 277.511 194.652 277.63Z" fill="#8424DE"/>
<path d="M456.399 106.64H326.469V384.39H456.399V106.64Z" fill="url(#paint0_linear_63_396)"/>
<path opacity="0.5" d="M456.399 106.64H326.469V384.39H456.399V106.64Z" fill="black"/>
<path opacity="0.3" d="M392.839 114.62V374.1L326.469 384.39V106.64L392.839 114.62Z" fill="black"/>
<path opacity="0.4" d="M392.839 114.62L326.469 106.64L392.839 289.05V114.62Z" fill="black"/>
<path opacity="0.4" d="M326.661 108.098L326.324 383.728L330.644 383.733L330.981 108.104L326.661 108.098Z" fill="black"/>
<path d="M322 102V384.39H326.5V106.64H455.9V384.39H460.4V102H322Z" fill="url(#paint1_linear_63_396)"/>
<path d="M417.34 83.03H367.23V100.97H417.34V83.03Z" fill="url(#paint2_linear_63_396)"/>
<path opacity="0.8" d="M417.34 83.03H367.23V100.97H417.34V83.03Z" fill="white"/>
<path d="M380.398 96.3099V87.6899H386.738V89.2199H382.198V91.0499H386.408V92.5299H382.198V94.7799H386.938V96.3099H380.398Z" fill="url(#paint3_linear_63_396)"/>
<path d="M390.45 92L387.85 87.74H390L391.51 90.52L393.08 87.74H395.16L392.53 91.86L395.34 96.36H393.19L391.5 93.36L389.81 96.36H387.68L390.45 92Z" fill="url(#paint4_linear_63_396)"/>
<path d="M396.262 87.6899H398.062V96.3099H396.262V87.6899Z" fill="url(#paint5_linear_63_396)"/>
<path d="M401.6 89.2199H399V87.6899H406V89.2199H403.4V96.3099H401.6V89.2199Z" fill="url(#paint6_linear_63_396)"/>
<path d="M363.367 171.82C359.717 175.39 356.797 179.82 361.887 185.23C361.887 185.23 364.797 193.51 353.827 186.28C343.827 179.72 345.227 174.28 345.227 174.28C351.227 173.1 356.287 162.36 358.587 156.18L363.367 171.82Z" fill="#FF8B7B"/>
<path d="M382.167 161C382.577 161.21 382.667 161.91 382.367 162.55C382.067 163.19 381.487 163.55 381.077 163.31C380.667 163.07 380.567 162.42 380.877 161.78C381.187 161.14 381.757 160.77 382.167 161Z" fill="#263238"/>
<path d="M377.527 168.22C377.527 168.22 379.197 169.68 380.817 169.22C380.359 166.917 380.211 164.562 380.377 162.22L377.527 168.22Z" fill="#A02724"/>
<path d="M364.309 143.66C365.471 142.697 366.811 141.973 368.253 141.528C369.696 141.084 371.211 140.927 372.714 141.068C374.216 141.21 375.676 141.645 377.01 142.351C378.344 143.056 379.526 144.018 380.489 145.18C386.599 152.18 382.169 164.42 377.199 170.64C375.936 172.277 374.25 173.539 372.322 174.288C370.395 175.036 368.299 175.245 366.262 174.889C364.225 174.534 362.324 173.629 360.763 172.272C359.203 170.916 358.043 169.158 357.409 167.19C355.409 161.14 357.679 156.57 360.889 148.45C361.598 146.586 362.776 144.936 364.309 143.66Z" fill="#FF8B7B"/>
<path d="M364.12 164.65C362.625 164.541 361.17 164.115 359.852 163.399C358.535 162.684 357.385 161.695 356.48 160.5C354.94 158.5 356.64 147.16 361.18 142.67C365.57 138.35 369.18 137.98 375.41 140.61C381.64 143.24 385.41 149.61 384.31 152.41C383.21 155.21 376.82 161.03 374.97 160.81C372.82 157.34 366.62 164.74 364.12 164.65Z" fill="#263238"/>
<path opacity="0.2" d="M364.12 164.65C362.625 164.541 361.17 164.115 359.852 163.399C358.535 162.684 357.385 161.695 356.48 160.5C354.94 158.5 356.64 147.16 361.18 142.67C365.57 138.35 369.18 137.98 375.41 140.61C381.64 143.24 385.41 149.61 384.31 152.41C383.21 155.21 376.82 161.03 374.97 160.81C372.82 157.34 366.62 164.74 364.12 164.65Z" fill="white"/>
<path d="M363.708 145.36C358.118 143.93 360.498 136.36 365.708 135.09C369.888 134.09 377.588 137.64 381.048 140.58C384.508 143.52 384.828 140.58 384.828 140.58C386.247 141.232 387.449 142.28 388.288 143.598C389.127 144.916 389.568 146.448 389.558 148.01C389.508 153.47 384.108 156.07 381.558 154.14C381.468 154.13 369.288 146.79 363.708 145.36Z" fill="#263238"/>
<path d="M377.297 157C378.717 159.43 376.618 162.9 374.718 164.54C372.608 166.36 369.778 166.1 369.438 163.21C369.189 161.003 369.794 158.785 371.128 157.01C372.788 154.83 375.867 154.55 377.297 157Z" fill="#FF8B7B"/>
<path d="M380.869 157.79C381.354 157.57 381.883 157.463 382.415 157.479C382.947 157.495 383.468 157.632 383.939 157.88C383.985 157.909 384.035 157.93 384.088 157.94C384.142 157.95 384.196 157.949 384.249 157.938C384.302 157.927 384.352 157.905 384.397 157.875C384.442 157.844 384.48 157.805 384.509 157.76C384.539 157.714 384.559 157.664 384.569 157.611C384.579 157.557 384.578 157.503 384.567 157.45C384.556 157.397 384.535 157.347 384.504 157.302C384.474 157.258 384.435 157.219 384.389 157.19C383.807 156.864 383.155 156.68 382.488 156.652C381.821 156.624 381.157 156.754 380.549 157.03C380.45 157.074 380.372 157.155 380.333 157.256C380.293 157.358 380.296 157.47 380.339 157.57C380.377 157.662 380.443 157.739 380.529 157.79C380.583 157.813 380.641 157.825 380.699 157.825C380.758 157.825 380.816 157.813 380.869 157.79Z" fill="#263238"/>
<path d="M369.789 143.77L369.339 143.54C369.904 142.455 370.199 141.251 370.2 140.028C370.202 138.805 369.909 137.6 369.348 136.514C368.786 135.428 367.972 134.493 366.973 133.787C365.974 133.082 364.821 132.626 363.609 132.46L363.679 131.96C364.969 132.141 366.196 132.628 367.259 133.381C368.321 134.133 369.188 135.13 369.786 136.286C370.385 137.443 370.697 138.726 370.698 140.028C370.698 141.33 370.387 142.613 369.789 143.77Z" fill="#263238"/>
<path d="M372.407 145.29L372.207 144.84C373.324 144.344 374.305 143.587 375.069 142.634C375.832 141.68 376.356 140.557 376.596 139.359C376.836 138.161 376.785 136.923 376.448 135.748C376.11 134.574 375.496 133.498 374.657 132.61L375.017 132.26C375.907 133.205 376.558 134.35 376.915 135.598C377.272 136.846 377.325 138.161 377.069 139.434C376.814 140.707 376.257 141.9 375.446 142.914C374.635 143.927 373.593 144.732 372.407 145.26V145.29Z" fill="#263238"/>
<path d="M363.138 139.62C362.369 139.119 361.484 138.823 360.568 138.762C359.652 138.701 358.736 138.876 357.908 139.27L357.688 138.83C358.592 138.387 359.597 138.188 360.602 138.253C361.607 138.318 362.577 138.645 363.418 139.2L363.138 139.62Z" fill="#263238"/>
<path d="M386.928 147.73L386.668 147.3C388.645 146.129 390.882 145.47 393.178 145.38V145.88C390.973 145.964 388.824 146.6 386.928 147.73Z" fill="#263238"/>
<path d="M383.73 144C383.313 144.002 382.907 143.861 382.58 143.6C382.205 143.269 381.884 142.881 381.63 142.45L381.58 142.36C381.09 141.62 376.74 135.12 372.02 134.66C371.194 134.592 370.364 134.717 369.595 135.026C368.826 135.335 368.14 135.819 367.59 136.44L367.23 136.09C367.831 135.414 368.582 134.887 369.422 134.552C370.262 134.217 371.169 134.083 372.07 134.16C377.02 134.65 381.5 141.32 381.99 142.08L382.05 142.17C382.276 142.545 382.56 142.883 382.89 143.17C383.059 143.3 383.254 143.389 383.462 143.43C383.671 143.472 383.885 143.465 384.09 143.41C384.268 143.372 384.436 143.299 384.583 143.194C384.731 143.089 384.856 142.955 384.95 142.8C385.14 142.325 385.14 141.795 384.95 141.32C384.687 140.722 384.278 140.199 383.76 139.8L384.1 139.43C384.68 139.888 385.136 140.482 385.43 141.16C385.676 141.763 385.676 142.437 385.43 143.04C385.307 143.255 385.14 143.442 384.941 143.588C384.741 143.734 384.513 143.837 384.27 143.89C384.096 143.949 383.914 143.986 383.73 144Z" fill="#263238"/>
<path d="M381.499 154.2C381.455 154.154 381.432 154.092 381.434 154.028C381.436 153.964 381.463 153.904 381.509 153.86C381.556 153.816 381.617 153.793 381.681 153.795C381.745 153.797 381.805 153.824 381.849 153.87C382.381 154.353 383.033 154.685 383.737 154.829C384.44 154.973 385.17 154.925 385.849 154.69C387.026 154.341 388.081 153.669 388.895 152.75C389.708 151.83 390.247 150.701 390.449 149.49C390.464 149.429 390.5 149.376 390.552 149.34C390.604 149.305 390.667 149.291 390.729 149.3C390.791 149.312 390.846 149.348 390.882 149.401C390.917 149.453 390.931 149.518 390.919 149.58C390.69 150.876 390.106 152.082 389.232 153.065C388.358 154.049 387.229 154.77 385.969 155.15C385.327 155.358 384.647 155.426 383.977 155.35C383.306 155.275 382.659 155.056 382.079 154.71C381.865 154.565 381.67 154.394 381.499 154.2Z" fill="#263238"/>
<path d="M359.17 243.61C363.27 246.87 368.77 248.61 371.89 252.81C373.48 254.95 380.03 258.37 382.58 259.6C382.893 259.748 383.234 259.824 383.58 259.824C383.926 259.824 384.268 259.748 384.58 259.6C386.07 258.94 388.91 257.69 390.11 257.2C390.175 257.172 390.233 257.129 390.279 257.076C390.325 257.022 390.358 256.959 390.376 256.891C390.395 256.823 390.397 256.751 390.384 256.682C390.371 256.612 390.342 256.547 390.3 256.49L388.3 253.81L383.15 254.17C383.64 251.68 384.46 248.62 381.64 248.44C379.7 248.31 377.86 248.38 375.72 247.03C362.99 239.03 353.57 219.82 350.72 205.03C350.02 201.44 349.5 197.68 347.5 194.61C345.5 191.54 341.5 189.43 338.12 190.92C328.52 195.27 350 236.31 359.17 243.61Z" fill="#FF8B7B"/>
<path d="M312.86 311.59C303.86 318.86 261.93 341.35 261.93 341.35L267.81 352.42C267.81 352.42 303.31 342.6 321.36 329.85L312.86 311.59Z" fill="#8424DE"/>
<path d="M321.05 329.9C323.332 326.242 325.244 322.366 326.76 318.33C328.437 313.855 329.797 309.267 330.83 304.6C330.98 303.94 331.12 303.26 331.27 302.6C331.32 302.34 331.37 302.08 331.43 301.81C332.669 295.714 333.447 289.533 333.76 283.32L335.07 272.43L337.88 248.92C326.06 243.99 316.34 239.08 316.34 239.08C316.34 239.08 309.34 246.51 308.88 256.91C308.3 271.28 310.75 308.02 306.25 316.29L321.05 329.9Z" fill="#8424DE"/>
<path d="M263.089 340.51L246.139 347.82C246.139 347.82 245.939 355.49 249.009 354.91C253.189 354.12 266.749 351.47 266.749 351.47C266.749 351.47 268.829 353.71 263.089 340.51Z" fill="#FF8B7B"/>
<path d="M244.6 359.9C244.4 359.033 244.28 358.149 244.24 357.26C244.235 357.218 244.244 357.176 244.265 357.139C244.287 357.103 244.32 357.075 244.36 357.06C244.397 357.045 244.438 357.042 244.477 357.051C244.517 357.06 244.552 357.08 244.58 357.11C244.87 357.44 247.4 360.33 247.09 361.46C247.06 361.566 247.004 361.662 246.927 361.741C246.85 361.819 246.755 361.877 246.65 361.91C246.483 361.964 246.307 361.98 246.133 361.955C245.96 361.931 245.795 361.868 245.65 361.77C245.098 361.283 244.728 360.624 244.6 359.9ZM244.68 357.83C244.84 359.71 245.27 361.04 245.82 361.45C245.919 361.519 246.034 361.562 246.155 361.576C246.275 361.59 246.397 361.574 246.51 361.53C246.551 361.52 246.589 361.499 246.619 361.469C246.649 361.439 246.67 361.401 246.68 361.36C246.87 360.73 245.67 359 244.68 357.83Z" fill="#8424DE"/>
<path d="M244.238 357.29C244.223 357.251 244.223 357.209 244.238 357.17C244.249 357.137 244.269 357.108 244.295 357.085C244.322 357.062 244.353 357.047 244.387 357.04C244.537 357.04 247.978 356.54 248.458 358.38L248.507 358.54C248.597 359.07 248.368 359.29 248.158 359.39C247.268 359.77 244.987 358.24 244.287 357.39L244.238 357.29ZM248.087 358.49C247.787 357.3 245.728 357.36 244.848 357.4C245.718 358.27 247.458 359.26 247.988 359.02C247.988 359.02 248.167 359.02 248.107 358.6L248.087 358.49Z" fill="#8424DE"/>
<path opacity="0.2" d="M256.051 343.6L259.321 352.96L266.441 351.35L260.811 341.55L256.051 343.6Z" fill="black"/>
<path d="M248.339 347.18C246.969 345.87 247.429 346.74 245.029 344.86C243.869 343.95 240.369 343.11 239.129 343.86C237.209 344.96 236.619 347.22 234.679 350.55C232.149 354.9 230.149 361.85 229.429 365.55C229.285 366.251 229.412 366.98 229.782 367.592C230.153 368.204 230.741 368.653 231.429 368.85L232.299 369.03C232.486 369.066 232.68 369.047 232.857 368.976C233.035 368.905 233.188 368.785 233.299 368.63C236.079 365.04 236.659 364.63 239.299 361.39C241.939 358.15 248.479 355.92 248.479 355.92L248.339 347.18Z" fill="#263238"/>
<path d="M268.801 353.82C268.801 353.87 263.801 355.03 263.801 355.03L258.301 340.64L262.301 338.64L268.801 353.82Z" fill="#8424DE"/>
<g opacity="0.7">
<path d="M268.801 353.82C268.801 353.87 263.801 355.03 263.801 355.03L258.301 340.64L262.301 338.64L268.801 353.82Z" fill="white"/>
</g>
<path d="M408.5 348L420 366.46C420 366.46 428 364 426.82 360.81C426.08 358.81 423.33 352.13 421.35 346.81C420.6 344.81 419.03 343.4 417.69 343.37C415.43 343.31 413 345 408.5 348Z" fill="#FF8B7B"/>
<path d="M433.999 361.88C433.195 362.264 432.358 362.575 431.499 362.81C431.457 362.826 431.411 362.826 431.369 362.812C431.327 362.797 431.292 362.768 431.269 362.73C431.246 362.696 431.234 362.656 431.234 362.615C431.234 362.574 431.246 362.534 431.269 362.5C431.529 362.15 433.799 359.05 434.969 359.11C435.078 359.114 435.184 359.147 435.277 359.205C435.37 359.263 435.447 359.344 435.499 359.44C435.59 359.588 435.645 359.756 435.661 359.929C435.676 360.103 435.652 360.278 435.589 360.44C435.239 361.088 434.678 361.596 433.999 361.88ZM431.999 362.25C433.799 361.69 434.999 360.98 435.279 360.36C435.327 360.247 435.346 360.123 435.334 360.001C435.321 359.879 435.278 359.761 435.209 359.66C435.19 359.623 435.161 359.591 435.126 359.568C435.091 359.546 435.05 359.532 435.009 359.53C434.319 359.48 432.919 361 431.999 362.25Z" fill="#8424DE"/>
<path d="M431.519 363.06C431.48 363.07 431.438 363.07 431.399 363.06C431.364 363.055 431.331 363.041 431.304 363.018C431.278 362.994 431.259 362.964 431.249 362.93C431.169 362.8 429.979 359.54 431.659 358.67L431.809 358.59C432.309 358.39 432.579 358.59 432.709 358.75C433.279 359.53 432.279 362.09 431.579 362.97L431.519 363.06ZM431.849 359.06C430.759 359.61 431.259 361.6 431.489 362.45C432.149 361.45 432.739 359.5 432.399 359.03C432.399 359.03 432.299 358.87 431.959 359.03L431.849 359.06Z" fill="#8424DE"/>
<path d="M418.75 366C418.83 367.52 420.15 369.56 420.51 372C420.68 373.17 421.63 375 422.74 375.29C424.47 375.72 426.14 375.41 429.11 374.54C432.99 373.4 442.8 367.86 445.28 366.08C445.737 365.746 446.055 365.255 446.171 364.701C446.287 364.147 446.194 363.57 445.91 363.08C445.76 362.84 445.62 362.65 445.5 362.49C445.409 362.369 445.286 362.275 445.145 362.218C445.004 362.162 444.85 362.145 444.7 362.17C441.09 362.73 440.55 362.63 437.17 363.06C433.79 363.49 427.33 360.6 427.33 360.6L418.75 366Z" fill="#263238"/>
<path opacity="0.2" d="M412.848 355.05L415.488 359.31L423.928 353.55L422.128 348.7L412.848 355.05Z" fill="black"/>
<path d="M339.378 243.5L312.078 257.27C312.078 257.27 313.928 264.37 316.548 268.71C326.128 284.62 336.888 277.07 345.158 282.94C363.468 295.94 376.938 302.59 380.778 307.05C383.778 310.54 414.238 357.22 414.238 357.22L423.238 351.22C423.238 351.22 409.328 309.51 398.378 295.12C387.428 280.73 339.378 243.5 339.378 243.5Z" fill="#8424DE"/>
<path opacity="0.2" d="M330.827 304.68C332.35 297.903 333.353 291.02 333.827 284.09C334.077 280.29 334.137 276.3 332.457 272.89C330.985 270.233 328.883 267.977 326.337 266.32C323.647 264.4 312.437 257.63 314.807 263.56C316.747 268.5 330.447 306.39 330.827 304.68Z" fill="black"/>
<path d="M339.378 243.5L312.078 257.27C312.078 257.27 313.928 264.37 316.548 268.71C326.128 284.62 336.888 277.07 345.158 282.94C363.468 295.94 376.938 302.59 380.778 307.05C383.778 310.54 414.238 357.22 414.238 357.22L423.238 351.22C423.238 351.22 409.328 309.51 398.378 295.12C387.428 280.73 339.378 243.5 339.378 243.5Z" fill="#8424DE"/>
<path d="M423.069 345.48L425.069 349.96L412.479 358.57L409.609 355.09L423.069 345.48Z" fill="#8424DE"/>
<path opacity="0.7" d="M423.069 345.48L425.069 349.96L412.479 358.57L409.609 355.09L423.069 345.48Z" fill="white"/>
<path d="M388.348 257.356C390.509 255.499 390.754 252.241 388.896 250.08C387.038 247.919 383.78 247.673 381.62 249.531C379.459 251.389 379.213 254.647 381.071 256.808C382.929 258.969 386.187 259.214 388.348 257.356Z" fill="#8424DE"/>
<path opacity="0.7" d="M385.371 248.27C384.355 248.194 383.34 248.421 382.454 248.921C381.567 249.422 380.849 250.174 380.39 251.083C379.93 251.991 379.751 253.016 379.874 254.026C379.996 255.037 380.416 255.989 381.079 256.761C381.743 257.534 382.62 258.092 383.601 258.366C384.581 258.64 385.621 258.617 386.589 258.3C387.556 257.983 388.408 257.386 389.037 256.585C389.666 255.784 390.043 254.815 390.121 253.8C390.173 253.125 390.091 252.446 389.88 251.803C389.669 251.159 389.334 250.564 388.893 250.05C388.451 249.536 387.913 249.115 387.309 248.809C386.705 248.504 386.046 248.321 385.371 248.27ZM385.141 255.42C384.786 255.422 384.439 255.319 384.144 255.123C383.848 254.928 383.617 254.649 383.48 254.322C383.343 253.995 383.306 253.635 383.374 253.287C383.442 252.939 383.612 252.619 383.862 252.368C384.112 252.117 384.43 251.945 384.778 251.875C385.125 251.805 385.486 251.84 385.814 251.975C386.141 252.111 386.421 252.34 386.618 252.635C386.816 252.929 386.921 253.276 386.921 253.63C386.922 253.865 386.877 254.097 386.788 254.314C386.699 254.531 386.568 254.729 386.403 254.895C386.238 255.061 386.041 255.193 385.824 255.284C385.608 255.374 385.375 255.42 385.141 255.42Z" fill="white"/>
<path d="M355.55 224.54C354.081 231.349 353.28 238.285 353.16 245.25L354.74 251.9L352.66 252.17L352.34 250.67L351.63 247.42L350.93 250.42L350.5 252.3C346.551 252.462 342.595 252.358 338.66 251.99C328.42 251.04 305.66 246.66 305.66 246.66C305.66 246.66 308.95 233.99 311.66 231.49C313.15 224.92 315.15 215.94 317.41 205.35C319.124 196.609 322.212 188.194 326.56 180.42C327.887 178.143 329.783 176.25 332.062 174.927C334.341 173.603 336.925 172.894 339.56 172.87C343.267 172.784 346.974 173.022 350.64 173.58C359.73 175.07 368.96 180.22 370.02 182.58C372.16 187.19 358.29 213.29 355.55 224.54Z" fill="#8424DE"/>
<path d="M352.34 250.67L350.93 250.44L351.63 247.42L352.34 250.67Z" fill="#8424DE"/>
<path opacity="0.8" d="M355.529 224.56C354.057 231.368 353.26 238.305 353.149 245.27L354.719 251.92L352.639 252.18L352.319 250.69L351.609 247.44L350.909 250.44L350.479 252.32C346.53 252.475 342.575 252.372 338.639 252.01C328.399 251.06 305.699 246.68 305.699 246.68C305.699 246.68 308.979 234.01 311.699 231.5C313.199 224.93 315.189 215.96 317.449 205.36C319.121 197.064 322.002 189.059 325.999 181.6C327.473 178.952 329.63 176.749 332.246 175.218C334.861 173.688 337.839 172.888 340.869 172.9C344.167 172.874 347.461 173.115 350.719 173.62C359.799 175.11 369.029 180.26 370.089 182.62C372.139 187.2 358.269 213.31 355.529 224.56Z" fill="white"/>
<path d="M341.801 172.89L345.751 170.37C346.678 169.774 347.791 169.536 348.881 169.7C351.431 170.07 356.531 170.55 360.681 172.61C364.471 174.49 363.331 177.74 363.331 177.74C363.331 177.74 356.111 174 341.801 172.89Z" fill="#8424DE"/>
<path d="M359.997 206.42L355.997 206.51V205.05C355.99 204.443 355.754 203.861 355.337 203.42C355.173 203.238 354.973 203.094 354.749 202.996C354.525 202.897 354.282 202.848 354.037 202.85L346.587 203.02C346.344 203.033 346.106 203.096 345.887 203.204C345.669 203.312 345.475 203.464 345.317 203.65C344.919 204.113 344.711 204.71 344.737 205.32V206.77L340.737 206.86V205.41C340.687 203.801 341.248 202.232 342.307 201.02C342.828 200.413 343.47 199.922 344.191 199.577C344.913 199.233 345.698 199.043 346.497 199.02L353.948 198.85C354.745 198.832 355.537 198.983 356.273 199.291C357.008 199.599 357.671 200.059 358.217 200.64C359.335 201.803 359.967 203.348 359.987 204.96L359.997 206.42Z" fill="#263238"/>
<g opacity="0.2">
<path d="M359.997 206.42L355.997 206.51V205.05C355.99 204.443 355.754 203.861 355.337 203.42C355.173 203.238 354.973 203.094 354.749 202.996C354.525 202.897 354.282 202.848 354.037 202.85L346.587 203.02C346.344 203.033 346.106 203.096 345.887 203.204C345.669 203.312 345.475 203.464 345.317 203.65C344.919 204.113 344.711 204.71 344.737 205.32V206.77L340.737 206.86V205.41C340.687 203.801 341.248 202.232 342.307 201.02C342.828 200.413 343.47 199.922 344.191 199.577C344.913 199.233 345.698 199.043 346.497 199.02L353.948 198.85C354.745 198.832 355.537 198.983 356.273 199.291C357.008 199.599 357.671 200.059 358.217 200.64C359.335 201.803 359.967 203.348 359.987 204.96L359.997 206.42Z" fill="white"/>
</g>
<path d="M324.298 207.25L322.848 242.37L330.318 242.19L326.638 207.19L324.298 207.25Z" fill="#263238"/>
<path d="M377.801 241.09L374.731 241.16L370.331 241.26L325.111 242.31L324.301 207.25L371.771 206.14L373.911 206.09L374.121 206.08L377.801 241.09Z" fill="#263238"/>
<path opacity="0.2" d="M377.801 241.09L374.731 241.16L370.331 241.26L325.111 242.31L324.301 207.25L371.771 206.14L373.911 206.09L374.121 206.08L377.801 241.09Z" fill="white"/>
<path opacity="0.2" d="M324.298 207.25L322.848 242.37L330.318 242.19L326.638 207.19L324.298 207.25Z" fill="white"/>
<path d="M326.5 207.203L325.5 207.22L326.082 242.295L327.081 242.279L326.5 207.203Z" fill="#263238"/>
<path d="M357.109 183.07C355.109 186.97 349.059 203.21 343.549 218.07C343.318 218.693 343.221 219.359 343.264 220.022C343.307 220.685 343.489 221.332 343.798 221.921C344.108 222.509 344.537 223.026 345.059 223.438C345.581 223.849 346.184 224.147 346.829 224.31L352.939 225.31C359.409 210.94 364.569 198.83 370.289 186.57C365.599 184 360.259 177 357.109 183.07Z" fill="#FF8B7B"/>
<path d="M352.759 225C355.239 239.7 356.179 253.07 358.149 265.71L351.669 265.98C351.419 261.22 347.929 252.85 346.039 244.52C345.359 241.52 343.869 238.62 342.779 234.09C341.969 230.72 344.379 226.15 347.649 224.99L352.759 225Z" fill="#FF8B7B"/>
<path d="M355.889 264.48C349.699 263.98 349.199 272.48 349.199 272.48L356.769 277.11L358.119 265.73L355.889 264.48Z" fill="#FF8B7B"/>
<path d="M356.77 277.14L349.2 272.52L345.48 278.43L350.13 282.52L356.77 277.14Z" fill="#FF8B7B"/>
<path d="M354.717 221.38L345.457 212.73C345.457 212.73 338.327 227.73 344.207 236.52C349.207 244.07 352.207 229.71 352.207 229.71L353.387 225.12L354.717 221.38Z" fill="#FF8B7B"/>
<path opacity="0.5" d="M353.427 190.31C353.478 189.51 353.225 188.72 352.717 188.1C352.593 187.987 352.448 187.901 352.291 187.845C352.133 187.79 351.966 187.766 351.799 187.777C351.632 187.787 351.469 187.831 351.319 187.905C351.169 187.979 351.036 188.083 350.927 188.21L351.187 187.51L343.837 201.09C343.307 202.09 342.767 203.26 343.307 204.24C343.627 204.85 343.217 206.31 343.707 206.8C345.177 208.26 340.267 211.48 341.327 224.59C349.317 212.52 353.877 199.76 353.427 190.31Z" fill="#263238"/>
<path d="M362.368 179.7C359.238 180.19 356.478 181.99 354.038 184.01C352.979 184.799 352.077 185.779 351.378 186.9C350.636 188.464 350.238 190.169 350.208 191.9C349.928 194.9 347.938 202.46 347.668 205.43C352.078 208.076 356.929 209.905 361.988 210.83C362.606 211.017 363.271 210.96 363.848 210.67C364.848 210.02 368.848 196.8 370.318 193.79C373.528 187.34 370.748 178.38 362.368 179.7Z" fill="#8424DE"/>
<path opacity="0.8" d="M362.368 179.7C359.238 180.19 356.478 181.99 354.038 184.01C352.979 184.799 352.077 185.779 351.378 186.9C350.636 188.464 350.238 190.169 350.208 191.9C349.928 194.9 347.938 202.46 347.668 205.43C352.078 208.076 356.929 209.905 361.988 210.83C362.606 211.017 363.271 210.96 363.848 210.67C364.848 210.02 368.848 196.8 370.318 193.79C373.528 187.34 370.748 178.38 362.368 179.7Z" fill="white"/>
<defs>
<linearGradient id="paint0_linear_63_396" x1="436.677" y1="355.871" x2="275.385" y2="275.791" gradientUnits="userSpaceOnUse">
<stop stop-color="#8424DE"/>
<stop offset="1" stop-color="#83D9FF"/>
</linearGradient>
<linearGradient id="paint1_linear_63_396" x1="439.393" y1="355.395" x2="270.841" y2="267.719" gradientUnits="userSpaceOnUse">
<stop stop-color="#8424DE"/>
<stop offset="1" stop-color="#83D9FF"/>
</linearGradient>
<linearGradient id="paint2_linear_63_396" x1="409.734" y1="99.128" x2="401.813" y2="75.6446" gradientUnits="userSpaceOnUse">
<stop stop-color="#8424DE"/>
<stop offset="1" stop-color="#83D9FF"/>
</linearGradient>
<linearGradient id="paint3_linear_63_396" x1="385.946" y1="95.4248" x2="379.807" y2="90.4813" gradientUnits="userSpaceOnUse">
<stop stop-color="#8424DE"/>
<stop offset="1" stop-color="#83D9FF"/>
</linearGradient>
<linearGradient id="paint4_linear_63_396" x1="394.177" y1="95.4749" x2="387.904" y2="89.5586" gradientUnits="userSpaceOnUse">
<stop stop-color="#8424DE"/>
<stop offset="1" stop-color="#83D9FF"/>
</linearGradient>
<linearGradient id="paint5_linear_63_396" x1="397.788" y1="95.4248" x2="395.134" y2="94.8365" gradientUnits="userSpaceOnUse">
<stop stop-color="#8424DE"/>
<stop offset="1" stop-color="#83D9FF"/>
</linearGradient>
<linearGradient id="paint6_linear_63_396" x1="404.938" y1="95.4248" x2="398.723" y2="90.0683" gradientUnits="userSpaceOnUse">
<stop stop-color="#8424DE"/>
<stop offset="1" stop-color="#83D9FF"/>
</linearGradient>
</defs>
</svg>
