<svg width="500" height="500" viewBox="0 0 500 500" fill="none" xmlns="http://www.w3.org/2000/svg">
<path d="M500 378.4H0V378.65H500V378.4Z" fill="#EBEBEB"/>
<path d="M449.901 394.49H416.781V394.74H449.901V394.49Z" fill="#EBEBEB"/>
<path d="M331.221 397.21H322.531V397.46H331.221V397.21Z" fill="#EBEBEB"/>
<path d="M415.78 385.21H396.59V385.46H415.78V385.21Z" fill="#EBEBEB"/>
<path d="M95.6509 386.89H52.4609V387.14H95.6509V386.89Z" fill="#EBEBEB"/>
<path d="M110.893 386.89H104.562V387.14H110.893V386.89Z" fill="#EBEBEB"/>
<path d="M225.149 391.11H131.469V391.36H225.149V391.11Z" fill="#EBEBEB"/>
<path d="M237.001 333.8H43.9109C42.3983 333.797 40.9485 333.195 39.8798 332.124C38.8112 331.053 38.2109 329.603 38.2109 328.09V56.66C38.2241 55.156 38.8301 53.718 39.8974 52.6582C40.9646 51.5985 42.4069 51.0026 43.9109 51H237.001C238.515 51 239.968 51.6016 241.039 52.6724C242.109 53.7433 242.711 55.1956 242.711 56.71V328.09C242.711 329.604 242.109 331.057 241.039 332.128C239.968 333.198 238.515 333.8 237.001 333.8ZM43.9109 51.2C42.4646 51.2026 41.0784 51.7791 40.0566 52.8027C39.0348 53.8264 38.4609 55.2136 38.4609 56.66V328.09C38.4609 329.536 39.0348 330.924 40.0566 331.947C41.0784 332.971 42.4646 333.547 43.9109 333.55H237.001C238.448 333.547 239.835 332.971 240.859 331.948C241.882 330.924 242.458 329.537 242.461 328.09V56.66C242.458 55.2127 241.882 53.8255 240.859 52.8021C239.835 51.7787 238.448 51.2026 237.001 51.2H43.9109Z" fill="#EBEBEB"/>
<path d="M453.31 333.8H260.21C258.696 333.797 257.246 333.195 256.175 332.125C255.105 331.054 254.503 329.604 254.5 328.09V56.66C254.516 55.1551 255.124 53.7171 256.193 52.6576C257.262 51.5981 258.705 51.0025 260.21 51H453.31C454.812 51.0052 456.252 51.6022 457.317 52.6617C458.382 53.7212 458.987 55.1578 459 56.66V328.09C459 329.601 458.401 331.05 457.335 332.121C456.268 333.191 454.821 333.795 453.31 333.8ZM260.21 51.2C258.763 51.2026 257.375 51.7787 256.352 52.8021C255.329 53.8255 254.753 55.2127 254.75 56.66V328.09C254.753 329.537 255.329 330.924 256.352 331.948C257.375 332.971 258.763 333.547 260.21 333.55H453.31C454.757 333.547 456.145 332.971 457.168 331.948C458.191 330.924 458.767 329.537 458.77 328.09V56.66C458.767 55.2127 458.191 53.8255 457.168 52.8021C456.145 51.7787 454.757 51.2026 453.31 51.2H260.21Z" fill="#EBEBEB"/>
<path d="M210.633 103.71H57.3828V230.03H210.633V103.71Z" fill="#EBEBEB"/>
<path d="M87.5892 116.09H67.6992V135.98H87.5892V116.09Z" fill="#F5F5F5"/>
<path d="M202.128 167.26H182.238V187.15H202.128V167.26Z" fill="#F5F5F5"/>
<path d="M112.218 126.57H92.3281V146.46H112.218V126.57Z" fill="#F5F5F5"/>
<path d="M179.702 173.52H159.812V193.41H179.702V173.52Z" fill="#F5F5F5"/>
<path d="M102.271 173.98H73.6406V212.02H102.271V173.98Z" fill="#F5F5F5"/>
<path d="M134.958 174.27H106.328V212.31H134.958V174.27Z" fill="#F5F5F5"/>
<path d="M192.181 117.5H163.551V155.54H192.181V117.5Z" fill="#F5F5F5"/>
<path d="M449.087 76.46H347.367V289.73H449.087V76.46Z" fill="#EBEBEB"/>
<path d="M451.44 73.6799H345.02V83.7199H451.44V73.6799Z" fill="#E0E0E0"/>
<path d="M451.44 87.83H345.02V92.85H451.44V87.83Z" fill="#E0E0E0"/>
<path d="M451.44 95.28H345.02V100.3H451.44V95.28Z" fill="#E0E0E0"/>
<path d="M451.44 102.73H345.02V107.75H451.44V102.73Z" fill="#E0E0E0"/>
<path d="M451.44 110.18H345.02V115.2H451.44V110.18Z" fill="#E0E0E0"/>
<path d="M451.44 117.62H345.02V122.64H451.44V117.62Z" fill="#E0E0E0"/>
<path d="M451.44 125.07H345.02V130.09H451.44V125.07Z" fill="#E0E0E0"/>
<path d="M451.44 132.52H345.02V137.54H451.44V132.52Z" fill="#E0E0E0"/>
<path d="M451.44 139.97H345.02V144.99H451.44V139.97Z" fill="#E0E0E0"/>
<path d="M451.44 147.42H345.02V152.44H451.44V147.42Z" fill="#E0E0E0"/>
<path d="M451.44 154.86H345.02V159.88H451.44V154.86Z" fill="#E0E0E0"/>
<path d="M451.44 162.31H345.02V167.33H451.44V162.31Z" fill="#E0E0E0"/>
<path d="M451.44 169.76H345.02V174.78H451.44V169.76Z" fill="#E0E0E0"/>
<path d="M451.44 177.21H345.02V182.23H451.44V177.21Z" fill="#E0E0E0"/>
<path d="M451.44 184.66H345.02V189.68H451.44V184.66Z" fill="#E0E0E0"/>
<path d="M451.44 192.11H345.02V197.13H451.44V192.11Z" fill="#E0E0E0"/>
<path d="M451.44 199.55H345.02V204.57H451.44V199.55Z" fill="#E0E0E0"/>
<path d="M451.44 207H345.02V212.02H451.44V207Z" fill="#E0E0E0"/>
<path d="M451.44 214.45H345.02V219.47H451.44V214.45Z" fill="#E0E0E0"/>
<path d="M451.44 221.9H345.02V226.92H451.44V221.9Z" fill="#E0E0E0"/>
<path d="M451.44 229.35H345.02V234.37H451.44V229.35Z" fill="#E0E0E0"/>
<path d="M451.44 236.79H345.02V241.81H451.44V236.79Z" fill="#E0E0E0"/>
<path d="M451.44 244.24H345.02V249.26H451.44V244.24Z" fill="#E0E0E0"/>
<path d="M451.44 251.69H345.02V256.71H451.44V251.69Z" fill="#E0E0E0"/>
<path d="M451.44 259.14H345.02V264.16H451.44V259.14Z" fill="#E0E0E0"/>
<path d="M451.44 266.59H345.02V271.61H451.44V266.59Z" fill="#E0E0E0"/>
<path d="M451.44 274.04H345.02V279.06H451.44V274.04Z" fill="#E0E0E0"/>
<path d="M451.44 281.48H345.02V286.5H451.44V281.48Z" fill="#E0E0E0"/>
<path d="M72.7709 346.28C72.6209 345.28 69.1209 321.11 76.1309 312.77C76.8343 311.886 77.7265 311.17 78.7421 310.675C79.7578 310.181 80.8712 309.919 82.0009 309.91C96.1509 309.57 98.0909 320.91 98.1109 321.06L96.4409 321.32C96.3709 320.91 94.7009 311.32 82.0409 311.59C81.1582 311.604 80.2899 311.816 79.4992 312.208C78.7086 312.601 78.0156 313.165 77.4709 313.86C70.9509 321.62 74.4709 345.79 74.4709 346.03L72.7709 346.28Z" fill="#EBEBEB"/>
<path d="M71.9108 345.18L70.2308 345.13C70.2308 344.91 70.7908 322.88 59.9308 318.33C49.3008 313.87 44.5108 323.03 44.3108 323.43L42.8008 322.67C42.8608 322.56 48.4708 311.67 60.5908 316.77C72.5108 321.77 71.9408 344.23 71.9108 345.18Z" fill="#EBEBEB"/>
<path d="M72.0019 346.91C72.0019 346.56 71.9019 311.72 65.1119 301.53C58.5919 291.75 48.1119 296.35 47.6219 296.53L46.9219 294.99C47.0519 294.93 59.1919 289.57 66.5119 300.57C73.5919 311.18 73.6919 345.43 73.6919 346.88L72.0019 346.91Z" fill="#EBEBEB"/>
<path d="M84.0009 310.74C84.0009 310.74 77.8008 313 79.6308 318.4C81.4608 323.8 101.001 332.63 101.001 332.63C101.001 332.63 109.181 325.13 101.671 312.93C94.1608 300.73 84.1409 306.89 84.0009 310.74Z" fill="#E0E0E0"/>
<path d="M64.7606 299.7C64.7606 299.7 69.1506 299.23 68.7606 296.55C68.3706 293.87 51.7406 287 41.8906 298.13C41.8906 298.13 48.2006 308.96 57.3206 309.13C66.4406 309.3 64.7606 299.7 64.7606 299.7Z" fill="#E0E0E0"/>
<path d="M60.2608 317.55C60.2608 317.55 63.2608 315.1 60.0208 313.91C56.7808 312.72 40.7208 313.06 40.5508 328.91C40.5508 328.91 59.2308 332.01 61.5508 325.96C63.8708 319.91 60.2608 317.55 60.2608 317.55Z" fill="#E0E0E0"/>
<path d="M87.2975 378.64H58.3175L55.1875 346.91H90.4175L87.2975 378.64Z" fill="#EBEBEB"/>
<path d="M91.9684 343.41H53.6484V350.41H91.9684V343.41Z" fill="#E0E0E0"/>
<path d="M434.198 349.91C434.198 349.91 428.548 337.58 434.998 325.43C441.448 313.28 443.328 310.43 439.208 307.93C435.088 305.43 433.208 317.65 433.208 317.65C433.208 317.65 429.738 309.25 432.608 300.46C435.478 291.67 437.268 277.35 433.348 275.82C429.428 274.29 432.608 293.68 429.208 300.29C427.48 295.648 426.364 290.801 425.888 285.87C425.428 278.81 426.158 267.53 423.068 264.64C419.978 261.75 417.998 263.75 421.068 279.33C422.886 288.642 423.89 298.094 424.068 307.58C424.068 307.58 417.368 287.14 412.868 286.58C408.368 286.02 408.368 292.58 412.228 298.35C416.088 304.12 423.498 314.35 424.718 319.67C424.718 319.67 417.358 304.28 410.718 309C404.078 313.72 416.488 323 421.998 326.36C427.508 329.72 431.348 350.76 431.348 350.76L434.198 349.91Z" fill="#E0E0E0"/>
<path d="M429.74 355C429.74 355 435.24 342.59 428.64 330.54C422.04 318.49 420.13 315.65 424.22 313.1C428.31 310.55 430.34 322.73 430.34 322.73C430.34 322.73 433.7 314.28 430.73 305.54C427.76 296.8 425.8 282.54 429.73 280.9C433.66 279.26 430.73 298.75 434.16 305.31C435.833 300.644 436.891 295.779 437.31 290.84C437.69 283.78 436.83 272.52 439.88 269.58C442.93 266.64 444.93 268.58 442.09 284.24C440.376 293.574 439.48 303.04 439.41 312.53C439.41 312.53 445.87 291.99 450.36 291.33C454.85 290.67 454.93 297.28 451.15 303.08C447.37 308.88 440.06 319.27 438.91 324.58C438.91 324.58 446.08 309.09 452.75 313.71C459.42 318.33 447.16 327.8 441.68 331.24C436.2 334.68 432.63 355.77 432.63 355.77L429.74 355Z" fill="#EBEBEB"/>
<path d="M455.112 346.12H409.672L413.342 378.64H451.432L455.112 346.12Z" fill="#EBEBEB"/>
<path d="M334.898 345.88L331.898 345.45C332.438 341.71 335.558 334.64 343.558 334.64C353.038 334.64 357.748 340.11 358.228 345.53L355.228 345.79C354.868 341.73 351.128 337.64 343.548 337.64C336.208 337.64 334.998 345.54 334.898 345.88Z" fill="#E0E0E0"/>
<path d="M369.997 343.24H321.267C318.6 343.24 316.438 345.402 316.438 348.07V373.27C316.438 375.938 318.6 378.1 321.267 378.1H369.997C372.665 378.1 374.827 375.938 374.827 373.27V348.07C374.827 345.402 372.665 343.24 369.997 343.24Z" fill="#EBEBEB"/>
<path d="M358.26 378.64C317 378.64 315 350.33 315 350L316.68 346.72C316.74 347.77 319.99 375.6 358.31 375.6C374.07 375.6 387.69 375.6 389.07 372.6C390.28 369.94 384.36 363.14 374.89 352.23V348.05C386.96 361.95 393.81 369.43 391.8 373.84C389.65 378.45 380.53 378.64 358.26 378.64Z" fill="#E0E0E0"/>
<path d="M249.999 423.56C357.082 423.56 443.889 418.492 443.889 412.24C443.889 405.988 357.082 400.92 249.999 400.92C142.917 400.92 56.1094 405.988 56.1094 412.24C56.1094 418.492 142.917 423.56 249.999 423.56Z" fill="#F5F5F5"/>
<path d="M332.72 88.08C334.046 88.08 335.318 88.6068 336.255 89.5445C337.193 90.4821 337.72 91.7539 337.72 93.08V256.31C337.72 257.636 337.193 258.908 336.255 259.846C335.318 260.783 334.046 261.31 332.72 261.31H113.55C112.224 261.31 110.952 260.783 110.014 259.846C109.077 258.908 108.55 257.636 108.55 256.31V93C108.55 91.6739 109.077 90.4021 110.014 89.4645C110.952 88.5268 112.224 88 113.55 88H332.72M332.72 86.75H113.55C112.731 86.75 111.92 86.9119 111.164 87.2265C110.408 87.5411 109.722 88.0021 109.145 88.583C108.567 89.1639 108.111 89.8532 107.801 90.6113C107.491 91.3693 107.335 92.1811 107.34 93V256.31C107.34 257.957 107.994 259.537 109.159 260.701C110.323 261.866 111.903 262.52 113.55 262.52H332.72C334.367 262.52 335.947 261.866 337.111 260.701C338.276 259.537 338.93 257.957 338.93 256.31V93C338.93 91.353 338.276 89.7735 337.111 88.6089C335.947 87.4443 334.367 86.79 332.72 86.79V86.75Z" fill="#8424DE"/>
<path opacity="0.7" d="M332.72 86.83H113.55C110.12 86.83 107.34 89.6103 107.34 93.04V256.31C107.34 259.74 110.12 262.52 113.55 262.52H332.72C336.15 262.52 338.93 259.74 338.93 256.31V93.04C338.93 89.6103 336.15 86.83 332.72 86.83Z" fill="white"/>
<path d="M313.089 105.05H310.219V107.44H313.089V105.05Z" fill="#8424DE"/>
<path d="M313.079 239H310.219V234.3H313.079V239ZM313.079 229.6H310.219V224.9H313.079V229.6ZM313.079 220.21H310.219V215.51H313.079V220.21ZM313.079 210.81H310.219V206.12H313.079V210.81ZM313.079 201.42H310.219V196.72H313.079V201.42ZM313.079 192.02H310.219V187.33H313.079V192.02ZM313.079 182.63H310.219V177.93H313.079V182.63ZM313.079 173.24H310.219V168.54H313.079V173.24ZM313.079 163.84H310.219V159.14H313.079V163.84ZM313.079 154.45H310.219V149.75H313.079V154.45ZM313.079 145.05H310.219V140.36H313.079V145.05ZM313.079 135.66H310.219V130.96H313.079V135.66ZM313.079 126.26H310.219V121.57H313.079V126.26ZM313.079 116.87H310.219V112.17H313.079V116.87Z" fill="#8424DE"/>
<path d="M313.089 243.65H310.219V246.04H313.089V243.65Z" fill="#8424DE"/>
<path d="M139.737 239H136.867V234.3H139.737V239Z" fill="#8424DE"/>
<path d="M139.737 243.65H136.867V246.04H139.737V243.65Z" fill="#8424DE"/>
<path d="M174.409 239H171.539V234.3H174.409V239ZM174.409 229.6H171.539V224.9H174.409V229.6ZM174.409 220.21H171.539V215.51H174.409V220.21ZM174.409 210.81H171.539V206.12H174.409V210.81Z" fill="#8424DE"/>
<path d="M174.409 243.65H171.539V246.04H174.409V243.65Z" fill="#8424DE"/>
<path d="M209.081 239H206.211V234.3H209.081V239ZM209.081 229.6H206.211V224.9H209.081V229.6ZM209.081 220.21H206.211V215.51H209.081V220.21ZM209.081 210.81H206.211V206.12H209.081V210.81ZM209.081 201.42H206.211V196.72H209.081V201.42Z" fill="#8424DE"/>
<path d="M209.081 243.65H206.211V246.04H209.081V243.65Z" fill="#8424DE"/>
<path d="M243.753 239H240.883V234.3H243.753V239ZM243.753 229.6H240.883V224.9H243.753V229.6ZM243.753 220.21H240.883V215.51H243.753V220.21ZM243.753 210.81H240.883V206.12H243.753V210.81ZM243.753 201.42H240.883V196.72H243.753V201.42ZM243.753 192.02H240.883V187.33H243.753V192.02ZM243.753 182.63H240.883V177.93H243.753V182.63ZM243.753 173.24H240.883V168.54H243.753V173.24Z" fill="#8424DE"/>
<path d="M243.753 243.65H240.883V246.04H243.753V243.65Z" fill="#8424DE"/>
<path d="M278.421 239H275.551V234.3H278.421V239ZM278.421 229.6H275.551V224.9H278.421V229.6ZM278.421 220.21H275.551V215.51H278.421V220.21ZM278.421 210.81H275.551V206.12H278.421V210.81ZM278.421 201.42H275.551V196.72H278.421V201.42ZM278.421 192.02H275.551V187.33H278.421V192.02ZM278.421 182.63H275.551V177.93H278.421V182.63ZM278.421 173.24H275.551V168.54H278.421V173.24ZM278.421 163.84H275.551V159.14H278.421V163.84ZM278.421 154.45H275.551V149.75H278.421V154.45Z" fill="#8424DE"/>
<path d="M278.421 243.65H275.551V246.04H278.421V243.65Z" fill="#8424DE"/>
<g opacity="0.7">
<path d="M313.089 105.05H310.219V107.44H313.089V105.05Z" fill="white"/>
<path d="M313.079 239H310.219V234.3H313.079V239ZM313.079 229.6H310.219V224.9H313.079V229.6ZM313.079 220.21H310.219V215.51H313.079V220.21ZM313.079 210.81H310.219V206.12H313.079V210.81ZM313.079 201.42H310.219V196.72H313.079V201.42ZM313.079 192.02H310.219V187.33H313.079V192.02ZM313.079 182.63H310.219V177.93H313.079V182.63ZM313.079 173.24H310.219V168.54H313.079V173.24ZM313.079 163.84H310.219V159.14H313.079V163.84ZM313.079 154.45H310.219V149.75H313.079V154.45ZM313.079 145.05H310.219V140.36H313.079V145.05ZM313.079 135.66H310.219V130.96H313.079V135.66ZM313.079 126.26H310.219V121.57H313.079V126.26ZM313.079 116.87H310.219V112.17H313.079V116.87Z" fill="white"/>
<path d="M313.089 243.65H310.219V246.04H313.089V243.65Z" fill="white"/>
<path d="M139.737 239H136.867V234.3H139.737V239Z" fill="white"/>
<path d="M139.737 243.65H136.867V246.04H139.737V243.65Z" fill="white"/>
<path d="M174.409 239H171.539V234.3H174.409V239ZM174.409 229.6H171.539V224.9H174.409V229.6ZM174.409 220.21H171.539V215.51H174.409V220.21ZM174.409 210.81H171.539V206.12H174.409V210.81Z" fill="white"/>
<path d="M174.409 243.65H171.539V246.04H174.409V243.65Z" fill="white"/>
<path d="M209.077 239H206.207V234.3H209.077V239ZM209.077 229.6H206.207V224.9H209.077V229.6ZM209.077 220.21H206.207V215.51H209.077V220.21ZM209.077 210.81H206.207V206.12H209.077V210.81ZM209.077 201.42H206.207V196.72H209.077V201.42Z" fill="white"/>
<path d="M209.077 243.65H206.207V246.04H209.077V243.65Z" fill="white"/>
<path d="M243.745 239H240.875V234.3H243.745V239ZM243.745 229.6H240.875V224.9H243.745V229.6ZM243.745 220.21H240.875V215.51H243.745V220.21ZM243.745 210.81H240.875V206.12H243.745V210.81ZM243.745 201.42H240.875V196.72H243.745V201.42ZM243.745 192.02H240.875V187.33H243.745V192.02ZM243.745 182.63H240.875V177.93H243.745V182.63ZM243.745 173.24H240.875V168.54H243.745V173.24Z" fill="white"/>
<path d="M243.745 243.65H240.875V246.04H243.745V243.65Z" fill="white"/>
<path d="M278.417 239H275.547V234.3H278.417V239ZM278.417 229.6H275.547V224.9H278.417V229.6ZM278.417 220.21H275.547V215.51H278.417V220.21ZM278.417 210.81H275.547V206.12H278.417V210.81ZM278.417 201.42H275.547V196.72H278.417V201.42ZM278.417 192.02H275.547V187.33H278.417V192.02ZM278.417 182.63H275.547V177.93H278.417V182.63ZM278.417 173.24H275.547V168.54H278.417V173.24ZM278.417 163.84H275.547V159.14H278.417V163.84ZM278.417 154.45H275.547V149.75H278.417V154.45Z" fill="white"/>
<path d="M278.417 243.65H275.547V246.04H278.417V243.65Z" fill="white"/>
</g>
<path d="M311.652 100.25C310.85 100.25 310.062 100.451 309.359 100.835C308.656 101.219 308.06 101.773 307.626 102.446C307.192 103.12 306.934 103.892 306.876 104.691C306.818 105.49 306.96 106.291 307.292 107.02L278.682 137.28C277.956 136.997 277.173 136.895 276.399 136.983C275.626 137.071 274.885 137.347 274.243 137.787C273.6 138.226 273.075 138.816 272.712 139.505C272.349 140.194 272.16 140.961 272.162 141.74C272.151 141.9 272.151 142.06 272.162 142.22L245.242 156.64C244.401 155.933 243.34 155.54 242.242 155.53C240.972 155.533 239.755 156.038 238.857 156.936C237.96 157.834 237.454 159.05 237.452 160.32C237.46 160.771 237.531 161.218 237.662 161.65L209.872 183.79C209.166 183.383 208.366 183.166 207.552 183.16C206.383 183.164 205.255 183.595 204.382 184.372C203.509 185.15 202.951 186.219 202.812 187.38L176.622 194.56C176.015 193.766 175.174 193.182 174.217 192.892C173.261 192.602 172.237 192.619 171.291 192.942C170.346 193.264 169.525 193.876 168.945 194.69C168.366 195.505 168.057 196.481 168.062 197.48C168.065 197.931 168.136 198.379 168.272 198.81L140.482 221C139.776 220.592 138.977 220.374 138.162 220.37C137.211 220.368 136.282 220.648 135.491 221.175C134.7 221.701 134.083 222.451 133.719 223.328C133.354 224.206 133.258 225.172 133.443 226.104C133.628 227.036 134.086 227.892 134.757 228.564C135.429 229.236 136.286 229.693 137.218 229.878C138.15 230.063 139.116 229.967 139.993 229.603C140.871 229.238 141.62 228.621 142.147 227.83C142.673 227.04 142.954 226.11 142.952 225.16C142.943 224.709 142.872 224.262 142.742 223.83L170.542 201.69C171.247 202.098 172.047 202.316 172.862 202.32C174.027 202.314 175.151 201.883 176.021 201.108C176.892 200.333 177.45 199.267 177.592 198.11L203.782 190.92C204.387 191.718 205.229 192.306 206.187 192.599C207.145 192.892 208.172 192.875 209.12 192.552C210.069 192.229 210.891 191.615 211.471 190.798C212.051 189.981 212.359 189.002 212.352 188C212.343 187.549 212.272 187.102 212.142 186.67L239.932 164.53C240.637 164.937 241.437 165.154 242.252 165.16C243.523 165.16 244.742 164.656 245.642 163.758C246.542 162.86 247.049 161.641 247.052 160.37C247.052 160.2 247.052 160.05 247.002 159.88L273.922 145.47C274.752 146.162 275.794 146.551 276.875 146.574C277.956 146.596 279.012 146.251 279.871 145.594C280.73 144.937 281.34 144.008 281.602 142.959C281.864 141.91 281.761 140.803 281.312 139.82L309.932 109.55C310.478 109.771 311.062 109.886 311.652 109.89C312.885 109.834 314.05 109.304 314.903 108.411C315.756 107.518 316.233 106.33 316.233 105.095C316.233 103.86 315.756 102.672 314.903 101.779C314.05 100.886 312.885 100.356 311.652 100.3V100.25Z" fill="#8424DE"/>
<path d="M201.848 177.79C201.581 177.789 201.319 177.864 201.094 178.008C200.869 178.152 200.69 178.357 200.578 178.6H172.218C171.722 178.6 171.247 178.403 170.896 178.052C170.545 177.702 170.348 177.226 170.348 176.73V147H169.148V176.75C169.151 177.562 169.476 178.341 170.051 178.914C170.627 179.488 171.406 179.81 172.218 179.81H200.578C200.686 180.036 200.852 180.229 201.059 180.37C201.266 180.51 201.508 180.592 201.757 180.607C202.007 180.623 202.257 180.571 202.48 180.457C202.703 180.343 202.891 180.172 203.025 179.96C203.159 179.749 203.234 179.506 203.243 179.256C203.251 179.005 203.192 178.758 203.072 178.538C202.951 178.318 202.774 178.135 202.559 178.007C202.344 177.879 202.099 177.811 201.848 177.81V177.79Z" fill="#8424DE"/>
<path d="M186.392 138.71H153.102C151.671 138.71 150.512 139.87 150.512 141.3V150.71C150.512 152.14 151.671 153.3 153.102 153.3H186.392C187.822 153.3 188.982 152.14 188.982 150.71V141.3C188.982 139.87 187.822 138.71 186.392 138.71Z" fill="#8424DE"/>
<g opacity="0.4">
<path d="M201.852 177.79C201.585 177.789 201.323 177.864 201.098 178.008C200.873 178.152 200.694 178.357 200.582 178.6H172.222C171.726 178.6 171.251 178.403 170.9 178.052C170.549 177.702 170.352 177.226 170.352 176.73V147H169.152V176.75C169.155 177.562 169.48 178.341 170.055 178.914C170.631 179.488 171.41 179.81 172.222 179.81H200.582C200.69 180.036 200.856 180.229 201.063 180.37C201.27 180.51 201.511 180.592 201.761 180.607C202.011 180.623 202.261 180.571 202.484 180.457C202.707 180.343 202.895 180.172 203.029 179.96C203.163 179.749 203.238 179.506 203.247 179.256C203.255 179.005 203.196 178.758 203.075 178.538C202.955 178.318 202.778 178.135 202.563 178.007C202.348 177.879 202.103 177.811 201.852 177.81V177.79Z" fill="white"/>
<path d="M186.392 138.71H153.102C151.671 138.71 150.512 139.87 150.512 141.3V150.71C150.512 152.14 151.671 153.3 153.102 153.3H186.392C187.822 153.3 188.982 152.14 188.982 150.71V141.3C188.982 139.87 187.822 138.71 186.392 138.71Z" fill="white"/>
</g>
<path d="M242.849 147.57V104.7H241.659V147.57C241.368 147.705 241.132 147.936 240.989 148.224C240.847 148.512 240.808 148.84 240.877 149.153C240.946 149.466 241.121 149.747 241.371 149.948C241.621 150.149 241.933 150.258 242.254 150.258C242.575 150.258 242.886 150.149 243.136 149.948C243.387 149.747 243.561 149.466 243.63 149.153C243.7 148.84 243.66 148.512 243.518 148.224C243.376 147.936 243.14 147.705 242.849 147.57Z" fill="#8424DE"/>
<path d="M258.9 97.4H225.61C224.179 97.4 223.02 98.5596 223.02 99.99V109.4C223.02 110.83 224.179 111.99 225.61 111.99H258.9C260.33 111.99 261.49 110.83 261.49 109.4V99.99C261.49 98.5596 260.33 97.4 258.9 97.4Z" fill="#8424DE"/>
<g opacity="0.4">
<path d="M242.849 147.57V104.7H241.659V147.57C241.368 147.705 241.132 147.936 240.989 148.224C240.847 148.512 240.808 148.84 240.877 149.153C240.946 149.466 241.121 149.747 241.371 149.948C241.621 150.149 241.933 150.258 242.254 150.258C242.575 150.258 242.886 150.149 243.136 149.948C243.387 149.747 243.561 149.466 243.63 149.153C243.7 148.84 243.66 148.512 243.518 148.224C243.376 147.936 243.14 147.705 242.849 147.57Z" fill="white"/>
<path d="M258.9 97.4H225.61C224.179 97.4 223.02 98.5596 223.02 99.99V109.4C223.02 110.83 224.179 111.99 225.61 111.99H258.9C260.33 111.99 261.49 110.83 261.49 109.4V99.99C261.49 98.5596 260.33 97.4 258.9 97.4Z" fill="white"/>
</g>
<path d="M322.508 252.32H124.688C124.687 251.317 125.085 250.354 125.794 249.644C126.503 248.933 127.464 248.533 128.467 248.53H318.717C319.723 248.53 320.687 248.929 321.397 249.64C322.108 250.351 322.508 251.315 322.508 252.32Z" fill="#8424DE"/>
<path opacity="0.4" d="M322.508 252.32H124.688C124.687 251.317 125.085 250.354 125.794 249.644C126.503 248.933 127.464 248.533 128.467 248.53H318.717C319.723 248.53 320.687 248.929 321.397 249.64C322.108 250.351 322.508 251.315 322.508 252.32Z" fill="white"/>
<path opacity="0.2" d="M172.86 200.91C174.754 200.91 176.29 199.374 176.29 197.48C176.29 195.586 174.754 194.05 172.86 194.05C170.965 194.05 169.43 195.586 169.43 197.48C169.43 199.374 170.965 200.91 172.86 200.91Z" fill="white"/>
<path opacity="0.4" d="M207.563 191.39C209.457 191.39 210.993 189.854 210.993 187.96C210.993 186.066 209.457 184.53 207.563 184.53C205.668 184.53 204.133 186.066 204.133 187.96C204.133 189.854 205.668 191.39 207.563 191.39Z" fill="white"/>
<path opacity="0.6" d="M242.25 163.75C244.145 163.75 245.68 162.214 245.68 160.32C245.68 158.426 244.145 156.89 242.25 156.89C240.356 156.89 238.82 158.426 238.82 160.32C238.82 162.214 240.356 163.75 242.25 163.75Z" fill="white"/>
<path opacity="0.8" d="M276.95 145.17C278.844 145.17 280.38 143.634 280.38 141.74C280.38 139.846 278.844 138.31 276.95 138.31C275.055 138.31 273.52 139.846 273.52 141.74C273.52 143.634 275.055 145.17 276.95 145.17Z" fill="white"/>
<path d="M311.649 108.48C313.543 108.48 315.079 106.944 315.079 105.05C315.079 103.156 313.543 101.62 311.649 101.62C309.754 101.62 308.219 103.156 308.219 105.05C308.219 106.944 309.754 108.48 311.649 108.48Z" fill="white"/>
<path d="M432.859 249L437.119 260.2C437.119 260.2 441.999 262.95 442.369 263.73C442.739 264.51 443.819 274.05 443.049 275.06C442.279 276.07 432.339 273.44 432.319 272.4C432.299 271.36 431.829 262.84 431.829 262.84L426.109 250.6L432.859 249Z" fill="#E4897B"/>
<path d="M412.254 160.63C419.664 165.07 420.454 205.4 421.644 209.17C422.834 212.94 437.484 254.47 437.484 254.47L427.184 258.47C427.184 258.47 412.534 227.62 409.374 218.89C406.214 210.16 404.094 190.39 404.094 190.39L412.254 160.63Z" fill="#8424DE"/>
<path opacity="0.2" d="M412.254 160.63C419.664 165.07 420.454 205.4 421.644 209.17C422.834 212.94 437.484 254.47 437.484 254.47L427.184 258.47C427.184 258.47 412.534 227.62 409.374 218.89C406.214 210.16 404.094 190.39 404.094 190.39L412.254 160.63Z" fill="black"/>
<path d="M402.172 155.37C391.012 149.24 376.592 150.53 376.592 150.53L363.732 168.71L345.582 233.6L348.252 236.03L349.392 230.88L398.742 235.88L399.572 242.6L402.412 241.21L404.092 161.44L402.172 155.37Z" fill="#8424DE"/>
<path opacity="0.4" d="M402.172 155.37C391.012 149.24 376.592 150.53 376.592 150.53L363.732 168.71L345.582 233.6L348.252 236.03L349.392 230.88L398.742 235.88L399.572 242.6L402.412 241.21L404.092 161.44L402.172 155.37Z" fill="black"/>
<path d="M332.222 108.07L328.662 96.0001C329.075 93.454 329.285 90.8793 329.292 88.3001C329.082 86.1001 323.912 81.8901 322.292 80.4101C320.672 78.9301 313.972 83.73 314.292 84.77C314.612 85.81 318.522 93.9601 319.762 94.9001L321.762 96.0301L324.852 111.23L332.222 108.07Z" fill="#E4897B"/>
<path d="M366.693 151.52C355.373 145.72 346.743 136.76 343.573 131.52C340.403 126.28 331.073 98.8701 331.073 98.8701L321.223 100.37C321.223 100.37 327.153 134.04 330.323 141.37C333.493 148.7 362.593 175.3 362.593 175.3L366.693 151.52Z" fill="#8424DE"/>
<path opacity="0.2" d="M366.693 151.52C355.373 145.72 346.743 136.76 343.573 131.52C340.403 126.28 331.073 98.8701 331.073 98.8701L321.223 100.37C321.223 100.37 327.153 134.04 330.323 141.37C333.493 148.7 362.593 175.3 362.593 175.3L366.693 151.52Z" fill="black"/>
<path d="M359.331 404.55L351.221 405.41L349.691 387.91L357.811 387.05L359.331 404.55Z" fill="#E4897B"/>
<path d="M399.815 403.96H391.955L391.305 385.75H399.175L399.815 403.96Z" fill="#E4897B"/>
<path d="M390.863 403.05H400.413C400.569 403.051 400.72 403.105 400.842 403.203C400.964 403.301 401.049 403.437 401.083 403.59L402.633 410.59C402.695 410.891 402.635 411.204 402.466 411.461C402.297 411.718 402.033 411.898 401.733 411.96C401.65 411.97 401.566 411.97 401.483 411.96C398.393 411.91 396.143 411.72 392.263 411.72C389.873 411.72 382.663 411.97 379.363 411.97C376.063 411.97 375.633 408.71 376.983 408.41C383.043 407.09 387.603 405.26 389.543 403.52C389.906 403.2 390.379 403.032 390.863 403.05Z" fill="#263238"/>
<path d="M388.263 404.43C387.729 404.472 387.196 404.331 386.753 404.03C386.607 403.911 386.494 403.757 386.426 403.581C386.358 403.406 386.336 403.216 386.363 403.03C386.359 402.922 386.387 402.814 386.444 402.722C386.501 402.629 386.584 402.555 386.683 402.51C387.553 402.06 390.093 403.62 390.373 403.8C390.404 403.818 390.429 403.844 390.445 403.876C390.461 403.908 390.467 403.945 390.463 403.98C390.458 404.018 390.442 404.053 390.417 404.082C390.392 404.11 390.359 404.13 390.323 404.14C389.648 404.311 388.958 404.408 388.263 404.43ZM387.093 402.8C387.009 402.791 386.925 402.808 386.853 402.85C386.803 402.85 386.743 402.92 386.733 403.07C386.717 403.194 386.732 403.319 386.775 403.436C386.819 403.553 386.89 403.657 386.983 403.74C387.865 404.14 388.865 404.19 389.783 403.88C388.965 403.349 388.051 402.982 387.093 402.8Z" fill="#8424DE"/>
<path d="M390.271 404.15H390.181C389.371 403.71 387.801 401.98 387.961 401.15C387.988 401.012 388.063 400.887 388.173 400.798C388.282 400.708 388.419 400.66 388.561 400.66C388.702 400.642 388.845 400.653 388.982 400.695C389.118 400.736 389.244 400.806 389.351 400.9C390.261 401.64 390.451 403.9 390.461 404.01C390.459 404.043 390.451 404.076 390.435 404.105C390.42 404.135 390.397 404.16 390.371 404.18C390.335 404.181 390.3 404.17 390.271 404.15ZM388.691 401H388.601C388.361 401 388.341 401.14 388.331 401.19C388.231 401.7 389.231 403.01 390.041 403.62C389.988 402.725 389.664 401.866 389.111 401.16C388.993 401.06 388.845 401.004 388.691 401Z" fill="#8424DE"/>
<path d="M350.363 402.8H359.913C360.069 402.801 360.22 402.855 360.342 402.953C360.464 403.051 360.549 403.187 360.583 403.34L362.133 410.34C362.195 410.641 362.135 410.954 361.966 411.211C361.797 411.468 361.533 411.648 361.233 411.71C361.15 411.72 361.066 411.72 360.983 411.71C357.893 411.66 355.643 411.47 351.763 411.47C349.373 411.47 342.163 411.72 338.863 411.72C335.563 411.72 335.133 408.46 336.483 408.16C342.543 406.84 347.103 405.01 349.043 403.27C349.406 402.95 349.879 402.782 350.363 402.8Z" fill="#263238"/>
<path d="M347.763 404.18C347.229 404.222 346.696 404.081 346.253 403.78C346.107 403.661 345.994 403.507 345.926 403.331C345.858 403.156 345.836 402.966 345.863 402.78C345.859 402.672 345.887 402.564 345.944 402.472C346.001 402.379 346.084 402.305 346.183 402.26C347.053 401.81 349.593 403.37 349.873 403.55C349.904 403.568 349.929 403.594 349.945 403.626C349.961 403.658 349.967 403.695 349.963 403.73C349.958 403.768 349.942 403.803 349.917 403.832C349.892 403.86 349.859 403.88 349.823 403.89C349.148 404.061 348.458 404.158 347.763 404.18ZM346.593 402.55C346.509 402.541 346.425 402.558 346.353 402.6C346.303 402.6 346.243 402.67 346.233 402.82C346.217 402.944 346.232 403.069 346.275 403.186C346.319 403.303 346.39 403.407 346.483 403.49C347.365 403.89 348.365 403.94 349.283 403.63C348.465 403.099 347.551 402.732 346.593 402.55Z" fill="#8424DE"/>
<path d="M349.771 403.9H349.681C348.871 403.46 347.301 401.73 347.461 400.9C347.488 400.762 347.563 400.637 347.673 400.548C347.782 400.458 347.919 400.41 348.061 400.41C348.202 400.392 348.345 400.403 348.482 400.445C348.618 400.486 348.744 400.556 348.851 400.65C349.761 401.39 349.951 403.65 349.961 403.76C349.959 403.793 349.951 403.826 349.935 403.855C349.92 403.885 349.897 403.91 349.871 403.93C349.835 403.931 349.8 403.92 349.771 403.9ZM348.191 400.71H348.101C347.861 400.71 347.841 400.85 347.831 400.9C347.731 401.41 348.731 402.72 349.541 403.33C349.488 402.435 349.164 401.576 348.611 400.87C348.493 400.77 348.345 400.714 348.191 400.71Z" fill="#8424DE"/>
<path opacity="0.2" d="M357.811 387.05L349.691 387.91L350.491 396.94L358.601 396.08L357.811 387.05Z" fill="black"/>
<path opacity="0.2" d="M399.175 385.76H391.305L391.645 395.15H399.515L399.175 385.76Z" fill="black"/>
<path d="M395.924 226H354.204C350.204 247.67 337.814 324.33 346.724 392.63L360.854 390.88C360.854 390.88 359.544 300.22 372.004 266.7C373.444 284.64 375.144 303.7 376.624 313.89C380.254 338.89 388.024 393.52 388.024 393.52H402.404C402.404 393.52 399.464 341.23 398.104 316.66C396.624 290 396.004 231.5 395.924 226Z" fill="#263238"/>
<path opacity="0.2" d="M372 266.7C369.947 272.577 368.389 278.614 367.34 284.75C366.17 268.75 370.84 251.86 370.84 251.86L372 266.7Z" fill="black"/>
<path d="M345.115 395.94L362.595 393.34L362.065 388.5L343.875 390.89L345.115 395.94Z" fill="#8424DE"/>
<path opacity="0.6" d="M345.115 395.94L362.595 393.34L362.065 388.5L343.875 390.89L345.115 395.94Z" fill="white"/>
<path d="M386.304 393.64H403.264V388.57L385.664 388.24L386.304 393.64Z" fill="#8424DE"/>
<path opacity="0.6" d="M386.304 393.64H403.264V388.57L385.664 388.24L386.304 393.64Z" fill="white"/>
<path d="M353.853 226.52H395.853V231.52L353.312 231.01L353.853 226.52Z" fill="#263238"/>
<path opacity="0.2" d="M353.853 226.52H395.853V231.52L353.312 231.01L353.853 226.52Z" fill="white"/>
<path d="M382.352 224.27H380.852V233.15H382.352V224.27Z" fill="#263238"/>
<path d="M361.102 224.27H359.602V233.15H361.102V224.27Z" fill="#263238"/>
<path d="M366.693 151.52C366.693 151.52 393.193 153.37 412.253 160.63C412.253 160.63 398.463 203.26 395.883 228.13L353.883 226.52C353.883 226.52 356.843 176.34 366.693 151.52Z" fill="#8424DE"/>
<path opacity="0.7" d="M412.252 160.63C412.252 160.63 409.502 169.13 406.252 180.74C405.042 185.06 403.752 189.81 402.502 194.74C399.602 206.2 396.902 218.51 395.902 228.15L353.902 226.54C353.902 226.54 356.902 176.36 366.742 151.54C366.692 151.52 393.192 153.37 412.252 160.63Z" fill="white"/>
<path d="M397.594 156.09C393.384 159.09 384.214 156.73 384.214 156.73C384.214 156.73 378.584 154.46 380.014 152.78C383.504 152.62 385.354 151.21 386.284 149.25C386.803 148.022 387.075 146.703 387.084 145.37C387.124 144.634 387.124 143.896 387.084 143.16L399.574 136C397.404 141.43 394.344 151.57 397.594 156.09Z" fill="#E4897B"/>
<path opacity="0.2" d="M396.273 141.09C395.013 147.94 389.103 149.19 386.273 149.25C386.793 148.022 387.064 146.703 387.073 145.37L396.273 141.09Z" fill="black"/>
<path d="M389.802 113.82C389.802 113.82 382.592 122.07 385.202 128.67C387.812 135.27 398.652 118.27 398.652 118.27L389.802 113.82Z" fill="#263238"/>
<path d="M394.654 144.91C392.678 145.766 390.476 145.95 388.386 145.434C386.296 144.917 384.433 143.728 383.084 142.05C381.295 139.916 380.39 137.18 380.554 134.4C380.57 134.011 380.61 133.624 380.674 133.24C381.844 126.14 387.304 115.89 395.544 115.99C397.368 115.995 399.159 116.467 400.748 117.362C402.337 118.257 403.67 119.545 404.619 121.102C405.568 122.659 406.102 124.433 406.169 126.256C406.237 128.078 405.835 129.887 405.004 131.51C401.524 138.5 399.834 142.77 394.654 144.91Z" fill="#E4897B"/>
<path d="M393.21 128.94C393.01 129.53 392.46 129.87 392.08 129.7C391.7 129.53 391.59 128.93 391.83 128.35C392.07 127.77 392.59 127.43 392.97 127.59C393.35 127.75 393.46 128.34 393.21 128.94Z" fill="#263238"/>
<path d="M386.611 126.16C386.401 126.75 385.851 127.08 385.471 126.92C385.091 126.76 384.981 126.15 385.221 125.57C385.461 124.99 385.981 124.65 386.361 124.81C386.741 124.97 386.841 125.6 386.611 126.16Z" fill="#263238"/>
<path d="M388.581 127.33C387.137 128.824 385.491 130.11 383.691 131.15C383.971 131.608 384.348 131.999 384.796 132.294C385.243 132.59 385.751 132.783 386.281 132.86L388.581 127.33Z" fill="#DE5753"/>
<path d="M396.162 127.66C396.097 127.644 396.037 127.61 395.989 127.563C395.942 127.515 395.908 127.455 395.892 127.39C395.788 126.933 395.578 126.507 395.279 126.146C394.98 125.784 394.601 125.498 394.172 125.31C394.079 125.278 394.003 125.211 393.96 125.123C393.916 125.034 393.91 124.933 393.942 124.84C393.976 124.749 394.044 124.674 394.131 124.631C394.218 124.588 394.319 124.581 394.412 124.61C394.958 124.834 395.443 125.186 395.824 125.637C396.205 126.088 396.472 126.624 396.602 127.2C396.617 127.247 396.623 127.296 396.618 127.345C396.614 127.393 396.599 127.441 396.576 127.484C396.553 127.527 396.521 127.565 396.482 127.595C396.444 127.625 396.399 127.647 396.352 127.66H396.162Z" fill="#263238"/>
<path d="M386.002 136.29C386.786 136.767 387.672 137.048 388.588 137.111C389.503 137.174 390.42 137.016 391.262 136.65C391.301 136.624 391.329 136.585 391.342 136.539C391.355 136.494 391.352 136.446 391.333 136.403C391.314 136.36 391.28 136.325 391.238 136.304C391.196 136.284 391.147 136.279 391.102 136.29C390.316 136.612 389.466 136.746 388.619 136.684C387.773 136.621 386.952 136.363 386.222 135.93C386.18 135.903 386.13 135.893 386.082 135.902C386.033 135.912 385.99 135.94 385.962 135.98C385.934 136.023 385.924 136.075 385.933 136.125C385.942 136.175 385.97 136.22 386.012 136.25L386.002 136.29Z" fill="#263238"/>
<path d="M384.732 122.69C384.657 122.683 384.585 122.659 384.522 122.62C384.453 122.549 384.414 122.454 384.414 122.355C384.414 122.256 384.453 122.161 384.522 122.09C384.955 121.687 385.48 121.395 386.052 121.24C386.623 121.085 387.224 121.071 387.802 121.2C387.895 121.226 387.975 121.288 388.024 121.372C388.073 121.456 388.086 121.556 388.062 121.65C388.032 121.743 387.967 121.82 387.882 121.867C387.796 121.913 387.696 121.925 387.602 121.9C387.141 121.814 386.667 121.837 386.218 121.968C385.768 122.098 385.355 122.332 385.012 122.65C384.926 122.695 384.827 122.71 384.732 122.69Z" fill="#263238"/>
<path d="M403.453 120.34L401.593 123.26C401.998 123.76 402.199 124.394 402.156 125.035C402.114 125.677 401.83 126.279 401.363 126.72C399.123 128.85 398.673 133.6 399.893 136.16C399.893 136.16 400.503 135.06 401.323 135.78C402.143 136.5 399.073 142.26 395.883 144.17C395.883 144.17 399.883 142.98 404.433 137.57C408.623 132.57 411.083 127.9 410.963 125.13L403.453 120.34Z" fill="#263238"/>
<path d="M405.613 138.72C404.881 139.359 404.029 139.848 403.108 140.157C402.186 140.465 401.213 140.589 400.243 140.52C397.653 140.33 397.243 137.8 398.693 135.81C400.003 134.05 402.943 131.97 405.183 133.17C407.423 134.37 407.413 137.11 405.613 138.72Z" fill="#E4897B"/>
<path d="M398.651 119.66C398.651 119.66 399.891 118.5 399.991 121.11C400.091 123.72 401.661 125.49 405.221 127.33C408.781 129.17 409.911 129.33 409.911 129.33C409.911 129.33 415.701 123.86 409.651 117.63C409.651 117.63 409.931 114.42 406.121 112.33C399.571 108.73 390.581 110.22 387.421 113.86C386.741 114.571 386.274 115.459 386.073 116.422C385.871 117.385 385.943 118.386 386.281 119.31C386.281 119.31 396.621 113.82 398.651 119.66Z" fill="#263238"/>
<path d="M396.402 151.5L384.812 155.18L384.632 151.12L380.412 152.07C379.677 152.237 379.02 152.646 378.546 153.232C378.073 153.818 377.81 154.547 377.802 155.3L377.742 159.72L382.352 157.86C382.352 157.86 375.482 173.98 374.582 196.86C374.582 196.86 377.202 172.2 384.322 158.48L386.012 161.59L400.012 156.77L396.402 151.5Z" fill="#8424DE"/>
<path opacity="0.6" d="M396.402 151.5L384.812 155.18L384.632 151.12L380.412 152.07C379.677 152.237 379.02 152.646 378.546 153.232C378.073 153.818 377.81 154.547 377.802 155.3L377.742 159.72L382.352 157.86C382.352 157.86 375.482 173.98 374.582 196.86C374.582 196.86 377.202 172.2 384.322 158.48L386.012 161.59L400.012 156.77L396.402 151.5Z" fill="white"/>
<path d="M372.993 225.65H365.223V231.25H372.993V225.65Z" fill="#8424DE"/>
<path opacity="0.4" d="M372.993 225.65H365.223V231.25H372.993V225.65Z" fill="white"/>
<path d="M374.58 152.31C374.58 152.31 353.86 207.07 349.11 233.21L346 231.52C346 231.52 357.94 171.6 366.74 151.52L374.58 152.31Z" fill="#8424DE"/>
<path d="M403.421 157.78C403.421 157.78 394.64 201.86 398.65 237.99L403.421 236.93C403.421 236.93 409.19 179.27 412.25 160.63L403.421 157.78Z" fill="#8424DE"/>
<path d="M372 159.33L372.81 152.13L376.61 150.53C376.66 152.269 376.262 153.992 375.455 155.533C374.648 157.074 373.458 158.381 372 159.33Z" fill="#8424DE"/>
<path opacity="0.2" d="M372 159.33L372.81 152.13L376.61 150.53C376.66 152.269 376.262 153.992 375.455 155.533C374.648 157.074 373.458 158.381 372 159.33Z" fill="black"/>
<path d="M402.171 164.87C400.995 161.813 400.995 158.428 402.171 155.37L405.721 158.52L402.171 164.87Z" fill="#8424DE"/>
<path opacity="0.2" d="M402.171 164.87C400.995 161.813 400.995 158.428 402.171 155.37L405.721 158.52L402.171 164.87Z" fill="black"/>
<path d="M459.052 286.546L453.814 263.094C453.671 262.452 453.035 262.049 452.393 262.192L416.81 270.139C416.169 270.282 415.765 270.918 415.908 271.56L421.146 295.012C421.289 295.653 421.925 296.057 422.567 295.914L458.15 287.967C458.791 287.823 459.195 287.187 459.052 286.546Z" fill="#263238"/>
<path opacity="0.2" d="M459.052 286.546L453.814 263.094C453.671 262.452 453.035 262.049 452.393 262.192L416.81 270.139C416.169 270.282 415.765 270.918 415.908 271.56L421.146 295.012C421.289 295.653 421.925 296.057 422.567 295.914L458.15 287.967C458.791 287.823 459.195 287.187 459.052 286.546Z" fill="white"/>
<path d="M442.74 305.24L428 291.66C430 270.87 451.15 264.21 451.15 264.21L456.15 286.67C456.15 286.67 438.91 288.23 442.74 305.24Z" fill="#8424DE"/>
<path opacity="0.7" d="M442.74 305.24L428 291.66C430 270.87 451.15 264.21 451.15 264.21L456.15 286.67C456.15 286.67 438.91 288.23 442.74 305.24Z" fill="white"/>
<path d="M452.161 279.93L450.391 272C450.353 271.834 450.349 271.661 450.379 271.494C450.409 271.326 450.473 271.165 450.566 271.023C450.66 270.88 450.781 270.757 450.922 270.662C451.064 270.567 451.224 270.502 451.391 270.47L453.581 269.98C453.747 269.943 453.919 269.94 454.087 269.971C454.254 270.002 454.414 270.066 454.556 270.159C454.699 270.252 454.821 270.372 454.916 270.513C455.012 270.654 455.078 270.813 455.111 270.98L456.881 278.91C456.918 279.076 456.921 279.248 456.89 279.416C456.859 279.583 456.796 279.743 456.702 279.885C456.609 280.027 456.489 280.15 456.348 280.245C456.207 280.341 456.048 280.407 455.881 280.44L453.691 280.93C453.525 280.967 453.353 280.97 453.186 280.939C453.018 280.908 452.859 280.844 452.716 280.751C452.574 280.658 452.451 280.538 452.356 280.397C452.261 280.256 452.194 280.097 452.161 279.93ZM454.161 271.15C454.14 271.057 454.082 270.977 454.002 270.926C453.921 270.876 453.824 270.859 453.731 270.88L451.541 271.37C451.494 271.38 451.45 271.398 451.41 271.425C451.371 271.452 451.337 271.486 451.311 271.526C451.285 271.566 451.267 271.611 451.259 271.658C451.25 271.705 451.251 271.753 451.261 271.8L453.031 279.73C453.055 279.821 453.113 279.9 453.193 279.95C453.273 280.001 453.369 280.018 453.461 280L455.661 279.51C455.754 279.489 455.834 279.431 455.885 279.351C455.936 279.27 455.952 279.173 455.931 279.08L454.161 271.15Z" fill="#8424DE"/>
<g opacity="0.4">
<path d="M452.161 279.93L450.391 272C450.353 271.834 450.349 271.661 450.379 271.494C450.409 271.326 450.473 271.165 450.566 271.023C450.66 270.88 450.781 270.757 450.922 270.662C451.064 270.567 451.224 270.502 451.391 270.47L453.581 269.98C453.747 269.943 453.919 269.94 454.087 269.971C454.254 270.002 454.414 270.066 454.556 270.159C454.699 270.252 454.821 270.372 454.916 270.513C455.012 270.654 455.078 270.813 455.111 270.98L456.881 278.91C456.918 279.076 456.921 279.248 456.89 279.416C456.859 279.583 456.796 279.743 456.702 279.885C456.609 280.027 456.489 280.15 456.348 280.245C456.207 280.341 456.048 280.407 455.881 280.44L453.691 280.93C453.525 280.967 453.353 280.97 453.186 280.939C453.018 280.908 452.859 280.844 452.716 280.751C452.574 280.658 452.451 280.538 452.356 280.397C452.261 280.256 452.194 280.097 452.161 279.93ZM454.161 271.15C454.14 271.057 454.082 270.977 454.002 270.926C453.921 270.876 453.824 270.859 453.731 270.88L451.541 271.37C451.494 271.38 451.45 271.398 451.41 271.425C451.371 271.452 451.337 271.486 451.311 271.526C451.285 271.566 451.267 271.611 451.259 271.658C451.25 271.705 451.251 271.753 451.261 271.8L453.031 279.73C453.055 279.821 453.113 279.9 453.193 279.95C453.273 280.001 453.369 280.018 453.461 280L455.661 279.51C455.754 279.489 455.834 279.431 455.885 279.351C455.936 279.27 455.952 279.173 455.931 279.08L454.161 271.15Z" fill="white"/>
</g>
<path d="M119.548 228.9H124.548C124.548 228.9 127.478 230.22 128.988 229.9C130.498 229.58 139.988 224.01 139.458 223.06C138.928 222.11 118.688 224.13 118.688 224.13L119.548 228.9Z" fill="#EBB376"/>
<path d="M125.468 284.82C125.468 284.82 124.968 292.27 123.938 303.82C123.568 308.04 123.128 312.82 122.608 317.96C120.368 340.28 116.768 369.87 111.678 393.78L106.678 393.7C106.678 393.7 102.968 357.6 109.178 333.51L108.548 316.4L108.108 304.61L107.378 284.78L125.468 284.82Z" fill="#EBB376"/>
<path d="M103.13 288.32C103.13 288.32 101.55 294.85 98.8403 305.11C98.0403 308.11 97.1503 311.47 96.1703 315.06C90.1703 337.13 80.8703 368.72 71.0003 393.39L66.0703 392.46C66.0703 392.46 68.5603 356.25 78.7803 333.57L81.4903 313.43L82.4903 305.92L85.2803 285.24L103.13 288.32Z" fill="#EBB376"/>
<path opacity="0.2" d="M82.4983 305.92L98.8383 305.11C98.0383 308.11 97.1483 311.47 96.1683 315.06L81.4883 313.43L82.4983 305.92Z" fill="black"/>
<path opacity="0.2" d="M123.942 303.86C123.572 308.08 123.132 312.86 122.612 318L108.542 316.44L108.102 304.65L123.942 303.86Z" fill="black"/>
<path d="M79.8585 196.09C76.5985 197.37 77.7485 227.68 83.4585 235.88C89.1685 244.08 122.619 231.52 122.619 231.52L121.819 224.18L91.9985 224.27L79.8585 196.09Z" fill="#263238"/>
<path d="M157.36 220.22L121.82 222.35L126.05 196.35C126.103 196.079 126.245 195.834 126.454 195.652C126.662 195.471 126.925 195.365 127.2 195.35L160.89 193.35C160.993 193.344 161.097 193.362 161.192 193.401C161.288 193.44 161.373 193.501 161.442 193.577C161.511 193.654 161.562 193.745 161.591 193.845C161.62 193.944 161.627 194.048 161.61 194.15L157.36 220.22Z" fill="#263238"/>
<path opacity="0.2" d="M157.36 220.22L121.82 222.35L126.05 196.35C126.103 196.079 126.245 195.834 126.454 195.652C126.662 195.471 126.925 195.365 127.2 195.35L160.89 193.35C160.993 193.344 161.097 193.362 161.192 193.401C161.288 193.44 161.373 193.501 161.442 193.577C161.511 193.654 161.562 193.745 161.591 193.845C161.62 193.944 161.627 194.048 161.61 194.15L157.36 220.22Z" fill="white"/>
<path d="M156.899 220.25L121.359 222.38L125.589 196.38C125.641 196.108 125.782 195.862 125.991 195.68C126.199 195.499 126.463 195.393 126.739 195.38L160.429 193.38C160.532 193.373 160.635 193.388 160.731 193.427C160.826 193.465 160.912 193.524 160.981 193.6C161.051 193.676 161.102 193.767 161.131 193.866C161.16 193.964 161.166 194.068 161.149 194.17L156.899 220.25Z" fill="#263238"/>
<path d="M155.907 219.46L122.617 221.46L126.727 196.16L160.017 194.16L155.907 219.46Z" fill="#8424DE"/>
<path opacity="0.4" d="M155.907 219.46L122.617 221.46L126.727 196.16L160.017 194.16L155.907 219.46Z" fill="white"/>
<path d="M156.898 220.25L156.968 221.53C156.987 221.872 156.871 222.207 156.645 222.464C156.418 222.72 156.1 222.877 155.758 222.9L104.438 226C104.269 226.011 104.099 225.988 103.938 225.933C103.778 225.878 103.629 225.792 103.502 225.68C103.375 225.567 103.271 225.431 103.196 225.278C103.122 225.125 103.078 224.96 103.068 224.79L102.988 223.52L156.898 220.25Z" fill="#263238"/>
<path opacity="0.2" d="M156.898 220.25L156.968 221.53C156.987 221.872 156.871 222.207 156.645 222.464C156.418 222.72 156.1 222.877 155.758 222.9L104.438 226C104.269 226.011 104.099 225.988 103.938 225.933C103.778 225.878 103.629 225.792 103.502 225.68C103.375 225.567 103.271 225.431 103.196 225.278C103.122 225.125 103.078 224.96 103.068 224.79L102.988 223.52L156.898 220.25Z" fill="white"/>
<path opacity="0.2" d="M156.898 220.25L156.968 221.53C156.987 221.872 156.871 222.207 156.644 222.464C156.418 222.72 156.099 222.877 155.758 222.9L134.378 224.18C134.039 224.205 133.704 224.095 133.445 223.874C133.187 223.653 133.026 223.339 132.998 223L132.918 221.72L156.898 220.25Z" fill="white"/>
<g opacity="0.4">
<path d="M128.258 216.24L126.898 216.32L127.468 213.06L128.828 212.98L128.258 216.24Z" fill="white"/>
<path d="M130.847 216.08L129.477 216.16L130.397 210.88L131.767 210.8L130.847 216.08Z" fill="white"/>
<path d="M133.43 215.92L132.07 216L133.34 208.7L134.7 208.62L133.43 215.92Z" fill="white"/>
<path d="M136.018 215.76L134.648 215.84L136.098 207.53L137.468 207.45L136.018 215.76Z" fill="white"/>
<path d="M138.598 215.6L137.238 215.68L138.858 206.36L140.228 206.28L138.598 215.6Z" fill="white"/>
<path d="M141.19 215.44L139.82 215.52L141.8 204.18L143.16 204.09L141.19 215.44Z" fill="white"/>
<path d="M143.77 215.28L142.41 215.36L144.21 205.03L145.57 204.94L143.77 215.28Z" fill="white"/>
<path d="M146.358 215.12L144.988 215.2L146.618 205.88L147.978 205.79L146.358 215.12Z" fill="white"/>
<path d="M148.94 214.96L147.57 215.04L149.55 203.7L150.92 203.61L148.94 214.96Z" fill="white"/>
<path d="M151.53 214.8L150.16 214.88L152.66 200.5L154.03 200.42L151.53 214.8Z" fill="white"/>
</g>
<path d="M126.441 312.66C132.521 257.51 122.011 238.75 122.011 238.75L92.3507 233.68C91.1757 239.156 90.344 244.7 89.8607 250.28C89.8607 250.28 87.0107 260.48 86.1007 263.28C81.1335 279.239 78.9185 295.928 79.5507 312.63L126.441 312.66Z" fill="#8424DE"/>
<g opacity="0.2">
<path d="M126.439 312.66H79.5488C79.5488 312.66 79.3088 309.13 79.4788 303.34C79.8298 289.765 82.0576 276.304 86.0988 263.34C87.0088 260.51 89.8588 250.34 89.8588 250.34C89.9322 249.673 90.0022 249.007 90.0688 248.34C90.5288 243.434 91.2902 238.562 92.3488 233.75L121.999 238.75C121.999 238.75 132.519 257.51 126.439 312.66Z" fill="black"/>
</g>
<path opacity="0.2" d="M107.787 282.56C107.787 282.56 95.7866 297.8 79.4766 303.34C79.8275 289.765 82.0553 276.304 86.0966 263.34C87.0066 260.51 89.8566 250.34 89.8566 250.34C89.9299 249.673 89.9999 249.007 90.0666 248.34L120.647 246C120.647 246 109.567 257.11 97.6466 260C97.6966 260 98.1866 276.49 107.787 282.56Z" fill="black"/>
<path d="M108.129 170C108.129 170.63 108.459 171.14 108.879 171.14C109.299 171.14 109.629 170.62 109.629 169.98C109.629 169.34 109.279 168.84 108.869 168.84C108.459 168.84 108.129 169.38 108.129 170Z" fill="#263238"/>
<path d="M106.82 168.5C106.888 168.51 106.957 168.501 107.02 168.475C107.084 168.448 107.139 168.405 107.18 168.35C107.45 167.97 107.805 167.659 108.216 167.44C108.627 167.222 109.084 167.102 109.55 167.09C109.649 167.096 109.746 167.062 109.821 166.997C109.896 166.931 109.942 166.839 109.95 166.74C109.952 166.691 109.946 166.643 109.929 166.597C109.913 166.551 109.888 166.509 109.856 166.472C109.823 166.436 109.784 166.407 109.74 166.386C109.696 166.365 109.648 166.353 109.6 166.35C109.012 166.351 108.434 166.492 107.912 166.762C107.39 167.031 106.94 167.422 106.6 167.9C106.569 167.938 106.547 167.982 106.534 168.029C106.52 168.075 106.516 168.124 106.522 168.173C106.528 168.221 106.543 168.268 106.566 168.31C106.59 168.352 106.622 168.39 106.66 168.42L106.82 168.5Z" fill="#263238"/>
<path d="M108.616 171.58C109.054 172.951 109.676 174.256 110.466 175.46C110.152 175.657 109.798 175.782 109.43 175.827C109.062 175.872 108.688 175.835 108.336 175.72L108.616 171.58Z" fill="#DE726F"/>
<path d="M93.499 182.67C93.5722 182.739 93.6527 182.799 93.739 182.85C94.8798 183.72 96.1815 184.355 97.569 184.72C101.619 185.66 104.389 185.1 106.199 183.27C108.729 180.52 109.359 175.65 108.999 169.77C108.94 167.43 108.508 165.114 107.719 162.91C107.719 162.91 107.719 162.82 107.719 162.8C107.719 162.78 107.659 162.63 107.619 162.55C107.123 161.306 106.323 160.207 105.293 159.353C104.262 158.498 103.033 157.916 101.719 157.66C100.58 157.405 99.4164 157.274 98.249 157.27C86.779 157.15 84.719 176.13 93.499 182.67Z" fill="#EBB376"/>
<path opacity="0.2" d="M93.9062 183.33C95.0767 184.118 96.3923 184.665 97.7762 184.94C101.846 185.77 104.596 185.01 106.356 183.1C103.951 183.769 101.393 183.629 99.0762 182.7C98.2234 182.405 97.3143 182.308 96.4184 182.417C95.5224 182.526 94.6632 182.839 93.9062 183.33Z" fill="black"/>
<path d="M92.5791 193.2C91.8691 196.46 96.0991 197.79 96.0991 197.79C103.009 194.84 104.289 191.16 104.289 191.16C98.5191 188.16 100.189 179.65 100.189 179.65L99.0191 180.23L90.7891 181.84C90.7891 181.84 93.0691 186.22 93.3691 187.22C94.9291 192.47 92.5791 193.2 92.5791 193.2Z" fill="#EBB376"/>
<path d="M107.729 162.83C107.729 162.83 108.359 170.83 100.729 174.32C100.729 174.32 97.4591 182.67 92.6491 182.78C86.0791 182.94 80.2991 173.61 82.5691 164.1C85.5391 151.76 104.229 150.76 107.729 162.83Z" fill="#263238"/>
<path d="M104.609 172C104.609 170.75 103.609 168.64 101.609 168.93C99.6087 169.22 98.4687 174.2 103.429 175.31C104.179 175.48 104.609 174.63 104.609 172Z" fill="#EBB376"/>
<path d="M93.7407 154.29C93.7407 154.29 101.411 152.35 105.641 155.44C110.641 159.04 112.471 162.76 106.641 168.54C106.641 168.54 93.7707 164.37 89.4907 165.25C86.989 165.755 84.5338 166.467 82.1507 167.38C81.2207 158.88 89.4607 152.55 93.7407 154.29Z" fill="#263238"/>
<path d="M109.099 159.43C109.099 159.43 112.649 161.85 111.019 165.58C109.389 169.31 104.609 169.4 104.609 169.4" stroke="#263238" stroke-width="0.5" stroke-linecap="round" stroke-linejoin="round"/>
<path d="M104.609 170.08C104.609 170.08 102.609 179.34 105.749 187.24C105.749 187.24 87.5493 193.55 81.2193 190.12C74.8893 186.69 80.6893 175.18 80.9593 168.54C81.2293 161.9 84.1093 152.09 93.7393 154.29C103.369 156.49 104.609 170.08 104.609 170.08Z" fill="#263238"/>
<path d="M121.458 410.36C120.527 409.607 119.466 409.031 118.328 408.66C118.328 408.66 114.918 405.27 113.328 395.09L108.858 393.92C108.1 393.739 107.305 393.795 106.579 394.079C105.853 394.363 105.232 394.862 104.798 395.51C104.675 395.691 104.581 395.89 104.518 396.1C104.288 397.192 104.127 398.298 104.038 399.41C103.79 403.132 103.77 406.866 103.978 410.59H104.778L105.098 403.59C105.218 401.2 107.098 404 107.568 406.59C108.038 409.18 109.198 411.89 114.428 412.01C120.468 412.09 122.998 411.85 121.458 410.36Z" fill="#263238"/>
<path d="M104.587 395.59C104.297 393.21 104.207 389.07 104.207 389.07L114.127 390.17C114.127 390.17 112.927 394.88 113.917 398.42C108.917 397.1 104.587 395.59 104.587 395.59Z" fill="#263238"/>
<path d="M81.0988 410.36C80.1678 409.607 79.1071 409.031 77.9688 408.66C77.9688 408.66 74.5588 405.27 72.9688 395.09L68.4988 393.92C67.7407 393.739 66.9454 393.795 66.2197 394.079C65.494 394.363 64.8725 394.862 64.4388 395.51C64.3157 395.691 64.2213 395.89 64.1588 396.1C63.9283 397.192 63.768 398.298 63.6788 399.41C63.4309 403.132 63.4109 406.866 63.6188 410.59H64.4188L64.7388 403.59C64.8588 401.2 66.7388 404 67.2088 406.59C67.6788 409.18 68.8388 411.89 74.0688 412.01C80.1088 412.09 82.6388 411.85 81.0988 410.36Z" fill="#263238"/>
<path d="M64.2416 395.59C63.9416 393.21 63.8516 389.07 63.8516 389.07L73.7716 390.17C73.7716 390.17 72.5716 394.88 73.5616 398.42C68.5616 397.1 64.2416 395.59 64.2416 395.59Z" fill="#263238"/>
<path d="M79.8584 196.09C79.8584 196.09 86.1884 193.61 91.8584 192.09C96.2838 190.991 100.782 190.209 105.318 189.75C109.601 189.27 113.912 189.1 118.218 189.24C118.098 191.32 118.008 193.24 117.928 195.12C117.818 197.55 117.738 199.8 117.688 201.89C117.588 205.81 117.598 209.17 117.688 212.15C117.842 218.651 118.63 225.122 120.038 231.47L126.438 247L88.0684 251.89L90.2384 236.6C83.8784 218.07 81.1484 208.31 80.1184 202.77C78.9984 196.58 79.8584 196.09 79.8584 196.09Z" fill="#263238"/>
<path opacity="0.1" d="M79.8584 196.09C79.8584 196.09 86.1884 193.61 91.8584 192.09C96.2838 190.991 100.782 190.209 105.318 189.75C109.601 189.27 113.912 189.1 118.218 189.24C118.098 191.32 118.008 193.24 117.928 195.12C117.818 197.55 117.738 199.8 117.688 201.89C117.588 205.81 117.598 209.17 117.688 212.15C117.842 218.651 118.63 225.122 120.038 231.47L126.438 247L88.0684 251.89L90.2384 236.6C83.8784 218.07 81.1484 208.31 80.1184 202.77C78.9984 196.58 79.8584 196.09 79.8584 196.09Z" fill="white"/>
<path d="M155.999 230L164.699 232.59C165.734 232.273 166.795 232.052 167.869 231.93C168.789 231.93 176.699 234.93 177.759 235.93C178.819 236.93 172.759 242.26 172.429 242.52C172.099 242.78 163.909 239.52 163.519 239.36C163.129 239.2 162.989 237.97 162.989 237.97L153.359 235.53L155.999 230Z" fill="#EBB376"/>
<path d="M118.227 189.2C123.017 192.36 135.057 222.32 136.637 223.11C138.217 223.9 161.637 230.62 161.637 230.62L158.717 237.92C158.717 237.92 133.077 233.35 130.507 231.56C127.937 229.77 117.697 211.16 117.697 211.16C116.424 207.118 115.697 202.924 115.537 198.69C115.448 195.327 116.387 192.016 118.227 189.2Z" fill="#263238"/>
<path d="M268.561 374.06H261.441V412H268.561V374.06Z" fill="#8424DE"/>
<path d="M268.561 374.06H264.441V412H268.561V374.06Z" fill="#8424DE"/>
<path opacity="0.2" d="M268.561 374.06H264.441V412H268.561V374.06Z" fill="black"/>
<path opacity="0.2" d="M268.561 374.06V389.69L264.441 388.29L261.441 387.27V374.06H268.561Z" fill="black"/>
<path d="M298.561 374.06H291.441V412H298.561V374.06Z" fill="#8424DE"/>
<path d="M206.561 374.06H199.441V412H206.561V374.06Z" fill="#8424DE"/>
<path opacity="0.2" d="M206.561 374.06H199.441V412H206.561V374.06Z" fill="black"/>
<path d="M299.701 356.08V412H294.381V377.49H228.451V412H218.691V377.49H202.601V412H199.441V356.08H299.701Z" fill="#8424DE"/>
<path d="M221.254 356.08H219.484V347.29H223.024L221.254 356.08Z" fill="#263238"/>
<path opacity="0.2" d="M299.703 356.08V412H294.383V377.49H228.453V412H223.023V356.08H299.703Z" fill="black"/>
<path d="M279.051 339.41H279.111L261.871 335.24C261.486 335.12 261.085 335.056 260.681 335.05H221.851C220.78 335.048 219.746 335.447 218.954 336.169C218.162 336.891 217.669 337.883 217.571 338.95L216.791 347.23C216.703 348.195 216.944 349.162 217.476 349.973C218.009 350.783 218.8 351.388 219.721 351.69L219.991 351.76L220.321 351.84L237.151 355.95C237.503 356.047 237.866 356.097 238.231 356.1H277.001C278.072 356.1 279.105 355.7 279.896 354.978C280.688 354.257 281.182 353.266 281.281 352.2L282.061 343.92C282.154 342.937 281.905 341.952 281.357 341.131C280.809 340.31 279.995 339.702 279.051 339.41Z" fill="#263238"/>
<path opacity="0.2" d="M279.051 339.41H279.111L261.871 335.24C261.486 335.12 261.085 335.056 260.681 335.05H221.851C220.78 335.048 219.746 335.447 218.954 336.169C218.162 336.891 217.669 337.883 217.571 338.95L216.791 347.23C216.703 348.195 216.944 349.162 217.476 349.973C218.009 350.783 218.8 351.388 219.721 351.69L219.991 351.76L220.321 351.84L237.151 355.95C237.503 356.047 237.866 356.097 238.231 356.1H277.001C278.072 356.1 279.105 355.7 279.896 354.978C280.688 354.257 281.182 353.266 281.281 352.2L282.061 343.92C282.154 342.937 281.905 341.952 281.357 341.131C280.809 340.31 279.995 339.702 279.051 339.41Z" fill="white"/>
<path opacity="0.1" d="M277 356.08H238.191C237.592 356.08 237 355.955 236.452 355.713C235.904 355.471 235.413 355.118 235.01 354.676C234.606 354.233 234.299 353.712 234.108 353.145C233.917 352.577 233.846 351.976 233.9 351.38L234.68 343.1C234.78 342.034 235.274 341.043 236.066 340.322C236.857 339.6 237.89 339.2 238.961 339.2H277.791C278.389 339.2 278.981 339.325 279.529 339.567C280.077 339.809 280.568 340.162 280.972 340.604C281.375 341.046 281.682 341.568 281.873 342.135C282.064 342.703 282.135 343.304 282.08 343.9L281.3 352.18C281.201 353.25 280.704 354.243 279.908 354.965C279.112 355.687 278.075 356.085 277 356.08Z" fill="white"/>
<g opacity="0.1">
<path d="M266.345 348.32C266.19 349.489 265.619 350.564 264.735 351.345C263.851 352.126 262.714 352.561 261.535 352.57C260.986 352.59 260.44 352.491 259.934 352.279C259.427 352.068 258.973 351.749 258.601 351.345C258.23 350.941 257.95 350.462 257.781 349.94C257.613 349.417 257.559 348.865 257.625 348.32C257.783 347.153 258.357 346.083 259.24 345.304C260.123 344.525 261.257 344.091 262.435 344.08C262.983 344.059 263.529 344.157 264.035 344.367C264.542 344.577 264.996 344.895 265.368 345.298C265.74 345.701 266.02 346.18 266.188 346.702C266.357 347.223 266.41 347.776 266.345 348.32Z" fill="white"/>
<path d="M277.627 349.85H271.298C271.215 349.854 271.132 349.839 271.056 349.807C270.979 349.776 270.91 349.728 270.854 349.667C270.798 349.606 270.756 349.534 270.73 349.455C270.705 349.376 270.697 349.292 270.708 349.21L270.898 347.41C270.922 347.233 271.009 347.071 271.143 346.954C271.277 346.836 271.449 346.771 271.627 346.77H278.007C278.09 346.767 278.173 346.781 278.249 346.813C278.326 346.844 278.395 346.892 278.451 346.953C278.507 347.014 278.549 347.087 278.575 347.165C278.6 347.244 278.608 347.328 278.597 347.41L278.407 349.21C278.383 349.396 278.288 349.565 278.143 349.684C277.999 349.802 277.814 349.862 277.627 349.85Z" fill="white"/>
<path d="M243.625 353.44H241.375L241.605 351.26H243.855L243.625 353.44Z" fill="white"/>
<path d="M246.717 353.44H244.477L244.707 351.26H246.947L246.717 353.44Z" fill="white"/>
</g>
<path d="M159.432 290.23C159.196 290.229 158.967 290.148 158.782 290L156.332 287.93C156.129 287.759 156.003 287.514 155.98 287.25C155.958 286.985 156.041 286.723 156.212 286.52C156.383 286.317 156.628 286.19 156.892 286.168C157.157 286.145 157.419 286.229 157.622 286.4L160.072 288.47C160.227 288.602 160.338 288.779 160.389 288.976C160.441 289.172 160.432 289.38 160.362 289.572C160.293 289.763 160.166 289.929 160 290.046C159.834 290.164 159.636 290.228 159.432 290.23Z" fill="#8424DE"/>
<path d="M172.003 300.77C171.766 300.769 171.537 300.688 171.353 300.54C168.686 298.293 166.019 296.057 163.353 293.83C163.241 293.75 163.148 293.647 163.077 293.529C163.007 293.411 162.962 293.28 162.945 293.143C162.928 293.007 162.939 292.869 162.978 292.737C163.017 292.605 163.082 292.482 163.171 292.377C163.259 292.272 163.368 292.186 163.49 292.124C163.613 292.063 163.748 292.027 163.885 292.02C164.022 292.013 164.159 292.034 164.288 292.082C164.417 292.13 164.534 292.204 164.633 292.3C167.299 294.527 169.966 296.763 172.633 299.01C172.787 299.142 172.898 299.319 172.95 299.516C173.002 299.712 172.992 299.92 172.923 300.112C172.853 300.303 172.727 300.469 172.561 300.586C172.394 300.704 172.196 300.768 171.993 300.77H172.003Z" fill="#8424DE"/>
<path d="M182.004 309.26C181.766 309.26 181.535 309.175 181.354 309.02L176.604 305.02C176.503 304.935 176.421 304.83 176.361 304.713C176.3 304.596 176.264 304.468 176.253 304.336C176.243 304.205 176.258 304.073 176.298 303.947C176.339 303.822 176.403 303.706 176.489 303.605C176.574 303.505 176.679 303.422 176.796 303.362C176.913 303.302 177.041 303.265 177.173 303.255C177.304 303.244 177.436 303.259 177.562 303.3C177.687 303.34 177.803 303.405 177.904 303.49L182.644 307.49C182.744 307.575 182.827 307.678 182.888 307.795C182.948 307.912 182.985 308.039 182.996 308.17C183.007 308.301 182.992 308.433 182.953 308.558C182.913 308.683 182.849 308.8 182.764 308.9C182.671 309.012 182.555 309.102 182.424 309.164C182.292 309.226 182.149 309.259 182.004 309.26Z" fill="#8424DE"/>
<path d="M203.595 327.61C203.361 327.61 203.135 327.529 202.955 327.38C197.388 322.713 191.841 318.007 186.315 313.26L186.075 313.05C185.974 312.965 185.891 312.862 185.831 312.745C185.77 312.628 185.733 312.501 185.722 312.37C185.711 312.239 185.726 312.107 185.766 311.982C185.806 311.857 185.87 311.74 185.955 311.64C186.04 311.54 186.144 311.458 186.261 311.399C186.378 311.339 186.506 311.303 186.637 311.293C186.768 311.283 186.899 311.298 187.024 311.339C187.149 311.38 187.265 311.445 187.365 311.53L187.615 311.74C193.141 316.447 198.685 321.15 204.245 325.85C204.4 325.983 204.511 326.16 204.562 326.358C204.614 326.556 204.604 326.765 204.533 326.956C204.462 327.148 204.334 327.314 204.166 327.43C203.999 327.547 203.799 327.61 203.595 327.61Z" fill="#8424DE"/>
<path d="M213.68 336C213.447 336 213.22 335.919 213.04 335.77L208.25 331.77C208.15 331.685 208.067 331.582 208.007 331.465C207.946 331.348 207.909 331.221 207.898 331.09C207.887 330.959 207.902 330.827 207.942 330.702C207.981 330.577 208.046 330.46 208.13 330.36C208.301 330.16 208.544 330.035 208.806 330.013C209.068 329.99 209.328 330.072 209.53 330.24L214.32 334.24C214.422 334.324 214.505 334.427 214.567 334.543C214.628 334.66 214.666 334.787 214.678 334.918C214.69 335.049 214.676 335.181 214.637 335.307C214.598 335.432 214.535 335.549 214.45 335.65C214.355 335.761 214.237 335.85 214.104 335.91C213.971 335.971 213.827 336.001 213.68 336Z" fill="#8424DE"/>
<path d="M200.795 274.15C200.603 274.15 200.416 274.096 200.255 273.993C200.093 273.89 199.965 273.744 199.885 273.57L198.535 270.57C198.426 270.33 198.416 270.056 198.508 269.809C198.6 269.562 198.785 269.361 199.025 269.25C199.144 269.195 199.273 269.163 199.405 269.158C199.536 269.152 199.668 269.173 199.791 269.219C199.915 269.264 200.028 269.334 200.125 269.423C200.222 269.513 200.3 269.62 200.355 269.74L201.705 272.74C201.813 272.98 201.823 273.254 201.731 273.501C201.639 273.748 201.454 273.949 201.215 274.06C201.084 274.123 200.94 274.154 200.795 274.15Z" fill="#8424DE"/>
<path d="M209.721 293.25C209.53 293.25 209.343 293.196 209.181 293.093C209.02 292.99 208.892 292.844 208.811 292.67C206.691 288.01 204.811 283.97 202.971 280.33C202.913 280.212 202.878 280.083 202.869 279.952C202.861 279.82 202.878 279.688 202.92 279.563C202.962 279.438 203.029 279.323 203.116 279.224C203.202 279.125 203.308 279.043 203.426 278.985C203.544 278.927 203.673 278.892 203.804 278.883C203.936 278.874 204.068 278.892 204.193 278.934C204.318 278.976 204.433 279.043 204.532 279.129C204.632 279.216 204.713 279.322 204.771 279.44C206.591 283.11 208.501 287.16 210.631 291.84C210.739 292.081 210.748 292.356 210.654 292.603C210.56 292.851 210.372 293.051 210.131 293.16C210.002 293.219 209.863 293.249 209.721 293.25Z" fill="#8424DE"/>
<path d="M215.145 305.44C214.951 305.442 214.76 305.387 214.597 305.282C214.434 305.177 214.304 305.027 214.225 304.85C213.495 303.18 212.765 301.52 212.025 299.85C211.935 299.61 211.94 299.345 212.04 299.109C212.139 298.873 212.326 298.685 212.56 298.582C212.795 298.479 213.06 298.471 213.301 298.558C213.542 298.645 213.74 298.821 213.855 299.05C214.595 300.71 215.325 302.38 216.055 304.05C216.108 304.17 216.137 304.3 216.14 304.431C216.144 304.562 216.121 304.693 216.073 304.816C216.026 304.938 215.955 305.05 215.864 305.146C215.774 305.241 215.665 305.317 215.545 305.37C215.418 305.42 215.282 305.444 215.145 305.44Z" fill="#8424DE"/>
<path d="M226.741 330.89C226.554 330.89 226.37 330.838 226.211 330.739C226.052 330.64 225.924 330.498 225.841 330.33C222.561 323.7 219.501 316.87 216.691 310.47C216.638 310.35 216.609 310.22 216.606 310.089C216.603 309.958 216.625 309.827 216.673 309.704C216.72 309.582 216.791 309.47 216.882 309.375C216.973 309.279 217.081 309.203 217.201 309.15C217.321 309.097 217.451 309.068 217.582 309.065C217.714 309.061 217.844 309.084 217.967 309.131C218.09 309.179 218.202 309.25 218.297 309.341C218.392 309.431 218.468 309.54 218.521 309.66C221.321 316.04 224.371 322.85 227.631 329.44C227.708 329.592 227.745 329.762 227.737 329.932C227.73 330.102 227.68 330.268 227.591 330.413C227.501 330.558 227.377 330.678 227.228 330.762C227.079 330.845 226.912 330.89 226.741 330.89Z" fill="#8424DE"/>
<path d="M238.82 278.48C238.555 278.48 238.301 278.375 238.113 278.187C237.926 278 237.82 277.745 237.82 277.48V267C237.82 266.735 237.926 266.48 238.113 266.293C238.301 266.105 238.555 266 238.82 266C239.086 266 239.34 266.105 239.527 266.293C239.715 266.48 239.82 266.735 239.82 267V277.49C239.818 277.753 239.711 278.005 239.524 278.191C239.337 278.376 239.084 278.48 238.82 278.48Z" fill="#8424DE"/>
<path d="M238.88 290.49C238.615 290.49 238.361 290.385 238.173 290.197C237.986 290.01 237.88 289.755 237.88 289.49L237.82 284.24C237.82 283.975 237.926 283.72 238.113 283.533C238.301 283.345 238.555 283.24 238.82 283.24C239.086 283.24 239.34 283.345 239.527 283.533C239.715 283.72 239.82 283.975 239.82 284.24L239.88 289.5C239.88 289.765 239.775 290.02 239.587 290.207C239.4 290.395 239.146 290.5 238.88 290.5V290.49Z" fill="#8424DE"/>
<path d="M238.93 317.81C238.664 317.81 238.41 317.705 238.223 317.517C238.035 317.33 237.93 317.075 237.93 316.81C237.93 309.81 237.93 302.68 237.93 295.48C237.93 295.215 238.035 294.96 238.223 294.773C238.41 294.585 238.664 294.48 238.93 294.48C239.195 294.48 239.449 294.585 239.637 294.773C239.824 294.96 239.93 295.215 239.93 295.48C239.93 302.68 239.98 309.86 239.93 316.83C239.924 317.092 239.817 317.341 239.63 317.524C239.443 317.707 239.191 317.81 238.93 317.81Z" fill="#8424DE"/>
<path d="M238.82 330.89C238.555 330.89 238.301 330.785 238.113 330.597C237.926 330.41 237.82 330.155 237.82 329.89C237.82 327.82 237.87 325.76 237.89 323.69C237.89 323.425 237.996 323.17 238.183 322.983C238.371 322.795 238.625 322.69 238.89 322.69C239.156 322.69 239.41 322.795 239.597 322.983C239.785 323.17 239.89 323.425 239.89 323.69C239.89 325.76 239.89 327.82 239.82 329.89C239.82 330.155 239.715 330.41 239.527 330.597C239.34 330.785 239.086 330.89 238.82 330.89Z" fill="#8424DE"/>
<path d="M275.562 289.15C275.366 289.151 275.172 289.099 275.002 289C274.889 288.932 274.79 288.842 274.712 288.736C274.633 288.63 274.576 288.509 274.545 288.381C274.513 288.253 274.507 288.119 274.527 287.989C274.548 287.858 274.594 287.733 274.662 287.62L277.662 282.68C277.717 282.548 277.799 282.429 277.904 282.331C278.008 282.233 278.132 282.159 278.267 282.113C278.403 282.068 278.547 282.052 278.689 282.066C278.831 282.081 278.968 282.126 279.092 282.198C279.215 282.27 279.322 282.368 279.404 282.485C279.487 282.601 279.543 282.735 279.57 282.875C279.596 283.015 279.592 283.16 279.558 283.299C279.524 283.438 279.461 283.568 279.372 283.68L276.372 288.63C276.292 288.778 276.176 288.903 276.034 288.994C275.893 289.085 275.73 289.138 275.562 289.15Z" fill="#8424DE"/>
<path d="M261.804 311.64C261.625 311.64 261.449 311.592 261.294 311.5C261.066 311.365 260.901 311.144 260.836 310.887C260.77 310.631 260.809 310.358 260.944 310.13C263.804 305.27 267.614 298.89 271.664 292.68C271.81 292.459 272.036 292.305 272.295 292.25C272.553 292.196 272.823 292.246 273.044 292.39C273.155 292.462 273.251 292.555 273.325 292.664C273.4 292.773 273.452 292.895 273.479 293.025C273.506 293.154 273.507 293.287 273.482 293.417C273.457 293.546 273.407 293.67 273.334 293.78C269.334 299.95 265.514 306.3 262.664 311.15C262.576 311.299 262.45 311.423 262.299 311.509C262.149 311.595 261.978 311.64 261.804 311.64Z" fill="#8424DE"/>
<path d="M255.363 322.62C255.184 322.617 255.009 322.569 254.853 322.48C254.625 322.345 254.46 322.124 254.394 321.867C254.329 321.611 254.368 321.338 254.503 321.11L257.583 315.86C257.717 315.633 257.934 315.468 258.189 315.4C258.444 315.333 258.715 315.369 258.943 315.5C259.057 315.566 259.156 315.654 259.236 315.759C259.316 315.864 259.374 315.983 259.407 316.11C259.441 316.238 259.449 316.37 259.431 316.501C259.413 316.631 259.37 316.756 259.303 316.87L256.223 322.13C256.135 322.279 256.009 322.403 255.858 322.489C255.707 322.575 255.537 322.62 255.363 322.62Z" fill="#8424DE"/>
<path d="M249.429 332.47C249.245 332.469 249.066 332.417 248.909 332.32C248.797 332.251 248.699 332.161 248.621 332.055C248.544 331.948 248.488 331.827 248.457 331.699C248.426 331.57 248.421 331.437 248.442 331.307C248.463 331.177 248.51 331.052 248.579 330.94C249.406 329.607 250.226 328.273 251.039 326.94C251.185 326.74 251.4 326.601 251.642 326.55C251.884 326.499 252.137 326.539 252.351 326.664C252.565 326.788 252.725 326.988 252.8 327.223C252.876 327.459 252.861 327.714 252.759 327.94C251.939 329.29 251.119 330.64 250.279 331.99C250.19 332.136 250.066 332.257 249.917 332.341C249.768 332.425 249.6 332.469 249.429 332.47Z" fill="#8424DE"/>
<g opacity="0.7">
<path d="M159.432 290.23C159.196 290.229 158.967 290.148 158.782 290L156.332 287.93C156.129 287.759 156.003 287.514 155.98 287.25C155.958 286.985 156.041 286.723 156.212 286.52C156.383 286.317 156.628 286.19 156.892 286.168C157.157 286.145 157.419 286.229 157.622 286.4L160.072 288.47C160.227 288.602 160.338 288.779 160.389 288.976C160.441 289.172 160.432 289.38 160.362 289.572C160.293 289.763 160.166 289.929 160 290.046C159.834 290.164 159.636 290.228 159.432 290.23Z" fill="white"/>
<path d="M172.003 300.77C171.766 300.769 171.537 300.688 171.353 300.54C168.686 298.293 166.019 296.057 163.353 293.83C163.241 293.75 163.148 293.647 163.077 293.529C163.007 293.411 162.962 293.28 162.945 293.143C162.928 293.007 162.939 292.869 162.978 292.737C163.017 292.605 163.082 292.482 163.171 292.377C163.259 292.272 163.368 292.186 163.49 292.124C163.613 292.063 163.748 292.027 163.885 292.02C164.022 292.013 164.159 292.034 164.288 292.082C164.417 292.13 164.534 292.204 164.633 292.3C167.299 294.527 169.966 296.763 172.633 299.01C172.787 299.142 172.898 299.319 172.95 299.516C173.002 299.712 172.992 299.92 172.923 300.112C172.853 300.303 172.727 300.469 172.561 300.586C172.394 300.704 172.196 300.768 171.993 300.77H172.003Z" fill="white"/>
<path d="M182.004 309.26C181.766 309.26 181.535 309.175 181.354 309.02L176.604 305.02C176.503 304.935 176.421 304.83 176.361 304.713C176.3 304.596 176.264 304.468 176.253 304.336C176.243 304.205 176.258 304.073 176.298 303.947C176.339 303.822 176.403 303.706 176.489 303.605C176.574 303.505 176.679 303.422 176.796 303.362C176.913 303.302 177.041 303.265 177.173 303.255C177.304 303.244 177.436 303.259 177.562 303.3C177.687 303.34 177.803 303.405 177.904 303.49L182.644 307.49C182.744 307.575 182.827 307.678 182.888 307.795C182.948 307.912 182.985 308.039 182.996 308.17C183.007 308.301 182.992 308.433 182.953 308.558C182.913 308.683 182.849 308.8 182.764 308.9C182.671 309.012 182.555 309.102 182.424 309.164C182.292 309.226 182.149 309.259 182.004 309.26Z" fill="white"/>
<path d="M203.595 327.61C203.361 327.61 203.135 327.529 202.955 327.38C197.388 322.713 191.841 318.007 186.315 313.26L186.075 313.05C185.974 312.965 185.891 312.862 185.831 312.745C185.77 312.628 185.733 312.501 185.722 312.37C185.711 312.239 185.726 312.107 185.766 311.982C185.806 311.857 185.87 311.74 185.955 311.64C186.04 311.54 186.144 311.458 186.261 311.399C186.378 311.339 186.506 311.303 186.637 311.293C186.768 311.283 186.899 311.298 187.024 311.339C187.149 311.38 187.265 311.445 187.365 311.53L187.615 311.74C193.141 316.447 198.685 321.15 204.245 325.85C204.4 325.983 204.511 326.16 204.562 326.358C204.614 326.556 204.604 326.765 204.533 326.956C204.462 327.148 204.334 327.314 204.166 327.43C203.999 327.547 203.799 327.61 203.595 327.61Z" fill="white"/>
<path d="M213.68 336C213.447 336 213.22 335.919 213.04 335.77L208.25 331.77C208.15 331.685 208.067 331.582 208.007 331.465C207.946 331.348 207.909 331.221 207.898 331.09C207.887 330.959 207.902 330.827 207.942 330.702C207.981 330.577 208.046 330.46 208.13 330.36C208.301 330.16 208.544 330.035 208.806 330.013C209.068 329.99 209.328 330.072 209.53 330.24L214.32 334.24C214.422 334.324 214.505 334.427 214.567 334.543C214.628 334.66 214.666 334.787 214.678 334.918C214.69 335.049 214.676 335.181 214.637 335.307C214.598 335.432 214.535 335.549 214.45 335.65C214.355 335.761 214.237 335.85 214.104 335.91C213.971 335.971 213.827 336.001 213.68 336Z" fill="white"/>
<path d="M200.795 274.15C200.603 274.15 200.416 274.096 200.255 273.993C200.093 273.89 199.965 273.744 199.885 273.57L198.535 270.57C198.426 270.33 198.416 270.056 198.508 269.809C198.6 269.562 198.785 269.361 199.025 269.25C199.144 269.195 199.273 269.163 199.405 269.158C199.536 269.152 199.668 269.173 199.791 269.219C199.915 269.264 200.028 269.334 200.125 269.423C200.222 269.513 200.3 269.62 200.355 269.74L201.705 272.74C201.813 272.98 201.823 273.254 201.731 273.501C201.639 273.748 201.454 273.949 201.215 274.06C201.084 274.123 200.94 274.154 200.795 274.15Z" fill="white"/>
<path d="M209.721 293.25C209.53 293.25 209.343 293.196 209.181 293.093C209.02 292.99 208.892 292.844 208.811 292.67C206.691 288.01 204.811 283.97 202.971 280.33C202.913 280.212 202.878 280.083 202.869 279.952C202.861 279.82 202.878 279.688 202.92 279.563C202.962 279.438 203.029 279.323 203.116 279.224C203.202 279.125 203.308 279.043 203.426 278.985C203.544 278.927 203.673 278.892 203.804 278.883C203.936 278.874 204.068 278.892 204.193 278.934C204.318 278.976 204.433 279.043 204.532 279.129C204.632 279.216 204.713 279.322 204.771 279.44C206.591 283.11 208.501 287.16 210.631 291.84C210.739 292.081 210.748 292.356 210.654 292.603C210.56 292.851 210.372 293.051 210.131 293.16C210.002 293.219 209.863 293.249 209.721 293.25Z" fill="white"/>
<path d="M215.145 305.44C214.951 305.442 214.76 305.387 214.597 305.282C214.434 305.177 214.304 305.027 214.225 304.85C213.495 303.18 212.765 301.52 212.025 299.85C211.935 299.61 211.94 299.345 212.04 299.109C212.139 298.873 212.326 298.685 212.56 298.582C212.795 298.479 213.06 298.471 213.301 298.558C213.542 298.645 213.74 298.821 213.855 299.05C214.595 300.71 215.325 302.38 216.055 304.05C216.108 304.17 216.137 304.3 216.14 304.431C216.144 304.562 216.121 304.693 216.073 304.816C216.026 304.938 215.955 305.05 215.864 305.146C215.774 305.241 215.665 305.317 215.545 305.37C215.418 305.42 215.282 305.444 215.145 305.44Z" fill="white"/>
<path d="M226.741 330.89C226.554 330.89 226.37 330.838 226.211 330.739C226.052 330.64 225.924 330.498 225.841 330.33C222.561 323.7 219.501 316.87 216.691 310.47C216.638 310.35 216.609 310.22 216.606 310.089C216.603 309.958 216.625 309.827 216.673 309.704C216.72 309.582 216.791 309.47 216.882 309.375C216.973 309.279 217.081 309.203 217.201 309.15C217.321 309.097 217.451 309.068 217.582 309.065C217.714 309.061 217.844 309.084 217.967 309.131C218.09 309.179 218.202 309.25 218.297 309.341C218.392 309.431 218.468 309.54 218.521 309.66C221.321 316.04 224.371 322.85 227.631 329.44C227.708 329.592 227.745 329.762 227.737 329.932C227.73 330.102 227.68 330.268 227.591 330.413C227.501 330.558 227.377 330.678 227.228 330.762C227.079 330.845 226.912 330.89 226.741 330.89Z" fill="white"/>
<path d="M238.82 278.48C238.555 278.48 238.301 278.375 238.113 278.187C237.926 278 237.82 277.745 237.82 277.48V267C237.82 266.735 237.926 266.48 238.113 266.293C238.301 266.105 238.555 266 238.82 266C239.086 266 239.34 266.105 239.527 266.293C239.715 266.48 239.82 266.735 239.82 267V277.49C239.818 277.753 239.711 278.005 239.524 278.191C239.337 278.376 239.084 278.48 238.82 278.48Z" fill="white"/>
<path d="M238.88 290.49C238.615 290.49 238.361 290.385 238.173 290.197C237.986 290.01 237.88 289.755 237.88 289.49L237.82 284.24C237.82 283.975 237.926 283.72 238.113 283.533C238.301 283.345 238.555 283.24 238.82 283.24C239.086 283.24 239.34 283.345 239.527 283.533C239.715 283.72 239.82 283.975 239.82 284.24L239.88 289.5C239.88 289.765 239.775 290.02 239.587 290.207C239.4 290.395 239.146 290.5 238.88 290.5V290.49Z" fill="white"/>
<path d="M238.93 317.81C238.664 317.81 238.41 317.705 238.223 317.517C238.035 317.33 237.93 317.075 237.93 316.81C237.93 309.81 237.93 302.68 237.93 295.48C237.93 295.215 238.035 294.96 238.223 294.773C238.41 294.585 238.664 294.48 238.93 294.48C239.195 294.48 239.449 294.585 239.637 294.773C239.824 294.96 239.93 295.215 239.93 295.48C239.93 302.68 239.98 309.86 239.93 316.83C239.924 317.092 239.817 317.341 239.63 317.524C239.443 317.707 239.191 317.81 238.93 317.81Z" fill="white"/>
<path d="M238.82 330.89C238.555 330.89 238.301 330.785 238.113 330.597C237.926 330.41 237.82 330.155 237.82 329.89C237.82 327.82 237.87 325.76 237.89 323.69C237.89 323.425 237.996 323.17 238.183 322.983C238.371 322.795 238.625 322.69 238.89 322.69C239.156 322.69 239.41 322.795 239.597 322.983C239.785 323.17 239.89 323.425 239.89 323.69C239.89 325.76 239.89 327.82 239.82 329.89C239.82 330.155 239.715 330.41 239.527 330.597C239.34 330.785 239.086 330.89 238.82 330.89Z" fill="white"/>
<path d="M275.562 289.15C275.366 289.151 275.172 289.099 275.002 289C274.889 288.932 274.79 288.842 274.712 288.736C274.633 288.63 274.576 288.509 274.545 288.381C274.513 288.253 274.507 288.119 274.527 287.989C274.548 287.858 274.594 287.733 274.662 287.62L277.662 282.68C277.717 282.548 277.799 282.429 277.904 282.331C278.008 282.233 278.132 282.159 278.267 282.113C278.403 282.068 278.547 282.052 278.689 282.066C278.831 282.081 278.968 282.126 279.092 282.198C279.215 282.27 279.322 282.368 279.404 282.485C279.487 282.601 279.543 282.735 279.57 282.875C279.596 283.015 279.592 283.16 279.558 283.299C279.524 283.438 279.461 283.568 279.372 283.68L276.372 288.63C276.292 288.778 276.176 288.903 276.034 288.994C275.893 289.085 275.73 289.138 275.562 289.15Z" fill="white"/>
<path d="M261.804 311.64C261.625 311.64 261.449 311.592 261.294 311.5C261.066 311.365 260.901 311.144 260.836 310.887C260.77 310.631 260.809 310.358 260.944 310.13C263.804 305.27 267.614 298.89 271.664 292.68C271.81 292.459 272.036 292.305 272.295 292.25C272.553 292.196 272.823 292.246 273.044 292.39C273.155 292.462 273.251 292.555 273.325 292.664C273.4 292.773 273.452 292.895 273.479 293.025C273.506 293.154 273.507 293.287 273.482 293.417C273.457 293.546 273.407 293.67 273.334 293.78C269.334 299.95 265.514 306.3 262.664 311.15C262.576 311.299 262.45 311.423 262.299 311.509C262.149 311.595 261.978 311.64 261.804 311.64Z" fill="white"/>
<path d="M255.363 322.62C255.184 322.617 255.009 322.569 254.853 322.48C254.625 322.345 254.46 322.124 254.394 321.867C254.329 321.611 254.368 321.338 254.503 321.11L257.583 315.86C257.717 315.633 257.934 315.468 258.189 315.4C258.444 315.333 258.715 315.369 258.943 315.5C259.057 315.566 259.156 315.654 259.236 315.759C259.316 315.864 259.374 315.983 259.407 316.11C259.441 316.238 259.449 316.37 259.431 316.501C259.413 316.631 259.37 316.756 259.303 316.87L256.223 322.13C256.135 322.279 256.009 322.403 255.858 322.489C255.707 322.575 255.537 322.62 255.363 322.62Z" fill="white"/>
<path d="M249.429 332.47C249.245 332.469 249.066 332.417 248.909 332.32C248.797 332.251 248.699 332.161 248.621 332.055C248.544 331.948 248.488 331.827 248.457 331.699C248.426 331.57 248.421 331.437 248.442 331.307C248.463 331.177 248.51 331.052 248.579 330.94C249.406 329.607 250.226 328.273 251.039 326.94C251.185 326.74 251.4 326.601 251.642 326.55C251.884 326.499 252.137 326.539 252.351 326.664C252.565 326.788 252.725 326.988 252.8 327.223C252.876 327.459 252.861 327.714 252.759 327.94C251.939 329.29 251.119 330.64 250.279 331.99C250.19 332.136 250.066 332.257 249.917 332.341C249.768 332.425 249.6 332.469 249.429 332.47Z" fill="white"/>
</g>
</svg>
