<svg width="500" height="500" viewBox="0 0 500 500" fill="none" xmlns="http://www.w3.org/2000/svg">
<path d="M500 382.4H0V382.65H500V382.4Z" fill="#EBEBEB"/>
<path d="M449.901 398.49H416.781V398.74H449.901V398.49Z" fill="#EBEBEB"/>
<path d="M331.221 401.21H322.531V401.46H331.221V401.21Z" fill="#EBEBEB"/>
<path d="M415.78 389.21H396.59V389.46H415.78V389.21Z" fill="#EBEBEB"/>
<path d="M95.6509 390.89H52.4609V391.14H95.6509V390.89Z" fill="#EBEBEB"/>
<path d="M110.889 390.89H104.559V391.14H110.889V390.89Z" fill="#EBEBEB"/>
<path d="M225.149 395.11H131.469V395.36H225.149V395.11Z" fill="#EBEBEB"/>
<path d="M237.001 337.8H43.9109C42.3983 337.797 40.9485 337.195 39.8798 336.124C38.8112 335.053 38.2109 333.603 38.2109 332.09V60.66C38.2241 59.156 38.8301 57.718 39.8974 56.6582C40.9646 55.5985 42.4069 55.0026 43.9109 55H237.001C238.515 55 239.968 55.6016 241.039 56.6724C242.109 57.7433 242.711 59.1956 242.711 60.71V332.09C242.711 333.604 242.109 335.057 241.039 336.128C239.968 337.198 238.515 337.8 237.001 337.8ZM43.9109 55.2C42.4646 55.2026 41.0784 55.7791 40.0566 56.8027C39.0348 57.8264 38.4609 59.2136 38.4609 60.66V332.09C38.4609 333.536 39.0348 334.924 40.0566 335.947C41.0784 336.971 42.4646 337.547 43.9109 337.55H237.001C238.448 337.547 239.835 336.971 240.859 335.948C241.882 334.924 242.458 333.537 242.461 332.09V60.66C242.458 59.2127 241.882 57.8255 240.859 56.8021C239.835 55.7787 238.448 55.2026 237.001 55.2H43.9109Z" fill="#EBEBEB"/>
<path d="M453.31 337.8H260.21C258.696 337.797 257.246 337.195 256.175 336.125C255.105 335.054 254.503 333.604 254.5 332.09V60.66C254.516 59.1551 255.124 57.7171 256.193 56.6576C257.262 55.5981 258.705 55.0025 260.21 55H453.31C454.812 55.0052 456.252 55.6022 457.317 56.6617C458.382 57.7212 458.987 59.1578 459 60.66V332.09C459 333.601 458.401 335.05 457.335 336.121C456.268 337.191 454.821 337.795 453.31 337.8ZM260.21 55.2C258.763 55.2026 257.375 55.7787 256.352 56.8021C255.329 57.8255 254.753 59.2127 254.75 60.66V332.09C254.753 333.537 255.329 334.924 256.352 335.948C257.375 336.971 258.763 337.547 260.21 337.55H453.31C454.757 337.547 456.145 336.971 457.168 335.948C458.191 334.924 458.767 333.537 458.77 332.09V60.66C458.767 59.2127 458.191 57.8255 457.168 56.8021C456.145 55.7787 454.757 55.2026 453.31 55.2H260.21Z" fill="#EBEBEB"/>
<path d="M210.629 107.71H57.3789V234.03H210.629V107.71Z" fill="#EBEBEB"/>
<path d="M87.5892 120.09H67.6992V139.98H87.5892V120.09Z" fill="#F5F5F5"/>
<path d="M202.128 171.26H182.238V191.15H202.128V171.26Z" fill="#F5F5F5"/>
<path d="M112.218 130.57H92.3281V150.46H112.218V130.57Z" fill="#F5F5F5"/>
<path d="M179.699 177.52H159.809V197.41H179.699V177.52Z" fill="#F5F5F5"/>
<path d="M102.271 177.98H73.6406V216.02H102.271V177.98Z" fill="#F5F5F5"/>
<path d="M134.958 178.27H106.328V216.31H134.958V178.27Z" fill="#F5F5F5"/>
<path d="M192.181 121.5H163.551V159.54H192.181V121.5Z" fill="#F5F5F5"/>
<path d="M449.091 80.46H347.371V293.73H449.091V80.46Z" fill="#EBEBEB"/>
<path d="M451.44 77.6802H345.02V87.7202H451.44V77.6802Z" fill="#E0E0E0"/>
<path d="M451.44 91.8301H345.02V96.8501H451.44V91.8301Z" fill="#E0E0E0"/>
<path d="M451.44 99.28H345.02V104.3H451.44V99.28Z" fill="#E0E0E0"/>
<path d="M451.44 106.73H345.02V111.75H451.44V106.73Z" fill="#E0E0E0"/>
<path d="M451.44 114.18H345.02V119.2H451.44V114.18Z" fill="#E0E0E0"/>
<path d="M451.44 121.62H345.02V126.64H451.44V121.62Z" fill="#E0E0E0"/>
<path d="M451.44 129.07H345.02V134.09H451.44V129.07Z" fill="#E0E0E0"/>
<path d="M451.44 136.52H345.02V141.54H451.44V136.52Z" fill="#E0E0E0"/>
<path d="M451.44 143.97H345.02V148.99H451.44V143.97Z" fill="#E0E0E0"/>
<path d="M451.44 151.42H345.02V156.44H451.44V151.42Z" fill="#E0E0E0"/>
<path d="M451.44 158.86H345.02V163.88H451.44V158.86Z" fill="#E0E0E0"/>
<path d="M451.44 166.31H345.02V171.33H451.44V166.31Z" fill="#E0E0E0"/>
<path d="M451.44 173.76H345.02V178.78H451.44V173.76Z" fill="#E0E0E0"/>
<path d="M451.44 181.21H345.02V186.23H451.44V181.21Z" fill="#E0E0E0"/>
<path d="M451.44 188.66H345.02V193.68H451.44V188.66Z" fill="#E0E0E0"/>
<path d="M451.44 196.11H345.02V201.13H451.44V196.11Z" fill="#E0E0E0"/>
<path d="M451.44 203.55H345.02V208.57H451.44V203.55Z" fill="#E0E0E0"/>
<path d="M451.44 211H345.02V216.02H451.44V211Z" fill="#E0E0E0"/>
<path d="M451.44 218.45H345.02V223.47H451.44V218.45Z" fill="#E0E0E0"/>
<path d="M451.44 225.9H345.02V230.92H451.44V225.9Z" fill="#E0E0E0"/>
<path d="M451.44 233.35H345.02V238.37H451.44V233.35Z" fill="#E0E0E0"/>
<path d="M451.44 240.79H345.02V245.81H451.44V240.79Z" fill="#E0E0E0"/>
<path d="M451.44 248.24H345.02V253.26H451.44V248.24Z" fill="#E0E0E0"/>
<path d="M451.44 255.69H345.02V260.71H451.44V255.69Z" fill="#E0E0E0"/>
<path d="M451.44 263.14H345.02V268.16H451.44V263.14Z" fill="#E0E0E0"/>
<path d="M451.44 270.59H345.02V275.61H451.44V270.59Z" fill="#E0E0E0"/>
<path d="M451.44 278.04H345.02V283.06H451.44V278.04Z" fill="#E0E0E0"/>
<path d="M451.44 285.48H345.02V290.5H451.44V285.48Z" fill="#E0E0E0"/>
<path d="M72.7709 350.28C72.6209 349.28 69.1209 325.11 76.1309 316.77C76.8343 315.886 77.7265 315.17 78.7421 314.675C79.7578 314.181 80.8712 313.919 82.0009 313.91C96.1509 313.57 98.0909 324.91 98.1109 325.06L96.4409 325.32C96.3709 324.91 94.7009 315.32 82.0409 315.59C81.1582 315.604 80.2899 315.815 79.4992 316.208C78.7086 316.601 78.0156 317.165 77.4709 317.86C70.9509 325.62 74.4709 349.79 74.4709 350.03L72.7709 350.28Z" fill="#EBEBEB"/>
<path d="M71.9108 349.18L70.2308 349.13C70.2308 348.91 70.7908 326.88 59.9308 322.33C49.3008 317.87 44.5108 327.03 44.3108 327.43L42.8008 326.67C42.8608 326.56 48.4708 315.67 60.5908 320.77C72.5108 325.77 71.9408 348.23 71.9108 349.18Z" fill="#EBEBEB"/>
<path d="M72.0019 350.91C72.0019 350.56 71.9019 315.72 65.1119 305.53C58.5919 295.75 48.1119 300.35 47.6219 300.53L46.9219 298.99C47.0519 298.93 59.1919 293.57 66.5119 304.57C73.5919 315.18 73.6919 349.43 73.6919 350.88L72.0019 350.91Z" fill="#EBEBEB"/>
<path d="M84.0009 314.74C84.0009 314.74 77.8008 317 79.6308 322.4C81.4608 327.8 101.001 336.63 101.001 336.63C101.001 336.63 109.181 329.13 101.671 316.93C94.1608 304.73 84.1409 310.89 84.0009 314.74Z" fill="#E0E0E0"/>
<path d="M64.7606 303.7C64.7606 303.7 69.1506 303.23 68.7606 300.55C68.3706 297.87 51.7406 291 41.8906 302.13C41.8906 302.13 48.2006 312.96 57.3206 313.13C66.4406 313.3 64.7606 303.7 64.7606 303.7Z" fill="#E0E0E0"/>
<path d="M60.2608 321.55C60.2608 321.55 63.2608 319.1 60.0208 317.91C56.7808 316.72 40.7208 317.06 40.5508 332.91C40.5508 332.91 59.2308 336.01 61.5508 329.96C63.8708 323.91 60.2608 321.55 60.2608 321.55Z" fill="#E0E0E0"/>
<path d="M87.3014 382.64H58.3214L55.1914 350.91H90.4214L87.3014 382.64Z" fill="#EBEBEB"/>
<path d="M91.9684 347.41H53.6484V354.41H91.9684V347.41Z" fill="#E0E0E0"/>
<path d="M434.198 353.91C434.198 353.91 428.548 341.58 434.998 329.43C441.448 317.28 443.328 314.43 439.208 311.93C435.088 309.43 433.208 321.65 433.208 321.65C433.208 321.65 429.738 313.25 432.608 304.46C435.478 295.67 437.268 281.35 433.348 279.82C429.428 278.29 432.608 297.68 429.208 304.29C427.48 299.648 426.364 294.801 425.888 289.87C425.428 282.81 426.158 271.53 423.068 268.64C419.978 265.75 417.998 267.75 421.068 283.33C422.886 292.642 423.89 302.094 424.068 311.58C424.068 311.58 417.368 291.14 412.868 290.58C408.368 290.02 408.368 296.58 412.228 302.35C416.088 308.12 423.498 318.35 424.718 323.67C424.718 323.67 417.358 308.28 410.718 313C404.078 317.72 416.488 327 421.998 330.36C427.508 333.72 431.348 354.76 431.348 354.76L434.198 353.91Z" fill="#E0E0E0"/>
<path d="M429.74 359C429.74 359 435.24 346.59 428.64 334.54C422.04 322.49 420.13 319.65 424.22 317.1C428.31 314.55 430.34 326.73 430.34 326.73C430.34 326.73 433.7 318.28 430.73 309.54C427.76 300.8 425.8 286.54 429.73 284.9C433.66 283.26 430.73 302.75 434.16 309.31C435.833 304.643 436.891 299.779 437.31 294.84C437.69 287.78 436.83 276.52 439.88 273.58C442.93 270.64 444.93 272.58 442.09 288.24C440.376 297.574 439.48 307.04 439.41 316.53C439.41 316.53 445.87 295.99 450.36 295.33C454.85 294.67 454.93 301.28 451.15 307.08C447.37 312.88 440.06 323.27 438.91 328.58C438.91 328.58 446.08 313.09 452.75 317.71C459.42 322.33 447.16 331.8 441.68 335.24C436.2 338.68 432.63 359.77 432.63 359.77L429.74 359Z" fill="#EBEBEB"/>
<path d="M455.112 350.12H409.672L413.342 382.64H451.432L455.112 350.12Z" fill="#EBEBEB"/>
<path d="M334.898 349.88L331.898 349.45C332.438 345.71 335.558 338.64 343.558 338.64C353.038 338.64 357.748 344.11 358.228 349.53L355.228 349.79C354.868 345.73 351.128 341.64 343.548 341.64C336.208 341.64 334.998 349.54 334.898 349.88Z" fill="#E0E0E0"/>
<path d="M370.001 347.24H321.271C318.604 347.24 316.441 349.402 316.441 352.07V377.27C316.441 379.938 318.604 382.1 321.271 382.1H370.001C372.669 382.1 374.831 379.938 374.831 377.27V352.07C374.831 349.402 372.669 347.24 370.001 347.24Z" fill="#EBEBEB"/>
<path d="M358.26 382.64C317 382.64 315 354.33 315 354L316.68 350.72C316.74 351.77 319.99 379.6 358.31 379.6C374.07 379.6 387.69 379.6 389.07 376.6C390.28 373.94 384.36 367.14 374.89 356.23V352.05C386.96 365.95 393.81 373.43 391.8 377.84C389.65 382.45 380.53 382.64 358.26 382.64Z" fill="#E0E0E0"/>
<path d="M249.999 427.56C357.082 427.56 443.889 422.492 443.889 416.24C443.889 409.988 357.082 404.92 249.999 404.92C142.917 404.92 56.1094 409.988 56.1094 416.24C56.1094 422.492 142.917 427.56 249.999 427.56Z" fill="#F5F5F5"/>
<path d="M332.72 92.08C334.046 92.08 335.318 92.6068 336.255 93.5445C337.193 94.4821 337.72 95.7539 337.72 97.08V260.31C337.72 261.636 337.193 262.908 336.255 263.846C335.318 264.783 334.046 265.31 332.72 265.31H113.55C112.224 265.31 110.952 264.783 110.014 263.846C109.077 262.908 108.55 261.636 108.55 260.31V97C108.55 95.6739 109.077 94.4021 110.014 93.4645C110.952 92.5268 112.224 92 113.55 92H332.72M332.72 90.75H113.55C112.731 90.75 111.92 90.9119 111.164 91.2265C110.408 91.5411 109.722 92.0021 109.145 92.583C108.567 93.1639 108.111 93.8532 107.801 94.6113C107.491 95.3693 107.335 96.1811 107.34 97V260.31C107.34 261.957 107.994 263.537 109.159 264.701C110.323 265.866 111.903 266.52 113.55 266.52H332.72C334.367 266.52 335.947 265.866 337.111 264.701C338.276 263.537 338.93 261.957 338.93 260.31V97C338.93 95.353 338.276 93.7735 337.111 92.6089C335.947 91.4443 334.367 90.79 332.72 90.79V90.75Z" fill="#8424DE"/>
<path opacity="0.7" d="M332.72 90.8301H113.55C110.12 90.8301 107.34 93.6104 107.34 97.0401V260.31C107.34 263.74 110.12 266.52 113.55 266.52H332.72C336.15 266.52 338.93 263.74 338.93 260.31V97.0401C338.93 93.6104 336.15 90.8301 332.72 90.8301Z" fill="white"/>
<path d="M313.089 109.05H310.219V111.44H313.089V109.05Z" fill="#8424DE"/>
<path d="M313.079 243H310.219V238.3H313.079V243ZM313.079 233.6H310.219V228.9H313.079V233.6ZM313.079 224.21H310.219V219.51H313.079V224.21ZM313.079 214.81H310.219V210.12H313.079V214.81ZM313.079 205.42H310.219V200.72H313.079V205.42ZM313.079 196.02H310.219V191.33H313.079V196.02ZM313.079 186.63H310.219V181.93H313.079V186.63ZM313.079 177.24H310.219V172.54H313.079V177.24ZM313.079 167.84H310.219V163.14H313.079V167.84ZM313.079 158.45H310.219V153.75H313.079V158.45ZM313.079 149.05H310.219V144.36H313.079V149.05ZM313.079 139.66H310.219V134.96H313.079V139.66ZM313.079 130.26H310.219V125.57H313.079V130.26ZM313.079 120.87H310.219V116.17H313.079V120.87Z" fill="#8424DE"/>
<path d="M313.089 247.65H310.219V250.04H313.089V247.65Z" fill="#8424DE"/>
<path d="M139.741 243H136.871V238.3H139.741V243Z" fill="#8424DE"/>
<path d="M139.741 247.65H136.871V250.04H139.741V247.65Z" fill="#8424DE"/>
<path d="M174.409 243H171.539V238.3H174.409V243ZM174.409 233.6H171.539V228.9H174.409V233.6ZM174.409 224.21H171.539V219.51H174.409V224.21ZM174.409 214.81H171.539V210.12H174.409V214.81Z" fill="#8424DE"/>
<path d="M174.409 247.65H171.539V250.04H174.409V247.65Z" fill="#8424DE"/>
<path d="M209.081 243H206.211V238.3H209.081V243ZM209.081 233.6H206.211V228.9H209.081V233.6ZM209.081 224.21H206.211V219.51H209.081V224.21ZM209.081 214.81H206.211V210.12H209.081V214.81ZM209.081 205.42H206.211V200.72H209.081V205.42Z" fill="#8424DE"/>
<path d="M209.081 247.65H206.211V250.04H209.081V247.65Z" fill="#8424DE"/>
<path d="M243.749 243H240.879V238.3H243.749V243ZM243.749 233.6H240.879V228.9H243.749V233.6ZM243.749 224.21H240.879V219.51H243.749V224.21ZM243.749 214.81H240.879V210.12H243.749V214.81ZM243.749 205.42H240.879V200.72H243.749V205.42ZM243.749 196.02H240.879V191.33H243.749V196.02ZM243.749 186.63H240.879V181.93H243.749V186.63ZM243.749 177.24H240.879V172.54H243.749V177.24Z" fill="#8424DE"/>
<path d="M243.749 247.65H240.879V250.04H243.749V247.65Z" fill="#8424DE"/>
<path d="M278.421 243H275.551V238.3H278.421V243ZM278.421 233.6H275.551V228.9H278.421V233.6ZM278.421 224.21H275.551V219.51H278.421V224.21ZM278.421 214.81H275.551V210.12H278.421V214.81ZM278.421 205.42H275.551V200.72H278.421V205.42ZM278.421 196.02H275.551V191.33H278.421V196.02ZM278.421 186.63H275.551V181.93H278.421V186.63ZM278.421 177.24H275.551V172.54H278.421V177.24ZM278.421 167.84H275.551V163.14H278.421V167.84ZM278.421 158.45H275.551V153.75H278.421V158.45Z" fill="#8424DE"/>
<path d="M278.421 247.65H275.551V250.04H278.421V247.65Z" fill="#8424DE"/>
<g opacity="0.7">
<path d="M313.093 109.05H310.223V111.44H313.093V109.05Z" fill="white"/>
<path d="M313.083 243H310.223V238.3H313.083V243ZM313.083 233.6H310.223V228.9H313.083V233.6ZM313.083 224.21H310.223V219.51H313.083V224.21ZM313.083 214.81H310.223V210.12H313.083V214.81ZM313.083 205.42H310.223V200.72H313.083V205.42ZM313.083 196.02H310.223V191.33H313.083V196.02ZM313.083 186.63H310.223V181.93H313.083V186.63ZM313.083 177.24H310.223V172.54H313.083V177.24ZM313.083 167.84H310.223V163.14H313.083V167.84ZM313.083 158.45H310.223V153.75H313.083V158.45ZM313.083 149.05H310.223V144.36H313.083V149.05ZM313.083 139.66H310.223V134.96H313.083V139.66ZM313.083 130.26H310.223V125.57H313.083V130.26ZM313.083 120.87H310.223V116.17H313.083V120.87Z" fill="white"/>
<path d="M313.093 247.65H310.223V250.04H313.093V247.65Z" fill="white"/>
<path d="M139.741 243H136.871V238.3H139.741V243Z" fill="white"/>
<path d="M139.741 247.65H136.871V250.04H139.741V247.65Z" fill="white"/>
<path d="M174.413 243H171.543V238.3H174.413V243ZM174.413 233.6H171.543V228.9H174.413V233.6ZM174.413 224.21H171.543V219.51H174.413V224.21ZM174.413 214.81H171.543V210.12H174.413V214.81Z" fill="white"/>
<path d="M174.413 247.65H171.543V250.04H174.413V247.65Z" fill="white"/>
<path d="M209.081 243H206.211V238.3H209.081V243ZM209.081 233.6H206.211V228.9H209.081V233.6ZM209.081 224.21H206.211V219.51H209.081V224.21ZM209.081 214.81H206.211V210.12H209.081V214.81ZM209.081 205.42H206.211V200.72H209.081V205.42Z" fill="white"/>
<path d="M209.081 247.65H206.211V250.04H209.081V247.65Z" fill="white"/>
<path d="M243.753 243H240.883V238.3H243.753V243ZM243.753 233.6H240.883V228.9H243.753V233.6ZM243.753 224.21H240.883V219.51H243.753V224.21ZM243.753 214.81H240.883V210.12H243.753V214.81ZM243.753 205.42H240.883V200.72H243.753V205.42ZM243.753 196.02H240.883V191.33H243.753V196.02ZM243.753 186.63H240.883V181.93H243.753V186.63ZM243.753 177.24H240.883V172.54H243.753V177.24Z" fill="white"/>
<path d="M243.753 247.65H240.883V250.04H243.753V247.65Z" fill="white"/>
<path d="M278.421 243H275.551V238.3H278.421V243ZM278.421 233.6H275.551V228.9H278.421V233.6ZM278.421 224.21H275.551V219.51H278.421V224.21ZM278.421 214.81H275.551V210.12H278.421V214.81ZM278.421 205.42H275.551V200.72H278.421V205.42ZM278.421 196.02H275.551V191.33H278.421V196.02ZM278.421 186.63H275.551V181.93H278.421V186.63ZM278.421 177.24H275.551V172.54H278.421V177.24ZM278.421 167.84H275.551V163.14H278.421V167.84ZM278.421 158.45H275.551V153.75H278.421V158.45Z" fill="white"/>
<path d="M278.421 247.65H275.551V250.04H278.421V247.65Z" fill="white"/>
</g>
<path d="M311.652 104.25C310.85 104.25 310.062 104.451 309.359 104.835C308.656 105.219 308.06 105.773 307.626 106.446C307.192 107.12 306.934 107.892 306.876 108.691C306.818 109.49 306.96 110.291 307.292 111.02L278.682 141.28C277.956 140.997 277.173 140.895 276.399 140.983C275.626 141.071 274.885 141.347 274.243 141.787C273.6 142.226 273.075 142.816 272.712 143.505C272.349 144.194 272.16 144.961 272.162 145.74C272.151 145.9 272.151 146.06 272.162 146.22L245.242 160.64C244.401 159.933 243.34 159.54 242.242 159.53C240.972 159.533 239.755 160.038 238.857 160.936C237.96 161.834 237.454 163.05 237.452 164.32C237.46 164.771 237.531 165.218 237.662 165.65L209.872 187.79C209.166 187.383 208.366 187.166 207.552 187.16C206.383 187.164 205.255 187.595 204.382 188.372C203.509 189.15 202.951 190.219 202.812 191.38L176.622 198.56C176.015 197.766 175.174 197.182 174.217 196.892C173.261 196.602 172.237 196.619 171.291 196.942C170.346 197.264 169.525 197.876 168.945 198.69C168.366 199.505 168.057 200.481 168.062 201.48C168.065 201.931 168.136 202.379 168.272 202.81L140.482 225C139.776 224.592 138.977 224.374 138.162 224.37C137.211 224.368 136.282 224.648 135.491 225.175C134.7 225.701 134.083 226.451 133.719 227.328C133.354 228.206 133.258 229.172 133.443 230.104C133.628 231.036 134.086 231.892 134.757 232.564C135.429 233.236 136.286 233.693 137.218 233.878C138.15 234.063 139.116 233.967 139.993 233.603C140.871 233.238 141.62 232.621 142.147 231.83C142.673 231.04 142.954 230.11 142.952 229.16C142.943 228.709 142.872 228.262 142.742 227.83L170.542 205.69C171.247 206.098 172.047 206.316 172.862 206.32C174.027 206.314 175.151 205.883 176.021 205.108C176.892 204.333 177.45 203.267 177.592 202.11L203.782 194.92C204.387 195.718 205.229 196.306 206.187 196.599C207.145 196.892 208.172 196.875 209.12 196.552C210.069 196.229 210.891 195.615 211.471 194.798C212.051 193.981 212.359 193.002 212.352 192C212.343 191.549 212.272 191.102 212.142 190.67L239.932 168.53C240.637 168.937 241.437 169.154 242.252 169.16C243.523 169.16 244.742 168.656 245.642 167.758C246.542 166.86 247.049 165.641 247.052 164.37C247.052 164.2 247.052 164.05 247.002 163.88L273.922 149.47C274.752 150.162 275.794 150.551 276.875 150.574C277.956 150.596 279.012 150.251 279.871 149.594C280.73 148.937 281.34 148.008 281.602 146.959C281.864 145.91 281.761 144.803 281.312 143.82L309.932 113.55C310.478 113.771 311.062 113.886 311.652 113.89C312.885 113.834 314.05 113.304 314.903 112.411C315.756 111.518 316.233 110.33 316.233 109.095C316.233 107.86 315.756 106.672 314.903 105.779C314.05 104.886 312.885 104.356 311.652 104.3V104.25Z" fill="#8424DE"/>
<path d="M201.848 181.79C201.581 181.789 201.319 181.864 201.094 182.008C200.869 182.152 200.69 182.357 200.578 182.6H172.218C171.722 182.6 171.247 182.403 170.896 182.052C170.545 181.702 170.348 181.226 170.348 180.73V151H169.148V180.75C169.151 181.562 169.476 182.341 170.051 182.914C170.627 183.488 171.406 183.81 172.218 183.81H200.578C200.686 184.036 200.852 184.229 201.059 184.37C201.266 184.51 201.508 184.592 201.757 184.607C202.007 184.623 202.257 184.571 202.48 184.457C202.703 184.343 202.891 184.172 203.025 183.96C203.159 183.749 203.234 183.506 203.243 183.256C203.251 183.005 203.192 182.758 203.072 182.538C202.951 182.318 202.774 182.135 202.559 182.007C202.344 181.879 202.099 181.811 201.848 181.81V181.79Z" fill="#8424DE"/>
<path d="M186.392 142.71H153.102C151.671 142.71 150.512 143.87 150.512 145.3V154.71C150.512 156.14 151.671 157.3 153.102 157.3H186.392C187.822 157.3 188.982 156.14 188.982 154.71V145.3C188.982 143.87 187.822 142.71 186.392 142.71Z" fill="#8424DE"/>
<g opacity="0.4">
<path d="M201.852 181.79C201.585 181.789 201.323 181.864 201.098 182.008C200.873 182.152 200.694 182.357 200.582 182.6H172.222C171.726 182.6 171.251 182.403 170.9 182.052C170.549 181.702 170.352 181.226 170.352 180.73V151H169.152V180.75C169.155 181.562 169.48 182.341 170.055 182.914C170.631 183.488 171.41 183.81 172.222 183.81H200.582C200.69 184.036 200.856 184.229 201.063 184.37C201.27 184.51 201.511 184.592 201.761 184.607C202.011 184.623 202.261 184.571 202.484 184.457C202.707 184.343 202.895 184.172 203.029 183.96C203.163 183.749 203.238 183.506 203.247 183.256C203.255 183.005 203.196 182.758 203.075 182.538C202.955 182.318 202.778 182.135 202.563 182.007C202.348 181.879 202.103 181.811 201.852 181.81V181.79Z" fill="white"/>
<path d="M186.392 142.71H153.102C151.671 142.71 150.512 143.87 150.512 145.3V154.71C150.512 156.14 151.671 157.3 153.102 157.3H186.392C187.822 157.3 188.982 156.14 188.982 154.71V145.3C188.982 143.87 187.822 142.71 186.392 142.71Z" fill="white"/>
</g>
<path d="M242.849 151.57V108.7H241.659V151.57C241.368 151.705 241.132 151.936 240.989 152.224C240.847 152.512 240.808 152.84 240.877 153.153C240.946 153.466 241.121 153.747 241.371 153.948C241.621 154.149 241.933 154.258 242.254 154.258C242.575 154.258 242.886 154.149 243.136 153.948C243.387 153.747 243.561 153.466 243.63 153.153C243.7 152.84 243.66 152.512 243.518 152.224C243.376 151.936 243.14 151.705 242.849 151.57Z" fill="#8424DE"/>
<path d="M258.9 101.4H225.61C224.179 101.4 223.02 102.559 223.02 103.99V113.4C223.02 114.83 224.179 115.99 225.61 115.99H258.9C260.33 115.99 261.49 114.83 261.49 113.4V103.99C261.49 102.559 260.33 101.4 258.9 101.4Z" fill="#8424DE"/>
<g opacity="0.4">
<path d="M242.849 151.57V108.7H241.659V151.57C241.368 151.705 241.132 151.936 240.989 152.224C240.847 152.512 240.808 152.84 240.877 153.153C240.946 153.466 241.121 153.747 241.371 153.948C241.621 154.149 241.933 154.258 242.254 154.258C242.575 154.258 242.886 154.149 243.136 153.948C243.387 153.747 243.561 153.466 243.63 153.153C243.7 152.84 243.66 152.512 243.518 152.224C243.376 151.936 243.14 151.705 242.849 151.57Z" fill="white"/>
<path d="M258.9 101.4H225.61C224.179 101.4 223.02 102.559 223.02 103.99V113.4C223.02 114.83 224.179 115.99 225.61 115.99H258.9C260.33 115.99 261.49 114.83 261.49 113.4V103.99C261.49 102.559 260.33 101.4 258.9 101.4Z" fill="white"/>
</g>
<path d="M322.511 256.32H124.691C124.691 255.317 125.089 254.354 125.798 253.644C126.507 252.933 127.468 252.533 128.471 252.53H318.721C319.727 252.53 320.691 252.929 321.401 253.64C322.112 254.351 322.511 255.315 322.511 256.32Z" fill="#8424DE"/>
<path opacity="0.4" d="M322.511 256.32H124.691C124.691 255.317 125.089 254.354 125.798 253.644C126.507 252.933 127.468 252.533 128.471 252.53H318.721C319.727 252.53 320.691 252.929 321.401 253.64C322.112 254.351 322.511 255.315 322.511 256.32Z" fill="white"/>
<path opacity="0.2" d="M172.86 204.91C174.754 204.91 176.29 203.374 176.29 201.48C176.29 199.586 174.754 198.05 172.86 198.05C170.965 198.05 169.43 199.586 169.43 201.48C169.43 203.374 170.965 204.91 172.86 204.91Z" fill="white"/>
<path opacity="0.4" d="M207.559 195.39C209.453 195.39 210.989 193.854 210.989 191.96C210.989 190.066 209.453 188.53 207.559 188.53C205.665 188.53 204.129 190.066 204.129 191.96C204.129 193.854 205.665 195.39 207.559 195.39Z" fill="white"/>
<path opacity="0.6" d="M242.25 167.75C244.145 167.75 245.68 166.214 245.68 164.32C245.68 162.426 244.145 160.89 242.25 160.89C240.356 160.89 238.82 162.426 238.82 164.32C238.82 166.214 240.356 167.75 242.25 167.75Z" fill="white"/>
<path opacity="0.8" d="M276.95 149.17C278.844 149.17 280.38 147.634 280.38 145.74C280.38 143.846 278.844 142.31 276.95 142.31C275.055 142.31 273.52 143.846 273.52 145.74C273.52 147.634 275.055 149.17 276.95 149.17Z" fill="white"/>
<path d="M311.649 112.48C313.543 112.48 315.079 110.944 315.079 109.05C315.079 107.156 313.543 105.62 311.649 105.62C309.754 105.62 308.219 107.156 308.219 109.05C308.219 110.944 309.754 112.48 311.649 112.48Z" fill="white"/>
<path d="M432.859 253L437.119 264.2C437.119 264.2 441.999 266.95 442.369 267.73C442.739 268.51 443.819 278.05 443.049 279.06C442.279 280.07 432.339 277.44 432.319 276.4C432.299 275.36 431.829 266.84 431.829 266.84L426.109 254.6L432.859 253Z" fill="#E4897B"/>
<path d="M412.25 164.63C419.66 169.07 420.45 209.4 421.64 213.17C422.83 216.94 437.48 258.47 437.48 258.47L427.18 262.47C427.18 262.47 412.53 231.62 409.37 222.89C406.21 214.16 404.09 194.39 404.09 194.39L412.25 164.63Z" fill="#8424DE"/>
<path opacity="0.2" d="M412.25 164.63C419.66 169.07 420.45 209.4 421.64 213.17C422.83 216.94 437.48 258.47 437.48 258.47L427.18 262.47C427.18 262.47 412.53 231.62 409.37 222.89C406.21 214.16 404.09 194.39 404.09 194.39L412.25 164.63Z" fill="black"/>
<path d="M402.168 159.37C391.008 153.24 376.588 154.53 376.588 154.53L363.728 172.71L345.578 237.6L348.248 240.03L349.388 234.88L398.738 239.88L399.568 246.6L402.408 245.21L404.088 165.44L402.168 159.37Z" fill="#8424DE"/>
<path opacity="0.4" d="M402.168 159.37C391.008 153.24 376.588 154.53 376.588 154.53L363.728 172.71L345.578 237.6L348.248 240.03L349.388 234.88L398.738 239.88L399.568 246.6L402.408 245.21L404.088 165.44L402.168 159.37Z" fill="black"/>
<path d="M332.218 112.07L328.658 100C329.071 97.454 329.281 94.8793 329.288 92.3001C329.078 90.1001 323.908 85.8901 322.288 84.4101C320.668 82.9301 313.968 87.73 314.288 88.77C314.608 89.81 318.518 97.9601 319.758 98.9001L321.758 100.03L324.848 115.23L332.218 112.07Z" fill="#E4897B"/>
<path d="M366.689 155.52C355.369 149.72 346.739 140.76 343.569 135.52C340.399 130.28 331.069 102.87 331.069 102.87L321.219 104.37C321.219 104.37 327.149 138.04 330.319 145.37C333.489 152.7 362.589 179.3 362.589 179.3L366.689 155.52Z" fill="#8424DE"/>
<path opacity="0.2" d="M366.689 155.52C355.369 149.72 346.739 140.76 343.569 135.52C340.399 130.28 331.069 102.87 331.069 102.87L321.219 104.37C321.219 104.37 327.149 138.04 330.319 145.37C333.489 152.7 362.589 179.3 362.589 179.3L366.689 155.52Z" fill="black"/>
<path d="M359.327 408.55L351.217 409.41L349.688 391.91L357.807 391.05L359.327 408.55Z" fill="#E4897B"/>
<path d="M399.807 407.96H391.947L391.297 389.75H399.167L399.807 407.96Z" fill="#E4897B"/>
<path d="M390.859 407.05H400.409C400.565 407.051 400.716 407.105 400.838 407.203C400.96 407.301 401.045 407.438 401.079 407.59L402.629 414.59C402.691 414.891 402.631 415.205 402.462 415.461C402.293 415.718 402.03 415.898 401.729 415.96C401.646 415.97 401.562 415.97 401.479 415.96C398.389 415.91 396.139 415.72 392.259 415.72C389.869 415.72 382.659 415.97 379.359 415.97C376.059 415.97 375.629 412.71 376.979 412.41C383.039 411.09 387.599 409.26 389.539 407.52C389.902 407.2 390.375 407.032 390.859 407.05Z" fill="#263238"/>
<path d="M388.259 408.43C387.725 408.472 387.192 408.331 386.749 408.03C386.603 407.911 386.49 407.757 386.422 407.581C386.354 407.406 386.332 407.216 386.359 407.03C386.355 406.922 386.383 406.814 386.44 406.722C386.497 406.629 386.58 406.555 386.679 406.51C387.549 406.06 390.089 407.62 390.369 407.8C390.4 407.818 390.425 407.844 390.441 407.876C390.457 407.908 390.463 407.945 390.459 407.98C390.454 408.018 390.438 408.053 390.413 408.082C390.388 408.11 390.355 408.13 390.319 408.14C389.645 408.311 388.954 408.408 388.259 408.43ZM387.089 406.8C387.005 406.791 386.921 406.808 386.849 406.85C386.799 406.85 386.739 406.92 386.729 407.07C386.713 407.194 386.728 407.319 386.771 407.436C386.815 407.553 386.886 407.657 386.979 407.74C387.861 408.14 388.861 408.19 389.779 407.88C388.961 407.349 388.047 406.982 387.089 406.8Z" fill="#8424DE"/>
<path d="M390.267 408.15H390.177C389.367 407.71 387.797 405.98 387.957 405.15C387.984 405.012 388.059 404.887 388.169 404.798C388.278 404.708 388.415 404.66 388.557 404.66C388.698 404.642 388.841 404.653 388.978 404.695C389.114 404.736 389.24 404.806 389.347 404.9C390.257 405.64 390.447 407.9 390.457 408.01C390.456 408.043 390.447 408.076 390.431 408.105C390.416 408.135 390.394 408.16 390.367 408.18C390.331 408.181 390.296 408.17 390.267 408.15ZM388.687 405H388.597C388.357 405 388.337 405.14 388.327 405.19C388.227 405.7 389.227 407.01 390.037 407.62C389.984 406.725 389.66 405.866 389.107 405.16C388.989 405.06 388.841 405.004 388.687 405Z" fill="#8424DE"/>
<path d="M350.359 406.8H359.909C360.065 406.801 360.216 406.855 360.338 406.953C360.46 407.051 360.545 407.188 360.579 407.34L362.129 414.34C362.191 414.641 362.131 414.955 361.962 415.211C361.793 415.468 361.53 415.648 361.229 415.71C361.146 415.72 361.062 415.72 360.979 415.71C357.889 415.66 355.639 415.47 351.759 415.47C349.369 415.47 342.159 415.72 338.859 415.72C335.559 415.72 335.129 412.46 336.479 412.16C342.539 410.84 347.099 409.01 349.039 407.27C349.402 406.95 349.875 406.782 350.359 406.8Z" fill="#263238"/>
<path d="M347.759 408.18C347.225 408.222 346.692 408.081 346.249 407.78C346.103 407.661 345.99 407.507 345.922 407.331C345.854 407.156 345.832 406.966 345.859 406.78C345.855 406.672 345.883 406.564 345.94 406.472C345.997 406.379 346.08 406.305 346.179 406.26C347.049 405.81 349.589 407.37 349.869 407.55C349.9 407.568 349.925 407.594 349.941 407.626C349.957 407.658 349.963 407.695 349.959 407.73C349.954 407.768 349.938 407.803 349.913 407.832C349.888 407.86 349.855 407.88 349.819 407.89C349.145 408.061 348.454 408.158 347.759 408.18ZM346.589 406.55C346.505 406.541 346.421 406.558 346.349 406.6C346.299 406.6 346.239 406.67 346.229 406.82C346.213 406.944 346.228 407.069 346.271 407.186C346.315 407.303 346.386 407.407 346.479 407.49C347.361 407.89 348.361 407.94 349.279 407.63C348.461 407.099 347.547 406.732 346.589 406.55Z" fill="#8424DE"/>
<path d="M349.767 407.9H349.677C348.867 407.46 347.297 405.73 347.457 404.9C347.484 404.762 347.559 404.637 347.669 404.548C347.778 404.458 347.915 404.41 348.057 404.41C348.198 404.392 348.341 404.403 348.478 404.445C348.614 404.486 348.74 404.556 348.847 404.65C349.757 405.39 349.947 407.65 349.957 407.76C349.956 407.793 349.947 407.826 349.931 407.855C349.916 407.885 349.894 407.91 349.867 407.93C349.831 407.931 349.796 407.92 349.767 407.9ZM348.187 404.71H348.097C347.857 404.71 347.837 404.85 347.827 404.9C347.727 405.41 348.727 406.72 349.537 407.33C349.484 406.435 349.16 405.576 348.607 404.87C348.489 404.77 348.341 404.714 348.187 404.71Z" fill="#8424DE"/>
<path opacity="0.2" d="M357.807 391.05L349.688 391.91L350.487 400.94L358.598 400.08L357.807 391.05Z" fill="black"/>
<path opacity="0.2" d="M399.167 389.76H391.297L391.637 399.15H399.507L399.167 389.76Z" fill="black"/>
<path d="M395.92 230H354.2C350.2 251.67 337.81 328.33 346.72 396.63L360.85 394.88C360.85 394.88 359.54 304.22 372 270.7C373.44 288.64 375.14 307.7 376.62 317.89C380.25 342.89 388.02 397.52 388.02 397.52H402.4C402.4 397.52 399.46 345.23 398.1 320.66C396.62 294 396 235.5 395.92 230Z" fill="#263238"/>
<path opacity="0.2" d="M371.997 270.7C369.943 276.577 368.385 282.614 367.337 288.75C366.167 272.75 370.837 255.86 370.837 255.86L371.997 270.7Z" fill="black"/>
<path d="M345.107 399.94L362.587 397.34L362.057 392.5L343.867 394.89L345.107 399.94Z" fill="#8424DE"/>
<path opacity="0.6" d="M345.107 399.94L362.587 397.34L362.057 392.5L343.867 394.89L345.107 399.94Z" fill="white"/>
<path d="M386.3 397.64H403.26V392.57L385.66 392.24L386.3 397.64Z" fill="#8424DE"/>
<path opacity="0.6" d="M386.3 397.64H403.26V392.57L385.66 392.24L386.3 397.64Z" fill="white"/>
<path d="M353.849 230.52H395.849V235.52L353.309 235.01L353.849 230.52Z" fill="#263238"/>
<path opacity="0.2" d="M353.849 230.52H395.849V235.52L353.309 235.01L353.849 230.52Z" fill="white"/>
<path d="M382.348 228.27H380.848V237.15H382.348V228.27Z" fill="#263238"/>
<path d="M361.098 228.27H359.598V237.15H361.098V228.27Z" fill="#263238"/>
<path d="M366.689 155.52C366.689 155.52 393.189 157.37 412.249 164.63C412.249 164.63 398.459 207.26 395.879 232.13L353.879 230.52C353.879 230.52 356.839 180.34 366.689 155.52Z" fill="#8424DE"/>
<path opacity="0.7" d="M412.248 164.63C412.248 164.63 409.498 173.13 406.248 184.74C405.038 189.06 403.748 193.81 402.498 198.74C399.598 210.2 396.898 222.51 395.898 232.15L353.898 230.54C353.898 230.54 356.898 180.36 366.738 155.54C366.688 155.52 393.188 157.37 412.248 164.63Z" fill="white"/>
<path d="M397.59 160.09C393.38 163.09 384.21 160.73 384.21 160.73C384.21 160.73 378.58 158.46 380.01 156.78C383.5 156.62 385.35 155.21 386.28 153.25C386.799 152.022 387.071 150.703 387.08 149.37C387.12 148.634 387.12 147.896 387.08 147.16L399.57 140C397.4 145.43 394.34 155.57 397.59 160.09Z" fill="#E4897B"/>
<path opacity="0.2" d="M396.27 145.09C395.01 151.94 389.1 153.19 386.27 153.25C386.789 152.022 387.061 150.703 387.07 149.37L396.27 145.09Z" fill="black"/>
<path d="M389.798 117.82C389.798 117.82 382.588 126.07 385.198 132.67C387.808 139.27 398.648 122.27 398.648 122.27L389.798 117.82Z" fill="#263238"/>
<path d="M394.65 148.91C392.675 149.766 390.473 149.95 388.382 149.433C386.292 148.917 384.429 147.728 383.08 146.05C381.292 143.916 380.386 141.179 380.55 138.4C380.566 138.011 380.606 137.624 380.67 137.24C381.84 130.14 387.3 119.89 395.54 119.99C397.364 119.995 399.155 120.467 400.744 121.362C402.333 122.257 403.666 123.545 404.615 125.102C405.564 126.659 406.098 128.433 406.165 130.256C406.233 132.078 405.832 133.887 405 135.51C401.52 142.5 399.83 146.77 394.65 148.91Z" fill="#E4897B"/>
<path d="M393.21 132.94C393.01 133.53 392.46 133.87 392.08 133.7C391.7 133.53 391.59 132.93 391.83 132.35C392.07 131.77 392.59 131.43 392.97 131.59C393.35 131.75 393.46 132.34 393.21 132.94Z" fill="#263238"/>
<path d="M386.607 130.16C386.397 130.75 385.847 131.08 385.467 130.92C385.087 130.76 384.977 130.15 385.217 129.57C385.457 128.99 385.977 128.65 386.357 128.81C386.737 128.97 386.837 129.6 386.607 130.16Z" fill="#263238"/>
<path d="M388.577 131.33C387.133 132.824 385.487 134.11 383.688 135.15C383.967 135.608 384.344 135.999 384.792 136.294C385.239 136.59 385.747 136.783 386.277 136.86L388.577 131.33Z" fill="#DE5753"/>
<path d="M396.158 131.66C396.093 131.644 396.033 131.61 395.985 131.563C395.938 131.515 395.904 131.455 395.888 131.39C395.784 130.933 395.574 130.507 395.275 130.146C394.976 129.784 394.597 129.498 394.168 129.31C394.075 129.278 393.999 129.211 393.956 129.123C393.913 129.034 393.906 128.933 393.938 128.84C393.972 128.749 394.04 128.674 394.127 128.631C394.215 128.588 394.315 128.581 394.408 128.61C394.954 128.834 395.439 129.186 395.82 129.637C396.201 130.088 396.468 130.624 396.598 131.2C396.613 131.247 396.619 131.296 396.614 131.345C396.61 131.393 396.596 131.441 396.572 131.484C396.549 131.527 396.517 131.565 396.478 131.595C396.44 131.625 396.395 131.647 396.348 131.66H396.158Z" fill="#263238"/>
<path d="M385.998 140.29C386.782 140.767 387.669 141.048 388.584 141.111C389.499 141.174 390.416 141.016 391.258 140.65C391.297 140.624 391.325 140.585 391.338 140.539C391.351 140.494 391.348 140.446 391.329 140.403C391.31 140.36 391.276 140.325 391.234 140.304C391.192 140.284 391.143 140.279 391.098 140.29C390.312 140.612 389.462 140.746 388.615 140.684C387.769 140.621 386.948 140.363 386.218 139.93C386.176 139.903 386.126 139.893 386.078 139.902C386.029 139.912 385.986 139.94 385.958 139.98C385.93 140.023 385.92 140.075 385.929 140.125C385.938 140.175 385.967 140.22 386.008 140.25L385.998 140.29Z" fill="#263238"/>
<path d="M384.728 126.69C384.653 126.683 384.581 126.659 384.518 126.62C384.449 126.549 384.41 126.454 384.41 126.355C384.41 126.256 384.449 126.161 384.518 126.09C384.951 125.687 385.476 125.395 386.048 125.24C386.619 125.085 387.22 125.071 387.798 125.2C387.892 125.226 387.971 125.287 388.02 125.372C388.069 125.456 388.082 125.556 388.058 125.65C388.028 125.743 387.963 125.82 387.878 125.867C387.792 125.913 387.692 125.925 387.598 125.9C387.138 125.814 386.664 125.837 386.214 125.968C385.764 126.098 385.351 126.332 385.008 126.65C384.922 126.695 384.823 126.709 384.728 126.69Z" fill="#263238"/>
<path d="M403.449 124.34L401.589 127.26C401.994 127.76 402.195 128.394 402.153 129.035C402.11 129.677 401.826 130.279 401.359 130.72C399.119 132.85 398.669 137.6 399.889 140.16C399.889 140.16 400.499 139.06 401.319 139.78C402.139 140.5 399.069 146.26 395.879 148.17C395.879 148.17 399.879 146.98 404.429 141.57C408.619 136.57 411.079 131.9 410.959 129.13L403.449 124.34Z" fill="#263238"/>
<path d="M405.609 142.72C404.877 143.359 404.026 143.847 403.104 144.156C402.182 144.465 401.209 144.589 400.239 144.52C397.649 144.33 397.239 141.8 398.689 139.81C399.999 138.05 402.939 135.97 405.179 137.17C407.419 138.37 407.409 141.11 405.609 142.72Z" fill="#E4897B"/>
<path d="M398.647 123.66C398.647 123.66 399.887 122.5 399.987 125.11C400.087 127.72 401.657 129.49 405.217 131.33C408.777 133.17 409.907 133.33 409.907 133.33C409.907 133.33 415.697 127.86 409.647 121.63C409.647 121.63 409.927 118.42 406.117 116.33C399.567 112.73 390.577 114.22 387.417 117.86C386.737 118.571 386.27 119.459 386.069 120.422C385.867 121.385 385.939 122.386 386.277 123.31C386.277 123.31 396.617 117.82 398.647 123.66Z" fill="#263238"/>
<path d="M396.398 155.5L384.808 159.18L384.628 155.12L380.408 156.07C379.673 156.237 379.016 156.646 378.542 157.232C378.069 157.818 377.807 158.547 377.798 159.3L377.738 163.72L382.348 161.86C382.348 161.86 375.478 177.98 374.578 200.86C374.578 200.86 377.198 176.2 384.318 162.48L386.008 165.59L400.008 160.77L396.398 155.5Z" fill="#8424DE"/>
<path opacity="0.6" d="M396.398 155.5L384.808 159.18L384.628 155.12L380.408 156.07C379.673 156.237 379.016 156.646 378.542 157.232C378.069 157.818 377.807 158.547 377.798 159.3L377.738 163.72L382.348 161.86C382.348 161.86 375.478 177.98 374.578 200.86C374.578 200.86 377.198 176.2 384.318 162.48L386.008 165.59L400.008 160.77L396.398 155.5Z" fill="white"/>
<path d="M372.989 229.65H365.219V235.25H372.989V229.65Z" fill="#8424DE"/>
<path opacity="0.4" d="M372.989 229.65H365.219V235.25H372.989V229.65Z" fill="white"/>
<path d="M374.58 156.31C374.58 156.31 353.86 211.07 349.11 237.21L346 235.52C346 235.52 357.94 175.6 366.74 155.52L374.58 156.31Z" fill="#8424DE"/>
<path d="M403.417 161.78C403.417 161.78 394.637 205.86 398.647 241.99L403.417 240.93C403.417 240.93 409.187 183.27 412.247 164.63L403.417 161.78Z" fill="#8424DE"/>
<path d="M372 163.33L372.81 156.13L376.61 154.53C376.66 156.269 376.262 157.992 375.455 159.533C374.648 161.074 373.458 162.381 372 163.33Z" fill="#8424DE"/>
<path opacity="0.2" d="M372 163.33L372.81 156.13L376.61 154.53C376.66 156.269 376.262 157.992 375.455 159.533C374.648 161.074 373.458 162.381 372 163.33Z" fill="black"/>
<path d="M402.167 168.87C400.991 165.813 400.991 162.428 402.167 159.37L405.717 162.52L402.167 168.87Z" fill="#8424DE"/>
<path opacity="0.2" d="M402.167 168.87C400.991 165.813 400.991 162.428 402.167 159.37L405.717 162.52L402.167 168.87Z" fill="black"/>
<path d="M459.048 290.546L453.81 267.094C453.667 266.452 453.031 266.049 452.389 266.192L416.806 274.139C416.165 274.282 415.761 274.918 415.904 275.56L421.142 299.012C421.285 299.653 421.921 300.057 422.563 299.914L458.146 291.967C458.787 291.823 459.191 291.187 459.048 290.546Z" fill="#263238"/>
<path opacity="0.2" d="M459.048 290.546L453.81 267.094C453.667 266.452 453.031 266.049 452.389 266.192L416.806 274.139C416.165 274.282 415.761 274.918 415.904 275.56L421.142 299.012C421.285 299.653 421.921 300.057 422.563 299.914L458.146 291.967C458.787 291.823 459.191 291.187 459.048 290.546Z" fill="white"/>
<path d="M442.74 309.24L428 295.66C430 274.87 451.15 268.21 451.15 268.21L456.15 290.67C456.15 290.67 438.91 292.23 442.74 309.24Z" fill="#8424DE"/>
<path opacity="0.7" d="M442.74 309.24L428 295.66C430 274.87 451.15 268.21 451.15 268.21L456.15 290.67C456.15 290.67 438.91 292.23 442.74 309.24Z" fill="white"/>
<path d="M452.157 283.93L450.387 276C450.349 275.834 450.345 275.661 450.375 275.494C450.405 275.326 450.469 275.165 450.562 275.023C450.656 274.88 450.777 274.757 450.919 274.662C451.06 274.567 451.22 274.502 451.387 274.47L453.577 273.98C453.744 273.943 453.915 273.94 454.083 273.971C454.25 274.002 454.41 274.066 454.552 274.159C454.695 274.252 454.817 274.372 454.913 274.513C455.008 274.654 455.074 274.813 455.107 274.98L456.877 282.91C456.914 283.076 456.917 283.248 456.886 283.416C456.855 283.583 456.792 283.743 456.699 283.885C456.605 284.027 456.485 284.15 456.344 284.245C456.203 284.341 456.044 284.407 455.877 284.44L453.687 284.93C453.521 284.967 453.349 284.97 453.182 284.939C453.014 284.908 452.855 284.844 452.712 284.751C452.57 284.658 452.447 284.538 452.352 284.397C452.257 284.256 452.191 284.097 452.157 283.93ZM454.157 275.15C454.136 275.057 454.079 274.977 453.998 274.926C453.917 274.876 453.82 274.859 453.727 274.88L451.537 275.37C451.49 275.38 451.446 275.398 451.407 275.425C451.367 275.452 451.333 275.486 451.307 275.526C451.281 275.566 451.263 275.611 451.255 275.658C451.246 275.705 451.247 275.753 451.257 275.8L453.027 283.73C453.051 283.821 453.109 283.9 453.189 283.95C453.269 284.001 453.365 284.018 453.457 284L455.657 283.51C455.75 283.489 455.83 283.431 455.881 283.351C455.932 283.27 455.948 283.173 455.927 283.08L454.157 275.15Z" fill="#8424DE"/>
<g opacity="0.4">
<path d="M452.157 283.93L450.387 276C450.349 275.834 450.345 275.661 450.375 275.494C450.405 275.326 450.469 275.165 450.562 275.023C450.656 274.88 450.777 274.757 450.919 274.662C451.06 274.567 451.22 274.502 451.387 274.47L453.577 273.98C453.744 273.943 453.915 273.94 454.083 273.971C454.25 274.002 454.41 274.066 454.552 274.159C454.695 274.252 454.817 274.372 454.913 274.513C455.008 274.654 455.074 274.813 455.107 274.98L456.877 282.91C456.914 283.076 456.917 283.248 456.886 283.416C456.855 283.583 456.792 283.743 456.699 283.885C456.605 284.027 456.485 284.15 456.344 284.245C456.203 284.341 456.044 284.407 455.877 284.44L453.687 284.93C453.521 284.967 453.349 284.97 453.182 284.939C453.014 284.908 452.855 284.844 452.712 284.751C452.57 284.658 452.447 284.538 452.352 284.397C452.257 284.256 452.191 284.097 452.157 283.93ZM454.157 275.15C454.136 275.057 454.079 274.977 453.998 274.926C453.917 274.876 453.82 274.859 453.727 274.88L451.537 275.37C451.49 275.38 451.446 275.398 451.407 275.425C451.367 275.452 451.333 275.486 451.307 275.526C451.281 275.566 451.263 275.611 451.255 275.658C451.246 275.705 451.247 275.753 451.257 275.8L453.027 283.73C453.051 283.821 453.109 283.9 453.189 283.95C453.269 284.001 453.365 284.018 453.457 284L455.657 283.51C455.75 283.489 455.83 283.431 455.881 283.351C455.932 283.27 455.948 283.173 455.927 283.08L454.157 275.15Z" fill="white"/>
</g>
<path d="M119.548 232.9H124.548C124.548 232.9 127.478 234.22 128.988 233.9C130.498 233.58 139.988 228.01 139.458 227.06C138.928 226.11 118.688 228.13 118.688 228.13L119.548 232.9Z" fill="#EBB376"/>
<path d="M125.468 288.82C125.468 288.82 124.968 296.27 123.938 307.82C123.568 312.04 123.128 316.82 122.608 321.96C120.368 344.28 116.768 373.87 111.678 397.78L106.678 397.7C106.678 397.7 102.968 361.6 109.178 337.51L108.548 320.4L108.108 308.61L107.378 288.78L125.468 288.82Z" fill="#EBB376"/>
<path d="M103.13 292.32C103.13 292.32 101.55 298.85 98.8403 309.11C98.0403 312.11 97.1503 315.47 96.1703 319.06C90.1703 341.13 80.8703 372.72 71.0003 397.39L66.0703 396.46C66.0703 396.46 68.5603 360.25 78.7803 337.57L81.4903 317.43L82.4903 309.92L85.2803 289.24L103.13 292.32Z" fill="#EBB376"/>
<path opacity="0.2" d="M82.4983 309.92L98.8383 309.11C98.0383 312.11 97.1483 315.47 96.1683 319.06L81.4883 317.43L82.4983 309.92Z" fill="black"/>
<path opacity="0.2" d="M123.938 307.86C123.568 312.08 123.128 316.86 122.608 322L108.538 320.44L108.098 308.65L123.938 307.86Z" fill="black"/>
<path d="M79.8585 200.09C76.5985 201.37 77.7485 231.68 83.4585 239.88C89.1685 248.08 122.619 235.52 122.619 235.52L121.819 228.18L91.9985 228.27L79.8585 200.09Z" fill="#263238"/>
<path d="M157.36 224.22L121.82 226.35L126.05 200.35C126.103 200.079 126.245 199.834 126.454 199.653C126.662 199.472 126.925 199.365 127.2 199.35L160.89 197.35C160.993 197.344 161.097 197.362 161.192 197.401C161.288 197.44 161.373 197.501 161.442 197.578C161.511 197.654 161.562 197.746 161.591 197.845C161.62 197.944 161.627 198.048 161.61 198.15L157.36 224.22Z" fill="#263238"/>
<path opacity="0.2" d="M157.36 224.22L121.82 226.35L126.05 200.35C126.103 200.079 126.245 199.834 126.454 199.653C126.662 199.472 126.925 199.365 127.2 199.35L160.89 197.35C160.993 197.344 161.097 197.362 161.192 197.401C161.288 197.44 161.373 197.501 161.442 197.578C161.511 197.654 161.562 197.746 161.591 197.845C161.62 197.944 161.627 198.048 161.61 198.15L157.36 224.22Z" fill="white"/>
<path d="M156.899 224.25L121.359 226.38L125.589 200.38C125.641 200.109 125.782 199.862 125.991 199.681C126.199 199.499 126.463 199.393 126.739 199.38L160.429 197.38C160.532 197.373 160.635 197.389 160.731 197.427C160.826 197.465 160.912 197.524 160.981 197.6C161.051 197.676 161.102 197.767 161.131 197.866C161.16 197.965 161.166 198.069 161.149 198.17L156.899 224.25Z" fill="#263238"/>
<path d="M155.907 223.46L122.617 225.46L126.727 200.16L160.017 198.16L155.907 223.46Z" fill="#8424DE"/>
<path opacity="0.4" d="M155.907 223.46L122.617 225.46L126.727 200.16L160.017 198.16L155.907 223.46Z" fill="white"/>
<path d="M156.898 224.25L156.968 225.53C156.987 225.872 156.871 226.207 156.645 226.464C156.418 226.72 156.1 226.877 155.758 226.9L104.438 230C104.269 230.011 104.099 229.988 103.938 229.933C103.778 229.878 103.629 229.792 103.502 229.68C103.375 229.567 103.271 229.431 103.196 229.278C103.122 229.125 103.078 228.96 103.068 228.79L102.988 227.52L156.898 224.25Z" fill="#263238"/>
<path opacity="0.2" d="M156.898 224.25L156.968 225.53C156.987 225.872 156.871 226.207 156.645 226.464C156.418 226.72 156.1 226.877 155.758 226.9L104.438 230C104.269 230.011 104.099 229.988 103.938 229.933C103.778 229.878 103.629 229.792 103.502 229.68C103.375 229.567 103.271 229.431 103.196 229.278C103.122 229.125 103.078 228.96 103.068 228.79L102.988 227.52L156.898 224.25Z" fill="white"/>
<path opacity="0.2" d="M156.898 224.25L156.968 225.53C156.987 225.872 156.871 226.207 156.644 226.464C156.418 226.72 156.099 226.877 155.758 226.9L134.378 228.18C134.039 228.205 133.704 228.095 133.445 227.874C133.187 227.653 133.026 227.339 132.998 227L132.918 225.72L156.898 224.25Z" fill="white"/>
<g opacity="0.4">
<path d="M128.258 220.24L126.898 220.32L127.468 217.06L128.828 216.98L128.258 220.24Z" fill="white"/>
<path d="M130.847 220.08L129.477 220.16L130.397 214.88L131.767 214.8L130.847 220.08Z" fill="white"/>
<path d="M133.43 219.92L132.07 220L133.34 212.7L134.7 212.62L133.43 219.92Z" fill="white"/>
<path d="M136.018 219.76L134.648 219.84L136.098 211.53L137.468 211.45L136.018 219.76Z" fill="white"/>
<path d="M138.598 219.6L137.238 219.68L138.858 210.36L140.228 210.28L138.598 219.6Z" fill="white"/>
<path d="M141.19 219.44L139.82 219.52L141.8 208.18L143.16 208.09L141.19 219.44Z" fill="white"/>
<path d="M143.77 219.28L142.41 219.36L144.21 209.03L145.57 208.94L143.77 219.28Z" fill="white"/>
<path d="M146.358 219.12L144.988 219.2L146.618 209.88L147.978 209.79L146.358 219.12Z" fill="white"/>
<path d="M148.94 218.96L147.57 219.04L149.55 207.7L150.92 207.61L148.94 218.96Z" fill="white"/>
<path d="M151.53 218.8L150.16 218.88L152.66 204.5L154.03 204.42L151.53 218.8Z" fill="white"/>
</g>
<path d="M126.441 316.66C132.521 261.51 122.011 242.75 122.011 242.75L92.3507 237.68C91.1757 243.156 90.344 248.7 89.8607 254.28C89.8607 254.28 87.0107 264.48 86.1007 267.28C81.1335 283.239 78.9185 299.928 79.5507 316.63L126.441 316.66Z" fill="#8424DE"/>
<g opacity="0.2">
<path d="M126.439 316.66H79.5488C79.5488 316.66 79.3088 313.13 79.4788 307.34C79.8298 293.765 82.0576 280.304 86.0988 267.34C87.0088 264.51 89.8588 254.34 89.8588 254.34C89.9322 253.674 90.0022 253.007 90.0688 252.34C90.5288 247.435 91.2902 242.562 92.3488 237.75L121.999 242.75C121.999 242.75 132.519 261.51 126.439 316.66Z" fill="black"/>
</g>
<path opacity="0.2" d="M107.79 286.56C107.79 286.56 95.7905 301.8 79.4805 307.34C79.8314 293.765 82.0592 280.304 86.1005 267.34C87.0105 264.51 89.8605 254.34 89.8605 254.34C89.9338 253.673 90.0038 253.007 90.0705 252.34L120.65 250C120.65 250 109.57 261.11 97.6505 264C97.7005 264 98.1905 280.49 107.79 286.56Z" fill="black"/>
<path d="M108.129 174C108.129 174.63 108.459 175.14 108.879 175.14C109.299 175.14 109.629 174.62 109.629 173.98C109.629 173.34 109.279 172.84 108.869 172.84C108.459 172.84 108.129 173.38 108.129 174Z" fill="#263238"/>
<path d="M106.82 172.5C106.888 172.51 106.957 172.501 107.02 172.475C107.084 172.448 107.139 172.405 107.18 172.35C107.45 171.97 107.805 171.659 108.216 171.44C108.627 171.222 109.084 171.102 109.55 171.09C109.649 171.096 109.746 171.062 109.821 170.997C109.896 170.931 109.942 170.839 109.95 170.74C109.952 170.691 109.946 170.643 109.929 170.597C109.913 170.551 109.888 170.509 109.856 170.472C109.823 170.436 109.784 170.407 109.74 170.386C109.696 170.365 109.648 170.353 109.6 170.35C109.012 170.351 108.434 170.492 107.912 170.762C107.39 171.031 106.94 171.422 106.6 171.9C106.569 171.938 106.547 171.982 106.534 172.029C106.52 172.075 106.516 172.124 106.522 172.173C106.528 172.221 106.543 172.268 106.566 172.31C106.59 172.352 106.622 172.39 106.66 172.42L106.82 172.5Z" fill="#263238"/>
<path d="M108.62 175.58C109.058 176.951 109.68 178.256 110.47 179.46C110.156 179.657 109.802 179.782 109.434 179.827C109.066 179.872 108.692 179.835 108.34 179.72L108.62 175.58Z" fill="#DE726F"/>
<path d="M93.499 186.67C93.5722 186.739 93.6527 186.799 93.739 186.85C94.8798 187.72 96.1815 188.356 97.569 188.72C101.619 189.66 104.389 189.1 106.199 187.27C108.729 184.52 109.359 179.65 108.999 173.77C108.94 171.43 108.508 169.114 107.719 166.91C107.719 166.91 107.719 166.82 107.719 166.8C107.719 166.78 107.659 166.63 107.619 166.55C107.123 165.306 106.323 164.207 105.293 163.353C104.262 162.498 103.033 161.916 101.719 161.66C100.58 161.405 99.4164 161.275 98.249 161.27C86.779 161.15 84.719 180.13 93.499 186.67Z" fill="#EBB376"/>
<path opacity="0.2" d="M93.9102 187.33C95.0806 188.118 96.3962 188.665 97.7802 188.94C101.85 189.77 104.6 189.01 106.36 187.1C103.955 187.769 101.397 187.629 99.0802 186.7C98.2273 186.405 97.3182 186.308 96.4223 186.417C95.5263 186.526 94.6671 186.839 93.9102 187.33Z" fill="black"/>
<path d="M92.5791 197.2C91.8691 200.46 96.0991 201.79 96.0991 201.79C103.009 198.84 104.289 195.16 104.289 195.16C98.5191 192.16 100.189 183.65 100.189 183.65L99.0191 184.23L90.7891 185.84C90.7891 185.84 93.0691 190.22 93.3691 191.22C94.9291 196.47 92.5791 197.2 92.5791 197.2Z" fill="#EBB376"/>
<path d="M107.729 166.83C107.729 166.83 108.359 174.83 100.729 178.32C100.729 178.32 97.4591 186.67 92.6491 186.78C86.0791 186.94 80.2991 177.61 82.5691 168.1C85.5391 155.76 104.229 154.76 107.729 166.83Z" fill="#263238"/>
<path d="M104.609 176C104.609 174.75 103.609 172.64 101.609 172.93C99.6087 173.22 98.4687 178.2 103.429 179.31C104.179 179.48 104.609 178.63 104.609 176Z" fill="#EBB376"/>
<path d="M93.7407 158.29C93.7407 158.29 101.411 156.35 105.641 159.44C110.641 163.04 112.471 166.76 106.641 172.54C106.641 172.54 93.7707 168.37 89.4907 169.25C86.989 169.755 84.5338 170.467 82.1507 171.38C81.2207 162.88 89.4607 156.55 93.7407 158.29Z" fill="#263238"/>
<path d="M109.099 163.43C109.099 163.43 112.649 165.85 111.019 169.58C109.389 173.31 104.609 173.4 104.609 173.4" stroke="#263238" stroke-width="0.5" stroke-linecap="round" stroke-linejoin="round"/>
<path d="M104.609 174.08C104.609 174.08 102.609 183.34 105.749 191.24C105.749 191.24 87.5493 197.55 81.2193 194.12C74.8893 190.69 80.6893 179.18 80.9593 172.54C81.2293 165.9 84.1093 156.09 93.7393 158.29C103.369 160.49 104.609 174.08 104.609 174.08Z" fill="#263238"/>
<path d="M121.458 414.36C120.527 413.607 119.466 413.031 118.328 412.66C118.328 412.66 114.918 409.27 113.328 399.09L108.858 397.92C108.1 397.739 107.305 397.795 106.579 398.079C105.853 398.363 105.232 398.863 104.798 399.51C104.675 399.691 104.581 399.89 104.518 400.1C104.288 401.192 104.127 402.298 104.038 403.41C103.79 407.132 103.77 410.866 103.978 414.59H104.778L105.098 407.59C105.218 405.2 107.098 408 107.568 410.59C108.038 413.18 109.198 415.89 114.428 416.01C120.468 416.09 122.998 415.85 121.458 414.36Z" fill="#263238"/>
<path d="M104.587 399.59C104.297 397.21 104.207 393.07 104.207 393.07L114.127 394.17C114.127 394.17 112.927 398.88 113.917 402.42C108.917 401.1 104.587 399.59 104.587 399.59Z" fill="#263238"/>
<path d="M81.0988 414.36C80.1678 413.607 79.1071 413.031 77.9688 412.66C77.9688 412.66 74.5588 409.27 72.9688 399.09L68.4988 397.92C67.7407 397.739 66.9454 397.795 66.2197 398.079C65.494 398.363 64.8725 398.863 64.4388 399.51C64.3157 399.691 64.2213 399.89 64.1588 400.1C63.9283 401.192 63.768 402.298 63.6788 403.41C63.4309 407.132 63.4109 410.866 63.6188 414.59H64.4188L64.7388 407.59C64.8588 405.2 66.7388 408 67.2088 410.59C67.6788 413.18 68.8388 415.89 74.0688 416.01C80.1088 416.09 82.6388 415.85 81.0988 414.36Z" fill="#263238"/>
<path d="M64.2377 399.59C63.9377 397.21 63.8477 393.07 63.8477 393.07L73.7677 394.17C73.7677 394.17 72.5677 398.88 73.5577 402.42C68.5577 401.1 64.2377 399.59 64.2377 399.59Z" fill="#263238"/>
<path d="M79.8584 200.09C79.8584 200.09 86.1884 197.61 91.8584 196.09C96.2838 194.991 100.782 194.209 105.318 193.75C109.601 193.27 113.912 193.1 118.218 193.24C118.098 195.32 118.008 197.24 117.928 199.12C117.818 201.55 117.738 203.8 117.688 205.89C117.588 209.81 117.598 213.17 117.688 216.15C117.842 222.651 118.63 229.122 120.038 235.47L126.438 251L88.0684 255.89L90.2384 240.6C83.8784 222.07 81.1484 212.31 80.1184 206.77C78.9984 200.58 79.8584 200.09 79.8584 200.09Z" fill="#263238"/>
<path opacity="0.1" d="M79.8584 200.09C79.8584 200.09 86.1884 197.61 91.8584 196.09C96.2838 194.991 100.782 194.209 105.318 193.75C109.601 193.27 113.912 193.1 118.218 193.24C118.098 195.32 118.008 197.24 117.928 199.12C117.818 201.55 117.738 203.8 117.688 205.89C117.588 209.81 117.598 213.17 117.688 216.15C117.842 222.651 118.63 229.122 120.038 235.47L126.438 251L88.0684 255.89L90.2384 240.6C83.8784 222.07 81.1484 212.31 80.1184 206.77C78.9984 200.58 79.8584 200.09 79.8584 200.09Z" fill="white"/>
<path d="M155.999 234L164.699 236.59C165.734 236.273 166.795 236.052 167.869 235.93C168.789 235.93 176.699 238.93 177.759 239.93C178.819 240.93 172.759 246.26 172.429 246.52C172.099 246.78 163.909 243.52 163.519 243.36C163.129 243.2 162.989 241.97 162.989 241.97L153.359 239.53L155.999 234Z" fill="#EBB376"/>
<path d="M118.227 193.2C123.017 196.36 135.057 226.32 136.637 227.11C138.217 227.9 161.637 234.62 161.637 234.62L158.717 241.92C158.717 241.92 133.077 237.35 130.507 235.56C127.937 233.77 117.697 215.16 117.697 215.16C116.424 211.119 115.697 206.925 115.537 202.69C115.448 199.327 116.387 196.017 118.227 193.2Z" fill="#263238"/>
<path d="M268.557 378.06H261.438V416H268.557V378.06Z" fill="#8424DE"/>
<path d="M268.557 378.06H264.438V416H268.557V378.06Z" fill="#8424DE"/>
<path opacity="0.2" d="M268.557 378.06H264.438V416H268.557V378.06Z" fill="black"/>
<path opacity="0.2" d="M268.557 378.06V393.69L264.438 392.29L261.438 391.27V378.06H268.557Z" fill="black"/>
<path d="M298.557 378.06H291.438V416H298.557V378.06Z" fill="#8424DE"/>
<path d="M206.557 378.06H199.438V416H206.557V378.06Z" fill="#8424DE"/>
<path opacity="0.2" d="M206.557 378.06H199.438V416H206.557V378.06Z" fill="black"/>
<path d="M299.698 360.08V416H294.378V381.49H228.447V416H218.688V381.49H202.598V416H199.438V360.08H299.698Z" fill="#8424DE"/>
<path d="M221.247 360.08H219.477V351.29H223.017L221.247 360.08Z" fill="#263238"/>
<path opacity="0.2" d="M299.7 360.08V416H294.38V381.49H228.45V416H223.02V360.08H299.7Z" fill="black"/>
<path d="M279.048 343.41H279.108L261.868 339.24C261.482 339.12 261.081 339.056 260.678 339.05H221.848C220.776 339.048 219.742 339.447 218.95 340.169C218.158 340.891 217.665 341.883 217.568 342.95L216.788 351.23C216.699 352.195 216.94 353.162 217.472 353.973C218.005 354.783 218.796 355.388 219.718 355.69L219.988 355.76L220.318 355.84L237.148 359.95C237.5 360.047 237.863 360.097 238.228 360.1H276.998C278.069 360.1 279.101 359.7 279.892 358.978C280.684 358.257 281.178 357.266 281.278 356.2L282.058 347.92C282.15 346.937 281.901 345.952 281.353 345.131C280.805 344.31 279.991 343.702 279.048 343.41Z" fill="#263238"/>
<path opacity="0.2" d="M279.048 343.41H279.108L261.868 339.24C261.482 339.12 261.081 339.056 260.678 339.05H221.848C220.776 339.048 219.742 339.447 218.95 340.169C218.158 340.891 217.665 341.883 217.568 342.95L216.788 351.23C216.699 352.195 216.94 353.162 217.472 353.973C218.005 354.783 218.796 355.388 219.718 355.69L219.988 355.76L220.318 355.84L237.148 359.95C237.5 360.047 237.863 360.097 238.228 360.1H276.998C278.069 360.1 279.101 359.7 279.892 358.978C280.684 358.257 281.178 357.266 281.278 356.2L282.058 347.92C282.15 346.937 281.901 345.952 281.353 345.131C280.805 344.31 279.991 343.702 279.048 343.41Z" fill="white"/>
<path opacity="0.1" d="M276.997 360.08H238.187C237.588 360.08 236.996 359.955 236.448 359.713C235.9 359.471 235.409 359.118 235.006 358.676C234.602 358.233 234.295 357.712 234.104 357.145C233.913 356.577 233.842 355.976 233.897 355.38L234.677 347.1C234.776 346.034 235.27 345.043 236.062 344.322C236.853 343.6 237.886 343.2 238.957 343.2H277.787C278.385 343.2 278.977 343.325 279.525 343.567C280.073 343.809 280.564 344.162 280.968 344.604C281.371 345.046 281.678 345.568 281.869 346.135C282.06 346.703 282.131 347.304 282.077 347.9L281.297 356.18C281.197 357.25 280.7 358.243 279.904 358.965C279.108 359.687 278.071 360.085 276.997 360.08Z" fill="white"/>
<g opacity="0.1">
<path d="M266.337 352.32C266.183 353.489 265.611 354.564 264.727 355.345C263.843 356.126 262.706 356.561 261.527 356.57C260.978 356.59 260.432 356.491 259.926 356.279C259.419 356.068 258.965 355.749 258.593 355.345C258.222 354.941 257.942 354.462 257.774 353.94C257.605 353.417 257.552 352.865 257.617 352.32C257.775 351.153 258.349 350.083 259.232 349.304C260.115 348.525 261.249 348.091 262.427 348.08C262.975 348.059 263.521 348.157 264.027 348.367C264.534 348.577 264.988 348.895 265.36 349.298C265.732 349.701 266.012 350.18 266.18 350.702C266.349 351.223 266.402 351.776 266.337 352.32Z" fill="white"/>
<path d="M277.616 353.85H271.286C271.203 353.854 271.12 353.839 271.044 353.807C270.967 353.776 270.898 353.728 270.842 353.667C270.786 353.606 270.744 353.534 270.719 353.455C270.693 353.376 270.686 353.292 270.696 353.21L270.886 351.41C270.91 351.233 270.997 351.071 271.131 350.954C271.265 350.836 271.437 350.771 271.616 350.77H277.996C278.079 350.767 278.161 350.781 278.238 350.813C278.314 350.844 278.383 350.892 278.439 350.953C278.495 351.014 278.538 351.087 278.563 351.165C278.588 351.244 278.596 351.328 278.586 351.41L278.396 353.21C278.371 353.396 278.277 353.565 278.132 353.684C277.987 353.802 277.803 353.862 277.616 353.85Z" fill="white"/>
<path d="M243.617 357.44H241.367L241.597 355.26H243.847L243.617 357.44Z" fill="white"/>
<path d="M246.709 357.44H244.469L244.699 355.26H246.939L246.709 357.44Z" fill="white"/>
</g>
<path d="M159.428 294.23C159.192 294.229 158.963 294.148 158.778 294L156.328 291.93C156.125 291.759 155.999 291.514 155.976 291.25C155.954 290.985 156.037 290.723 156.208 290.52C156.379 290.317 156.624 290.19 156.888 290.168C157.153 290.145 157.415 290.229 157.618 290.4L160.068 292.47C160.223 292.602 160.334 292.779 160.385 292.976C160.437 293.172 160.428 293.38 160.358 293.572C160.289 293.763 160.162 293.929 159.996 294.046C159.83 294.164 159.632 294.228 159.428 294.23Z" fill="#8424DE"/>
<path d="M171.999 304.77C171.762 304.769 171.533 304.688 171.349 304.54C168.682 302.293 166.015 300.057 163.349 297.83C163.237 297.75 163.144 297.647 163.074 297.529C163.003 297.411 162.958 297.28 162.941 297.143C162.924 297.007 162.935 296.869 162.974 296.737C163.013 296.605 163.078 296.482 163.167 296.377C163.255 296.272 163.364 296.186 163.487 296.124C163.609 296.063 163.744 296.027 163.881 296.02C164.018 296.013 164.155 296.034 164.284 296.082C164.413 296.13 164.53 296.204 164.629 296.3C167.295 298.527 169.962 300.763 172.629 303.01C172.784 303.142 172.894 303.319 172.946 303.516C172.998 303.712 172.988 303.92 172.919 304.112C172.849 304.303 172.723 304.469 172.557 304.586C172.39 304.704 172.192 304.768 171.989 304.77H171.999Z" fill="#8424DE"/>
<path d="M182 313.26C181.762 313.26 181.531 313.175 181.35 313.02L176.6 309.02C176.499 308.935 176.417 308.83 176.357 308.713C176.297 308.596 176.26 308.468 176.249 308.336C176.239 308.205 176.254 308.073 176.294 307.947C176.335 307.822 176.4 307.706 176.485 307.605C176.57 307.505 176.675 307.422 176.792 307.362C176.909 307.302 177.037 307.265 177.169 307.255C177.3 307.244 177.432 307.259 177.558 307.3C177.683 307.34 177.799 307.405 177.9 307.49L182.64 311.49C182.74 311.575 182.823 311.678 182.884 311.795C182.944 311.912 182.981 312.039 182.992 312.17C183.003 312.301 182.989 312.433 182.949 312.558C182.909 312.683 182.845 312.8 182.76 312.9C182.667 313.012 182.551 313.102 182.42 313.164C182.288 313.226 182.145 313.259 182 313.26Z" fill="#8424DE"/>
<path d="M203.587 331.61C203.353 331.611 203.127 331.529 202.947 331.38C197.38 326.713 191.833 322.007 186.307 317.26L186.067 317.05C185.966 316.965 185.883 316.862 185.823 316.745C185.763 316.628 185.726 316.501 185.715 316.37C185.703 316.239 185.718 316.107 185.758 315.982C185.798 315.857 185.862 315.741 185.947 315.64C186.032 315.54 186.136 315.458 186.253 315.399C186.37 315.339 186.498 315.303 186.629 315.293C186.76 315.283 186.892 315.299 187.016 315.339C187.141 315.38 187.257 315.445 187.357 315.53L187.607 315.74C193.133 320.447 198.677 325.15 204.237 329.85C204.392 329.983 204.503 330.16 204.555 330.358C204.606 330.556 204.596 330.765 204.525 330.957C204.454 331.148 204.326 331.314 204.158 331.431C203.991 331.547 203.791 331.61 203.587 331.61Z" fill="#8424DE"/>
<path d="M213.676 340C213.443 340 213.216 339.919 213.037 339.77L208.247 335.77C208.146 335.685 208.063 335.582 208.003 335.465C207.942 335.348 207.905 335.221 207.894 335.09C207.883 334.959 207.898 334.827 207.938 334.702C207.978 334.577 208.042 334.46 208.127 334.36C208.297 334.16 208.54 334.035 208.802 334.013C209.064 333.99 209.324 334.072 209.527 334.24L214.317 338.24C214.418 338.324 214.501 338.427 214.563 338.543C214.624 338.66 214.662 338.787 214.674 338.918C214.686 339.049 214.672 339.181 214.633 339.307C214.594 339.432 214.531 339.549 214.447 339.65C214.352 339.761 214.233 339.85 214.1 339.91C213.967 339.971 213.823 340.001 213.676 340Z" fill="#8424DE"/>
<path d="M200.787 278.15C200.595 278.15 200.408 278.096 200.247 277.993C200.085 277.89 199.957 277.744 199.877 277.57L198.527 274.57C198.418 274.33 198.408 274.056 198.5 273.809C198.592 273.562 198.777 273.361 199.017 273.25C199.136 273.195 199.265 273.163 199.397 273.158C199.529 273.152 199.66 273.173 199.784 273.219C199.907 273.264 200.02 273.334 200.117 273.423C200.214 273.513 200.292 273.62 200.347 273.74L201.697 276.74C201.806 276.98 201.815 277.254 201.723 277.501C201.632 277.748 201.446 277.949 201.207 278.06C201.076 278.123 200.932 278.154 200.787 278.15Z" fill="#8424DE"/>
<path d="M209.717 297.25C209.526 297.25 209.339 297.196 209.177 297.093C209.016 296.99 208.888 296.843 208.807 296.67C206.687 292.01 204.807 287.97 202.967 284.33C202.909 284.212 202.874 284.083 202.865 283.952C202.857 283.82 202.874 283.688 202.916 283.563C202.958 283.438 203.025 283.323 203.112 283.224C203.199 283.124 203.304 283.043 203.422 282.985C203.54 282.926 203.669 282.892 203.801 282.883C203.932 282.874 204.064 282.892 204.189 282.934C204.314 282.976 204.429 283.042 204.528 283.129C204.628 283.216 204.709 283.322 204.767 283.44C206.587 287.11 208.497 291.16 210.627 295.84C210.736 296.081 210.744 296.356 210.65 296.603C210.556 296.851 210.368 297.051 210.127 297.16C209.999 297.219 209.859 297.249 209.717 297.25Z" fill="#8424DE"/>
<path d="M215.137 309.44C214.943 309.442 214.753 309.387 214.589 309.282C214.426 309.177 214.297 309.027 214.217 308.85C213.487 307.18 212.757 305.52 212.017 303.85C211.927 303.61 211.932 303.345 212.032 303.109C212.132 302.873 212.318 302.685 212.553 302.582C212.787 302.479 213.052 302.471 213.293 302.558C213.534 302.645 213.732 302.821 213.847 303.05C214.587 304.71 215.317 306.38 216.047 308.05C216.1 308.17 216.129 308.3 216.133 308.431C216.136 308.562 216.113 308.693 216.066 308.816C216.018 308.938 215.947 309.05 215.857 309.146C215.766 309.241 215.657 309.317 215.537 309.37C215.41 309.42 215.274 309.444 215.137 309.44Z" fill="#8424DE"/>
<path d="M226.737 334.89C226.55 334.89 226.366 334.838 226.207 334.739C226.048 334.64 225.92 334.498 225.837 334.33C222.557 327.7 219.497 320.87 216.687 314.47C216.634 314.35 216.605 314.22 216.602 314.089C216.599 313.958 216.621 313.827 216.669 313.704C216.716 313.582 216.787 313.47 216.878 313.375C216.969 313.279 217.077 313.203 217.197 313.15C217.318 313.097 217.447 313.068 217.578 313.065C217.71 313.061 217.84 313.084 217.963 313.131C218.086 313.179 218.198 313.25 218.293 313.341C218.388 313.431 218.464 313.54 218.517 313.66C221.317 320.04 224.367 326.85 227.627 333.44C227.704 333.592 227.741 333.762 227.733 333.932C227.726 334.102 227.676 334.268 227.587 334.413C227.497 334.558 227.373 334.678 227.224 334.762C227.075 334.845 226.908 334.89 226.737 334.89Z" fill="#8424DE"/>
<path d="M238.816 282.48C238.551 282.48 238.297 282.375 238.109 282.187C237.922 282 237.816 281.745 237.816 281.48V271C237.816 270.735 237.922 270.48 238.109 270.293C238.297 270.105 238.551 270 238.816 270C239.082 270 239.336 270.105 239.523 270.293C239.711 270.48 239.816 270.735 239.816 271V281.49C239.814 281.753 239.707 282.005 239.52 282.191C239.333 282.376 239.08 282.48 238.816 282.48Z" fill="#8424DE"/>
<path d="M238.876 294.49C238.611 294.49 238.357 294.385 238.169 294.197C237.982 294.01 237.876 293.755 237.876 293.49L237.816 288.24C237.816 287.975 237.922 287.72 238.109 287.533C238.297 287.345 238.551 287.24 238.816 287.24C239.082 287.24 239.336 287.345 239.523 287.533C239.711 287.72 239.816 287.975 239.816 288.24L239.876 293.5C239.876 293.765 239.771 294.02 239.584 294.207C239.396 294.395 239.142 294.5 238.876 294.5V294.49Z" fill="#8424DE"/>
<path d="M238.93 321.81C238.664 321.81 238.41 321.705 238.223 321.517C238.035 321.33 237.93 321.075 237.93 320.81C237.93 313.81 237.93 306.68 237.93 299.48C237.93 299.215 238.035 298.96 238.223 298.773C238.41 298.585 238.664 298.48 238.93 298.48C239.195 298.48 239.449 298.585 239.637 298.773C239.824 298.96 239.93 299.215 239.93 299.48C239.93 306.68 239.98 313.86 239.93 320.83C239.924 321.092 239.817 321.341 239.63 321.524C239.443 321.707 239.191 321.81 238.93 321.81Z" fill="#8424DE"/>
<path d="M238.816 334.89C238.551 334.89 238.297 334.785 238.109 334.597C237.922 334.41 237.816 334.155 237.816 333.89C237.816 331.82 237.866 329.76 237.886 327.69C237.886 327.425 237.992 327.17 238.179 326.983C238.367 326.795 238.621 326.69 238.886 326.69C239.152 326.69 239.406 326.795 239.594 326.983C239.781 327.17 239.886 327.425 239.886 327.69C239.886 329.76 239.886 331.82 239.816 333.89C239.816 334.155 239.711 334.41 239.523 334.597C239.336 334.785 239.082 334.89 238.816 334.89Z" fill="#8424DE"/>
<path d="M275.559 293.15C275.362 293.151 275.168 293.099 274.999 293C274.885 292.932 274.786 292.842 274.708 292.736C274.629 292.63 274.572 292.509 274.541 292.381C274.509 292.253 274.503 292.119 274.523 291.989C274.544 291.858 274.59 291.733 274.659 291.62L277.659 286.68C277.713 286.548 277.795 286.429 277.9 286.331C278.004 286.233 278.128 286.159 278.264 286.113C278.399 286.068 278.543 286.052 278.685 286.066C278.827 286.081 278.965 286.126 279.088 286.198C279.211 286.27 279.318 286.368 279.4 286.485C279.483 286.601 279.539 286.735 279.566 286.875C279.592 287.015 279.588 287.16 279.554 287.299C279.52 287.438 279.457 287.568 279.369 287.68L276.369 292.63C276.288 292.778 276.172 292.903 276.03 292.994C275.889 293.085 275.726 293.138 275.559 293.15Z" fill="#8424DE"/>
<path d="M261.797 315.64C261.617 315.64 261.441 315.592 261.287 315.5C261.059 315.365 260.894 315.144 260.828 314.887C260.762 314.631 260.801 314.358 260.937 314.13C263.797 309.27 267.607 302.89 271.657 296.68C271.802 296.459 272.028 296.305 272.287 296.25C272.545 296.196 272.815 296.246 273.037 296.39C273.147 296.462 273.243 296.555 273.317 296.664C273.392 296.773 273.444 296.895 273.471 297.025C273.498 297.154 273.499 297.287 273.474 297.417C273.45 297.546 273.399 297.67 273.327 297.78C269.327 303.95 265.507 310.3 262.657 315.15C262.568 315.299 262.442 315.423 262.292 315.509C262.141 315.595 261.97 315.64 261.797 315.64Z" fill="#8424DE"/>
<path d="M255.359 326.62C255.18 326.617 255.005 326.569 254.849 326.48C254.621 326.345 254.456 326.124 254.39 325.868C254.325 325.611 254.364 325.338 254.499 325.11L257.579 319.86C257.713 319.633 257.93 319.468 258.185 319.4C258.44 319.333 258.711 319.369 258.939 319.5C259.053 319.566 259.153 319.654 259.232 319.759C259.312 319.864 259.37 319.983 259.404 320.11C259.437 320.238 259.445 320.37 259.427 320.501C259.409 320.631 259.366 320.757 259.299 320.87L256.219 326.13C256.131 326.279 256.005 326.403 255.854 326.489C255.703 326.575 255.533 326.62 255.359 326.62Z" fill="#8424DE"/>
<path d="M249.429 336.47C249.245 336.469 249.066 336.417 248.909 336.32C248.797 336.252 248.699 336.161 248.621 336.055C248.544 335.948 248.488 335.827 248.457 335.699C248.426 335.571 248.421 335.437 248.442 335.307C248.463 335.177 248.51 335.052 248.579 334.94C249.406 333.607 250.226 332.273 251.039 330.94C251.185 330.74 251.4 330.601 251.642 330.55C251.884 330.499 252.137 330.539 252.351 330.664C252.565 330.788 252.725 330.988 252.8 331.223C252.876 331.459 252.861 331.715 252.759 331.94C251.939 333.29 251.119 334.64 250.279 335.99C250.19 336.136 250.066 336.257 249.917 336.341C249.768 336.425 249.6 336.469 249.429 336.47Z" fill="#8424DE"/>
<g opacity="0.7">
<path d="M159.428 294.23C159.192 294.229 158.963 294.148 158.778 294L156.328 291.93C156.125 291.759 155.999 291.514 155.976 291.25C155.954 290.985 156.037 290.723 156.208 290.52C156.379 290.317 156.624 290.19 156.888 290.168C157.153 290.145 157.415 290.229 157.618 290.4L160.068 292.47C160.223 292.602 160.334 292.779 160.385 292.976C160.437 293.172 160.428 293.38 160.358 293.572C160.289 293.763 160.162 293.929 159.996 294.046C159.83 294.164 159.632 294.228 159.428 294.23Z" fill="white"/>
<path d="M171.999 304.77C171.762 304.769 171.533 304.688 171.349 304.54C168.682 302.293 166.015 300.057 163.349 297.83C163.237 297.75 163.144 297.647 163.074 297.529C163.003 297.411 162.958 297.28 162.941 297.143C162.924 297.007 162.935 296.869 162.974 296.737C163.013 296.605 163.078 296.482 163.167 296.377C163.255 296.272 163.364 296.186 163.487 296.124C163.609 296.063 163.744 296.027 163.881 296.02C164.018 296.013 164.155 296.034 164.284 296.082C164.413 296.13 164.53 296.204 164.629 296.3C167.295 298.527 169.962 300.763 172.629 303.01C172.784 303.142 172.894 303.319 172.946 303.516C172.998 303.712 172.988 303.92 172.919 304.112C172.849 304.303 172.723 304.469 172.557 304.586C172.39 304.704 172.192 304.768 171.989 304.77H171.999Z" fill="white"/>
<path d="M182 313.26C181.762 313.26 181.531 313.175 181.35 313.02L176.6 309.02C176.499 308.935 176.417 308.83 176.357 308.713C176.297 308.596 176.26 308.468 176.249 308.336C176.239 308.205 176.254 308.073 176.294 307.947C176.335 307.822 176.4 307.706 176.485 307.605C176.57 307.505 176.675 307.422 176.792 307.362C176.909 307.302 177.037 307.265 177.169 307.255C177.3 307.244 177.432 307.259 177.558 307.3C177.683 307.34 177.799 307.405 177.9 307.49L182.64 311.49C182.74 311.575 182.823 311.678 182.884 311.795C182.944 311.912 182.981 312.039 182.992 312.17C183.003 312.301 182.989 312.433 182.949 312.558C182.909 312.683 182.845 312.8 182.76 312.9C182.667 313.012 182.551 313.102 182.42 313.164C182.288 313.226 182.145 313.259 182 313.26Z" fill="white"/>
<path d="M203.587 331.61C203.353 331.611 203.127 331.529 202.947 331.38C197.38 326.713 191.833 322.007 186.307 317.26L186.067 317.05C185.966 316.965 185.883 316.862 185.823 316.745C185.763 316.628 185.726 316.501 185.715 316.37C185.703 316.239 185.718 316.107 185.758 315.982C185.798 315.857 185.862 315.741 185.947 315.64C186.032 315.54 186.136 315.458 186.253 315.399C186.37 315.339 186.498 315.303 186.629 315.293C186.76 315.283 186.892 315.299 187.016 315.339C187.141 315.38 187.257 315.445 187.357 315.53L187.607 315.74C193.133 320.447 198.677 325.15 204.237 329.85C204.392 329.983 204.503 330.16 204.555 330.358C204.606 330.556 204.596 330.765 204.525 330.957C204.454 331.148 204.326 331.314 204.158 331.431C203.991 331.547 203.791 331.61 203.587 331.61Z" fill="white"/>
<path d="M213.676 340C213.443 340 213.216 339.919 213.037 339.77L208.247 335.77C208.146 335.685 208.063 335.582 208.003 335.465C207.942 335.348 207.905 335.221 207.894 335.09C207.883 334.959 207.898 334.827 207.938 334.702C207.978 334.577 208.042 334.46 208.127 334.36C208.297 334.16 208.54 334.035 208.802 334.013C209.064 333.99 209.324 334.072 209.527 334.24L214.317 338.24C214.418 338.324 214.501 338.427 214.563 338.543C214.624 338.66 214.662 338.787 214.674 338.918C214.686 339.049 214.672 339.181 214.633 339.307C214.594 339.432 214.531 339.549 214.447 339.65C214.352 339.761 214.233 339.85 214.1 339.91C213.967 339.971 213.823 340.001 213.676 340Z" fill="white"/>
<path d="M200.787 278.15C200.595 278.15 200.408 278.096 200.247 277.993C200.085 277.89 199.957 277.744 199.877 277.57L198.527 274.57C198.418 274.33 198.408 274.056 198.5 273.809C198.592 273.562 198.777 273.361 199.017 273.25C199.136 273.195 199.265 273.163 199.397 273.158C199.529 273.152 199.66 273.173 199.784 273.219C199.907 273.264 200.02 273.334 200.117 273.423C200.214 273.513 200.292 273.62 200.347 273.74L201.697 276.74C201.806 276.98 201.815 277.254 201.723 277.501C201.632 277.748 201.446 277.949 201.207 278.06C201.076 278.123 200.932 278.154 200.787 278.15Z" fill="white"/>
<path d="M209.717 297.25C209.526 297.25 209.339 297.196 209.177 297.093C209.016 296.99 208.888 296.843 208.807 296.67C206.687 292.01 204.807 287.97 202.967 284.33C202.909 284.212 202.874 284.083 202.865 283.952C202.857 283.82 202.874 283.688 202.916 283.563C202.958 283.438 203.025 283.323 203.112 283.224C203.199 283.124 203.304 283.043 203.422 282.985C203.54 282.926 203.669 282.892 203.801 282.883C203.932 282.874 204.064 282.892 204.189 282.934C204.314 282.976 204.429 283.042 204.528 283.129C204.628 283.216 204.709 283.322 204.767 283.44C206.587 287.11 208.497 291.16 210.627 295.84C210.736 296.081 210.744 296.356 210.65 296.603C210.556 296.851 210.368 297.051 210.127 297.16C209.999 297.219 209.859 297.249 209.717 297.25Z" fill="white"/>
<path d="M215.137 309.44C214.943 309.442 214.753 309.387 214.589 309.282C214.426 309.177 214.297 309.027 214.217 308.85C213.487 307.18 212.757 305.52 212.017 303.85C211.927 303.61 211.932 303.345 212.032 303.109C212.132 302.873 212.318 302.685 212.553 302.582C212.787 302.479 213.052 302.471 213.293 302.558C213.534 302.645 213.732 302.821 213.847 303.05C214.587 304.71 215.317 306.38 216.047 308.05C216.1 308.17 216.129 308.3 216.133 308.431C216.136 308.562 216.113 308.693 216.066 308.816C216.018 308.938 215.947 309.05 215.857 309.146C215.766 309.241 215.657 309.317 215.537 309.37C215.41 309.42 215.274 309.444 215.137 309.44Z" fill="white"/>
<path d="M226.737 334.89C226.55 334.89 226.366 334.838 226.207 334.739C226.048 334.64 225.92 334.498 225.837 334.33C222.557 327.7 219.497 320.87 216.687 314.47C216.634 314.35 216.605 314.22 216.602 314.089C216.599 313.958 216.621 313.827 216.669 313.704C216.716 313.582 216.787 313.47 216.878 313.375C216.969 313.279 217.077 313.203 217.197 313.15C217.318 313.097 217.447 313.068 217.578 313.065C217.71 313.061 217.84 313.084 217.963 313.131C218.086 313.179 218.198 313.25 218.293 313.341C218.388 313.431 218.464 313.54 218.517 313.66C221.317 320.04 224.367 326.85 227.627 333.44C227.704 333.592 227.741 333.762 227.733 333.932C227.726 334.102 227.676 334.268 227.587 334.413C227.497 334.558 227.373 334.678 227.224 334.762C227.075 334.845 226.908 334.89 226.737 334.89Z" fill="white"/>
<path d="M238.816 282.48C238.551 282.48 238.297 282.375 238.109 282.187C237.922 282 237.816 281.745 237.816 281.48V271C237.816 270.735 237.922 270.48 238.109 270.293C238.297 270.105 238.551 270 238.816 270C239.082 270 239.336 270.105 239.523 270.293C239.711 270.48 239.816 270.735 239.816 271V281.49C239.814 281.753 239.707 282.005 239.52 282.191C239.333 282.376 239.08 282.48 238.816 282.48Z" fill="white"/>
<path d="M238.876 294.49C238.611 294.49 238.357 294.385 238.169 294.197C237.982 294.01 237.876 293.755 237.876 293.49L237.816 288.24C237.816 287.975 237.922 287.72 238.109 287.533C238.297 287.345 238.551 287.24 238.816 287.24C239.082 287.24 239.336 287.345 239.523 287.533C239.711 287.72 239.816 287.975 239.816 288.24L239.876 293.5C239.876 293.765 239.771 294.02 239.584 294.207C239.396 294.395 239.142 294.5 238.876 294.5V294.49Z" fill="white"/>
<path d="M238.93 321.81C238.664 321.81 238.41 321.705 238.223 321.517C238.035 321.33 237.93 321.075 237.93 320.81C237.93 313.81 237.93 306.68 237.93 299.48C237.93 299.215 238.035 298.96 238.223 298.773C238.41 298.585 238.664 298.48 238.93 298.48C239.195 298.48 239.449 298.585 239.637 298.773C239.824 298.96 239.93 299.215 239.93 299.48C239.93 306.68 239.98 313.86 239.93 320.83C239.924 321.092 239.817 321.341 239.63 321.524C239.443 321.707 239.191 321.81 238.93 321.81Z" fill="white"/>
<path d="M238.816 334.89C238.551 334.89 238.297 334.785 238.109 334.597C237.922 334.41 237.816 334.155 237.816 333.89C237.816 331.82 237.866 329.76 237.886 327.69C237.886 327.425 237.992 327.17 238.179 326.983C238.367 326.795 238.621 326.69 238.886 326.69C239.152 326.69 239.406 326.795 239.594 326.983C239.781 327.17 239.886 327.425 239.886 327.69C239.886 329.76 239.886 331.82 239.816 333.89C239.816 334.155 239.711 334.41 239.523 334.597C239.336 334.785 239.082 334.89 238.816 334.89Z" fill="white"/>
<path d="M275.559 293.15C275.362 293.151 275.168 293.099 274.999 293C274.885 292.932 274.786 292.842 274.708 292.736C274.629 292.63 274.572 292.509 274.541 292.381C274.509 292.253 274.503 292.119 274.523 291.989C274.544 291.858 274.59 291.733 274.659 291.62L277.659 286.68C277.713 286.548 277.795 286.429 277.9 286.331C278.004 286.233 278.128 286.159 278.264 286.113C278.399 286.068 278.543 286.052 278.685 286.066C278.827 286.081 278.965 286.126 279.088 286.198C279.211 286.27 279.318 286.368 279.4 286.485C279.483 286.601 279.539 286.735 279.566 286.875C279.592 287.015 279.588 287.16 279.554 287.299C279.52 287.438 279.457 287.568 279.369 287.68L276.369 292.63C276.288 292.778 276.172 292.903 276.03 292.994C275.889 293.085 275.726 293.138 275.559 293.15Z" fill="white"/>
<path d="M261.797 315.64C261.617 315.64 261.441 315.592 261.287 315.5C261.059 315.365 260.894 315.144 260.828 314.887C260.762 314.631 260.801 314.358 260.937 314.13C263.797 309.27 267.607 302.89 271.657 296.68C271.802 296.459 272.028 296.305 272.287 296.25C272.545 296.196 272.815 296.246 273.037 296.39C273.147 296.462 273.243 296.555 273.317 296.664C273.392 296.773 273.444 296.895 273.471 297.025C273.498 297.154 273.499 297.287 273.474 297.417C273.45 297.546 273.399 297.67 273.327 297.78C269.327 303.95 265.507 310.3 262.657 315.15C262.568 315.299 262.442 315.423 262.292 315.509C262.141 315.595 261.97 315.64 261.797 315.64Z" fill="white"/>
<path d="M255.359 326.62C255.18 326.617 255.005 326.569 254.849 326.48C254.621 326.345 254.456 326.124 254.39 325.868C254.325 325.611 254.364 325.338 254.499 325.11L257.579 319.86C257.713 319.633 257.93 319.468 258.185 319.4C258.44 319.333 258.711 319.369 258.939 319.5C259.053 319.566 259.153 319.654 259.232 319.759C259.312 319.864 259.37 319.983 259.404 320.11C259.437 320.238 259.445 320.37 259.427 320.501C259.409 320.631 259.366 320.757 259.299 320.87L256.219 326.13C256.131 326.279 256.005 326.403 255.854 326.489C255.703 326.575 255.533 326.62 255.359 326.62Z" fill="white"/>
<path d="M249.429 336.47C249.245 336.469 249.066 336.417 248.909 336.32C248.797 336.252 248.699 336.161 248.621 336.055C248.544 335.948 248.488 335.827 248.457 335.699C248.426 335.571 248.421 335.437 248.442 335.307C248.463 335.177 248.51 335.052 248.579 334.94C249.406 333.607 250.226 332.273 251.039 330.94C251.185 330.74 251.4 330.601 251.642 330.55C251.884 330.499 252.137 330.539 252.351 330.664C252.565 330.788 252.725 330.988 252.8 331.223C252.876 331.459 252.861 331.715 252.759 331.94C251.939 333.29 251.119 334.64 250.279 335.99C250.19 336.136 250.066 336.257 249.917 336.341C249.768 336.425 249.6 336.469 249.429 336.47Z" fill="white"/>
</g>
</svg>
