<svg width="184" height="51" viewBox="0 0 184 51" fill="none" xmlns="http://www.w3.org/2000/svg">
<g clip-path="url(#clip0_93_415)">
<path d="M164.349 24.2368V7.13942H170.335C172.131 7.13942 173.751 7.49576 175.125 8.17321C176.497 8.88531 177.554 9.88253 178.294 11.1646C179.033 12.4826 179.385 13.9792 179.385 15.6886C179.385 17.3979 179.033 18.8933 178.294 20.1763C177.554 21.4943 176.497 22.4912 175.125 23.1683C173.751 23.8805 172.131 24.2368 170.335 24.2368H164.349ZM159.771 28.1542H170.546C173.188 28.1542 175.512 27.6199 177.554 26.5879C179.597 25.5544 181.181 24.0943 182.308 22.2067C183.435 20.319 183.998 18.1455 183.998 15.6886C183.998 13.2306 183.435 11.0222 182.308 9.13419C181.181 7.24659 179.597 5.7861 177.554 4.75328C175.512 3.72013 173.188 3.22229 170.546 3.22229H159.771V28.1542ZM146.003 12.0907C146.003 13.6935 145.476 14.9046 144.454 15.7598C143.433 16.6502 141.918 17.0774 139.911 17.0774H134.559V7.13942H139.911C141.918 7.13942 143.433 7.56732 144.454 8.42185C145.476 9.27634 146.003 10.4881 146.003 12.0907ZM151.038 28.1542L145.369 19.962C147.059 19.2855 148.363 18.2883 149.278 16.9351C150.159 15.5814 150.616 13.9792 150.616 12.0907C150.616 10.2739 150.194 8.67136 149.348 7.35342C148.503 6.03537 147.306 5.00288 145.721 4.29012C144.137 3.57777 142.271 3.22229 140.123 3.22229H129.982V28.1542H134.559V20.8887H140.123C140.545 20.8887 140.862 20.8887 141.073 20.8528L146.109 28.1542H151.038ZM104.768 18.7515L109.381 7.85219L114.029 18.7515H104.768ZM118.008 28.1542H122.798L111.67 3.22229H107.162L96.0707 28.1542H100.789L103.219 22.3841H115.543L118.008 28.1542ZM74.2734 28.1542H91.739V24.2368H78.8508V3.22229H74.2734V28.1542Z" fill="white"/>
<path d="M179.723 42.7525H178.092V39.7155H179.723C180.329 39.7155 180.787 39.8404 181.096 40.1029C181.404 40.3652 181.564 40.7531 181.564 41.2401C181.564 41.7275 181.404 42.0905 181.096 42.3526C180.787 42.6152 180.329 42.7525 179.723 42.7525ZM179.834 38.0656H176.091V46.8148H178.092V44.4021H179.834C180.601 44.4021 181.268 44.2775 181.837 44.0153C182.393 43.7651 182.825 43.4018 183.134 42.9151C183.443 42.4395 183.591 41.878 183.591 41.2401C183.591 40.5902 183.443 40.0281 183.134 39.5528C182.825 39.0779 182.393 38.7152 181.837 38.453C181.268 38.1908 180.601 38.0656 179.834 38.0656ZM167.356 45.2397C166.849 45.2397 166.379 45.1148 165.972 44.8773C165.564 44.6395 165.243 44.3152 165.008 43.89C164.773 43.4652 164.65 42.9773 164.65 42.4395C164.65 41.9025 164.773 41.4155 165.008 40.9906C165.243 40.5652 165.564 40.2279 165.972 39.9907C166.379 39.7529 166.849 39.64 167.356 39.64C167.862 39.64 168.332 39.7529 168.74 39.9907C169.147 40.2279 169.482 40.5652 169.715 40.9906C169.951 41.4155 170.061 41.9025 170.061 42.4395C170.061 42.9773 169.951 43.4652 169.715 43.89C169.482 44.3152 169.147 44.6395 168.74 44.8773C168.332 45.1148 167.862 45.2397 167.356 45.2397ZM167.356 46.9644C168.258 46.9644 169.06 46.7646 169.777 46.3772C170.494 45.9898 171.063 45.4397 171.47 44.7527C171.878 44.065 172.088 43.3022 172.088 42.4395C172.088 41.5775 171.878 40.8027 171.47 40.115C171.063 39.4282 170.494 38.8905 169.777 38.5025C169.06 38.1157 168.258 37.9156 167.356 37.9156C166.453 37.9156 165.651 38.1157 164.933 38.5025C164.205 38.8905 163.648 39.4282 163.24 40.115C162.833 40.8027 162.623 41.5775 162.623 42.4395C162.623 43.3022 162.833 44.065 163.24 44.7527C163.648 45.4397 164.205 45.9898 164.933 46.3772C165.651 46.7646 166.453 46.9644 167.356 46.9644ZM159.621 38.0656H152.121V39.7155H154.876V46.8148H156.852V39.7155H159.621V38.0656ZM143.595 43.4018L144.966 40.0525L146.337 43.4018H143.595ZM147.734 46.8148H149.834L145.966 38.0656H143.99L140.134 46.8148H142.185L142.952 44.9395H146.967L147.734 46.8148ZM133.882 42.7525H132.25V39.7155H133.882C134.486 39.7155 134.943 39.8404 135.253 40.1029C135.561 40.3652 135.723 40.7531 135.723 41.2401C135.723 41.7275 135.561 42.0905 135.253 42.3526C134.943 42.6152 134.486 42.7525 133.882 42.7525ZM133.992 38.0656H130.247V46.8148H132.25V44.4021H133.992C134.759 44.4021 135.425 44.2775 135.994 44.0153C136.55 43.7651 136.983 43.4018 137.291 42.9151C137.6 42.4395 137.749 41.878 137.749 41.2401C137.749 40.5902 137.6 40.0281 137.291 39.5528C136.983 39.0779 136.55 38.7152 135.994 38.453C135.425 38.1908 134.759 38.0656 133.992 38.0656ZM126.556 38.0656H120.452V46.8148H122.44L122.428 39.7155H126.543L126.556 38.0656ZM111.654 45.189V43.1646H115.67V41.5895H111.654V39.6904H116.201V38.0656H109.665V46.8148H116.362V45.189H111.654ZM105.943 38.0656H98.4429V39.7155H101.199V46.8148H103.175V39.7155H105.943V38.0656ZM92.6965 38.0656V41.5153H88.7685V38.0656H86.7661V46.8148H88.7685V43.2274H92.6965V46.8148H94.6988V38.0656H92.6965ZM74.1641 46.8148H76.0542L80.1811 41.1279V46.8148H82.1579V38.0656H80.2809L76.1534 43.7651V38.0656H74.1641V46.8148Z" fill="white"/>
<mask id="mask0_93_415" style="mask-type:luminance" maskUnits="userSpaceOnUse" x="0" y="0" width="50" height="51">
<path d="M49.6111 50.1818H0V-5.34058e-05H49.6111V50.1818Z" fill="white"/>
</mask>
<g mask="url(#mask0_93_415)">
<mask id="mask1_93_415" style="mask-type:luminance" maskUnits="userSpaceOnUse" x="0" y="0" width="50" height="51">
<path fill-rule="evenodd" clip-rule="evenodd" d="M35.3124 2.5819C39.4651 4.5402 42.9893 7.62064 45.4971 11.4324C48.0968 15.3841 49.6111 20.1194 49.6111 25.2061C49.6111 25.3906 49.6044 25.6757 49.5919 26.0595C49.5808 26.4004 49.5668 26.6871 49.5509 26.9176L49.4531 28.3723L25.1283 28.2715L26.3567 25.1726L46.517 25.2565V25.2061C46.517 20.7456 45.1938 16.6006 42.9227 13.1478C40.7553 9.85378 37.729 7.18522 34.1678 5.46987L35.3124 2.5819ZM47.4814 35.7962L14.2372 35.6798L26.7386 3.91136L28.213 0.192805C29.2604 0.331845 30.2877 0.535846 31.2897 0.801413L29.6037 5.05558L18.7663 32.5939L48.6926 32.6968C48.3559 33.7628 47.9506 34.7972 47.4814 35.7962ZM0 25.115V25.1627C0.00328136 26.1672 0.0659255 27.1578 0.183457 28.1315C0.400027 29.8538 0.802139 31.5182 1.3552 33.1177C2.16062 35.449 3.28792 37.6326 4.62641 39.6482C5.37338 40.7016 6.20027 41.6939 7.09667 42.6173L23.8808 0C22.7021 0.0494366 21.5448 0.179828 20.4142 0.388311L20.1189 1.13356L6.23635 36.3837C5.45391 35.0235 4.78511 33.5918 4.26784 32.0948C3.52298 29.9395 3.09371 27.6363 3.09371 25.2061C3.09371 20.9643 4.29051 17.008 6.36134 13.6608C8.11329 10.8296 10.4869 8.43233 13.2874 6.66381L15.0665 2.17552C14.5934 2.41629 13.4643 2.99408 13.3035 3.07858C9.376 5.15247 6.06959 8.25158 3.73865 12.0184C1.44618 15.7241 0.0888946 20.0761 0.00357966 24.737V24.7536L0.000298304 24.9795V24.9964L0 25.115ZM44.8946 39.8769C44.5521 40.3032 43.5826 41.5235 43.4764 41.646C41.2248 44.2358 38.4423 46.3564 35.2992 47.8361C32.1033 49.3408 28.546 50.1818 24.8049 50.1818C21.8747 50.1818 19.0802 49.6395 16.4739 48.6802C14.3643 47.904 12.3865 46.8561 10.5674 45.6042L11.7439 42.6363C13.5152 43.9283 15.454 44.9971 17.5251 45.7595C19.7929 46.5942 22.2344 47.0664 24.8049 47.0664C28.0988 47.0664 31.2125 46.3344 33.994 45.0245C36.6312 43.7832 38.9825 42.0186 40.9176 39.8627L44.8946 39.8769Z" fill="white"/>
</mask>
<g mask="url(#mask1_93_415)">
<mask id="mask2_93_415" style="mask-type:luminance" maskUnits="userSpaceOnUse" x="0" y="0" width="50" height="51">
<path d="M0 50.1818V0H49.6111V50.1818H0Z" fill="white"/>
</mask>
<g mask="url(#mask2_93_415)">
<mask id="mask3_93_415" style="mask-type:luminance" maskUnits="userSpaceOnUse" x="-1" y="-1" width="52" height="52">
<path d="M-0.726562 50.9481H50.5915V-0.589478H-0.726562V50.9481Z" fill="white"/>
</mask>
<g mask="url(#mask3_93_415)">
<path d="M50.6441 50.9645H-0.765625V-0.650414H50.6441V50.9645Z" fill="white"/>
</g>
</g>
</g>
</g>
</g>
<defs>
<clipPath id="clip0_93_415">
<rect width="184" height="50.1818" fill="white"/>
</clipPath>
</defs>
</svg>
