<svg width="500" height="500" viewBox="0 0 500 500" fill="none" xmlns="http://www.w3.org/2000/svg">
<path d="M500 382.4H0V382.65H500V382.4Z" fill="#EBEBEB"/>
<path d="M449.901 398.49H416.781V398.74H449.901V398.49Z" fill="#EBEBEB"/>
<path d="M331.221 401.21H322.531V401.46H331.221V401.21Z" fill="#EBEBEB"/>
<path d="M415.78 389.21H396.59V389.46H415.78V389.21Z" fill="#EBEBEB"/>
<path d="M95.6509 390.89H52.4609V391.14H95.6509V390.89Z" fill="#EBEBEB"/>
<path d="M110.889 390.89H104.559V391.14H110.889V390.89Z" fill="#EBEBEB"/>
<path d="M225.149 395.11H131.469V395.36H225.149V395.11Z" fill="#EBEBEB"/>
<path d="M237.001 337.8H43.9109C42.3983 337.797 40.9485 337.195 39.8798 336.124C38.8112 335.053 38.2109 333.603 38.2109 332.09V60.66C38.2241 59.156 38.8301 57.718 39.8974 56.6582C40.9646 55.5985 42.4069 55.0026 43.9109 55H237.001C238.515 55 239.968 55.6016 241.039 56.6724C242.109 57.7433 242.711 59.1956 242.711 60.71V332.09C242.711 333.604 242.109 335.057 241.039 336.128C239.968 337.198 238.515 337.8 237.001 337.8ZM43.9109 55.2C42.4646 55.2026 41.0784 55.7791 40.0566 56.8027C39.0348 57.8264 38.4609 59.2136 38.4609 60.66V332.09C38.4609 333.536 39.0348 334.924 40.0566 335.947C41.0784 336.971 42.4646 337.547 43.9109 337.55H237.001C238.448 337.547 239.835 336.971 240.859 335.948C241.882 334.924 242.458 333.537 242.461 332.09V60.66C242.458 59.2127 241.882 57.8255 240.859 56.8021C239.835 55.7787 238.448 55.2026 237.001 55.2H43.9109Z" fill="#EBEBEB"/>
<path d="M453.31 337.8H260.21C258.696 337.797 257.246 337.195 256.175 336.125C255.105 335.054 254.503 333.604 254.5 332.09V60.66C254.516 59.1551 255.124 57.7171 256.193 56.6576C257.262 55.5981 258.705 55.0025 260.21 55H453.31C454.812 55.0052 456.252 55.6022 457.317 56.6617C458.382 57.7212 458.987 59.1578 459 60.66V332.09C459 333.601 458.401 335.05 457.335 336.121C456.268 337.191 454.821 337.795 453.31 337.8ZM260.21 55.2C258.763 55.2026 257.375 55.7787 256.352 56.8021C255.329 57.8255 254.753 59.2127 254.75 60.66V332.09C254.753 333.537 255.329 334.924 256.352 335.948C257.375 336.971 258.763 337.547 260.21 337.55H453.31C454.757 337.547 456.145 336.971 457.168 335.948C458.191 334.924 458.767 333.537 458.77 332.09V60.66C458.767 59.2127 458.191 57.8255 457.168 56.8021C456.145 55.7787 454.757 55.2026 453.31 55.2H260.21Z" fill="#EBEBEB"/>
<path d="M85.6294 102.85C85.6602 98.9563 86.6428 95.1291 88.4915 91.7019C90.3401 88.2748 92.9988 85.3518 96.2359 83.1875C99.473 81.0232 103.19 79.6833 107.064 79.2847C110.937 78.886 114.849 79.4406 118.459 80.9001C121.087 75.5198 125.321 71.0891 130.577 68.2209C135.833 65.3528 141.85 64.1892 147.796 64.891C153.742 65.5928 159.323 68.1254 163.767 72.1383C168.21 76.1512 171.297 81.446 172.599 87.2901C179.015 87.7356 185.008 90.6509 189.319 95.4233C193.629 100.196 195.922 106.453 195.715 112.881C195.508 119.309 192.817 125.406 188.208 129.89C183.599 134.375 177.43 136.899 170.999 136.93H91.9094C87.7915 136.928 83.8042 135.484 80.6401 132.849C77.476 130.213 75.3349 126.553 74.5887 122.503C73.8424 118.453 74.5381 114.27 76.555 110.68C78.5719 107.09 81.7826 104.32 85.6294 102.85Z" fill="#E0E0E0"/>
<path d="M366.092 297.76C366.115 295.359 366.724 293 367.866 290.887C369.008 288.775 370.649 286.973 372.645 285.639C374.642 284.304 376.934 283.478 379.323 283.23C381.711 282.983 384.124 283.323 386.352 284.22C387.97 280.898 390.581 278.16 393.824 276.388C397.067 274.616 400.781 273.897 404.451 274.33C408.121 274.763 411.565 276.327 414.307 278.805C417.049 281.283 418.951 284.552 419.752 288.16C423.73 288.409 427.456 290.198 430.137 293.148C432.819 296.098 434.246 299.976 434.116 303.96C433.986 307.945 432.309 311.722 429.44 314.49C426.572 317.259 422.738 318.801 418.752 318.79H370.002C367.473 318.774 365.029 317.876 363.091 316.251C361.153 314.627 359.841 312.377 359.383 309.89C358.925 307.403 359.348 304.834 360.58 302.626C361.812 300.417 363.775 298.707 366.132 297.79L366.092 297.76Z" fill="#E0E0E0"/>
<path d="M102.15 254.23C102.176 250.145 103.202 246.129 105.138 242.533C107.075 238.937 109.863 235.87 113.26 233.601C116.656 231.331 120.556 229.929 124.62 229.515C128.683 229.102 132.786 229.691 136.57 231.23C139.321 225.588 143.758 220.941 149.267 217.932C154.776 214.924 161.084 213.703 167.318 214.439C173.552 215.175 179.402 217.832 184.059 222.041C188.716 226.249 191.949 231.802 193.31 237.93C200.206 238.154 206.73 241.108 211.447 246.143C216.165 251.177 218.689 257.879 218.465 264.775C218.241 271.671 215.287 278.195 210.252 282.912C205.218 287.63 198.516 290.154 191.62 289.93H108.73C104.415 289.925 100.239 288.41 96.9249 285.647C93.6109 282.885 91.3685 279.049 90.5869 274.806C89.8053 270.563 90.5337 266.18 92.6458 262.418C94.758 258.656 98.1205 255.752 102.15 254.21V254.23Z" fill="#F0F0F0"/>
<path d="M119.388 278C119.388 278.748 119.166 279.478 118.751 280.1C118.336 280.722 117.745 281.206 117.055 281.492C116.364 281.778 115.604 281.853 114.871 281.707C114.137 281.561 113.464 281.201 112.935 280.673C112.407 280.144 112.047 279.471 111.901 278.737C111.755 278.004 111.83 277.244 112.116 276.553C112.402 275.863 112.886 275.272 113.508 274.857C114.13 274.442 114.861 274.22 115.608 274.22C116.611 274.22 117.572 274.618 118.281 275.327C118.99 276.036 119.388 276.997 119.388 278Z" fill="#E6E6E6"/>
<path d="M133.638 278C133.638 278.748 133.416 279.478 133.001 280.1C132.586 280.722 131.995 281.206 131.305 281.492C130.614 281.778 129.854 281.853 129.121 281.707C128.387 281.561 127.714 281.201 127.185 280.673C126.657 280.144 126.297 279.471 126.151 278.737C126.005 278.004 126.08 277.244 126.366 276.553C126.652 275.863 127.136 275.272 127.758 274.857C128.38 274.442 129.111 274.22 129.858 274.22C130.861 274.22 131.822 274.618 132.531 275.327C133.24 276.036 133.638 276.997 133.638 278Z" fill="white"/>
<path d="M360.7 133.26C360.725 130.433 361.439 127.655 362.782 125.168C364.125 122.68 366.056 120.558 368.406 118.987C370.756 117.416 373.454 116.443 376.266 116.152C379.078 115.861 381.918 116.262 384.54 117.32C386.462 113.433 389.54 110.236 393.351 108.168C397.163 106.1 401.521 105.263 405.827 105.772C410.134 106.28 414.177 108.109 417.402 111.008C420.628 113.906 422.876 117.732 423.84 121.96C428.614 122.116 433.13 124.163 436.395 127.649C439.66 131.136 441.407 135.776 441.25 140.55C441.094 145.324 439.047 149.84 435.561 153.105C432.075 156.37 427.434 158.116 422.66 157.96H365.25C362.261 157.958 359.367 156.909 357.07 154.995C354.774 153.081 353.22 150.423 352.68 147.483C352.139 144.543 352.645 141.507 354.11 138.901C355.576 136.296 357.907 134.285 360.7 133.22V133.26Z" fill="#F5F5F5"/>
<path d="M413.08 149C413.082 149.485 412.939 149.961 412.671 150.365C412.402 150.769 412.02 151.085 411.572 151.272C411.124 151.458 410.63 151.508 410.154 151.413C409.678 151.319 409.241 151.086 408.897 150.742C408.554 150.399 408.32 149.962 408.226 149.486C408.132 149.009 408.181 148.516 408.368 148.068C408.555 147.62 408.87 147.237 409.275 146.969C409.679 146.7 410.154 146.558 410.64 146.56C411.286 146.563 411.905 146.821 412.362 147.278C412.819 147.735 413.077 148.354 413.08 149Z" fill="white"/>
<path d="M422.298 149C422.3 149.485 422.158 149.96 421.89 150.364C421.622 150.768 421.24 151.084 420.793 151.271C420.345 151.458 419.852 151.508 419.377 151.414C418.901 151.321 418.463 151.088 418.12 150.746C417.776 150.404 417.542 149.967 417.446 149.492C417.351 149.016 417.399 148.523 417.584 148.075C417.769 147.627 418.083 147.243 418.486 146.974C418.889 146.704 419.363 146.56 419.848 146.56C420.496 146.56 421.118 146.817 421.577 147.274C422.036 147.731 422.296 148.352 422.298 149Z" fill="white"/>
<path d="M403.861 149C403.863 149.485 403.721 149.961 403.452 150.365C403.184 150.769 402.801 151.085 402.353 151.272C401.905 151.458 401.412 151.508 400.935 151.413C400.459 151.319 400.022 151.086 399.679 150.742C399.335 150.399 399.102 149.962 399.008 149.486C398.913 149.009 398.963 148.516 399.149 148.068C399.336 147.62 399.652 147.237 400.056 146.969C400.46 146.7 400.936 146.558 401.421 146.56C402.067 146.563 402.686 146.821 403.143 147.278C403.6 147.735 403.858 148.354 403.861 149Z" fill="#E6E6E6"/>
<path d="M249.999 427.56C357.082 427.56 443.889 422.492 443.889 416.24C443.889 409.988 357.082 404.92 249.999 404.92C142.917 404.92 56.1094 409.988 56.1094 416.24C56.1094 422.492 142.917 427.56 249.999 427.56Z" fill="#F5F5F5"/>
<path d="M201.438 97.4299H183.058C171.476 97.4285 160.15 100.843 150.499 107.247C140.847 113.65 133.299 122.758 128.798 133.43H114.168C107.484 133.336 100.847 134.571 94.6447 137.064C88.4419 139.557 82.7964 143.258 78.0363 147.951C73.2761 152.645 69.4963 158.238 66.9163 164.405C64.3364 170.572 63.0078 177.19 63.0078 183.875C63.0078 190.56 64.3364 197.178 66.9163 203.345C69.4963 209.512 73.2761 215.105 78.0363 219.799C82.7964 224.492 88.4419 228.193 94.6447 230.686C100.847 233.179 107.484 234.414 114.168 234.32H201.438V97.4299Z" fill="url(#paint0_linear_63_648)"/>
<path d="M158 100.26L157.59 99.3499C159.894 98.3206 162.258 97.4323 164.67 96.6899L164.96 97.6899C162.591 98.4071 160.267 99.2653 158 100.26Z" fill="url(#paint1_linear_63_648)"/>
<path d="M135.167 117.89L134.387 117.26C138.983 111.518 144.563 106.639 150.867 102.85L151.387 103.71C145.182 107.437 139.689 112.239 135.167 117.89Z" fill="url(#paint2_linear_63_648)"/>
<path opacity="0.2" d="M201.438 97.4299H183.058C171.476 97.4285 160.15 100.843 150.499 107.247C140.847 113.65 133.299 122.758 128.798 133.43H114.168C107.484 133.336 100.847 134.571 94.6447 137.064C88.4419 139.557 82.7964 143.258 78.0363 147.951C73.2761 152.645 69.4963 158.238 66.9163 164.405C64.3364 170.572 63.0078 177.19 63.0078 183.875C63.0078 190.56 64.3364 197.178 66.9163 203.345C69.4963 209.512 73.2761 215.105 78.0363 219.799C82.7964 224.492 88.4419 228.193 94.6447 230.686C100.847 233.179 107.484 234.414 114.168 234.32H201.438V97.4299Z" fill="black"/>
<path opacity="0.5" d="M132.289 126.5H158.669L178.169 109.17H147.789C141.526 113.863 136.257 119.754 132.289 126.5Z" fill="url(#paint3_linear_63_648)"/>
<path opacity="0.5" d="M72.3384 155.67C68.7816 160.922 66.2567 166.804 64.8984 173H94.9984V155.67H72.3384Z" fill="url(#paint4_linear_63_648)"/>
<path opacity="0.5" d="M195.829 101.47H161.589C157.931 102.9 154.426 104.695 151.129 106.83H176.329L195.829 101.47Z" fill="url(#paint5_linear_63_648)"/>
<path d="M301.86 172.23C299.353 161.682 293.516 152.221 285.213 145.25C276.91 138.278 266.583 134.165 255.76 133.52C251.2 122.669 243.495 113.433 233.637 107.003C223.78 100.572 212.222 97.2415 200.454 97.4406C188.686 97.6396 177.247 101.359 167.613 108.12C157.979 114.88 150.59 124.371 146.4 135.37C139.463 133.394 132.184 132.928 125.052 134.005C117.921 135.081 111.103 137.675 105.059 141.61C99.0144 145.545 93.8845 150.731 90.0149 156.818C86.1453 162.904 83.626 169.75 82.6269 176.893C81.6278 184.036 82.1722 191.31 84.2234 198.224C86.2745 205.139 89.7847 211.533 94.5172 216.976C99.2497 222.419 105.094 226.783 111.657 229.775C118.22 232.767 125.347 234.317 132.56 234.32H293.22C300.854 234.313 308.228 231.548 313.983 226.533C319.739 221.519 323.488 214.593 324.54 207.032C325.592 199.471 323.876 191.785 319.708 185.389C315.541 178.994 309.202 174.32 301.86 172.23Z" fill="url(#paint6_linear_63_648)"/>
<path opacity="0.2" d="M300.769 176.08L298.499 175.44L297.959 173.15C295.62 163.455 290.238 154.764 282.6 148.35C274.963 141.937 265.472 138.138 255.519 137.51L253.029 137.37L252.029 135.07C247.853 125.091 240.817 116.571 231.807 110.585C222.797 104.598 212.217 101.413 201.399 101.43C200.689 101.43 199.989 101.43 199.289 101.43C209.735 101.822 219.85 105.193 228.442 111.147C237.034 117.1 243.744 125.387 247.779 135.03L248.779 137.33L251.269 137.47C261.222 138.098 270.713 141.897 278.35 148.31C285.988 154.724 291.37 163.415 293.709 173.11L294.249 175.4L296.519 176.04C302.962 177.84 308.534 181.915 312.202 187.509C315.87 193.104 317.385 199.838 316.467 206.465C315.549 213.091 312.26 219.16 307.209 223.546C302.158 227.933 295.689 230.339 288.999 230.32H293.249C299.916 230.312 306.356 227.896 311.383 223.515C316.409 219.135 319.683 213.086 320.603 206.482C321.522 199.878 320.024 193.165 316.385 187.578C312.746 181.992 307.211 177.908 300.799 176.08H300.769Z" fill="black"/>
<path d="M296.518 176.08L294.248 175.44L293.708 173.15C291.37 163.455 285.987 154.764 278.35 148.35C270.712 141.937 261.222 138.138 251.268 137.51L248.778 137.37L247.778 135.07C243.743 125.427 237.034 117.14 228.442 111.187C219.85 105.233 209.734 101.862 199.288 101.47H199.218C188.482 101.94 178.117 105.532 169.392 111.806C160.667 118.08 153.962 126.762 150.098 136.79L148.798 140.22L145.268 139.22L144.958 139.14C140.908 138.013 136.723 137.441 132.518 137.44C131.788 137.44 131.068 137.44 130.338 137.44C118.254 138.053 106.885 143.358 98.6519 152.226C90.4187 161.093 85.9709 172.824 86.255 184.921C86.5391 197.018 91.5325 208.526 100.173 216.998C108.813 225.469 120.418 230.235 132.518 230.28H288.998C295.666 230.272 302.106 227.855 307.132 223.475C312.158 219.095 315.433 213.046 316.352 206.442C317.271 199.838 315.773 193.125 312.134 187.538C308.495 181.952 302.96 177.868 296.548 176.04L296.518 176.08Z" fill="white"/>
<path d="M181.359 170.72V210.41H221.359V170.72H233.999L201.359 134.03L168.719 170.72H181.359Z" fill="url(#paint7_linear_63_648)"/>
<path d="M168.109 261.34H180.549V281.9C180.549 283.279 180.002 284.602 179.026 285.577C178.051 286.552 176.729 287.1 175.349 287.1H173.349C171.97 287.1 170.648 286.552 169.672 285.577C168.697 284.602 168.149 283.279 168.149 281.9V261.34H168.109Z" fill="url(#paint8_linear_63_648)"/>
<path opacity="0.2" d="M168.109 261.34H180.549V281.9C180.549 283.279 180.002 284.602 179.026 285.577C178.051 286.552 176.729 287.1 175.349 287.1H173.349C171.97 287.1 170.648 286.552 169.672 285.577C168.697 284.602 168.149 283.279 168.149 281.9V261.34H168.109Z" fill="black"/>
<path d="M162.559 234.32H186.119V257.9C186.119 260.51 185.082 263.012 183.237 264.858C181.391 266.703 178.888 267.74 176.279 267.74H172.399C169.789 267.74 167.286 266.703 165.441 264.858C163.595 263.012 162.559 260.51 162.559 257.9V234.32Z" fill="url(#paint9_linear_63_648)"/>
<path opacity="0.2" d="M186.109 240.22L162.559 243.78V234.32H186.109V240.22Z" fill="black"/>
<path d="M181.169 255.21C182.898 255.21 184.299 253.809 184.299 252.08C184.299 250.351 182.898 248.95 181.169 248.95C179.44 248.95 178.039 250.351 178.039 252.08C178.039 253.809 179.44 255.21 181.169 255.21Z" fill="white"/>
<path opacity="0.5" d="M172.829 255.21C174.558 255.21 175.959 253.809 175.959 252.08C175.959 250.351 174.558 248.95 172.829 248.95C171.101 248.95 169.699 250.351 169.699 252.08C169.699 253.809 171.101 255.21 172.829 255.21Z" fill="white"/>
<path d="M252.778 321.67H200.328C192.773 321.659 185.53 318.653 180.187 313.311C174.845 307.968 171.839 300.725 171.828 293.17V287.09H176.828V293.17C176.839 299.399 179.318 305.37 183.723 309.775C188.128 314.18 194.099 316.659 200.328 316.67H252.778V321.67Z" fill="url(#paint10_linear_63_648)"/>
<path d="M375.193 196.33H289.243C282.041 196.33 276.203 202.168 276.203 209.37V403.19C276.203 410.392 282.041 416.23 289.243 416.23H375.193C382.395 416.23 388.233 410.392 388.233 403.19V209.37C388.233 202.168 382.395 196.33 375.193 196.33Z" fill="#8424DE"/>
<path opacity="0.2" d="M375.193 196.33H289.243C282.041 196.33 276.203 202.168 276.203 209.37V403.19C276.203 410.392 282.041 416.23 289.243 416.23H375.193C382.395 416.23 388.233 410.392 388.233 403.19V209.37C388.233 202.168 382.395 196.33 375.193 196.33Z" fill="black"/>
<path d="M351.771 196.33H265.821C258.619 196.33 252.781 202.168 252.781 209.37V403.19C252.781 410.392 258.619 416.23 265.821 416.23H351.771C358.973 416.23 364.811 410.392 364.811 403.19V209.37C364.811 202.168 358.973 196.33 351.771 196.33Z" fill="#8424DE"/>
<path opacity="0.2" d="M360.461 403.2V209.37C360.461 204.571 356.57 200.68 351.771 200.68H265.821C261.022 200.68 257.131 204.571 257.131 209.37V403.2C257.131 408 261.022 411.89 265.821 411.89H351.771C356.57 411.89 360.461 408 360.461 403.2Z" fill="black"/>
<path d="M360.461 403.2V209.37C360.461 204.571 356.57 200.68 351.771 200.68H269.861C265.062 200.68 261.171 204.571 261.171 209.37V403.2C261.171 408 265.062 411.89 269.861 411.89H351.771C356.57 411.89 360.461 408 360.461 403.2Z" fill="white"/>
<path opacity="0.3" d="M346.93 226.11H274.69C272.899 226.102 271.184 225.387 269.918 224.121C268.652 222.855 267.938 221.141 267.93 219.35C267.935 217.558 268.649 215.841 269.915 214.572C271.181 213.304 272.898 212.588 274.69 212.58H346.93C348.724 212.585 350.442 213.3 351.711 214.569C352.979 215.837 353.694 217.556 353.7 219.35C353.692 221.142 352.976 222.859 351.707 224.125C350.439 225.391 348.722 226.105 346.93 226.11Z" fill="#8424DE"/>
<path d="M323.123 220.82H273.613C273.419 220.821 273.227 220.784 273.047 220.711C272.868 220.638 272.704 220.53 272.567 220.393C272.429 220.256 272.32 220.094 272.246 219.915C272.171 219.736 272.133 219.544 272.133 219.35C272.133 218.958 272.289 218.581 272.566 218.304C272.844 218.026 273.22 217.87 273.613 217.87H323.123C323.317 217.87 323.509 217.908 323.688 217.983C323.867 218.057 324.029 218.167 324.166 218.304C324.302 218.442 324.411 218.605 324.484 218.785C324.557 218.964 324.594 219.156 324.593 219.35C324.593 219.74 324.438 220.114 324.162 220.39C323.887 220.665 323.513 220.82 323.123 220.82Z" fill="white"/>
<path d="M340.992 220.83C341.809 220.83 342.472 220.168 342.472 219.35C342.472 218.533 341.809 217.87 340.992 217.87C340.174 217.87 339.512 218.533 339.512 219.35C339.512 220.168 340.174 220.83 340.992 220.83Z" fill="#8424DE"/>
<path d="M347.511 220.83C348.329 220.83 348.991 220.168 348.991 219.35C348.991 218.533 348.329 217.87 347.511 217.87C346.694 217.87 346.031 218.533 346.031 219.35C346.031 220.168 346.694 220.83 347.511 220.83Z" fill="#8424DE"/>
<path d="M334.472 220.83C335.29 220.83 335.952 220.168 335.952 219.35C335.952 218.533 335.29 217.87 334.472 217.87C333.655 217.87 332.992 218.533 332.992 219.35C332.992 220.168 333.655 220.83 334.472 220.83Z" fill="#8424DE"/>
<path opacity="0.3" d="M346.93 247.84H274.69C272.898 247.835 271.182 247.121 269.915 245.854C268.649 244.588 267.935 242.871 267.93 241.08C267.935 239.289 268.649 237.572 269.915 236.306C271.182 235.039 272.898 234.325 274.69 234.32H346.93C348.722 234.325 350.439 235.039 351.707 236.305C352.976 237.572 353.692 239.288 353.7 241.08C353.692 242.872 352.976 244.589 351.707 245.855C350.439 247.121 348.722 247.835 346.93 247.84Z" fill="#8424DE"/>
<path d="M323.123 242.56H273.613C273.22 242.56 272.844 242.404 272.566 242.127C272.289 241.849 272.133 241.473 272.133 241.08C272.133 240.688 272.289 240.311 272.566 240.034C272.844 239.756 273.22 239.6 273.613 239.6H323.123C323.514 239.603 323.887 239.76 324.163 240.037C324.438 240.314 324.593 240.689 324.593 241.08C324.593 241.471 324.438 241.846 324.163 242.123C323.887 242.4 323.514 242.557 323.123 242.56Z" fill="white"/>
<path d="M340.992 242.56C341.809 242.56 342.472 241.897 342.472 241.08C342.472 240.263 341.809 239.6 340.992 239.6C340.174 239.6 339.512 240.263 339.512 241.08C339.512 241.897 340.174 242.56 340.992 242.56Z" fill="#8424DE"/>
<path d="M347.511 242.56C348.329 242.56 348.991 241.897 348.991 241.08C348.991 240.263 348.329 239.6 347.511 239.6C346.694 239.6 346.031 240.263 346.031 241.08C346.031 241.897 346.694 242.56 347.511 242.56Z" fill="#8424DE"/>
<path opacity="0.3" d="M334.472 242.56C335.29 242.56 335.952 241.897 335.952 241.08C335.952 240.263 335.29 239.6 334.472 239.6C333.655 239.6 332.992 240.263 332.992 241.08C332.992 241.897 333.655 242.56 334.472 242.56Z" fill="#8424DE"/>
<path opacity="0.3" d="M346.93 269.58H274.69C272.899 269.572 271.184 268.857 269.918 267.591C268.652 266.325 267.938 264.611 267.93 262.82C267.935 261.028 268.649 259.31 269.915 258.042C271.181 256.774 272.898 256.058 274.69 256.05H346.93C348.724 256.055 350.442 256.77 351.711 258.039C352.979 259.307 353.694 261.026 353.7 262.82C353.692 264.612 352.976 266.329 351.707 267.595C350.439 268.861 348.722 269.575 346.93 269.58Z" fill="#8424DE"/>
<path d="M323.123 264.29H273.613C273.419 264.291 273.227 264.254 273.047 264.181C272.868 264.108 272.704 264 272.567 263.863C272.429 263.726 272.32 263.564 272.246 263.385C272.171 263.206 272.133 263.014 272.133 262.82C272.133 262.428 272.289 262.051 272.566 261.774C272.844 261.496 273.22 261.34 273.613 261.34H323.123C323.317 261.34 323.509 261.378 323.688 261.453C323.867 261.527 324.029 261.637 324.166 261.774C324.302 261.912 324.411 262.075 324.484 262.254C324.557 262.434 324.594 262.626 324.593 262.82C324.593 263.21 324.438 263.584 324.162 263.86C323.887 264.135 323.513 264.29 323.123 264.29Z" fill="white"/>
<path d="M340.992 264.3C341.809 264.3 342.472 263.637 342.472 262.82C342.472 262.003 341.809 261.34 340.992 261.34C340.174 261.34 339.512 262.003 339.512 262.82C339.512 263.637 340.174 264.3 340.992 264.3Z" fill="#8424DE"/>
<path d="M347.511 264.3C348.329 264.3 348.991 263.637 348.991 262.82C348.991 262.003 348.329 261.34 347.511 261.34C346.694 261.34 346.031 262.003 346.031 262.82C346.031 263.637 346.694 264.3 347.511 264.3Z" fill="#8424DE"/>
<path opacity="0.6" d="M334.472 264.3C335.29 264.3 335.952 263.637 335.952 262.82C335.952 262.003 335.29 261.34 334.472 261.34C333.655 261.34 332.992 262.003 332.992 262.82C332.992 263.637 333.655 264.3 334.472 264.3Z" fill="#8424DE"/>
<path opacity="0.3" d="M346.93 277.79H274.69C270.956 277.79 267.93 280.817 267.93 284.55C267.93 288.283 270.956 291.31 274.69 291.31H346.93C350.663 291.31 353.69 288.283 353.69 284.55C353.69 280.817 350.663 277.79 346.93 277.79Z" fill="#8424DE"/>
<path d="M323.123 286H273.613C273.22 286 272.844 285.844 272.566 285.567C272.289 285.289 272.133 284.913 272.133 284.52C272.133 284.127 272.289 283.751 272.566 283.474C272.844 283.196 273.22 283.04 273.613 283.04H323.123C323.514 283.043 323.887 283.2 324.163 283.477C324.438 283.754 324.593 284.129 324.593 284.52C324.593 284.911 324.438 285.286 324.163 285.563C323.887 285.84 323.514 285.997 323.123 286Z" fill="white"/>
<path d="M340.992 286.03C341.809 286.03 342.472 285.367 342.472 284.55C342.472 283.733 341.809 283.07 340.992 283.07C340.174 283.07 339.512 283.733 339.512 284.55C339.512 285.367 340.174 286.03 340.992 286.03Z" fill="#8424DE"/>
<path opacity="0.3" d="M347.511 286.03C348.329 286.03 348.991 285.367 348.991 284.55C348.991 283.733 348.329 283.07 347.511 283.07C346.694 283.07 346.031 283.733 346.031 284.55C346.031 285.367 346.694 286.03 347.511 286.03Z" fill="#8424DE"/>
<path opacity="0.6" d="M334.472 286.03C335.29 286.03 335.952 285.367 335.952 284.55C335.952 283.733 335.29 283.07 334.472 283.07C333.655 283.07 332.992 283.733 332.992 284.55C332.992 285.367 333.655 286.03 334.472 286.03Z" fill="#8424DE"/>
<path opacity="0.3" d="M346.93 313.05H274.69C272.899 313.042 271.184 312.327 269.918 311.061C268.652 309.795 267.938 308.08 267.93 306.29C267.935 304.498 268.649 302.78 269.915 301.512C271.181 300.244 272.898 299.528 274.69 299.52H346.93C348.724 299.525 350.442 300.24 351.711 301.509C352.979 302.777 353.694 304.496 353.7 306.29C353.692 308.082 352.976 309.799 351.707 311.065C350.439 312.331 348.722 313.045 346.93 313.05Z" fill="#8424DE"/>
<path d="M323.123 307.76H273.613C273.419 307.761 273.227 307.724 273.047 307.651C272.868 307.578 272.704 307.47 272.567 307.333C272.429 307.196 272.32 307.034 272.246 306.855C272.171 306.676 272.133 306.484 272.133 306.29C272.133 306.096 272.171 305.903 272.245 305.724C272.32 305.544 272.429 305.381 272.566 305.244C272.704 305.106 272.867 304.997 273.046 304.923C273.226 304.848 273.418 304.81 273.613 304.81H323.123C323.317 304.81 323.509 304.848 323.688 304.923C323.867 304.997 324.029 305.107 324.166 305.244C324.302 305.382 324.411 305.545 324.484 305.724C324.557 305.904 324.594 306.096 324.593 306.29C324.593 306.68 324.438 307.054 324.162 307.329C323.887 307.605 323.513 307.76 323.123 307.76Z" fill="white"/>
<path d="M340.992 307.77C341.809 307.77 342.472 307.107 342.472 306.29C342.472 305.473 341.809 304.81 340.992 304.81C340.174 304.81 339.512 305.473 339.512 306.29C339.512 307.107 340.174 307.77 340.992 307.77Z" fill="#8424DE"/>
<path opacity="0.6" d="M347.511 307.77C348.329 307.77 348.991 307.107 348.991 306.29C348.991 305.473 348.329 304.81 347.511 304.81C346.694 304.81 346.031 305.473 346.031 306.29C346.031 307.107 346.694 307.77 347.511 307.77Z" fill="#8424DE"/>
<path d="M334.472 307.77C335.29 307.77 335.952 307.107 335.952 306.29C335.952 305.473 335.29 304.81 334.472 304.81C333.655 304.81 332.992 305.473 332.992 306.29C332.992 307.107 333.655 307.77 334.472 307.77Z" fill="#8424DE"/>
<path opacity="0.3" d="M346.93 334.78H274.69C272.898 334.775 271.182 334.061 269.915 332.794C268.649 331.528 267.935 329.811 267.93 328.02C267.935 326.229 268.649 324.513 269.915 323.246C271.182 321.979 272.898 321.266 274.69 321.26H346.93C348.718 321.265 350.433 321.976 351.7 323.238C352.968 324.5 353.687 326.212 353.7 328C353.697 329.796 352.983 331.517 351.715 332.788C350.446 334.059 348.725 334.775 346.93 334.78Z" fill="#8424DE"/>
<path d="M323.123 329.5H273.613C273.22 329.5 272.844 329.344 272.566 329.067C272.289 328.789 272.133 328.413 272.133 328.02C272.133 327.826 272.171 327.633 272.245 327.454C272.32 327.274 272.429 327.111 272.566 326.974C272.704 326.836 272.867 326.727 273.046 326.653C273.226 326.578 273.418 326.54 273.613 326.54H323.123C323.514 326.543 323.887 326.7 324.163 326.977C324.438 327.254 324.593 327.629 324.593 328.02C324.593 328.411 324.438 328.786 324.163 329.063C323.887 329.34 323.514 329.497 323.123 329.5Z" fill="white"/>
<path opacity="0.3" d="M340.992 329.5C341.809 329.5 342.472 328.837 342.472 328.02C342.472 327.203 341.809 326.54 340.992 326.54C340.174 326.54 339.512 327.203 339.512 328.02C339.512 328.837 340.174 329.5 340.992 329.5Z" fill="#8424DE"/>
<path d="M347.511 329.5C348.329 329.5 348.991 328.837 348.991 328.02C348.991 327.203 348.329 326.54 347.511 326.54C346.694 326.54 346.031 327.203 346.031 328.02C346.031 328.837 346.694 329.5 347.511 329.5Z" fill="#8424DE"/>
<path d="M334.472 329.5C335.29 329.5 335.952 328.837 335.952 328.02C335.952 327.203 335.29 326.54 334.472 326.54C333.655 326.54 332.992 327.203 332.992 328.02C332.992 328.837 333.655 329.5 334.472 329.5Z" fill="#8424DE"/>
<path opacity="0.3" d="M346.93 356.52H274.69C272.898 356.515 271.182 355.801 269.915 354.534C268.649 353.268 267.935 351.551 267.93 349.76C267.935 347.968 268.649 346.251 269.915 344.982C271.181 343.714 272.898 342.998 274.69 342.99H346.93C348.724 342.996 350.442 343.71 351.711 344.979C352.979 346.247 353.694 347.966 353.7 349.76C353.692 351.552 352.976 353.269 351.707 354.535C350.439 355.801 348.722 356.515 346.93 356.52Z" fill="#8424DE"/>
<path d="M323.123 351.24H273.613C273.22 351.24 272.844 351.084 272.566 350.807C272.289 350.529 272.133 350.153 272.133 349.76C272.133 349.368 272.289 348.991 272.566 348.714C272.844 348.436 273.22 348.28 273.613 348.28H323.123C323.317 348.28 323.509 348.318 323.688 348.393C323.867 348.467 324.029 348.577 324.166 348.714C324.302 348.852 324.411 349.015 324.484 349.194C324.557 349.374 324.594 349.566 324.593 349.76C324.593 350.151 324.438 350.526 324.163 350.803C323.887 351.08 323.514 351.237 323.123 351.24Z" fill="white"/>
<path opacity="0.3" d="M340.992 351.24C341.809 351.24 342.472 350.577 342.472 349.76C342.472 348.943 341.809 348.28 340.992 348.28C340.174 348.28 339.512 348.943 339.512 349.76C339.512 350.577 340.174 351.24 340.992 351.24Z" fill="#8424DE"/>
<path d="M347.511 351.24C348.329 351.24 348.991 350.577 348.991 349.76C348.991 348.943 348.329 348.28 347.511 348.28C346.694 348.28 346.031 348.943 346.031 349.76C346.031 350.577 346.694 351.24 347.511 351.24Z" fill="#8424DE"/>
<path opacity="0.3" d="M334.472 351.24C335.29 351.24 335.952 350.577 335.952 349.76C335.952 348.943 335.29 348.28 334.472 348.28C333.655 348.28 332.992 348.943 332.992 349.76C332.992 350.577 333.655 351.24 334.472 351.24Z" fill="#8424DE"/>
<path opacity="0.3" d="M346.93 364.73H274.69C270.956 364.73 267.93 367.757 267.93 371.49C267.93 375.223 270.956 378.25 274.69 378.25H346.93C350.663 378.25 353.69 375.223 353.69 371.49C353.69 367.757 350.663 364.73 346.93 364.73Z" fill="#8424DE"/>
<path d="M323.123 373H273.613C273.418 373 273.226 372.962 273.046 372.887C272.867 372.813 272.704 372.704 272.566 372.567C272.429 372.429 272.32 372.266 272.245 372.086C272.171 371.907 272.133 371.714 272.133 371.52C272.133 371.127 272.289 370.751 272.566 370.474C272.844 370.196 273.22 370.04 273.613 370.04H323.123C323.514 370.043 323.887 370.2 324.163 370.477C324.438 370.754 324.593 371.129 324.593 371.52C324.593 371.911 324.438 372.286 324.163 372.563C323.887 372.84 323.514 372.997 323.123 373Z" fill="white"/>
<path d="M340.992 372.97C341.809 372.97 342.472 372.308 342.472 371.49C342.472 370.673 341.809 370.01 340.992 370.01C340.174 370.01 339.512 370.673 339.512 371.49C339.512 372.308 340.174 372.97 340.992 372.97Z" fill="#8424DE"/>
<path d="M347.511 372.97C348.329 372.97 348.991 372.307 348.991 371.49C348.991 370.673 348.329 370.01 347.511 370.01C346.694 370.01 346.031 370.673 346.031 371.49C346.031 372.307 346.694 372.97 347.511 372.97Z" fill="#8424DE"/>
<path d="M334.472 372.97C335.29 372.97 335.952 372.308 335.952 371.49C335.952 370.673 335.29 370.01 334.472 370.01C333.655 370.01 332.992 370.673 332.992 371.49C332.992 372.308 333.655 372.97 334.472 372.97Z" fill="#8424DE"/>
<path opacity="0.3" d="M346.93 400H274.69C272.898 399.995 271.182 399.281 269.915 398.014C268.649 396.748 267.935 395.031 267.93 393.24C267.935 391.448 268.649 389.731 269.915 388.462C271.181 387.194 272.898 386.478 274.69 386.47H346.93C348.724 386.475 350.442 387.19 351.711 388.459C352.979 389.727 353.694 391.446 353.7 393.24C353.692 395.032 352.976 396.749 351.707 398.015C350.439 399.281 348.722 399.995 346.93 400Z" fill="#8424DE"/>
<path d="M323.123 394.71H273.613C273.22 394.71 272.844 394.554 272.566 394.277C272.289 393.999 272.133 393.623 272.133 393.23C272.133 392.837 272.289 392.461 272.566 392.183C272.844 391.906 273.22 391.75 273.613 391.75H323.123C323.317 391.75 323.509 391.788 323.688 391.863C323.867 391.937 324.029 392.047 324.166 392.184C324.302 392.322 324.411 392.485 324.484 392.664C324.557 392.844 324.594 393.036 324.593 393.23C324.593 393.621 324.438 393.996 324.163 394.273C323.887 394.55 323.514 394.707 323.123 394.71Z" fill="white"/>
<path d="M340.992 394.71C341.809 394.71 342.472 394.047 342.472 393.23C342.472 392.413 341.809 391.75 340.992 391.75C340.174 391.75 339.512 392.413 339.512 393.23C339.512 394.047 340.174 394.71 340.992 394.71Z" fill="#8424DE"/>
<path d="M347.511 394.71C348.329 394.71 348.991 394.047 348.991 393.23C348.991 392.413 348.329 391.75 347.511 391.75C346.694 391.75 346.031 392.413 346.031 393.23C346.031 394.047 346.694 394.71 347.511 394.71Z" fill="#8424DE"/>
<path opacity="0.6" d="M334.472 394.71C335.29 394.71 335.952 394.047 335.952 393.23C335.952 392.413 335.29 391.75 334.472 391.75C333.655 391.75 332.992 392.413 332.992 393.23C332.992 394.047 333.655 394.71 334.472 394.71Z" fill="#8424DE"/>
<path opacity="0.2" d="M381.57 241.74H371.47C369.83 241.74 368.5 243.07 368.5 244.71V257.19C368.5 258.831 369.83 260.16 371.47 260.16H381.57C383.21 260.16 384.54 258.831 384.54 257.19V244.71C384.54 243.07 383.21 241.74 381.57 241.74Z" fill="black"/>
<path d="M262.923 195.2L274.233 200.11L267.743 207.68L258.293 203.58L262.923 195.2Z" fill="#CE7A63"/>
<path opacity="0.2" d="M262.92 195.2L274.23 200.12L270.6 204.36L260.32 199.9L262.92 195.2Z" fill="black"/>
<path d="M269.192 211.68L267.922 211.34C267.551 211.238 267.211 211.047 266.93 210.784C266.65 210.521 266.438 210.193 266.312 209.83L265.482 210.18C265.001 210.383 264.465 210.418 263.962 210.28L246.672 205.63C246.899 204.429 247.437 203.309 248.232 202.38C248.232 202.38 255.942 204.02 258.232 202.26C258.315 202.19 258.417 202.145 258.525 202.131C258.633 202.116 258.743 202.134 258.842 202.18C260.232 202.88 265.682 205.52 269.262 205.32C269.372 205.315 269.482 205.335 269.582 205.38C269.683 205.426 269.771 205.494 269.84 205.58C269.91 205.665 269.958 205.766 269.98 205.874C270.003 205.982 270 206.093 269.972 206.2C269.579 208.005 269.318 209.837 269.192 211.68Z" fill="#263238"/>
<path d="M364.54 159.6L359.7 169.74C352.55 184.74 334.93 192.25 320.87 186.36C312.66 182.91 303.69 175.64 297.59 172.31C292.37 183.74 282.59 196.36 275.12 205.14L260 197.52C265.65 184.52 274.44 164.32 280 151.18C280.993 148.845 282.626 146.838 284.71 145.39C286.794 143.943 289.245 143.114 291.78 143C316.92 142.33 364.54 159.6 364.54 159.6Z" fill="#263238"/>
<path d="M291.722 228.35L302.592 227.87L300.582 239.81L291.492 240.23L291.722 228.35Z" fill="#CE7A63"/>
<path opacity="0.2" d="M291.721 228.36L302.591 227.88L301.771 232.78L291.621 233.44L291.721 228.36Z" fill="black"/>
<path d="M304.754 240.36L303.504 240.75C303.136 240.865 302.746 240.887 302.368 240.816C301.989 240.744 301.634 240.581 301.334 240.34L300.824 241.08C300.524 241.51 300.092 241.83 299.594 241.99L282.514 247.35C282.056 246.216 281.908 244.981 282.084 243.77C282.084 243.77 289.464 241.01 290.464 238.28C290.499 238.176 290.562 238.085 290.647 238.016C290.732 237.947 290.835 237.903 290.944 237.89C292.484 237.74 298.504 237.03 301.414 234.94C301.506 234.879 301.61 234.84 301.72 234.826C301.829 234.812 301.94 234.823 302.045 234.859C302.149 234.895 302.244 234.954 302.322 235.032C302.4 235.111 302.458 235.206 302.494 235.31C303.12 237.048 303.875 238.736 304.754 240.36Z" fill="#263238"/>
<path d="M371.593 155.58L371.513 166.3C371.383 182.11 357.983 196.22 341.983 197.4C332.643 198.09 319.983 198.31 312.733 198.17C311.673 209.23 308.213 222.28 304.733 231.73L289.003 230.63C288.583 217.21 288.003 198.19 287.473 185.57C287.451 183.052 288.148 180.58 289.482 178.444C290.816 176.307 292.731 174.596 295.003 173.51C318.613 161.89 371.593 155.58 371.593 155.58Z" fill="#263238"/>
<path opacity="0.1" d="M301.381 231.87H301.271C301.178 231.84 301.1 231.776 301.054 231.69C301.007 231.604 300.996 231.504 301.021 231.41C303.401 223.58 307.691 199.17 307.881 187.97C307.881 187.917 307.893 187.864 307.915 187.816C307.938 187.768 307.97 187.725 308.011 187.69C308.051 187.656 308.097 187.631 308.147 187.616C308.196 187.6 308.249 187.595 308.301 187.6C331.301 190.66 346.851 189.6 353.301 184.6C364.651 175.77 364.491 161.49 361.611 154.04C361.593 153.994 361.585 153.945 361.587 153.896C361.588 153.847 361.6 153.799 361.62 153.754C361.641 153.709 361.67 153.669 361.706 153.636C361.742 153.602 361.785 153.577 361.831 153.56C361.876 153.542 361.924 153.534 361.973 153.534C362.022 153.535 362.07 153.546 362.114 153.565C362.159 153.585 362.199 153.613 362.233 153.648C362.267 153.683 362.293 153.725 362.311 153.77C365.311 161.43 365.441 176.11 353.761 185.19C347.081 190.38 331.891 191.46 308.601 188.4C308.311 199.83 304.081 223.86 301.721 231.62C301.695 231.691 301.649 231.752 301.589 231.797C301.528 231.841 301.456 231.867 301.381 231.87Z" fill="black"/>
<path opacity="0.2" d="M297.002 173.63C294.301 179.036 291.175 184.219 287.652 189.13C287.732 191.35 287.812 193.7 287.902 196.13C293.472 187.34 297.012 173.61 297.012 173.61L297.002 173.63Z" fill="black"/>
<path d="M337.682 105.14C337.252 106.69 336.862 108.04 336.392 109.45C335.922 110.86 335.462 112.24 334.972 113.63C333.972 116.39 332.912 119.14 331.692 121.86C330.472 124.58 329.222 127.3 327.692 130C326.172 132.833 324.44 135.547 322.512 138.12L321.872 138.97C321.47 139.495 320.949 139.917 320.352 140.2C319.256 140.73 318.123 141.181 316.962 141.55C315.823 141.917 314.66 142.208 313.482 142.42C312.306 142.628 311.116 142.752 309.922 142.79C309.322 142.79 308.712 142.79 308.112 142.79L307.182 142.72C306.852 142.72 306.582 142.63 306.182 142.6C305.257 142.546 304.391 142.127 303.774 141.435C303.158 140.744 302.84 139.835 302.892 138.91C302.911 138.57 302.975 138.234 303.082 137.91L304.412 134.24C304.524 134.06 304.662 133.899 304.822 133.76L305.322 133.28L306.322 132.35C306.992 131.73 307.662 131.15 308.322 130.55C308.982 129.95 309.592 129.38 310.192 128.83C310.792 128.28 311.362 127.69 311.932 127.16L309.772 129.25C310.958 127.131 312.033 124.951 312.992 122.72L313.752 120.94L314.472 119.12C314.962 117.91 315.472 116.67 315.902 115.43C316.822 112.93 317.732 110.43 318.602 107.85L321.172 100.28L321.232 100.1C321.969 98.0105 323.484 96.2859 325.461 95.2859C327.438 94.2859 329.725 94.0875 331.845 94.7322C333.965 95.377 335.754 96.815 336.84 98.7465C337.925 100.678 338.224 102.954 337.672 105.1L337.682 105.14Z" fill="#CE7A63"/>
<path d="M329.433 91.0701C324.863 92.3801 318.723 97.4201 316.613 108.83C319.673 113.58 334.023 109.92 334.023 109.92L329.433 91.0701Z" fill="#8424DE"/>
<path d="M308.001 134.36L308.461 139.3C307.081 144.3 300.921 141.43 300.921 141.43L297.401 141.23C296.779 141.159 296.204 140.868 295.778 140.409C295.353 139.951 295.105 139.355 295.081 138.73L294.731 135.28C294.616 134.575 294.781 133.852 295.19 133.266C295.599 132.68 296.219 132.276 296.921 132.14L299.991 131.81C300.88 131.713 301.78 131.837 302.611 132.17L308.001 134.36Z" fill="#CE7A63"/>
<path d="M331.643 90.3801C339.157 88.7892 346.777 87.7531 354.443 87.2801C356.433 87.1687 358.425 87.4714 360.292 88.169C362.159 88.8666 363.861 89.944 365.291 91.3331C366.72 92.7222 367.846 94.3927 368.597 96.2391C369.348 98.0855 369.707 100.068 369.653 102.06C369.013 127.24 372.563 153.72 372.053 158.58C372.053 158.58 318.943 166.23 310.803 150.44C307.383 128.05 318.433 130.9 319.323 105.19C319.553 98.4601 325.053 91.7901 331.643 90.3801Z" fill="#8424DE"/>
<path d="M327.451 113.15L327.631 113.1V112.91C327.739 112.113 328.119 111.379 328.708 110.831C329.298 110.284 330.058 109.959 330.861 109.91H331.061L331.131 109.72C331.387 108.928 331.884 108.235 332.553 107.738C333.221 107.242 334.028 106.966 334.861 106.95C335.758 107.024 336.618 107.342 337.347 107.871C338.075 108.4 338.644 109.12 338.991 109.95L339.111 110.24L339.391 110.16C339.717 110.072 340.053 110.028 340.391 110.03H340.561C341.567 110.132 342.503 110.592 343.199 111.326C343.895 112.06 344.304 113.02 344.351 114.03C344.402 114.519 344.349 115.013 344.196 115.48C344.042 115.947 343.793 116.377 343.462 116.741C343.132 117.105 342.729 117.396 342.279 117.594C341.829 117.792 341.343 117.893 340.851 117.89L328.281 117.68C327.665 117.644 327.084 117.383 326.649 116.946C326.214 116.508 325.954 115.926 325.921 115.31C325.895 114.83 326.032 114.356 326.31 113.964C326.588 113.572 326.99 113.285 327.451 113.15Z" fill="white"/>
<path d="M369.081 95.83L369.571 96.91L369.991 97.91C370.271 98.56 370.511 99.21 370.771 99.91C371.271 101.21 371.701 102.52 372.131 103.84C372.985 106.498 373.69 109.203 374.241 111.94C374.521 113.33 374.771 114.73 374.981 116.15C375.191 117.57 375.311 119.02 375.411 120.49C375.636 123.541 375.549 126.607 375.151 129.64L375.061 130.37C374.931 131.317 374.589 132.223 374.061 133.02C373.112 134.434 371.986 135.721 370.711 136.85C369.654 137.795 368.542 138.677 367.381 139.49C365.272 140.937 363.055 142.22 360.751 143.33C358.521 144.39 356.291 145.33 354.031 146.14C351.759 146.958 349.442 147.646 347.091 148.2C346.133 148.42 345.128 148.308 344.242 147.882C343.356 147.456 342.641 146.742 342.213 145.857C341.786 144.972 341.671 143.968 341.889 143.009C342.107 142.05 342.643 141.194 343.411 140.58L343.601 140.44C345.271 139.1 347.091 137.76 348.801 136.44C350.511 135.12 352.221 133.77 353.801 132.44C355.381 131.11 356.911 129.72 358.221 128.44C358.82 127.828 359.381 127.18 359.901 126.5C360.261 126.058 360.554 125.566 360.771 125.04L359.671 128.42C359.627 126.385 359.433 124.356 359.091 122.35C358.721 120.23 358.221 118.06 357.641 115.88C357.061 113.7 356.381 111.49 355.641 109.3C355.281 108.21 354.881 107.12 354.501 106.03L353.361 102.96L353.191 102.5C352.386 100.405 352.433 98.0774 353.322 96.0164C354.211 93.9553 355.872 92.3242 357.949 91.4721C360.025 90.62 362.353 90.6146 364.434 91.4571C366.514 92.2996 368.182 93.9231 369.081 95.98V95.83Z" fill="#CE7A63"/>
<path d="M357.23 87.3999C360.9 87.7999 368.67 90.5599 373.78 101.09C368.78 111 355.67 114.78 355.67 114.78C355.67 114.78 346.56 92.6699 357.23 87.3999Z" fill="#8424DE"/>
<path d="M327.242 158.47H284.082C282.202 158.47 281.802 158.04 283.192 157.47L302.882 150C304.804 149.371 306.81 149.034 308.832 149H352.002C353.882 149 354.282 149.44 352.892 150L333.192 157.52C331.267 158.132 329.262 158.453 327.242 158.47Z" fill="#8424DE"/>
<path opacity="0.4" d="M327.242 158.47H284.082C282.202 158.47 281.802 158.04 283.192 157.47L302.882 150C304.804 149.371 306.81 149.034 308.832 149H352.002C353.882 149 354.282 149.44 352.892 150L333.192 157.52C331.267 158.132 329.262 158.453 327.242 158.47Z" fill="black"/>
<path d="M327.241 156.69H284.081C283.122 156.651 282.204 156.294 281.47 155.674C280.737 155.055 280.231 154.209 280.031 153.27L275.141 126.67C275.043 126.255 275.041 125.822 275.137 125.406C275.232 124.991 275.422 124.602 275.692 124.271C275.962 123.941 276.304 123.677 276.693 123.499C277.081 123.322 277.505 123.237 277.931 123.25H321.101C322.052 123.3 322.959 123.662 323.682 124.281C324.406 124.899 324.904 125.739 325.101 126.67L329.981 153.27C330.081 153.681 330.085 154.11 329.993 154.523C329.901 154.936 329.715 155.322 329.451 155.652C329.186 155.983 328.849 156.248 328.466 156.428C328.083 156.608 327.664 156.697 327.241 156.69Z" fill="#8424DE"/>
<path opacity="0.3" d="M327.241 156.69H284.081C283.122 156.651 282.204 156.294 281.47 155.674C280.737 155.055 280.231 154.209 280.031 153.27L275.141 126.67C275.043 126.255 275.041 125.822 275.137 125.406C275.232 124.991 275.422 124.602 275.692 124.271C275.962 123.941 276.304 123.677 276.693 123.499C277.081 123.322 277.505 123.237 277.931 123.25H321.101C322.052 123.3 322.959 123.662 323.682 124.281C324.406 124.899 324.904 125.739 325.101 126.67L329.981 153.27C330.081 153.681 330.085 154.11 329.993 154.523C329.901 154.936 329.715 155.322 329.451 155.652C329.186 155.983 328.849 156.248 328.466 156.428C328.083 156.608 327.664 156.697 327.241 156.69Z" fill="black"/>
<path opacity="0.3" d="M326.231 156.69H284.081C283.122 156.651 282.204 156.294 281.47 155.674C280.737 155.055 280.231 154.209 280.031 153.27L275.141 126.67C275.043 126.255 275.041 125.822 275.137 125.406C275.232 124.991 275.422 124.602 275.692 124.271C275.962 123.941 276.304 123.677 276.693 123.499C277.081 123.322 277.505 123.237 277.931 123.25H320.091C321.043 123.297 321.952 123.658 322.676 124.277C323.4 124.896 323.898 125.738 324.091 126.67L328.981 153.27C329.081 153.682 329.085 154.112 328.992 154.525C328.9 154.939 328.713 155.326 328.448 155.656C328.182 155.987 327.844 156.252 327.46 156.431C327.075 156.61 326.655 156.699 326.231 156.69Z" fill="#8424DE"/>
<path d="M345.853 142.21L348.013 144.48C350.013 149.29 343.413 150.83 343.413 150.83L340.523 152.83C339.99 153.155 339.358 153.28 338.741 153.183C338.124 153.085 337.562 152.773 337.153 152.3L334.743 149.8C334.216 149.318 333.897 148.649 333.856 147.935C333.815 147.221 334.054 146.52 334.523 145.98L336.723 143.83C337.364 143.201 338.151 142.741 339.013 142.49L342.833 141.38C343.364 141.227 343.927 141.223 344.46 141.37C344.993 141.516 345.475 141.807 345.853 142.21Z" fill="#CE7A63"/>
<path d="M334.531 93C334.965 91.5024 335.892 90.1951 337.161 89.29C337.417 87.8316 337.159 86.3296 336.431 85.04L348.351 75.04C349.091 80.04 350.841 86.64 353.291 88.8C350.561 91.32 345.541 95.86 339.291 96.93C333.041 98 334.001 95.38 334.531 93Z" fill="#CE7A63"/>
<path opacity="0.2" d="M336.652 85.48L346.832 81.24C345.552 86.41 339.832 90.69 337.252 88.64C337.327 87.5526 337.12 86.4644 336.652 85.48Z" fill="black"/>
<path d="M336.061 69.4801C336.063 70.7942 335.675 72.0794 334.946 73.1729C334.218 74.2663 333.181 75.1189 331.967 75.6227C330.753 76.1266 329.417 76.2589 328.128 76.003C326.839 75.7471 325.655 75.1145 324.726 74.1853C323.797 73.2561 323.164 72.072 322.908 70.7831C322.652 69.4941 322.785 68.1582 323.289 66.9445C323.792 65.7308 324.645 64.6938 325.738 63.965C326.832 63.2361 328.117 62.8481 329.431 62.8501C331.19 62.8501 332.876 63.5486 334.119 64.792C335.363 66.0354 336.061 67.7217 336.061 69.4801Z" fill="#263238"/>
<path d="M347.471 65.7501C349.031 73.3301 349.931 78.5201 346.471 82.8401C339.571 91.4301 333.301 88.7601 329.471 81.7801C326.041 75.5001 324.061 64.1601 330.591 59.2701C332.036 58.1845 333.733 57.4838 335.523 57.2336C337.313 56.9834 339.137 57.1919 340.824 57.8396C342.511 58.4873 344.006 59.553 345.169 60.9366C346.331 62.3202 347.124 63.9765 347.471 65.7501Z" fill="#CE7A63"/>
<path d="M332.581 63.7501C331.051 65.5001 327.001 69.1601 321.111 65.8601C315.221 62.5601 317.621 54.6401 321.171 52.1101C322.634 51.0459 324.34 50.364 326.134 50.1265C327.927 49.889 329.752 50.1034 331.441 50.7501C331.441 50.7501 330.961 46.5401 336.881 46.3701C342.801 46.2001 342.501 50.3701 342.501 50.3701C342.501 50.3701 350.171 47.1801 353.831 53.0801C357.241 58.5701 352.161 62.8301 352.161 62.8301C352.161 62.8301 357.471 65.11 355.721 70.63C355.377 71.9271 354.63 73.0813 353.588 73.9261C352.545 74.7708 351.261 75.2625 349.921 75.3301C349.921 75.3301 344.251 75.73 343.291 71.6C342.708 69.1797 343.006 66.6309 344.131 64.4101C344.131 64.4101 335.001 68.0001 332.581 63.7501Z" fill="#263238"/>
<path d="M341.291 72.69L339.892 72.54C339.858 72.5391 339.826 72.5311 339.796 72.5165C339.767 72.5019 339.741 72.481 339.72 72.4554C339.699 72.4298 339.684 72.4 339.675 72.368C339.667 72.336 339.666 72.3026 339.671 72.27C339.674 72.2375 339.683 72.2059 339.698 72.177C339.713 72.1481 339.734 72.1226 339.759 72.102C339.784 72.0814 339.814 72.0662 339.845 72.0573C339.876 72.0483 339.909 72.0459 339.941 72.05L341.291 72.18L348.361 70.47C348.393 70.4611 348.426 70.4587 348.459 70.463C348.491 70.4673 348.522 70.4783 348.55 70.4951C348.579 70.512 348.603 70.5344 348.622 70.5611C348.641 70.5877 348.655 70.618 348.661 70.65C348.677 70.7137 348.666 70.7807 348.633 70.8368C348.599 70.8929 348.545 70.9335 348.481 70.95L341.371 72.68L341.291 72.69Z" fill="#263238"/>
<path d="M351.48 63.6499C351.25 63.6499 351.02 63.6499 350.78 63.6499C350.714 63.6427 350.651 63.6226 350.593 63.5908C350.535 63.559 350.484 63.5161 350.443 63.4646C350.401 63.4131 350.371 63.3539 350.352 63.2905C350.334 63.227 350.328 63.1606 350.335 63.0949C350.342 63.0293 350.362 62.9657 350.394 62.9078C350.426 62.8499 350.469 62.7988 350.52 62.7575C350.572 62.7162 350.631 62.6854 350.695 62.6669C350.758 62.6485 350.824 62.6427 350.89 62.6499C351.537 62.7748 352.206 62.7206 352.825 62.4933C353.443 62.2659 353.988 61.8741 354.4 61.3599C354.655 60.9929 354.805 60.5632 354.833 60.1172C354.861 59.6713 354.767 59.2261 354.56 58.8299C354.529 58.7723 354.51 58.7091 354.503 58.644C354.497 58.5788 354.504 58.5131 354.524 58.4506C354.543 58.3882 354.575 58.3303 354.617 58.2803C354.66 58.2304 354.712 58.1895 354.77 58.1599C354.888 58.0994 355.026 58.0875 355.153 58.1267C355.28 58.1659 355.386 58.2532 355.45 58.3699C355.735 58.9276 355.863 59.5518 355.823 60.1765C355.782 60.8013 355.574 61.4036 355.22 61.9199C354.789 62.4963 354.222 62.9563 353.569 63.2584C352.916 63.5604 352.198 63.695 351.48 63.6499Z" fill="#263238"/>
<path d="M324.004 68.54C322.988 68.5315 321.979 68.3834 321.004 68.1C319.681 67.8099 318.484 67.1076 317.585 66.0941C316.687 65.0806 316.133 63.8082 316.004 62.46C315.674 59.52 317.124 56.41 319.364 55.23C319.422 55.1936 319.487 55.1696 319.555 55.1594C319.622 55.1492 319.692 55.153 319.758 55.1707C319.824 55.1883 319.886 55.2194 319.94 55.262C319.993 55.3046 320.038 55.3578 320.07 55.4183C320.102 55.4787 320.122 55.5452 320.127 55.6135C320.133 55.6818 320.124 55.7506 320.102 55.8154C320.08 55.8803 320.045 55.9399 319.999 55.9906C319.952 56.0413 319.896 56.0819 319.834 56.11C317.934 57.11 316.714 59.8 316.994 62.35C317.094 63.4943 317.557 64.5766 318.317 65.4385C319.076 66.3004 320.091 66.8966 321.214 67.14C327.074 68.75 330.034 64.98 331.264 62.58C331.327 62.4632 331.434 62.376 331.561 62.3367C331.688 62.2975 331.825 62.3094 331.944 62.37C332.06 62.4316 332.147 62.5365 332.186 62.6619C332.225 62.7873 332.214 62.9231 332.154 63.04C331.004 65.26 328.574 68.54 324.004 68.54Z" fill="#263238"/>
<path d="M335.103 80.0002C334.741 80.1528 334.367 80.2733 333.983 80.3602C333.932 80.3689 333.879 80.3571 333.836 80.3272C333.793 80.2972 333.763 80.2516 333.753 80.2002C333.744 80.1448 333.755 80.0877 333.784 80.0398C333.814 79.9919 333.86 79.9564 333.913 79.9402C334.776 79.7439 335.583 79.3561 336.276 78.8057C336.968 78.2552 337.528 77.5562 337.913 76.7602C337.922 76.735 337.936 76.7119 337.954 76.6922C337.972 76.6725 337.994 76.6565 338.018 76.6454C338.042 76.6342 338.069 76.628 338.095 76.6271C338.122 76.6262 338.149 76.6306 338.173 76.6402C338.199 76.65 338.222 76.6649 338.242 76.684C338.261 76.7032 338.277 76.7261 338.287 76.7514C338.297 76.7767 338.302 76.8038 338.302 76.8311C338.301 76.8584 338.295 76.8853 338.283 76.9102C337.637 78.2942 336.506 79.3934 335.103 80.0002Z" fill="#263238"/>
<path opacity="0.2" d="M338.07 69.8501C338.788 69.2379 339.72 68.9358 340.66 69.0101C339.86 69.4569 338.98 69.7423 338.07 69.8501Z" fill="black"/>
<path opacity="0.2" d="M338.312 70.4501C338.689 70.2523 339.102 70.1366 339.526 70.1108C339.95 70.0849 340.375 70.1494 340.772 70.3001C339.973 70.5279 339.134 70.5791 338.312 70.4501Z" fill="black"/>
<path opacity="0.2" d="M327.834 72.7399C327.834 72.7399 326.974 72.2599 326.684 72.8099C326.87 72.8746 327.068 72.9017 327.266 72.8897C327.463 72.8777 327.656 72.8268 327.834 72.7399Z" fill="black"/>
<path opacity="0.2" d="M327.933 73.3401C327.933 73.3401 327.213 72.8901 327.133 73.6101C327.278 73.655 327.433 73.6531 327.577 73.6046C327.72 73.5562 327.845 73.4636 327.933 73.3401Z" fill="black"/>
<path d="M352.163 74.0002C351.873 74.9165 351.405 75.7665 350.786 76.5011C350.166 77.2357 349.407 77.8403 348.553 78.2802C346.243 79.4502 344.553 77.5102 344.783 75.0802C344.963 72.8902 346.383 69.6502 348.903 69.5002C349.453 69.4764 350 69.5895 350.496 69.8291C350.991 70.0688 351.42 70.4276 351.743 70.8735C352.066 71.3193 352.273 71.8383 352.347 72.3839C352.42 72.9296 352.357 73.4849 352.163 74.0002Z" fill="#CE7A63"/>
<path d="M336.203 70.78C336.373 71.39 336.203 71.97 335.783 72.07C335.363 72.17 334.923 71.77 334.783 71.16C334.643 70.55 334.783 69.97 335.203 69.87C335.623 69.77 336.003 70.17 336.203 70.78Z" fill="#263238"/>
<path d="M329.791 72.6099C329.951 73.2199 329.791 73.7899 329.361 73.8999C328.931 74.0099 328.511 73.5899 328.361 72.9899C328.211 72.3899 328.361 71.7999 328.791 71.6999C329.221 71.5999 329.621 71.9999 329.791 72.6099Z" fill="#263238"/>
<path d="M326.094 77.15C325.891 77.1463 325.693 77.0911 325.518 76.9896C325.343 76.8881 325.197 76.7437 325.094 76.57L324.094 74.75C324.034 74.6479 323.999 74.5336 323.99 74.4158C323.982 74.298 324 74.1798 324.044 74.07C324.093 73.97 324.164 73.8827 324.253 73.815C324.341 73.7474 324.444 73.7011 324.554 73.68L329.754 72.53C329.986 72.4888 330.225 72.5194 330.439 72.6177C330.654 72.716 330.833 72.8772 330.954 73.08L331.954 74.9C332.013 75.0022 332.048 75.1165 332.057 75.2343C332.066 75.3521 332.047 75.4703 332.004 75.58C331.955 75.6805 331.884 75.7682 331.795 75.836C331.707 75.9037 331.603 75.9497 331.494 75.97L326.294 77.13L326.094 77.15ZM329.934 73H329.844L324.634 74.16C324.602 74.1648 324.571 74.1774 324.545 74.1965C324.519 74.2157 324.498 74.2409 324.484 74.27C324.465 74.3056 324.456 74.345 324.456 74.385C324.456 74.4251 324.465 74.4645 324.484 74.5L325.484 76.32C325.55 76.4291 325.647 76.5165 325.763 76.5715C325.878 76.6265 326.007 76.6469 326.134 76.63L331.334 75.48C331.367 75.4745 331.398 75.4617 331.426 75.4427C331.453 75.4237 331.477 75.3989 331.494 75.37C331.512 75.3345 331.522 75.295 331.522 75.255C331.522 75.215 331.512 75.1756 331.494 75.14L330.494 73.32C330.434 73.2245 330.352 73.1453 330.254 73.0894C330.156 73.0336 330.046 73.0028 329.934 73Z" fill="#263238"/>
<path d="M331.922 72.6702L334.122 77.4802C333.239 78.1639 332.135 78.4954 331.022 78.4102C330.802 76.4508 331.113 74.4683 331.922 72.6702Z" fill="#BA4D3C"/>
<path d="M334.711 75.2401C334.509 75.2364 334.311 75.1812 334.136 75.0797C333.961 74.9783 333.814 74.8338 333.711 74.6602L332.711 72.8401C332.652 72.738 332.616 72.6237 332.608 72.5059C332.599 72.3881 332.617 72.2699 332.661 72.1602C332.709 72.0597 332.781 71.972 332.869 71.9042C332.958 71.8365 333.061 71.7905 333.171 71.7701L338.371 70.6101C338.604 70.5699 338.844 70.602 339.059 70.7021C339.273 70.8022 339.452 70.9655 339.571 71.1701L340.571 72.9901C340.632 73.0915 340.669 73.2059 340.678 73.3241C340.686 73.4423 340.667 73.5609 340.621 73.6701C340.573 73.769 340.503 73.8556 340.416 73.9232C340.329 73.9908 340.228 74.0376 340.121 74.0601L334.911 75.2202L334.711 75.2401ZM338.551 71.0901H338.461L333.261 72.2401C333.228 72.2457 333.196 72.2584 333.169 72.2774C333.141 72.2964 333.118 72.3213 333.101 72.3501C333.082 72.3857 333.073 72.4251 333.073 72.4651C333.073 72.5052 333.082 72.5446 333.101 72.5802L334.101 74.4002C334.168 74.5119 334.266 74.6017 334.383 74.6585C334.5 74.7153 334.632 74.7368 334.761 74.7202L339.961 73.5601C339.994 73.554 340.025 73.541 340.052 73.5221C340.08 73.5031 340.103 73.4786 340.121 73.4501C340.136 73.4138 340.145 73.3747 340.145 73.3351C340.145 73.2956 340.136 73.2565 340.121 73.2202L339.121 71.4002C339.061 71.3038 338.976 71.2246 338.877 71.1703C338.777 71.116 338.664 71.0884 338.551 71.0901Z" fill="#263238"/>
<path d="M331.133 74.2001H331.053C331.023 74.1909 330.995 74.1759 330.971 74.1559C330.946 74.1358 330.926 74.1112 330.911 74.0833C330.896 74.0554 330.887 74.0249 330.884 73.9935C330.881 73.962 330.884 73.9303 330.893 73.9001C330.893 73.9001 331.253 72.8101 333.383 73.2401C333.415 73.246 333.446 73.2583 333.472 73.2762C333.499 73.2942 333.523 73.3174 333.54 73.3445C333.558 73.3716 333.57 73.402 333.576 73.4339C333.581 73.4658 333.581 73.4985 333.573 73.5301C333.569 73.5628 333.557 73.5942 333.54 73.6223C333.522 73.6505 333.499 73.6747 333.472 73.6935C333.445 73.7122 333.414 73.7252 333.382 73.7315C333.349 73.7378 333.316 73.7373 333.283 73.7301C331.643 73.4001 331.373 74.0501 331.363 74.0501C331.344 74.0948 331.312 74.1328 331.271 74.1595C331.23 74.1861 331.182 74.2002 331.133 74.2001Z" fill="#263238"/>
<path d="M337.67 68.5799C337.73 68.5584 337.782 68.5202 337.82 68.4699C337.878 68.3909 337.903 68.2927 337.89 68.1959C337.877 68.0991 337.827 68.011 337.75 67.9499C337.296 67.5753 336.758 67.3153 336.182 67.1917C335.606 67.0682 335.009 67.0847 334.44 67.2399C334.394 67.2545 334.35 67.2785 334.313 67.3103C334.276 67.3422 334.246 67.3814 334.224 67.4254C334.203 67.4694 334.19 67.5173 334.188 67.5662C334.186 67.6151 334.193 67.664 334.21 67.7099C334.244 67.8012 334.312 67.8759 334.399 67.9187C334.487 67.9615 334.587 67.9691 334.68 67.9399C335.133 67.8231 335.606 67.8157 336.062 67.9183C336.517 68.0209 336.942 68.2305 337.3 68.5299C337.353 68.5694 337.414 68.5947 337.479 68.6035C337.544 68.6123 337.61 68.6041 337.67 68.5799Z" fill="#263238"/>
<path d="M325.792 71.71C325.85 71.6943 325.904 71.664 325.947 71.6221C325.991 71.5801 326.024 71.5278 326.042 71.47C326.161 71.0146 326.389 70.5949 326.706 70.2466C327.023 69.8984 327.42 69.632 327.862 69.47C327.908 69.4574 327.951 69.4356 327.989 69.406C328.027 69.3764 328.058 69.3395 328.081 69.2976C328.105 69.2557 328.119 69.2096 328.125 69.1619C328.13 69.1142 328.125 69.066 328.112 69.02C328.084 68.9255 328.02 68.8455 327.934 68.797C327.848 68.7485 327.747 68.7352 327.652 68.76C327.098 68.9513 326.598 69.2728 326.194 69.6974C325.791 70.122 325.495 70.6373 325.332 71.2C325.318 71.2466 325.313 71.2955 325.318 71.3439C325.324 71.3922 325.338 71.4391 325.361 71.4818C325.385 71.5246 325.416 71.5623 325.454 71.5929C325.492 71.6234 325.535 71.6463 325.582 71.66C325.645 71.6966 325.718 71.714 325.792 71.71Z" fill="#263238"/>
<path opacity="0.2" d="M252.781 337.44V403.2C252.802 406.641 254.179 409.936 256.612 412.369C259.045 414.803 262.34 416.179 265.781 416.2H281.781L276.061 343.63L252.781 337.44Z" fill="black"/>
<path d="M228.942 338L222.552 346C221.99 346.711 221.276 347.287 220.463 347.687C219.65 348.087 218.758 348.299 217.852 348.31H160.142C158.637 348.339 157.195 348.919 156.089 349.94C154.984 350.961 154.291 352.352 154.142 353.85L149.062 415.28C148.983 415.989 149.057 416.706 149.279 417.384C149.5 418.062 149.864 418.685 150.346 419.211C150.828 419.737 151.417 420.153 152.074 420.432C152.73 420.712 153.439 420.847 154.152 420.83H267.152C268.659 420.805 270.105 420.225 271.212 419.201C272.319 418.177 273.009 416.781 273.152 415.28L279.282 341.28C279.359 340.572 279.284 339.855 279.062 339.179C278.839 338.502 278.475 337.88 277.993 337.356C277.511 336.831 276.923 336.416 276.267 336.137C275.611 335.858 274.904 335.723 274.192 335.74H233.632C232.732 335.747 231.844 335.954 231.034 336.345C230.223 336.735 229.508 337.301 228.942 338Z" fill="#8424DE"/>
<path opacity="0.3" d="M228.942 338L222.552 346C221.99 346.711 221.276 347.287 220.463 347.687C219.65 348.087 218.758 348.299 217.852 348.31H160.142C158.637 348.339 157.195 348.919 156.089 349.94C154.984 350.961 154.291 352.352 154.142 353.85L149.062 415.28C148.983 415.989 149.057 416.706 149.279 417.384C149.5 418.062 149.864 418.685 150.346 419.211C150.828 419.737 151.417 420.153 152.074 420.432C152.73 420.712 153.439 420.847 154.152 420.83H267.152C268.659 420.805 270.105 420.225 271.212 419.201C272.319 418.177 273.009 416.781 273.152 415.28L279.282 341.28C279.359 340.572 279.284 339.855 279.062 339.179C278.839 338.502 278.475 337.88 277.993 337.356C277.511 336.831 276.923 336.416 276.267 336.137C275.611 335.858 274.904 335.723 274.192 335.74H233.632C232.732 335.747 231.844 335.954 231.034 336.345C230.223 336.735 229.508 337.301 228.942 338Z" fill="black"/>
<path d="M206.122 342.37L200.942 349.93C200.45 350.618 199.798 351.177 199.041 351.557C198.285 351.936 197.448 352.126 196.602 352.11H149.132C148.439 352.087 147.75 352.208 147.107 352.465C146.463 352.723 145.881 353.111 145.396 353.606C144.91 354.1 144.533 354.69 144.288 355.338C144.043 355.986 143.935 356.678 143.972 357.37L148.212 415.56C148.375 417.014 149.072 418.355 150.167 419.325C151.263 420.295 152.679 420.824 154.142 420.81H267.142C267.833 420.833 268.522 420.712 269.165 420.455C269.807 420.198 270.389 419.811 270.874 419.318C271.359 418.824 271.736 418.235 271.982 417.589C272.228 416.942 272.337 416.251 272.302 415.56L267.192 345.44C267.026 343.987 266.329 342.647 265.234 341.677C264.139 340.708 262.724 340.178 261.262 340.19H210.462C209.616 340.174 208.778 340.363 208.022 340.743C207.266 341.123 206.614 341.681 206.122 342.37Z" fill="#8424DE"/>
<defs>
<linearGradient id="paint0_linear_63_648" x1="201.438" y1="97.4299" x2="64.5516" y2="235.852" gradientUnits="userSpaceOnUse">
<stop offset="0.270833" stop-color="#8424DE"/>
<stop offset="0.557292" stop-color="#5B61E4"/>
<stop offset="1" stop-color="#83D9FF"/>
</linearGradient>
<linearGradient id="paint1_linear_63_648" x1="164.96" y1="96.6899" x2="162.159" y2="102.473" gradientUnits="userSpaceOnUse">
<stop offset="0.270833" stop-color="#8424DE"/>
<stop offset="0.557292" stop-color="#5B61E4"/>
<stop offset="1" stop-color="#83D9FF"/>
</linearGradient>
<linearGradient id="paint2_linear_63_648" x1="151.387" y1="102.85" x2="136.459" y2="119.723" gradientUnits="userSpaceOnUse">
<stop offset="0.270833" stop-color="#8424DE"/>
<stop offset="0.557292" stop-color="#5B61E4"/>
<stop offset="1" stop-color="#83D9FF"/>
</linearGradient>
<linearGradient id="paint3_linear_63_648" x1="178.169" y1="109.17" x2="166.712" y2="139.502" gradientUnits="userSpaceOnUse">
<stop offset="0.270833" stop-color="#8424DE"/>
<stop offset="0.557292" stop-color="#5B61E4"/>
<stop offset="1" stop-color="#83D9FF"/>
</linearGradient>
<linearGradient id="paint4_linear_63_648" x1="94.9984" y1="155.67" x2="80.0111" y2="181.701" gradientUnits="userSpaceOnUse">
<stop offset="0.270833" stop-color="#8424DE"/>
<stop offset="0.557292" stop-color="#5B61E4"/>
<stop offset="1" stop-color="#83D9FF"/>
</linearGradient>
<linearGradient id="paint5_linear_63_648" x1="195.829" y1="101.47" x2="194.562" y2="112.038" gradientUnits="userSpaceOnUse">
<stop offset="0.270833" stop-color="#8424DE"/>
<stop offset="0.557292" stop-color="#5B61E4"/>
<stop offset="1" stop-color="#83D9FF"/>
</linearGradient>
<linearGradient id="paint6_linear_63_648" x1="324.842" y1="97.4321" x2="207.695" y2="305.134" gradientUnits="userSpaceOnUse">
<stop offset="0.270833" stop-color="#8424DE"/>
<stop offset="0.557292" stop-color="#5B61E4"/>
<stop offset="1" stop-color="#83D9FF"/>
</linearGradient>
<linearGradient id="paint7_linear_63_648" x1="233.999" y1="134.03" x2="158.551" y2="198.513" gradientUnits="userSpaceOnUse">
<stop offset="0.270833" stop-color="#8424DE"/>
<stop offset="0.557292" stop-color="#5B61E4"/>
<stop offset="1" stop-color="#83D9FF"/>
</linearGradient>
<linearGradient id="paint8_linear_63_648" x1="180.549" y1="261.34" x2="160.374" y2="271.083" gradientUnits="userSpaceOnUse">
<stop offset="0.270833" stop-color="#8424DE"/>
<stop offset="0.557292" stop-color="#5B61E4"/>
<stop offset="1" stop-color="#83D9FF"/>
</linearGradient>
<linearGradient id="paint9_linear_63_648" x1="186.119" y1="234.32" x2="154.642" y2="256.51" gradientUnits="userSpaceOnUse">
<stop offset="0.270833" stop-color="#8424DE"/>
<stop offset="0.557292" stop-color="#5B61E4"/>
<stop offset="1" stop-color="#83D9FF"/>
</linearGradient>
<linearGradient id="paint10_linear_63_648" x1="252.778" y1="287.09" x2="227.794" y2="345.577" gradientUnits="userSpaceOnUse">
<stop offset="0.270833" stop-color="#8424DE"/>
<stop offset="0.557292" stop-color="#5B61E4"/>
<stop offset="1" stop-color="#83D9FF"/>
</linearGradient>
</defs>
</svg>
