<svg width="500" height="500" viewBox="0 0 500 500" fill="none" xmlns="http://www.w3.org/2000/svg">
<path d="M304.002 103.13C301.767 106.546 300.196 110.352 299.372 114.35L293.102 114.94V127.08L299.372 127.67C300.196 131.671 301.767 135.481 304.002 138.9L300.002 143.73L308.582 152.31L313.422 148.31C316.834 150.55 320.642 152.122 324.642 152.94L325.232 159.21H337.372L337.962 152.94C341.961 152.12 345.768 150.549 349.182 148.31L354.022 152.31L362.602 143.73L358.602 138.9C360.836 135.481 362.407 131.671 363.232 127.67L369.502 127.08V114.94L363.232 114.35C362.407 110.352 360.836 106.546 358.602 103.13L362.602 98.2901L354.002 89.7101L349.162 93.7101C345.764 91.4823 341.978 89.9118 338.002 89.0801L337.412 82.8101H325.222L324.632 89.0801C320.633 89.903 316.827 91.4739 313.412 93.7101L308.572 89.7101L300.002 98.2901L304.002 103.13ZM345.242 107.13C347.997 109.887 349.874 113.399 350.633 117.222C351.393 121.045 351.002 125.008 349.51 128.609C348.018 132.21 345.492 135.288 342.251 137.453C339.01 139.618 335.199 140.774 331.302 140.774C327.404 140.774 323.593 139.618 320.352 137.453C317.111 135.288 314.585 132.21 313.093 128.609C311.601 125.008 311.21 121.045 311.97 117.222C312.73 113.399 314.606 109.887 317.362 107.13C321.052 103.431 326.061 101.348 331.286 101.338C336.512 101.329 341.527 103.394 345.232 107.08L345.242 107.13Z" fill="#F0F0F0"/>
<path d="M269.878 34.23H184.178C181.45 34.23 179.238 36.4417 179.238 39.17V104.75C179.238 107.478 181.45 109.69 184.178 109.69H269.878C272.607 109.69 274.818 107.478 274.818 104.75V39.17C274.818 36.4417 272.607 34.23 269.878 34.23Z" fill="#E6E6E6"/>
<path d="M183.858 34.23H270.268C271.475 34.23 272.632 34.7094 273.486 35.5626C274.339 36.4159 274.818 37.5732 274.818 38.78V47.39H179.238V38.86C179.238 37.6338 179.725 36.4576 180.591 35.5896C181.457 34.7216 182.632 34.2326 183.858 34.23Z" fill="#E0E0E0"/>
<path opacity="0.5" d="M269.748 41.7699C269.75 42.3404 269.583 42.8986 269.267 43.3737C268.951 43.8489 268.502 44.2195 267.975 44.4388C267.448 44.658 266.868 44.7159 266.309 44.605C265.749 44.4942 265.235 44.2197 264.832 43.8164C264.428 43.413 264.154 42.8989 264.043 42.3393C263.932 41.7797 263.99 41.1998 264.209 40.6732C264.429 40.1465 264.799 39.6968 265.274 39.3811C265.75 39.0654 266.308 38.8979 266.878 38.8999C267.639 38.8999 268.369 39.2023 268.908 39.7405C269.446 40.2788 269.748 41.0087 269.748 41.7699Z" fill="#FAFAFA"/>
<path opacity="0.5" d="M261.588 41.7699C261.59 42.34 261.423 42.8977 261.108 43.3727C260.792 43.8476 260.343 44.2183 259.817 44.4378C259.291 44.6573 258.712 44.7158 258.152 44.6058C257.593 44.4958 257.079 44.2223 256.675 43.8199C256.271 43.4176 255.996 42.9044 255.884 42.3455C255.772 41.7865 255.829 41.2069 256.046 40.6801C256.264 40.1533 256.633 39.7029 257.107 39.386C257.581 39.0691 258.138 38.8999 258.708 38.8999C259.086 38.8986 259.46 38.9719 259.809 39.1155C260.159 39.2591 260.476 39.4703 260.744 39.737C261.012 40.0036 261.224 40.3204 261.369 40.6693C261.514 41.0182 261.588 41.3922 261.588 41.7699Z" fill="#FAFAFA"/>
<path opacity="0.5" d="M250.55 44.6399C252.135 44.6399 253.42 43.355 253.42 41.7699C253.42 40.1848 252.135 38.8999 250.55 38.8999C248.965 38.8999 247.68 40.1848 247.68 41.7699C247.68 43.355 248.965 44.6399 250.55 44.6399Z" fill="#FAFAFA"/>
<path opacity="0.6" d="M252.32 58.3901H201.18V61.0701H252.32V58.3901Z" fill="white"/>
<path d="M238.559 64.1799H201.969V66.8599H238.559V64.1799Z" fill="#E0E0E0"/>
<path d="M266.19 58.3899H256.84V61.0699H266.19V58.3899Z" fill="#F0F0F0"/>
<path d="M197.63 58.3901H187.57V61.0701H197.63V58.3901Z" fill="#F0F0F0"/>
<path d="M252.32 70.6201H201.18V73.3001H252.32V70.6201Z" fill="#F0F0F0"/>
<path opacity="0.6" d="M266.19 70.6199H256.84V73.2999H266.19V70.6199Z" fill="white"/>
<path d="M197.63 70.6201H187.57V73.3001H197.63V70.6201Z" fill="#F0F0F0"/>
<path opacity="0.6" d="M252.32 96.1201H201.18V98.8001H252.32V96.1201Z" fill="white"/>
<path opacity="0.6" d="M266.19 96.1199H256.84V98.7999H266.19V96.1199Z" fill="white"/>
<path d="M252.32 77.0698H201.18V79.7498H252.32V77.0698Z" fill="#F0F0F0"/>
<path d="M266.19 77.0701H256.84V79.7501H266.19V77.0701Z" fill="#E0E0E0"/>
<path d="M197.63 77.0698H187.57V79.7498H197.63V77.0698Z" fill="#E0E0E0"/>
<path d="M266.88 64.29H242.57V66.97H266.88V64.29Z" fill="#F0F0F0"/>
<path opacity="0.6" d="M237.77 82.6899H201.18V85.3699H237.77V82.6899Z" fill="white"/>
<path d="M266.08 82.7998H241.77V85.4798H266.08V82.7998Z" fill="#F0F0F0"/>
<path d="M219.48 88.52H201.18V91.2H219.48V88.52Z" fill="#E0E0E0"/>
<path d="M400.298 87.26L389.468 92.32L400.298 97.38V101.46L385.828 94.46V90.2L400.298 83.2V87.26Z" fill="#E0E0E0"/>
<path d="M433.269 90.1999V94.4399L418.789 101.44V97.3799L429.619 92.3199L418.789 87.2599V83.1899L433.269 90.1999Z" fill="#E0E0E0"/>
<path d="M412.08 80.3398L405.02 104.74H408.55L415.61 80.3398H412.08Z" fill="#E0E0E0"/>
<path d="M37.3583 217.84C36.0481 219.836 35.1285 222.062 34.6483 224.4L30.9883 224.74V231.83L34.6483 232.18C35.1286 234.515 36.0482 236.738 37.3583 238.73L34.9983 241.56L39.9983 246.56L42.8183 244.22C44.816 245.526 47.0412 246.445 49.3783 246.93L49.7183 250.59H56.8083L57.1583 246.93C59.4928 246.447 61.7151 245.528 63.7083 244.22L66.5383 246.56L71.5383 241.56L69.1983 238.73C70.5401 236.745 71.4904 234.522 71.9983 232.18L75.6583 231.83V224.74L71.9983 224.4C71.518 222.062 70.5984 219.836 69.2883 217.84L71.5783 215L66.5783 210L63.7483 212.33C61.7545 211.025 59.5322 210.109 57.1983 209.63L56.8383 206H49.7483L49.4083 209.66C47.0715 210.14 44.8461 211.056 42.8483 212.36L39.9983 210L34.9983 215L37.3583 217.84ZM61.4383 220.15C63.0476 221.76 64.1435 223.811 64.5874 226.043C65.0312 228.276 64.8031 230.59 63.9318 232.693C63.0605 234.796 61.5853 236.593 59.6925 237.858C57.7998 239.123 55.5746 239.798 53.2983 239.798C51.022 239.798 48.7968 239.123 46.904 237.858C45.0113 236.593 43.536 234.796 42.6648 232.693C41.7935 230.59 41.5654 228.276 42.0092 226.043C42.453 223.811 43.5489 221.76 45.1583 220.15C47.3182 217.993 50.2459 216.782 53.2983 216.782C56.3507 216.782 59.2783 217.993 61.4383 220.15Z" fill="#E0E0E0"/>
<path d="M439.109 135.32C438.022 136.975 437.259 138.821 436.859 140.76L433.859 141.05V146.93L436.859 147.22C437.259 149.159 438.022 151.005 439.109 152.66L437.169 155L441.329 159.16L443.679 157.22C445.335 158.304 447.181 159.064 449.119 159.46L449.399 162.46H455.289L455.579 159.46C457.517 159.061 459.362 158.301 461.019 157.22L463.359 159.16L467.529 155L465.589 152.65C466.669 150.992 467.429 149.147 467.829 147.21L470.829 146.92V141.04L467.829 140.75C467.43 138.811 466.666 136.965 465.579 135.31L467.529 132.96L463.359 128.8L460.999 130.75C459.342 129.669 457.497 128.91 455.559 128.51L455.269 125.51H449.399L449.119 128.51C447.181 128.906 445.335 129.666 443.679 130.75L441.329 128.81L437.169 133L439.109 135.32ZM459.109 137.23C460.446 138.567 461.357 140.27 461.726 142.125C462.095 143.979 461.905 145.902 461.182 147.648C460.458 149.395 459.233 150.888 457.661 151.939C456.088 152.989 454.24 153.55 452.349 153.55C450.459 153.55 448.61 152.989 447.038 151.939C445.466 150.888 444.241 149.395 443.517 147.648C442.794 145.902 442.604 143.979 442.973 142.125C443.342 140.27 444.252 138.567 445.589 137.23C447.384 135.44 449.815 134.434 452.349 134.434C454.884 134.434 457.315 135.44 459.109 137.23Z" fill="#E0E0E0"/>
<path d="M470.612 426.47H435.762V426.73H470.612V426.47Z" fill="#EBEBEB"/>
<path d="M345.752 429.33H336.602V429.59H345.752V429.33Z" fill="#EBEBEB"/>
<path d="M434.702 416.7H414.512V416.96H434.702V416.7Z" fill="#EBEBEB"/>
<path d="M97.9009 418.47H52.4609V418.73H97.9009V418.47Z" fill="#EBEBEB"/>
<path d="M113.93 418.47H107.27V418.73H113.93V418.47Z" fill="#EBEBEB"/>
<path d="M234.15 422.91H135.59V423.17H234.15V422.91Z" fill="#EBEBEB"/>
<path d="M443.919 349.14H263.169C261.615 349.137 260.126 348.519 259.028 347.421C257.929 346.322 257.311 344.833 257.309 343.28V80.0001C257.311 78.4468 257.929 76.9578 259.028 75.8594C260.126 74.761 261.615 74.1428 263.169 74.1401H443.919C445.472 74.1428 446.961 74.761 448.059 75.8594C449.158 76.9578 449.776 78.4468 449.779 80.0001V343.28C449.776 344.833 449.158 346.322 448.059 347.421C446.961 348.519 445.472 349.137 443.919 349.14ZM263.169 74.4001C261.682 74.4001 260.257 74.9898 259.205 76.0397C258.153 77.0897 257.561 78.514 257.559 80.0001V343.28C257.559 344.768 258.15 346.195 259.202 347.247C260.254 348.299 261.681 348.89 263.169 348.89H443.919C445.406 348.89 446.833 348.299 447.885 347.247C448.938 346.195 449.529 344.768 449.529 343.28V80.0001C449.529 78.5123 448.938 77.0854 447.885 76.0333C446.833 74.9812 445.406 74.3901 443.919 74.3901L263.169 74.4001Z" fill="#E0E0E0"/>
<path d="M235.489 349.14H54.7489C53.1938 349.14 51.7023 348.523 50.6017 347.424C49.5012 346.326 48.8816 344.835 48.8789 343.28V80.0001C48.8816 78.445 49.5012 76.9546 50.6017 75.8559C51.7023 74.7572 53.1938 74.1401 54.7489 74.1401H235.489C237.043 74.1401 238.534 74.7575 239.633 75.8565C240.732 76.9555 241.349 78.446 241.349 80.0001V343.28C241.349 344.834 240.732 346.325 239.633 347.424C238.534 348.523 237.043 349.14 235.489 349.14ZM54.7489 74.4001C53.2618 74.4001 51.8354 74.9895 50.782 76.0391C49.7286 77.0888 49.1342 78.5131 49.1289 80.0001V343.28C49.1316 344.769 49.7248 346.196 50.7785 347.248C51.8322 348.299 53.2601 348.89 54.7489 348.89H235.489C236.226 348.89 236.955 348.745 237.636 348.463C238.316 348.181 238.935 347.768 239.456 347.247C239.977 346.726 240.39 346.108 240.672 345.427C240.954 344.746 241.099 344.017 241.099 343.28V80.0001C241.099 79.2634 240.954 78.5339 240.672 77.8533C240.39 77.1727 239.977 76.5542 239.456 76.0333C238.935 75.5123 238.316 75.0991 237.636 74.8172C236.955 74.5352 236.226 74.3901 235.489 74.3901L54.7489 74.4001Z" fill="#E0E0E0"/>
<path d="M500 410.21H0V410.46H500V410.21Z" fill="#E0E0E0"/>
<path d="M455.059 447.49C455.059 450.87 361.539 453.62 246.179 453.62C130.819 453.62 37.3086 450.87 37.3086 447.49C37.3086 444.11 130.819 441.35 246.179 441.35C361.539 441.35 455.059 444.1 455.059 447.49Z" fill="#F5F5F5"/>
<path d="M200.167 402.19H192.527V409.83H200.167V402.19Z" fill="#263238"/>
<path opacity="0.5" d="M94.5084 121H118.138V353.54H92.7184C90.7771 353.54 88.9152 352.769 87.5424 351.396C86.1697 350.023 85.3984 348.161 85.3984 346.22V130.12C85.3971 128.923 85.6318 127.737 86.089 126.631C86.5463 125.524 87.2171 124.519 88.0632 123.672C88.9092 122.825 89.914 122.153 91.0199 121.694C92.1258 121.236 93.3113 121 94.5084 121Z" fill="white"/>
<path opacity="0.5" d="M215.619 349.53L205.219 402.82H220.309L232.349 349.97L215.619 349.53Z" fill="white"/>
<path opacity="0.5" d="M200.167 402.19H192.527V409.83H200.167V402.19Z" fill="white"/>
<path d="M310.377 409.83H213.457L227.227 329.07H291.727L310.377 409.83Z" fill="#263238"/>
<path opacity="0.7" d="M310.377 409.83H213.457L227.227 329.07H291.727L310.377 409.83Z" fill="white"/>
<path opacity="0.1" d="M297.349 353.54H223.019L220.309 369.45L299.509 362.91L297.349 353.54Z" fill="black"/>
<path d="M323.657 402.19H198.027V409.83H323.657V402.19Z" fill="#263238"/>
<g opacity="0.7">
<path d="M323.657 402.19H198.027V409.83H323.657V402.19Z" fill="white"/>
</g>
<path d="M101.227 121H415.467C417.609 121.029 419.653 121.904 421.152 123.435C422.651 124.966 423.483 127.028 423.467 129.17V345.37C423.483 347.512 422.651 349.574 421.152 351.105C419.653 352.636 417.609 353.511 415.467 353.54H101.227C99.0847 353.511 97.0409 352.636 95.542 351.105C94.0431 349.574 93.2108 347.512 93.2269 345.37V129.18C93.2082 127.036 94.0393 124.972 95.5385 123.439C97.0377 121.906 99.0829 121.029 101.227 121Z" fill="#263238"/>
<g opacity="0.7">
<path d="M101.227 121H415.467C417.609 121.029 419.653 121.904 421.152 123.435C422.651 124.966 423.483 127.028 423.467 129.17V345.37C423.483 347.512 422.651 349.574 421.152 351.105C419.653 352.636 417.609 353.511 415.467 353.54H101.227C99.0847 353.511 97.0409 352.636 95.542 351.105C94.0431 349.574 93.2108 347.512 93.2269 345.37V129.18C93.2082 127.036 94.0393 124.972 95.5385 123.439C97.0377 121.906 99.0829 121.029 101.227 121Z" fill="white"/>
</g>
<path d="M414.727 129.01H100.547V337.47H414.727V129.01Z" fill="#8424DE"/>
<path opacity="0.9" d="M414.727 129.01H100.547V337.47H414.727V129.01Z" fill="white"/>
<path d="M414.727 129.01H100.547V145.74H414.727V129.01Z" fill="#8424DE"/>
<path opacity="0.5" d="M410.55 137.38C410.552 138.085 410.345 138.774 409.955 139.361C409.565 139.947 409.009 140.405 408.359 140.676C407.709 140.947 406.993 141.019 406.301 140.883C405.61 140.747 404.975 140.408 404.476 139.911C403.977 139.413 403.637 138.779 403.499 138.088C403.361 137.397 403.431 136.681 403.7 136.03C403.969 135.379 404.425 134.822 405.011 134.431C405.596 134.039 406.285 133.83 406.99 133.83C407.932 133.83 408.836 134.204 409.503 134.869C410.171 135.535 410.547 136.438 410.55 137.38Z" fill="white"/>
<path opacity="0.5" d="M400.44 137.38C400.442 138.085 400.235 138.775 399.845 139.362C399.454 139.949 398.898 140.406 398.247 140.677C397.596 140.948 396.88 141.019 396.188 140.882C395.497 140.745 394.861 140.406 394.363 139.907C393.865 139.409 393.525 138.774 393.388 138.082C393.251 137.391 393.323 136.674 393.593 136.023C393.864 135.372 394.322 134.816 394.909 134.426C395.496 134.035 396.185 133.828 396.89 133.83C397.831 133.833 398.732 134.208 399.398 134.873C400.063 135.538 400.438 136.439 400.44 137.38Z" fill="white"/>
<path opacity="0.5" d="M390.339 137.38C390.341 138.085 390.134 138.774 389.744 139.361C389.354 139.947 388.798 140.405 388.148 140.676C387.498 140.947 386.782 141.019 386.09 140.883C385.399 140.747 384.764 140.408 384.265 139.911C383.766 139.413 383.426 138.779 383.288 138.088C383.15 137.397 383.22 136.681 383.489 136.03C383.758 135.379 384.214 134.822 384.8 134.431C385.386 134.039 386.074 133.83 386.779 133.83C387.721 133.83 388.625 134.204 389.292 134.869C389.96 135.535 390.336 136.438 390.339 137.38Z" fill="white"/>
<path d="M158.798 267.82C157.796 269.359 157.091 271.072 156.718 272.87L153.898 273.13V278.59L156.718 278.86C157.097 280.641 157.803 282.336 158.798 283.86L156.998 286.04L160.858 289.9L163.038 288.1C164.562 289.097 166.257 289.803 168.038 290.18L168.308 293H173.768L174.028 290.18C175.827 289.807 177.539 289.102 179.078 288.1L181.248 289.9L185.108 286.04L183.308 283.86C184.313 282.339 185.022 280.643 185.398 278.86L188.208 278.59V273.13L185.398 272.87C185.027 271.07 184.318 269.356 183.308 267.82L185.108 265.65L181.248 261.79L179.078 263.59C177.542 262.581 175.829 261.872 174.028 261.5L173.768 258.69H168.308L168.038 261.5C166.255 261.876 164.559 262.585 163.038 263.59L160.858 261.79L156.998 265.65L158.798 267.82ZM176.098 270.82C177.097 271.811 177.779 273.076 178.058 274.454C178.336 275.833 178.199 277.264 177.663 278.564C177.128 279.865 176.218 280.977 175.049 281.76C173.88 282.543 172.505 282.961 171.098 282.961C169.692 282.961 168.317 282.543 167.148 281.76C165.979 280.977 165.069 279.865 164.533 278.564C163.998 277.264 163.86 275.833 164.139 274.454C164.418 273.076 165.1 271.811 166.098 270.82C167.431 269.504 169.23 268.767 171.103 268.771C172.976 268.774 174.771 269.518 176.098 270.84V270.82Z" fill="#8424DE"/>
<path opacity="0.4" d="M158.798 267.82C157.796 269.359 157.091 271.072 156.718 272.87L153.898 273.13V278.59L156.718 278.86C157.097 280.641 157.803 282.336 158.798 283.86L156.998 286.04L160.858 289.9L163.038 288.1C164.562 289.097 166.257 289.803 168.038 290.18L168.308 293H173.768L174.028 290.18C175.827 289.807 177.539 289.102 179.078 288.1L181.248 289.9L185.108 286.04L183.308 283.86C184.313 282.339 185.022 280.643 185.398 278.86L188.208 278.59V273.13L185.398 272.87C185.027 271.07 184.318 269.356 183.308 267.82L185.108 265.65L181.248 261.79L179.078 263.59C177.542 262.581 175.829 261.872 174.028 261.5L173.768 258.69H168.308L168.038 261.5C166.255 261.876 164.559 262.585 163.038 263.59L160.858 261.79L156.998 265.65L158.798 267.82ZM176.098 270.82C177.097 271.811 177.779 273.076 178.058 274.454C178.336 275.833 178.199 277.264 177.663 278.564C177.128 279.865 176.218 280.977 175.049 281.76C173.88 282.543 172.505 282.961 171.098 282.961C169.692 282.961 168.317 282.543 167.148 281.76C165.979 280.977 165.069 279.865 164.533 278.564C163.998 277.264 163.86 275.833 164.139 274.454C164.418 273.076 165.1 271.811 166.098 270.82C167.431 269.504 169.23 268.767 171.103 268.771C172.976 268.774 174.771 269.518 176.098 270.84V270.82Z" fill="white"/>
<path d="M319.919 201C318.987 202.425 318.332 204.012 317.989 205.68L315.379 205.92V211L317.989 211.24C318.332 212.907 318.987 214.495 319.919 215.92L318.249 217.92L321.829 221.5L323.829 219.83C325.254 220.762 326.841 221.416 328.509 221.76L328.749 224.37H333.809L334.049 221.76C335.716 221.416 337.304 220.762 338.729 219.83L340.729 221.5L344.309 217.92L342.639 215.92C343.571 214.495 344.226 212.907 344.569 211.24L347.179 211V206L344.569 205.76C344.226 204.092 343.571 202.505 342.639 201.08L344.309 199.08L340.729 195.5L338.729 197.17C337.304 196.238 335.716 195.583 334.049 195.24L333.809 192.63H328.749L328.509 195.24C326.841 195.583 325.254 196.238 323.829 197.17L321.829 195.5L318.249 199L319.919 201ZM335.919 203.8C336.84 204.72 337.467 205.892 337.722 207.169C337.976 208.445 337.847 209.769 337.349 210.972C336.851 212.174 336.008 213.203 334.925 213.926C333.843 214.649 332.571 215.035 331.269 215.035C329.967 215.035 328.695 214.649 327.612 213.926C326.53 213.203 325.687 212.174 325.189 210.972C324.691 209.769 324.561 208.445 324.816 207.169C325.07 205.892 325.698 204.72 326.619 203.8C327.231 203.187 327.959 202.702 328.76 202.372C329.561 202.042 330.419 201.873 331.285 201.876C332.151 201.879 333.008 202.053 333.807 202.388C334.606 202.724 335.33 203.214 335.939 203.83L335.919 203.8Z" fill="#8424DE"/>
<path opacity="0.4" d="M319.919 201C318.987 202.425 318.332 204.012 317.989 205.68L315.379 205.92V211L317.989 211.24C318.332 212.907 318.987 214.495 319.919 215.92L318.249 217.92L321.829 221.5L323.829 219.83C325.254 220.762 326.841 221.416 328.509 221.76L328.749 224.37H333.809L334.049 221.76C335.716 221.416 337.304 220.762 338.729 219.83L340.729 221.5L344.309 217.92L342.639 215.92C343.571 214.495 344.226 212.907 344.569 211.24L347.179 211V206L344.569 205.76C344.226 204.092 343.571 202.505 342.639 201.08L344.309 199.08L340.729 195.5L338.729 197.17C337.304 196.238 335.716 195.583 334.049 195.24L333.809 192.63H328.749L328.509 195.24C326.841 195.583 325.254 196.238 323.829 197.17L321.829 195.5L318.249 199L319.919 201ZM335.919 203.8C336.84 204.72 337.467 205.892 337.722 207.169C337.976 208.445 337.847 209.769 337.349 210.972C336.851 212.174 336.008 213.203 334.925 213.926C333.843 214.649 332.571 215.035 331.269 215.035C329.967 215.035 328.695 214.649 327.612 213.926C326.53 213.203 325.687 212.174 325.189 210.972C324.691 209.769 324.561 208.445 324.816 207.169C325.07 205.892 325.698 204.72 326.619 203.8C327.231 203.187 327.959 202.702 328.76 202.372C329.561 202.042 330.419 201.873 331.285 201.876C332.151 201.879 333.008 202.053 333.807 202.388C334.606 202.724 335.33 203.214 335.939 203.83L335.919 203.8Z" fill="white"/>
<path d="M313.657 173.05C313.062 173.965 312.642 174.982 312.417 176.05L310.727 176.2V179.47L312.417 179.63C312.639 180.699 313.06 181.716 313.657 182.63L312.577 183.93L314.887 186.24L316.197 185.16C317.108 185.764 318.126 186.189 319.197 186.41L319.357 188.1H322.617L322.777 186.41C323.847 186.189 324.865 185.764 325.777 185.16L327.077 186.24L329.387 183.93L328.317 182.63C328.914 181.716 329.334 180.699 329.557 179.63L331.247 179.47V176.2L329.557 176.04C329.331 174.973 328.91 173.956 328.317 173.04L329.387 171.74L327.077 169.43L325.777 170.51C324.863 169.91 323.846 169.486 322.777 169.26L322.617 167.58H319.357L319.197 169.26C318.127 169.486 317.11 169.91 316.197 170.51L314.887 169.43L312.577 171.74L313.657 173.05ZM323.997 174.86C324.592 175.454 324.999 176.211 325.164 177.036C325.329 177.861 325.246 178.716 324.924 179.493C324.603 180.271 324.058 180.936 323.359 181.403C322.66 181.871 321.838 182.12 320.997 182.12C320.155 182.12 319.333 181.871 318.634 181.403C317.935 180.936 317.39 180.271 317.069 179.493C316.747 178.716 316.664 177.861 316.829 177.036C316.994 176.211 317.401 175.454 317.997 174.86C318.793 174.066 319.872 173.62 320.997 173.62C322.121 173.62 323.2 174.066 323.997 174.86Z" fill="#8424DE"/>
<path opacity="0.7" d="M313.657 173.05C313.062 173.965 312.642 174.982 312.417 176.05L310.727 176.2V179.47L312.417 179.63C312.639 180.699 313.06 181.716 313.657 182.63L312.577 183.93L314.887 186.24L316.197 185.16C317.108 185.764 318.126 186.189 319.197 186.41L319.357 188.1H322.617L322.777 186.41C323.847 186.189 324.865 185.764 325.777 185.16L327.077 186.24L329.387 183.93L328.317 182.63C328.914 181.716 329.334 180.699 329.557 179.63L331.247 179.47V176.2L329.557 176.04C329.331 174.973 328.91 173.956 328.317 173.04L329.387 171.74L327.077 169.43L325.777 170.51C324.863 169.91 323.846 169.486 322.777 169.26L322.617 167.58H319.357L319.197 169.26C318.127 169.486 317.11 169.91 316.197 170.51L314.887 169.43L312.577 171.74L313.657 173.05ZM323.997 174.86C324.592 175.454 324.999 176.211 325.164 177.036C325.329 177.861 325.246 178.716 324.924 179.493C324.603 180.271 324.058 180.936 323.359 181.403C322.66 181.871 321.838 182.12 320.997 182.12C320.155 182.12 319.333 181.871 318.634 181.403C317.935 180.936 317.39 180.271 317.069 179.493C316.747 178.716 316.664 177.861 316.829 177.036C316.994 176.211 317.401 175.454 317.997 174.86C318.793 174.066 319.872 173.62 320.997 173.62C322.121 173.62 323.2 174.066 323.997 174.86Z" fill="white"/>
<path d="M177 300.57C176.407 301.486 175.986 302.503 175.76 303.57L174.07 303.73V307L175.76 307.16C175.984 308.228 176.405 309.245 177 310.16L175.93 311.46L178.24 313.77L179.54 312.69C180.451 313.294 181.47 313.719 182.54 313.94L182.7 315.63H186L186.16 313.94C187.231 313.719 188.249 313.294 189.16 312.69L190.47 313.77L192.78 311.46L191.7 310.16C192.3 309.248 192.72 308.229 192.94 307.16L194.63 307V303.73L192.94 303.57C192.719 302.501 192.298 301.483 191.7 300.57L192.78 299.27L190.47 297L189.16 298C188.247 297.4 187.23 296.976 186.16 296.75L186 295.07H182.74L182.58 296.75C181.511 296.976 180.494 297.4 179.58 298L178.28 296.92L175.97 299.23L177 300.57ZM187.36 302.38C187.956 302.974 188.362 303.731 188.528 304.556C188.693 305.381 188.609 306.236 188.288 307.013C187.967 307.791 187.422 308.456 186.723 308.923C186.024 309.391 185.202 309.64 184.36 309.64C183.519 309.64 182.697 309.391 181.998 308.923C181.298 308.456 180.754 307.791 180.432 307.013C180.111 306.236 180.028 305.381 180.193 304.556C180.358 303.731 180.764 302.974 181.36 302.38C182.157 301.586 183.236 301.14 184.36 301.14C185.485 301.14 186.564 301.586 187.36 302.38Z" fill="#8424DE"/>
<path opacity="0.7" d="M177 300.57C176.407 301.486 175.986 302.503 175.76 303.57L174.07 303.73V307L175.76 307.16C175.984 308.228 176.405 309.245 177 310.16L175.93 311.46L178.24 313.77L179.54 312.69C180.451 313.294 181.47 313.719 182.54 313.94L182.7 315.63H186L186.16 313.94C187.231 313.719 188.249 313.294 189.16 312.69L190.47 313.77L192.78 311.46L191.7 310.16C192.3 309.248 192.72 308.229 192.94 307.16L194.63 307V303.73L192.94 303.57C192.719 302.501 192.298 301.483 191.7 300.57L192.78 299.27L190.47 297L189.16 298C188.247 297.4 187.23 296.976 186.16 296.75L186 295.07H182.74L182.58 296.75C181.511 296.976 180.494 297.4 179.58 298L178.28 296.92L175.97 299.23L177 300.57ZM187.36 302.38C187.956 302.974 188.362 303.731 188.528 304.556C188.693 305.381 188.609 306.236 188.288 307.013C187.967 307.791 187.422 308.456 186.723 308.923C186.024 309.391 185.202 309.64 184.36 309.64C183.519 309.64 182.697 309.391 181.998 308.923C181.298 308.456 180.754 307.791 180.432 307.013C180.111 306.236 180.028 305.381 180.193 304.556C180.358 303.731 180.764 302.974 181.36 302.38C182.157 301.586 183.236 301.14 184.36 301.14C185.485 301.14 186.564 301.586 187.36 302.38Z" fill="white"/>
<path d="M199.5 206.29C195.155 212.925 192.101 220.322 190.5 228.09L178.32 229.24V252.82L190.5 254C192.103 261.771 195.157 269.17 199.5 275.81L191.72 285.2L208.4 301.88L217.79 294.1C224.43 298.444 231.829 301.497 239.6 303.1L240.75 315.28H264.33L265.48 303.1C273.249 301.499 280.645 298.446 287.28 294.1L296.68 301.88L313.36 285.2L305.58 275.81C309.926 269.171 312.979 261.772 314.58 254L326.75 252.85V229.24L314.58 228.09C312.977 220.322 309.924 212.926 305.58 206.29L313.36 196.89L296.68 180.22L287.28 187.99C280.644 183.646 273.248 180.593 265.48 178.99L264.33 166.81H240.75L239.6 179C231.829 180.603 224.43 183.656 217.79 188L208.4 180.22L191.72 196.9L199.5 206.29ZM279.62 214C284.977 219.356 288.626 226.181 290.104 233.61C291.582 241.04 290.824 248.741 287.925 255.74C285.027 262.739 280.118 268.721 273.819 272.929C267.521 277.138 260.116 279.384 252.54 279.384C244.965 279.384 237.56 277.138 231.261 272.929C224.963 268.721 220.054 262.739 217.155 255.74C214.256 248.741 213.498 241.04 214.977 233.61C216.455 226.181 220.103 219.356 225.46 214C232.644 206.821 242.384 202.789 252.54 202.789C262.696 202.789 272.437 206.821 279.62 214Z" fill="#8424DE"/>
<path d="M217.788 245.88C217.664 245.881 217.544 245.835 217.452 245.752C217.359 245.668 217.301 245.554 217.288 245.43C216.721 240.398 217.189 235.304 218.663 230.459C220.136 225.615 222.585 221.123 225.859 217.26C225.901 217.21 225.953 217.169 226.012 217.139C226.07 217.11 226.134 217.092 226.2 217.086C226.265 217.081 226.331 217.089 226.393 217.11C226.456 217.13 226.514 217.162 226.564 217.205C226.613 217.248 226.654 217.3 226.684 217.358C226.714 217.417 226.732 217.481 226.737 217.546C226.742 217.612 226.734 217.677 226.714 217.74C226.694 217.802 226.661 217.86 226.618 217.91C223.432 221.67 221.05 226.043 219.617 230.758C218.184 235.474 217.732 240.433 218.288 245.33C218.3 245.462 218.259 245.594 218.175 245.696C218.091 245.799 217.97 245.865 217.838 245.88H217.788Z" fill="#8424DE"/>
<path d="M219.48 253.78C219.372 253.782 219.266 253.747 219.179 253.682C219.092 253.617 219.029 253.525 219 253.42C218.588 252.027 218.254 250.611 218 249.18C217.988 249.114 217.99 249.047 218.004 248.982C218.018 248.917 218.045 248.855 218.083 248.8C218.121 248.745 218.17 248.699 218.226 248.663C218.282 248.627 218.345 248.602 218.41 248.59C218.476 248.578 218.543 248.579 218.608 248.594C218.674 248.608 218.735 248.635 218.79 248.673C218.845 248.711 218.892 248.759 218.928 248.816C218.964 248.872 218.988 248.934 219 249C219.259 250.397 219.593 251.779 220 253.14C220.037 253.267 220.022 253.404 219.959 253.52C219.895 253.637 219.788 253.723 219.66 253.76C219.603 253.782 219.541 253.789 219.48 253.78Z" fill="#8424DE"/>
<path d="M171.078 239.36H128.328C128.196 239.36 128.068 239.307 127.975 239.214C127.881 239.12 127.828 238.993 127.828 238.86V188.8C127.828 188.667 127.881 188.54 127.975 188.446C128.068 188.353 128.196 188.3 128.328 188.3C128.461 188.3 128.588 188.353 128.682 188.446C128.775 188.54 128.828 188.667 128.828 188.8V238.36H171.078C171.211 238.36 171.338 238.413 171.432 238.506C171.525 238.6 171.578 238.727 171.578 238.86C171.576 238.992 171.522 239.118 171.429 239.211C171.336 239.304 171.21 239.357 171.078 239.36Z" fill="#8424DE"/>
<path d="M128.33 191.36C129.743 191.36 130.89 190.214 130.89 188.8C130.89 187.386 129.743 186.24 128.33 186.24C126.916 186.24 125.77 187.386 125.77 188.8C125.77 190.214 126.916 191.36 128.33 191.36Z" fill="#8424DE"/>
<path d="M389.197 280.98C390.611 280.98 391.757 279.834 391.757 278.42C391.757 277.006 390.611 275.86 389.197 275.86C387.783 275.86 386.637 277.006 386.637 278.42C386.637 279.834 387.783 280.98 389.197 280.98Z" fill="#8424DE"/>
<path d="M389.699 298.4H326.079V270.99H317.199V269.99H327.079V297.4H388.699V278.05H389.699V298.4Z" fill="#8424DE"/>
<path d="M468.878 305.39H359.988V409.83H468.878V305.39Z" fill="#8424DE"/>
<path opacity="0.4" d="M468.878 305.39H359.988V409.83H468.878V305.39Z" fill="white"/>
<path opacity="0.4" d="M468.868 305.39H394.648V409.83H468.868V305.39Z" fill="white"/>
<path d="M465.159 310.73H398.359V323.66H465.159V310.73Z" fill="#8424DE"/>
<path d="M465.159 326.9H398.359V339.83H465.159V326.9Z" fill="#8424DE"/>
<path d="M465.159 343.06H398.359V355.99H465.159V343.06Z" fill="#8424DE"/>
<path d="M465.159 359.23H398.359V372.16H465.159V359.23Z" fill="#8424DE"/>
<path d="M465.159 375.4H398.359V388.33H465.159V375.4Z" fill="#8424DE"/>
<path d="M465.159 391.57H398.359V404.5H465.159V391.57Z" fill="#8424DE"/>
<path d="M390.769 310.73H363.879V323.66H390.769V310.73Z" fill="#8424DE"/>
<path d="M390.769 326.9H363.879V339.83H390.769V326.9Z" fill="#8424DE"/>
<path d="M390.769 343.06H363.879V355.99H390.769V343.06Z" fill="#8424DE"/>
<path d="M390.769 359.23H363.879V372.16H390.769V359.23Z" fill="#8424DE"/>
<path d="M390.769 375.4H363.879V388.33H390.769V375.4Z" fill="#8424DE"/>
<path d="M390.769 391.57H363.879V404.5H390.769V391.57Z" fill="#8424DE"/>
<path opacity="0.3" d="M461.888 312.41H460.328V321.98H461.888V312.41Z" fill="white"/>
<path opacity="0.3" d="M458.888 312.41H457.328V321.98H458.888V312.41Z" fill="white"/>
<path opacity="0.3" d="M455.888 312.41H454.328V321.98H455.888V312.41Z" fill="white"/>
<path opacity="0.3" d="M452.888 312.41H451.328V321.98H452.888V312.41Z" fill="white"/>
<path opacity="0.3" d="M449.888 312.41H448.328V321.98H449.888V312.41Z" fill="white"/>
<path opacity="0.3" d="M461.888 328.58H460.328V338.14H461.888V328.58Z" fill="white"/>
<path opacity="0.3" d="M458.888 328.58H457.328V338.14H458.888V328.58Z" fill="white"/>
<path opacity="0.3" d="M455.888 328.58H454.328V338.14H455.888V328.58Z" fill="white"/>
<path opacity="0.3" d="M452.888 328.58H451.328V338.14H452.888V328.58Z" fill="white"/>
<path opacity="0.3" d="M449.888 328.58H448.328V338.14H449.888V328.58Z" fill="white"/>
<path opacity="0.3" d="M461.888 344.75H460.328V354.31H461.888V344.75Z" fill="white"/>
<path opacity="0.3" d="M458.888 344.75H457.328V354.31H458.888V344.75Z" fill="white"/>
<path opacity="0.3" d="M455.888 344.75H454.328V354.31H455.888V344.75Z" fill="white"/>
<path opacity="0.3" d="M452.888 344.75H451.328V354.31H452.888V344.75Z" fill="white"/>
<path opacity="0.3" d="M449.888 344.75H448.328V354.31H449.888V344.75Z" fill="white"/>
<path opacity="0.3" d="M461.888 360.92H460.328V370.49H461.888V360.92Z" fill="white"/>
<path opacity="0.3" d="M458.888 360.92H457.328V370.49H458.888V360.92Z" fill="white"/>
<path opacity="0.3" d="M455.888 360.92H454.328V370.49H455.888V360.92Z" fill="white"/>
<path opacity="0.3" d="M452.888 360.92H451.328V370.49H452.888V360.92Z" fill="white"/>
<path opacity="0.3" d="M449.888 360.92H448.328V370.49H449.888V360.92Z" fill="white"/>
<path opacity="0.3" d="M461.888 377.09H460.328V386.65H461.888V377.09Z" fill="white"/>
<path opacity="0.3" d="M458.888 377.09H457.328V386.65H458.888V377.09Z" fill="white"/>
<path opacity="0.3" d="M455.888 377.09H454.328V386.65H455.888V377.09Z" fill="white"/>
<path opacity="0.3" d="M452.888 377.09H451.328V386.65H452.888V377.09Z" fill="white"/>
<path opacity="0.3" d="M449.888 377.09H448.328V386.65H449.888V377.09Z" fill="white"/>
<path opacity="0.3" d="M461.888 393.25H460.328V402.82H461.888V393.25Z" fill="white"/>
<path opacity="0.3" d="M458.888 393.25H457.328V402.82H458.888V393.25Z" fill="white"/>
<path opacity="0.3" d="M455.888 393.25H454.328V402.82H455.888V393.25Z" fill="white"/>
<path opacity="0.3" d="M452.888 393.25H451.328V402.82H452.888V393.25Z" fill="white"/>
<path opacity="0.3" d="M449.888 393.25H448.328V402.82H449.888V393.25Z" fill="white"/>
<path opacity="0.2" d="M406.129 317.19C406.129 317.505 406.036 317.812 405.861 318.073C405.687 318.335 405.438 318.539 405.148 318.659C404.857 318.779 404.537 318.811 404.229 318.75C403.921 318.688 403.637 318.537 403.415 318.314C403.193 318.092 403.041 317.809 402.98 317.5C402.918 317.192 402.95 316.872 403.07 316.582C403.191 316.291 403.394 316.043 403.656 315.868C403.917 315.693 404.225 315.6 404.539 315.6C404.961 315.6 405.365 315.768 405.664 316.066C405.962 316.364 406.129 316.768 406.129 317.19Z" fill="white"/>
<path opacity="0.2" d="M416.129 317.19C416.129 317.505 416.036 317.812 415.861 318.073C415.687 318.335 415.438 318.539 415.148 318.659C414.857 318.779 414.537 318.811 414.229 318.75C413.921 318.688 413.637 318.537 413.415 318.314C413.193 318.092 413.041 317.809 412.98 317.5C412.918 317.192 412.95 316.872 413.07 316.582C413.191 316.291 413.394 316.043 413.656 315.868C413.917 315.693 414.225 315.6 414.539 315.6C414.961 315.6 415.365 315.768 415.664 316.066C415.962 316.364 416.129 316.768 416.129 317.19Z" fill="white"/>
<path opacity="0.4" d="M426.129 317.19C426.129 317.505 426.036 317.812 425.861 318.073C425.687 318.335 425.438 318.539 425.148 318.659C424.857 318.779 424.537 318.811 424.229 318.75C423.921 318.688 423.637 318.537 423.415 318.314C423.193 318.092 423.041 317.809 422.98 317.5C422.918 317.192 422.95 316.872 423.07 316.582C423.191 316.291 423.394 316.043 423.656 315.868C423.917 315.693 424.225 315.6 424.539 315.6C424.961 315.6 425.365 315.768 425.664 316.066C425.962 316.364 426.129 316.768 426.129 317.19Z" fill="white"/>
<path opacity="0.4" d="M406.129 333.36C406.129 333.674 406.036 333.982 405.861 334.243C405.687 334.505 405.438 334.709 405.148 334.829C404.857 334.949 404.537 334.981 404.229 334.919C403.921 334.858 403.637 334.707 403.415 334.484C403.193 334.262 403.041 333.979 402.98 333.67C402.918 333.362 402.95 333.042 403.07 332.752C403.191 332.461 403.394 332.213 403.656 332.038C403.917 331.863 404.225 331.77 404.539 331.77C404.961 331.77 405.365 331.938 405.664 332.236C405.962 332.534 406.129 332.938 406.129 333.36Z" fill="white"/>
<path opacity="0.2" d="M416.129 333.36C416.129 333.674 416.036 333.982 415.861 334.243C415.687 334.505 415.438 334.709 415.148 334.829C414.857 334.949 414.537 334.981 414.229 334.919C413.921 334.858 413.637 334.707 413.415 334.484C413.193 334.262 413.041 333.979 412.98 333.67C412.918 333.362 412.95 333.042 413.07 332.752C413.191 332.461 413.394 332.213 413.656 332.038C413.917 331.863 414.225 331.77 414.539 331.77C414.961 331.77 415.365 331.938 415.664 332.236C415.962 332.534 416.129 332.938 416.129 333.36Z" fill="white"/>
<path opacity="0.4" d="M426.129 333.36C426.129 333.674 426.036 333.982 425.861 334.243C425.687 334.505 425.438 334.709 425.148 334.829C424.857 334.949 424.537 334.981 424.229 334.919C423.921 334.858 423.637 334.707 423.415 334.484C423.193 334.262 423.041 333.979 422.98 333.67C422.918 333.362 422.95 333.042 423.07 332.752C423.191 332.461 423.394 332.213 423.656 332.038C423.917 331.863 424.225 331.77 424.539 331.77C424.961 331.77 425.365 331.938 425.664 332.236C425.962 332.534 426.129 332.938 426.129 333.36Z" fill="white"/>
<path opacity="0.2" d="M406.129 349.53C406.129 349.845 406.036 350.152 405.861 350.414C405.687 350.675 405.438 350.879 405.148 350.999C404.857 351.119 404.537 351.151 404.229 351.09C403.921 351.028 403.637 350.877 403.415 350.654C403.193 350.432 403.041 350.149 402.98 349.84C402.918 349.532 402.95 349.212 403.07 348.922C403.191 348.631 403.394 348.383 403.656 348.208C403.917 348.033 404.225 347.94 404.539 347.94C404.961 347.94 405.365 348.108 405.664 348.406C405.962 348.704 406.129 349.108 406.129 349.53Z" fill="white"/>
<path opacity="0.4" d="M416.129 349.53C416.129 349.845 416.036 350.152 415.861 350.414C415.687 350.675 415.438 350.879 415.148 350.999C414.857 351.119 414.537 351.151 414.229 351.09C413.921 351.028 413.637 350.877 413.415 350.654C413.193 350.432 413.041 350.149 412.98 349.84C412.918 349.532 412.95 349.212 413.07 348.922C413.191 348.631 413.394 348.383 413.656 348.208C413.917 348.033 414.225 347.94 414.539 347.94C414.961 347.94 415.365 348.108 415.664 348.406C415.962 348.704 416.129 349.108 416.129 349.53Z" fill="white"/>
<path opacity="0.2" d="M426.129 349.53C426.129 349.845 426.036 350.152 425.861 350.414C425.687 350.675 425.438 350.879 425.148 350.999C424.857 351.119 424.537 351.151 424.229 351.09C423.921 351.028 423.637 350.877 423.415 350.654C423.193 350.432 423.041 350.149 422.98 349.84C422.918 349.532 422.95 349.212 423.07 348.922C423.191 348.631 423.394 348.383 423.656 348.208C423.917 348.033 424.225 347.94 424.539 347.94C424.961 347.94 425.365 348.108 425.664 348.406C425.962 348.704 426.129 349.108 426.129 349.53Z" fill="white"/>
<path opacity="0.4" d="M406.129 365.7C406.129 366.015 406.036 366.322 405.861 366.583C405.687 366.845 405.438 367.049 405.148 367.169C404.857 367.289 404.537 367.321 404.229 367.26C403.921 367.198 403.637 367.047 403.415 366.824C403.193 366.602 403.041 366.319 402.98 366.01C402.918 365.702 402.95 365.382 403.07 365.092C403.191 364.801 403.394 364.553 403.656 364.378C403.917 364.203 404.225 364.11 404.539 364.11C404.961 364.11 405.365 364.278 405.664 364.576C405.962 364.874 406.129 365.278 406.129 365.7Z" fill="white"/>
<path opacity="0.2" d="M416.129 365.7C416.129 366.015 416.036 366.322 415.861 366.583C415.687 366.845 415.438 367.049 415.148 367.169C414.857 367.289 414.537 367.321 414.229 367.26C413.921 367.198 413.637 367.047 413.415 366.824C413.193 366.602 413.041 366.319 412.98 366.01C412.918 365.702 412.95 365.382 413.07 365.092C413.191 364.801 413.394 364.553 413.656 364.378C413.917 364.203 414.225 364.11 414.539 364.11C414.961 364.11 415.365 364.278 415.664 364.576C415.962 364.874 416.129 365.278 416.129 365.7Z" fill="white"/>
<path opacity="0.2" d="M426.129 365.7C426.129 366.015 426.036 366.322 425.861 366.583C425.687 366.845 425.438 367.049 425.148 367.169C424.857 367.289 424.537 367.321 424.229 367.26C423.921 367.198 423.637 367.047 423.415 366.824C423.193 366.602 423.041 366.319 422.98 366.01C422.918 365.702 422.95 365.382 423.07 365.092C423.191 364.801 423.394 364.553 423.656 364.378C423.917 364.203 424.225 364.11 424.539 364.11C424.961 364.11 425.365 364.278 425.664 364.576C425.962 364.874 426.129 365.278 426.129 365.7Z" fill="white"/>
<path opacity="0.2" d="M406.129 381.87C406.129 382.185 406.036 382.492 405.861 382.754C405.687 383.015 405.438 383.219 405.148 383.339C404.857 383.46 404.537 383.491 404.229 383.43C403.921 383.368 403.637 383.217 403.415 382.995C403.193 382.772 403.041 382.489 402.98 382.18C402.918 381.872 402.95 381.552 403.07 381.262C403.191 380.971 403.394 380.723 403.656 380.548C403.917 380.374 404.225 380.28 404.539 380.28C404.961 380.28 405.365 380.448 405.664 380.746C405.962 381.044 406.129 381.449 406.129 381.87Z" fill="white"/>
<path opacity="0.4" d="M416.129 381.87C416.129 382.185 416.036 382.492 415.861 382.754C415.687 383.015 415.438 383.219 415.148 383.339C414.857 383.46 414.537 383.491 414.229 383.43C413.921 383.368 413.637 383.217 413.415 382.995C413.193 382.772 413.041 382.489 412.98 382.18C412.918 381.872 412.95 381.552 413.07 381.262C413.191 380.971 413.394 380.723 413.656 380.548C413.917 380.374 414.225 380.28 414.539 380.28C414.961 380.28 415.365 380.448 415.664 380.746C415.962 381.044 416.129 381.449 416.129 381.87Z" fill="white"/>
<path opacity="0.4" d="M426.129 381.87C426.129 382.185 426.036 382.492 425.861 382.754C425.687 383.015 425.438 383.219 425.148 383.339C424.857 383.46 424.537 383.491 424.229 383.43C423.921 383.368 423.637 383.217 423.415 382.995C423.193 382.772 423.041 382.489 422.98 382.18C422.918 381.872 422.95 381.552 423.07 381.262C423.191 380.971 423.394 380.723 423.656 380.548C423.917 380.374 424.225 380.28 424.539 380.28C424.961 380.28 425.365 380.448 425.664 380.746C425.962 381.044 426.129 381.449 426.129 381.87Z" fill="white"/>
<path opacity="0.4" d="M406.129 398C406.129 398.315 406.036 398.622 405.861 398.884C405.687 399.145 405.438 399.349 405.148 399.469C404.857 399.589 404.537 399.621 404.229 399.56C403.921 399.498 403.637 399.347 403.415 399.124C403.193 398.902 403.041 398.619 402.98 398.31C402.918 398.002 402.95 397.682 403.07 397.392C403.191 397.101 403.394 396.853 403.656 396.678C403.917 396.503 404.225 396.41 404.539 396.41C404.961 396.41 405.365 396.578 405.664 396.876C405.962 397.174 406.129 397.578 406.129 398Z" fill="white"/>
<path opacity="0.2" d="M416.129 398C416.129 398.315 416.036 398.622 415.861 398.884C415.687 399.145 415.438 399.349 415.148 399.469C414.857 399.589 414.537 399.621 414.229 399.56C413.921 399.498 413.637 399.347 413.415 399.124C413.193 398.902 413.041 398.619 412.98 398.31C412.918 398.002 412.95 397.682 413.07 397.392C413.191 397.101 413.394 396.853 413.656 396.678C413.917 396.503 414.225 396.41 414.539 396.41C414.961 396.41 415.365 396.578 415.664 396.876C415.962 397.174 416.129 397.578 416.129 398Z" fill="white"/>
<path opacity="0.4" d="M426.129 398C426.129 398.315 426.036 398.622 425.861 398.884C425.687 399.145 425.438 399.349 425.148 399.469C424.857 399.589 424.537 399.621 424.229 399.56C423.921 399.498 423.637 399.347 423.415 399.124C423.193 398.902 423.041 398.619 422.98 398.31C422.918 398.002 422.95 397.682 423.07 397.392C423.191 397.101 423.394 396.853 423.656 396.678C423.917 396.503 424.225 396.41 424.539 396.41C424.961 396.41 425.365 396.578 425.664 396.876C425.962 397.174 426.129 397.578 426.129 398Z" fill="white"/>
<path opacity="0.3" d="M394.648 305.39H359.988V409.83H394.648V305.39Z" fill="black"/>
<path d="M460.148 175.26H358.948C356.22 175.26 354.008 177.471 354.008 180.2V263.72C354.008 266.448 356.22 268.66 358.948 268.66H460.148C462.876 268.66 465.088 266.448 465.088 263.72V180.2C465.088 177.471 462.876 175.26 460.148 175.26Z" fill="#8424DE"/>
<path opacity="0.5" d="M460.148 175.26H358.948C356.22 175.26 354.008 177.471 354.008 180.2V263.72C354.008 266.448 356.22 268.66 358.948 268.66H460.148C462.876 268.66 465.088 266.448 465.088 263.72V180.2C465.088 177.471 462.876 175.26 460.148 175.26Z" fill="white"/>
<path d="M358.64 175.26H460.54C461.747 175.26 462.904 175.739 463.757 176.592C464.611 177.446 465.09 178.603 465.09 179.81V191.55H354V179.89C354 179.281 354.12 178.678 354.353 178.116C354.587 177.553 354.929 177.042 355.36 176.612C355.791 176.182 356.302 175.841 356.865 175.609C357.428 175.377 358.031 175.258 358.64 175.26Z" fill="#8424DE"/>
<path opacity="0.5" d="M458.807 184.59C458.809 185.295 458.602 185.984 458.212 186.571C457.821 187.158 457.265 187.616 456.614 187.887C455.964 188.158 455.247 188.229 454.555 188.092C453.864 187.955 453.229 187.616 452.73 187.117C452.232 186.619 451.892 185.983 451.755 185.292C451.618 184.6 451.69 183.884 451.96 183.233C452.231 182.582 452.689 182.026 453.276 181.636C453.863 181.245 454.553 181.038 455.257 181.04C455.724 181.04 456.185 181.132 456.616 181.31C457.047 181.488 457.438 181.75 457.768 182.08C458.097 182.409 458.359 182.801 458.537 183.231C458.716 183.662 458.807 184.124 458.807 184.59Z" fill="white"/>
<path opacity="0.5" d="M448.71 184.59C448.712 185.295 448.505 185.984 448.115 186.571C447.725 187.157 447.169 187.615 446.519 187.886C445.869 188.157 445.153 188.229 444.461 188.093C443.77 187.957 443.135 187.618 442.636 187.121C442.137 186.623 441.797 185.989 441.659 185.298C441.521 184.607 441.591 183.891 441.86 183.24C442.129 182.589 442.585 182.032 443.171 181.641C443.757 181.249 444.445 181.04 445.15 181.04C446.092 181.04 446.996 181.414 447.664 182.079C448.331 182.745 448.707 183.648 448.71 184.59Z" fill="white"/>
<path opacity="0.5" d="M438.6 184.59C438.602 185.295 438.395 185.984 438.005 186.571C437.614 187.158 437.058 187.616 436.407 187.887C435.757 188.158 435.04 188.229 434.348 188.092C433.657 187.955 433.022 187.616 432.523 187.117C432.025 186.619 431.685 185.983 431.548 185.292C431.411 184.6 431.483 183.884 431.753 183.233C432.024 182.582 432.482 182.026 433.069 181.636C433.656 181.245 434.345 181.038 435.05 181.04C435.517 181.04 435.978 181.132 436.409 181.31C436.84 181.488 437.231 181.75 437.561 182.08C437.89 182.409 438.152 182.801 438.33 183.231C438.509 183.662 438.6 184.124 438.6 184.59Z" fill="white"/>
<path opacity="0.6" d="M435.978 205.16H379.008V208.48H435.978V205.16Z" fill="white"/>
<path opacity="0.6" d="M420.661 212.34H379.891V215.66H420.661V212.34Z" fill="#263238"/>
<path d="M451.378 205.16H440.168V208.48H451.378V205.16Z" fill="#8424DE"/>
<path d="M375.05 205.16H363.84V208.48H375.05V205.16Z" fill="#8424DE"/>
<path d="M435.978 220.31H379.008V223.63H435.978V220.31Z" fill="#8424DE"/>
<path opacity="0.6" d="M451.378 220.31H440.168V223.63H451.378V220.31Z" fill="white"/>
<path d="M375.05 220.31H363.84V223.63H375.05V220.31Z" fill="#8424DE"/>
<path d="M435.978 251.87H379.008V255.19H435.978V251.87Z" fill="#8424DE"/>
<path opacity="0.6" d="M451.378 251.87H440.168V255.19H451.378V251.87Z" fill="white"/>
<path d="M435.978 228.29H379.008V231.61H435.978V228.29Z" fill="#8424DE"/>
<path opacity="0.6" d="M451.378 228.29H440.168V231.61H451.378V228.29Z" fill="#263238"/>
<path opacity="0.6" d="M375.05 228.29H363.84V231.61H375.05V228.29Z" fill="#263238"/>
<path d="M452.201 212.47H425.121V215.79H452.201V212.47Z" fill="#8424DE"/>
<path opacity="0.6" d="M419.778 235.25H379.008V238.57H419.778V235.25Z" fill="white"/>
<path d="M451.318 235.38H424.238V238.7H451.318V235.38Z" fill="#8424DE"/>
<path opacity="0.6" d="M399.388 242.46H379.008V245.78H399.388V242.46Z" fill="#263238"/>
<path d="M158.839 79.6499H57.6392C54.9109 79.6499 52.6992 81.8616 52.6992 84.5899V168.11C52.6992 170.838 54.9109 173.05 57.6392 173.05H158.839C161.568 173.05 163.779 170.838 163.779 168.11V84.5899C163.779 81.8616 161.568 79.6499 158.839 79.6499Z" fill="#8424DE"/>
<path opacity="0.5" d="M158.839 79.6499H57.6392C54.9109 79.6499 52.6992 81.8616 52.6992 84.5899V168.11C52.6992 170.838 54.9109 173.05 57.6392 173.05H158.839C161.568 173.05 163.779 170.838 163.779 168.11V84.5899C163.779 81.8616 161.568 79.6499 158.839 79.6499Z" fill="white"/>
<path d="M57.3192 79.6499H159.229C160.436 79.6499 161.593 80.1293 162.447 80.9826C163.3 81.8359 163.779 82.9932 163.779 84.1999V95.9399H52.6992V84.2799C52.6992 83.0537 53.1856 81.8775 54.0518 81.0095C54.9179 80.1415 56.093 79.6526 57.3192 79.6499Z" fill="#8424DE"/>
<path opacity="0.5" d="M157.499 88.9999C157.497 89.7062 157.285 90.3958 156.89 90.9811C156.495 91.5665 155.934 92.0211 155.28 92.2871C154.626 92.5532 153.907 92.6187 153.216 92.4753C152.524 92.3318 151.891 91.986 151.397 91.4817C150.902 90.9774 150.569 90.3375 150.439 89.6433C150.31 88.9491 150.389 88.232 150.668 87.5832C150.947 86.9344 151.413 86.3833 152.006 85.9999C152.599 85.6164 153.293 85.418 153.999 85.4299C154.935 85.4431 155.828 85.8257 156.484 86.4943C157.139 87.163 157.504 88.0636 157.499 88.9999Z" fill="white"/>
<path opacity="0.5" d="M147.397 89C147.397 89.7041 147.189 90.3923 146.797 90.9778C146.406 91.5632 145.85 92.0195 145.2 92.289C144.549 92.5584 143.833 92.6289 143.143 92.4915C142.452 92.3542 141.818 92.0151 141.32 91.5173C140.822 91.0194 140.483 90.385 140.346 89.6945C140.208 89.0039 140.279 88.2881 140.548 87.6376C140.818 86.9871 141.274 86.4311 141.86 86.0399C142.445 85.6487 143.133 85.44 143.837 85.44C144.305 85.4386 144.769 85.5298 145.201 85.7083C145.634 85.8867 146.027 86.1489 146.358 86.4797C146.688 86.8106 146.951 87.2035 147.129 87.636C147.307 88.0686 147.399 88.5321 147.397 89Z" fill="white"/>
<path opacity="0.5" d="M137.288 89C137.288 89.7045 137.079 90.3932 136.687 90.9788C136.296 91.5645 135.739 92.0208 135.088 92.2899C134.437 92.5591 133.721 92.629 133.03 92.4908C132.339 92.3526 131.705 92.0126 131.207 91.5137C130.71 91.0148 130.371 90.3796 130.235 89.6883C130.099 88.9971 130.171 88.281 130.442 87.6307C130.713 86.9803 131.171 86.425 131.757 86.0351C132.344 85.6451 133.033 85.438 133.738 85.44C134.205 85.44 134.667 85.5321 135.099 85.7111C135.53 85.8902 135.922 86.1526 136.252 86.4833C136.582 86.814 136.843 87.2065 137.021 87.6384C137.198 88.0702 137.289 88.5329 137.288 89Z" fill="white"/>
<path d="M143.24 131.72C139.56 126.78 132.01 124.37 126.98 127.94C126.209 122.417 123.276 117.426 118.826 114.065C114.376 110.705 108.773 109.249 103.25 110.02C97.7266 110.79 92.7357 113.723 89.3751 118.173C86.0144 122.624 84.5593 128.227 85.3297 133.75C80.4697 132.64 75.1297 133.81 71.9797 138.83C67.8797 145.33 73.1897 151.78 73.1897 151.78L101.69 151.95V141.5H98.0497C97.9054 141.501 97.7639 141.46 97.6431 141.381C97.5222 141.302 97.4274 141.189 97.3707 141.057C97.314 140.924 97.2979 140.778 97.3244 140.636C97.3509 140.494 97.4189 140.363 97.5197 140.26L101.71 135.88L106.57 130.81C106.639 130.739 106.721 130.683 106.812 130.644C106.903 130.606 107.001 130.586 107.1 130.586C107.199 130.586 107.296 130.606 107.387 130.644C107.478 130.683 107.561 130.739 107.63 130.81L112.48 135.88L116.68 140.26C116.776 140.365 116.84 140.495 116.864 140.635C116.888 140.776 116.871 140.92 116.815 141.051C116.759 141.182 116.666 141.294 116.548 141.373C116.43 141.453 116.292 141.497 116.15 141.5H112.5V152L142.84 152.17C147.16 147.21 146.93 136.66 143.24 131.72Z" fill="white"/>
<path d="M100.523 412.61C100.523 412.61 187.643 392.2 191.783 410.34C197.703 436.25 134.843 453.67 101.363 452.61C67.8827 451.55 100.523 412.61 100.523 412.61Z" fill="#263238"/>
<path opacity="0.2" d="M100.523 412.61C100.523 412.61 187.643 392.2 191.783 410.34C197.703 436.25 134.843 453.67 101.363 452.61C67.8827 451.55 100.523 412.61 100.523 412.61Z" fill="black"/>
<path opacity="0.7" d="M163.201 415.94L122.281 441.94L127.741 449.7C127.741 449.7 124.871 453.97 119.391 440.87L144.701 424.14C144.701 424.14 136.781 423.35 136.981 422.14C137.321 420.14 154.721 416.23 162.661 414.49C162.852 414.436 163.057 414.457 163.235 414.548C163.412 414.638 163.548 414.793 163.616 414.98C163.685 415.167 163.68 415.373 163.603 415.557C163.526 415.74 163.382 415.888 163.201 415.97V415.94Z" fill="black"/>
<path opacity="0.7" d="M120.8 439L127.9 450.5C119.138 452.021 110.253 452.72 101.36 452.59C98.4424 452.569 95.5499 452.045 92.8103 451.04L90.3203 446.48L95.6803 435.68L120.8 439Z" fill="black"/>
<path d="M134.342 434.44L116.152 445.98L119.412 454.81L140.772 445.21L134.342 434.44Z" fill="#B97964"/>
<path d="M106.133 448.94L107.923 455.29C108.327 455.393 108.7 455.595 109.007 455.878C109.314 456.161 109.547 456.515 109.683 456.91C109.738 457.861 109.63 458.815 109.363 459.73L114.143 477.24C114.724 477.087 115.284 476.866 115.813 476.58C116.325 476.217 116.791 475.794 117.203 475.32C118.503 473.83 118.643 471.66 118.693 470.06C118.773 467.38 120.313 459.53 120.313 459.53C120.859 458.022 121.811 456.693 123.063 455.69C123.55 455.337 123.952 454.879 124.238 454.349C124.523 453.819 124.686 453.231 124.713 452.63C124.68 452.298 124.576 451.977 124.408 451.689C124.239 451.402 124.01 451.154 123.736 450.964C123.462 450.774 123.149 450.645 122.821 450.588C122.492 450.53 122.155 450.544 121.833 450.63L120.093 450.84C119.475 450.401 119.046 449.745 118.892 449.003C118.738 448.261 118.87 447.488 119.263 446.84C119.263 446.84 120.263 443.03 118.693 443.67C117.773 444.03 113.763 445.83 110.543 447.15L108.463 448L106.133 448.94Z" fill="#263238"/>
<path d="M119.643 463.71C119.665 463.662 119.671 463.607 119.661 463.555C119.65 463.503 119.623 463.456 119.583 463.42C119.204 463.063 118.733 462.817 118.223 462.71C117.943 462.71 117.823 463.1 118.093 463.16C118.543 463.252 118.961 463.462 119.303 463.77C119.322 463.797 119.348 463.819 119.378 463.834C119.407 463.849 119.44 463.857 119.473 463.857C119.506 463.857 119.539 463.849 119.568 463.834C119.598 463.819 119.624 463.797 119.643 463.77V463.71Z" fill="#8424DE"/>
<path d="M120.003 462.16C120.025 462.112 120.031 462.057 120.02 462.005C120.01 461.953 119.982 461.906 119.943 461.87C119.564 461.514 119.093 461.272 118.583 461.17C118.303 461.11 118.173 461.55 118.453 461.61C118.903 461.702 119.321 461.913 119.663 462.22C119.686 462.245 119.715 462.263 119.747 462.274C119.778 462.285 119.812 462.288 119.846 462.283C119.879 462.279 119.911 462.266 119.938 462.246C119.965 462.226 119.988 462.2 120.003 462.17V462.16Z" fill="#8424DE"/>
<path d="M120.3 460.59C120.32 460.54 120.326 460.484 120.315 460.431C120.304 460.378 120.278 460.329 120.24 460.29C119.854 459.939 119.381 459.698 118.87 459.59C118.6 459.53 118.47 459.97 118.75 460.03C119.199 460.126 119.613 460.34 119.95 460.65C119.974 460.674 120.004 460.692 120.036 460.702C120.068 460.713 120.103 460.715 120.136 460.709C120.169 460.703 120.201 460.689 120.228 460.669C120.255 460.648 120.276 460.621 120.29 460.59H120.3Z" fill="#8424DE"/>
<path opacity="0.2" d="M108.463 448L106.133 449L107.923 455.35C108.327 455.453 108.7 455.655 109.007 455.938C109.314 456.221 109.547 456.575 109.683 456.97C109.738 457.922 109.63 458.875 109.363 459.79L114.143 477.3C114.724 477.147 115.284 476.926 115.813 476.64C116.073 476.45 116.303 476.26 116.523 476.07L108.813 447.9L108.463 448Z" fill="white"/>
<path d="M122.731 461.87C122.56 461.868 122.389 461.851 122.221 461.82C121.415 461.524 120.66 461.106 119.981 460.58L119.781 460.45L120.001 460.36C120.598 460.124 121.213 459.94 121.841 459.81C122.483 459.672 123.15 459.71 123.771 459.92C123.949 459.94 124.116 460.018 124.245 460.142C124.375 460.265 124.46 460.428 124.489 460.605C124.517 460.782 124.487 460.963 124.402 461.121C124.318 461.279 124.184 461.405 124.021 461.48C123.643 461.742 123.192 461.879 122.731 461.87ZM120.311 460.52C120.917 460.975 121.593 461.329 122.311 461.57C122.584 461.632 122.866 461.639 123.141 461.589C123.416 461.539 123.678 461.434 123.911 461.28C124.024 461.214 124.117 461.119 124.18 461.004C124.243 460.89 124.275 460.761 124.271 460.63C124.211 460.37 123.911 460.22 123.731 460.15C123.147 459.958 122.523 459.923 121.921 460.05C121.372 460.159 120.833 460.316 120.311 460.52Z" fill="#8424DE"/>
<path d="M119.923 460.65V460.42C119.833 459.563 119.87 458.697 120.033 457.85C120.137 457.553 120.3 457.28 120.511 457.046C120.722 456.813 120.978 456.624 121.263 456.49C121.41 456.397 121.582 456.353 121.755 456.364C121.929 456.375 122.094 456.441 122.228 456.552C122.361 456.663 122.456 456.814 122.498 456.983C122.541 457.151 122.528 457.329 122.463 457.49C122.32 458.132 122.005 458.723 121.553 459.2C121.118 459.665 120.643 460.09 120.133 460.47L119.923 460.65ZM121.733 456.65C121.599 456.65 121.466 456.678 121.343 456.73C121.089 456.85 120.861 457.02 120.674 457.23C120.487 457.439 120.344 457.684 120.253 457.95C120.099 458.68 120.062 459.429 120.143 460.17C120.576 459.838 120.981 459.47 121.353 459.07C121.768 458.622 122.061 458.074 122.203 457.48C122.241 457.36 122.249 457.233 122.226 457.109C122.204 456.985 122.151 456.869 122.073 456.77C122.028 456.726 121.975 456.692 121.916 456.67C121.858 456.648 121.795 456.638 121.733 456.64V456.65Z" fill="#8424DE"/>
<path d="M136.511 357.18C136.511 357.18 139.691 385.5 140.511 387.02C143.391 392.16 162.441 401.02 162.441 401.02L172.151 399.02L179.151 404.83L174.561 408.42L169.181 406.42C166.243 406.944 163.265 407.205 160.281 407.2C155.281 407.2 131.071 401.07 127.031 394.32C122.991 387.57 121.141 356.32 121.141 356.32L136.511 357.18Z" fill="#B97964"/>
<path d="M120.71 368.31C120.71 368.31 113.25 343.44 122.55 336.53C131.85 329.62 139.24 363.83 139.24 363.83L120.71 368.31Z" fill="#8424DE"/>
<path opacity="0.3" d="M120.71 368.31C120.71 368.31 113.25 343.44 122.55 336.53C131.85 329.62 139.24 363.83 139.24 363.83L120.71 368.31Z" fill="white"/>
<path d="M126.602 413.81L126.532 380.81L125.612 335.41L106.342 331.41L89.3416 330.66L70.1016 339.55L69.6516 350.63C69.6516 350.63 71.8516 401.49 71.7316 403.03C71.5816 404.91 66.1016 416.7 66.1016 416.7C90.4816 422.26 127.002 415.49 126.602 413.81Z" fill="#8424DE"/>
<path opacity="0.3" d="M126.602 413.81L126.532 380.81L125.612 335.41L106.342 331.41L89.3416 330.66L70.1016 339.55L69.6516 350.63C69.6516 350.63 71.8516 401.49 71.7316 403.03C71.5816 404.91 66.1016 416.7 66.1016 416.7C90.4816 422.26 127.002 415.49 126.602 413.81Z" fill="white"/>
<path d="M99.0009 338C99.0009 338 103.731 342.21 106.151 336.77L107.411 337.77C107.411 337.77 107.291 341.82 104.991 343.17C105.551 345.42 115.151 378.12 116.871 394.6L114.251 401.29L107.251 395.78C107.251 395.78 103.871 367.51 102.711 343.48C101.354 343.025 100.113 342.278 99.0766 341.292C98.0399 340.305 97.2323 339.103 96.7109 337.77L99.0009 338Z" fill="#8424DE"/>
<path opacity="0.2" d="M105.102 338.58L109.202 341.77L109.872 332.2L108.572 331.92L107.482 338.37L105.542 337.24L105.102 338.58Z" fill="black"/>
<path opacity="0.2" d="M85.3519 332.57C85.2819 332.57 95.0019 344.46 95.0019 344.46L98.3019 341.94L100.572 340.02L101.162 339.3L88.2919 330.36C87.701 330.991 87.0661 331.579 86.3919 332.12C86.0317 332.237 85.6834 332.387 85.3519 332.57Z" fill="black"/>
<path d="M86.043 332.37L90.743 328.17L103.613 340.22L100.253 339.03L95.343 342.8L86.043 332.37Z" fill="#8424DE"/>
<path d="M103.61 340.22C103.33 339.67 104.61 328.73 104.61 328.73L109.17 331.85C108.93 331.8 108.77 340.85 108.62 340.85C108.47 340.85 105.62 337.75 105.62 337.75L103.61 340.22Z" fill="#8424DE"/>
<path opacity="0.2" d="M126.262 366.97L125.262 345.71L130.022 366.06L126.262 366.97Z" fill="black"/>
<path opacity="0.2" d="M85.0023 370.07C85.6023 369.95 88.6323 368.95 88.6323 368.95L81.9023 350.17L91.1723 371L85.6023 373.22L85.0023 370.07Z" fill="black"/>
<path opacity="0.3" d="M86.043 332.37L90.743 328.17L103.613 340.22L100.253 339.03L95.343 342.8L86.043 332.37Z" fill="white"/>
<path opacity="0.3" d="M103.61 340.22C103.33 339.67 104.61 328.73 104.61 328.73L109.17 331.85C108.93 331.8 108.77 340.85 108.62 340.85C108.47 340.85 105.62 337.75 105.62 337.75L103.61 340.22Z" fill="white"/>
<path opacity="0.3" d="M110.91 357.8L113.07 368.41L119.36 370.69L123.61 366.98L122.83 356.96L110.91 357.8Z" fill="white"/>
<path d="M104.383 339.3L102.383 339.78C102.383 339.78 102.313 339.91 102.383 339.83C102.453 339.75 101.293 343.6 101.293 343.6C101.613 343.89 102.683 345.74 102.803 345.71C102.923 345.68 105.573 345.43 105.573 345.43L106.573 342.63L104.383 339.3Z" fill="#8424DE"/>
<path opacity="0.2" d="M104.383 339.3L102.383 339.78C102.383 339.78 102.313 339.91 102.383 339.83C102.453 339.75 101.293 343.6 101.293 343.6C101.613 343.89 102.683 345.74 102.803 345.71C102.923 345.68 105.573 345.43 105.573 345.43L106.573 342.63L104.383 339.3Z" fill="black"/>
<path d="M82.4116 354.49C82.4116 354.49 87.1316 385.93 89.8616 388.87C94.4716 393.87 117.322 407.02 117.322 407.02L128.732 403.02C129.122 402.89 129.538 402.857 129.943 402.923C130.349 402.989 130.733 403.153 131.062 403.4L138.862 409.4L138.122 410.03C137.961 410.164 137.765 410.249 137.557 410.274C137.35 410.298 137.139 410.262 136.952 410.17L135.742 409.57L137.092 410.89L136.672 411.26C136.456 411.439 136.201 411.563 135.928 411.622C135.655 411.681 135.371 411.674 135.102 411.6L131.612 410.66L134.832 412.81C134.469 413.108 134.039 413.313 133.579 413.409C133.119 413.505 132.643 413.488 132.192 413.36L127.092 411.91C123.609 412.703 120.067 413.208 116.502 413.42C110.502 413.79 82.1316 403.88 76.8416 396.63C71.5516 389.38 66.1016 359.19 66.1016 359.19L82.4116 354.49Z" fill="#B97964"/>
<path d="M67.3111 375.41C67.3111 375.41 60.2411 346.91 69.5411 340C78.8411 333.09 88.0511 369.15 88.0511 369.15L67.3111 375.41Z" fill="#8424DE"/>
<path opacity="0.3" d="M67.3111 375.41C67.3111 375.41 60.2411 346.91 69.5411 340C78.8411 333.09 88.0511 369.15 88.0511 369.15L67.3111 375.41Z" fill="white"/>
<path d="M128.183 301.69C128.776 301.626 129.326 301.352 129.734 300.917C130.141 300.483 130.38 299.916 130.405 299.32C130.431 298.725 130.241 298.14 129.872 297.672C129.503 297.204 128.978 296.884 128.393 296.77L122.883 296.22C123.143 299.76 123.406 303.297 123.673 306.83C124.733 307.15 125.863 307.15 126.923 306.83C127.451 306.663 127.932 306.374 128.328 305.986C128.724 305.599 129.024 305.124 129.203 304.6C129.369 304.07 129.359 303.5 129.175 302.976C128.992 302.452 128.643 302.001 128.183 301.69Z" fill="#263238"/>
<path d="M107.111 322.1L95.2614 307.19C95.2614 307.19 95.2614 307.19 95.2614 307.24C95.2614 308.65 95.2614 310.24 95.1014 311.98C95.1014 311.98 93.8214 311.37 93.8214 311.39C93.3114 319.13 90.2514 332.39 90.3914 333.49L102.841 339.68L105.111 337.41L105.551 332.41C104.281 329.21 105.461 325.53 107.111 322.1Z" fill="#B97964"/>
<path opacity="0.2" d="M105.329 327.13L97.8391 321.21C97.6491 324.21 99.2291 328.96 105.239 331.42C104.913 330.005 104.944 328.53 105.329 327.13Z" fill="black"/>
<path d="M97.7898 299.8C95.3398 309.8 94.4098 314.65 97.7898 321.21C102.94 331.07 115.53 331.15 120.95 322.02C125.82 313.81 129.02 298.79 120.55 291.96C118.674 290.461 116.449 289.46 114.082 289.051C111.716 288.642 109.284 288.837 107.013 289.619C104.743 290.402 102.706 291.745 101.094 293.525C99.4812 295.305 98.3447 297.463 97.7898 299.8Z" fill="#B97964"/>
<path d="M99.9016 286.18C102.902 281.18 110.902 280.37 113.832 284.32C114.262 284.91 109.522 285.05 110.062 285.02L107.282 292.93C106.732 292.62 105.372 292.93 104.222 294.57C104.222 294.57 102.432 305.45 96.7916 308.49C91.2616 300.85 91.8916 286.2 99.9016 286.18Z" fill="#263238"/>
<path d="M91.3516 306.8C91.3636 308.083 91.6296 309.35 92.1342 310.529C92.6388 311.708 93.3721 312.776 94.2916 313.67C96.7816 316.04 99.6616 314.2 100.352 311.02C100.962 308.15 100.412 303.45 97.2616 302.29C94.1116 301.13 91.3516 303.62 91.3516 306.8Z" fill="#B97964"/>
<path d="M111.371 308.21C111.061 309.21 111.371 310.21 112.001 310.39C112.631 310.57 113.451 309.93 113.771 308.93C114.091 307.93 113.771 306.93 113.141 306.74C112.511 306.55 111.691 307.2 111.371 308.21Z" fill="#263238"/>
<path d="M121.25 311.42C120.94 312.42 121.25 313.42 121.88 313.6C122.51 313.78 123.34 313.14 123.65 312.14C123.96 311.14 123.65 310.14 123.02 309.95C122.39 309.76 121.57 310.41 121.25 311.42Z" fill="#263238"/>
<path d="M117.773 308.73C117.773 308.73 119.033 313.32 119.603 316.04C119.637 316.193 119.636 316.352 119.602 316.505C119.569 316.658 119.502 316.802 119.407 316.927C119.311 317.051 119.19 317.154 119.051 317.227C118.913 317.3 118.76 317.342 118.603 317.35C117.617 317.328 116.652 317.064 115.793 316.58L117.773 308.73Z" fill="#A24E3F"/>
<path d="M110.322 302.16C110.389 302.216 110.47 302.253 110.556 302.269C110.641 302.285 110.73 302.278 110.812 302.25C111.387 302.015 112.01 301.916 112.629 301.963C113.249 302.01 113.849 302.201 114.382 302.52C114.489 302.597 114.622 302.63 114.752 302.611C114.883 302.592 115.001 302.524 115.082 302.42C115.158 302.313 115.188 302.182 115.168 302.053C115.147 301.924 115.077 301.808 114.972 301.73C114.307 301.309 113.55 301.053 112.766 300.983C111.981 300.913 111.192 301.032 110.462 301.33C110.342 301.377 110.244 301.469 110.19 301.587C110.136 301.704 110.13 301.838 110.172 301.96C110.205 302.038 110.256 302.107 110.322 302.16Z" fill="#263238"/>
<path d="M126.502 306.84C126.598 306.819 126.688 306.775 126.762 306.71C126.853 306.618 126.904 306.494 126.904 306.365C126.904 306.236 126.853 306.112 126.762 306.02C126.257 305.425 125.616 304.961 124.894 304.665C124.172 304.369 123.389 304.251 122.612 304.32C122.482 304.342 122.365 304.414 122.287 304.52C122.209 304.626 122.175 304.759 122.192 304.89C122.202 304.954 122.224 305.015 122.257 305.07C122.291 305.125 122.335 305.173 122.387 305.211C122.439 305.249 122.498 305.277 122.561 305.292C122.623 305.307 122.688 305.31 122.752 305.3C123.368 305.245 123.989 305.342 124.559 305.582C125.129 305.823 125.631 306.2 126.022 306.68C126.082 306.745 126.157 306.794 126.241 306.822C126.325 306.85 126.415 306.856 126.502 306.84Z" fill="#263238"/>
<path d="M110.54 318.63C110.886 318.91 111.253 319.16 111.64 319.38C111.701 319.411 111.772 319.42 111.839 319.406C111.906 319.391 111.967 319.354 112.01 319.3C112.039 319.235 112.043 319.16 112.021 319.092C111.999 319.024 111.952 318.966 111.89 318.93C110.898 318.397 110.045 317.638 109.402 316.713C108.759 315.789 108.344 314.726 108.19 313.61C108.182 313.542 108.149 313.479 108.097 313.435C108.045 313.39 107.978 313.367 107.91 313.37C107.848 313.367 107.787 313.389 107.74 313.43C107.694 313.471 107.665 313.528 107.66 313.59C107.655 313.61 107.655 313.63 107.66 313.65C107.776 314.632 108.092 315.58 108.587 316.437C109.082 317.293 109.747 318.039 110.54 318.63Z" fill="#263238"/>
<path d="M133.152 294.2C132.472 292.2 130.092 291.36 127.982 291.2C128.64 291.124 129.246 290.806 129.683 290.31C130.121 289.813 130.359 289.172 130.352 288.51C130.311 287.847 130.123 287.201 129.801 286.62C129.48 286.039 129.032 285.537 128.492 285.15C127.554 284.421 126.443 283.947 125.268 283.771C124.093 283.596 122.892 283.727 121.782 284.15C121.98 284.032 122.131 283.849 122.209 283.632C122.288 283.415 122.289 283.178 122.212 282.96C122.049 282.526 121.755 282.152 121.372 281.89C120.227 281.067 118.837 280.657 117.429 280.728C116.021 280.799 114.678 281.346 113.622 282.28C113.221 281.071 112.385 280.056 111.275 279.431C110.166 278.806 108.863 278.617 107.622 278.9C105.232 279.52 100.732 280 100.042 286.11C99.5275 285.619 98.9141 285.244 98.2429 285.01C97.5718 284.775 96.8583 284.686 96.15 284.749C95.4418 284.812 94.7551 285.025 94.1358 285.374C93.5166 285.724 92.9789 286.201 92.5587 286.775C92.1386 287.348 91.8456 288.005 91.6993 288.701C91.553 289.397 91.5569 290.116 91.7105 290.81C91.8641 291.504 92.1641 292.157 92.5903 292.727C93.0165 293.296 93.5592 293.767 94.1821 294.11C93.6177 293.925 93.004 293.961 92.4654 294.212C91.9269 294.463 91.5039 294.909 91.2821 295.46C91.0874 296.022 91.046 296.626 91.162 297.21C91.2779 297.793 91.5472 298.335 91.9421 298.78C92.7497 299.65 93.7915 300.268 94.9421 300.56C96.0101 300.907 97.1551 300.942 98.2421 300.66C98.7803 300.507 99.2692 300.217 99.6603 299.817C100.051 299.417 100.331 298.921 100.472 298.38C100.592 298.95 100.917 299.456 101.385 299.802C101.853 300.149 102.432 300.312 103.012 300.26C103.59 300.173 104.125 299.906 104.542 299.496C104.959 299.087 105.235 298.556 105.332 297.98C105.408 297.402 105.329 296.815 105.105 296.278C104.88 295.74 104.517 295.272 104.052 294.92C104.395 295.209 104.799 295.418 105.234 295.53C105.668 295.643 106.122 295.657 106.563 295.57C107.003 295.484 107.419 295.3 107.779 295.031C108.139 294.763 108.434 294.418 108.642 294.02C109.528 295.954 111.044 297.53 112.942 298.49C113.9 298.943 114.981 299.07 116.018 298.849C117.055 298.629 117.991 298.074 118.682 297.27C119.276 298.033 119.977 298.706 120.762 299.27C121.161 299.547 121.615 299.735 122.093 299.821C122.571 299.907 123.062 299.89 123.532 299.77C123.996 299.63 124.397 299.33 124.662 298.924C124.927 298.518 125.04 298.032 124.982 297.55C125.723 298.213 126.619 298.679 127.587 298.904C128.555 299.129 129.565 299.107 130.522 298.84C131.454 298.526 132.238 297.878 132.723 297.022C133.209 296.166 133.361 295.162 133.152 294.2Z" fill="#263238"/>
<path d="M143.43 411.63H107.27C107.27 413.01 108.82 414.12 110.72 414.11H169.61C171.49 414.11 173 412.98 172.99 411.61L143.43 411.63Z" fill="#263238"/>
<path d="M170.152 414H137.152C136.911 414.017 136.672 413.94 136.486 413.786C136.3 413.631 136.18 413.411 136.152 413.17C136.154 413.081 136.171 412.993 136.202 412.91L150.902 379.23C151.147 378.72 151.537 378.294 152.022 378.004C152.507 377.714 153.068 377.574 153.632 377.6H186.632C186.873 377.58 187.112 377.655 187.298 377.808C187.485 377.961 187.605 378.18 187.632 378.42C187.632 378.513 187.611 378.605 187.572 378.69L172.882 412.38C172.634 412.886 172.244 413.309 171.759 413.597C171.274 413.884 170.716 414.025 170.152 414Z" fill="#263238"/>
<path opacity="0.7" d="M186.63 377.59H153.63C153.065 377.564 152.505 377.704 152.019 377.994C151.534 378.284 151.144 378.71 150.9 379.22L136.76 411.63H107.27C107.27 413.01 108.82 414.12 110.72 414.11H169.61C170.169 414.109 170.723 413.997 171.24 413.78C171.602 413.675 171.936 413.493 172.221 413.246C172.506 412.999 172.734 412.694 172.89 412.35L187.58 378.66C187.618 378.575 187.639 378.483 187.64 378.39C187.607 378.152 187.484 377.936 187.296 377.787C187.107 377.638 186.869 377.567 186.63 377.59Z" fill="white"/>
<path d="M166.783 395.53C166.063 397.14 164.623 398.25 163.543 398.03C162.463 397.81 162.173 396.33 162.873 394.71C163.573 393.09 165.023 392 166.103 392.23C167.183 392.46 167.503 393.87 166.783 395.53Z" fill="white"/>
<g opacity="0.3">
<path d="M150.851 379.22L136.711 411.63H138.241L153.581 377.63C153.02 377.6 152.463 377.735 151.978 378.017C151.493 378.3 151.102 378.718 150.851 379.22Z" fill="black"/>
</g>
<path d="M152.551 449L173.831 452.42L177.241 443.65L154.881 436.67L152.551 449Z" fill="#B97964"/>
<path d="M183.29 456.85L186.16 450.91C185.923 450.565 185.777 450.167 185.735 449.751C185.693 449.335 185.757 448.915 185.92 448.53C186.24 447.81 188.03 446.63 188.03 446.63L196.03 430.35C195.494 430.077 194.926 429.872 194.34 429.74C193.715 429.67 193.084 429.67 192.46 429.74C190.51 430.01 188.97 431.53 187.87 432.74C186.03 434.74 179.67 439.55 179.67 439.55C178.259 440.319 176.664 440.682 175.06 440.6C174.461 440.538 173.856 440.613 173.29 440.821C172.725 441.029 172.215 441.364 171.8 441.8C171.599 442.069 171.46 442.378 171.391 442.706C171.323 443.034 171.328 443.373 171.405 443.7C171.482 444.026 171.63 444.331 171.839 444.594C172.047 444.856 172.31 445.07 172.61 445.22L174.06 446.22C174.235 446.955 174.126 447.729 173.755 448.387C173.384 449.045 172.779 449.539 172.06 449.77C172.06 449.77 168.76 451.95 170.39 452.52C171.31 452.86 175.51 454.18 178.79 455.32L180.92 456.06L183.29 456.85Z" fill="#263238"/>
<path d="M183.001 436.83C182.95 436.85 182.906 436.886 182.877 436.933C182.848 436.98 182.835 437.035 182.841 437.09C182.901 437.607 183.094 438.1 183.401 438.52C183.571 438.75 183.961 438.52 183.791 438.27C183.512 437.904 183.339 437.468 183.291 437.01C183.291 436.976 183.283 436.942 183.266 436.912C183.25 436.882 183.226 436.857 183.197 436.839C183.168 436.821 183.134 436.81 183.1 436.809C183.066 436.807 183.032 436.815 183.001 436.83Z" fill="#8424DE"/>
<path d="M181.671 437.75C181.622 437.771 181.58 437.808 181.553 437.855C181.526 437.902 181.515 437.956 181.521 438.01C181.57 438.528 181.76 439.023 182.071 439.44C182.241 439.67 182.631 439.44 182.461 439.19C182.185 438.823 182.015 438.387 181.971 437.93C181.967 437.898 181.956 437.867 181.938 437.839C181.921 437.812 181.897 437.788 181.869 437.771C181.841 437.754 181.81 437.743 181.778 437.739C181.745 437.736 181.712 437.739 181.681 437.75H181.671Z" fill="#8424DE"/>
<path d="M180.402 438.74C180.352 438.761 180.31 438.798 180.283 438.845C180.256 438.892 180.245 438.946 180.252 439C180.304 439.519 180.498 440.014 180.812 440.43C180.972 440.65 181.362 440.43 181.192 440.18C180.921 439.81 180.752 439.376 180.702 438.92C180.7 438.887 180.689 438.855 180.672 438.826C180.655 438.797 180.631 438.773 180.603 438.756C180.575 438.738 180.543 438.728 180.509 438.725C180.476 438.722 180.443 438.727 180.412 438.74H180.402Z" fill="#8424DE"/>
<path opacity="0.2" d="M185.921 448.53C186.241 447.81 188.031 446.63 188.031 446.63L196.031 430.35C195.496 430.077 194.928 429.872 194.341 429.74C194.021 429.74 193.721 429.74 193.431 429.74L180.531 455.94L180.891 456.06L183.271 456.89L186.141 450.95C185.901 450.599 185.755 450.192 185.716 449.769C185.677 449.345 185.748 448.919 185.921 448.53Z" fill="white"/>
<path d="M180.689 439.18L180.469 439.1L180.519 438.98L180.469 439.09C179.866 438.88 179.284 438.616 178.729 438.3C178.156 437.977 177.682 437.503 177.359 436.93C177.258 436.786 177.196 436.618 177.18 436.442C177.164 436.267 177.195 436.09 177.269 435.93C177.374 435.784 177.518 435.672 177.685 435.606C177.852 435.541 178.034 435.525 178.209 435.56C178.521 435.603 178.821 435.708 179.091 435.87C179.36 436.031 179.595 436.246 179.779 436.5C180.184 437.257 180.474 438.069 180.639 438.91L180.689 439.18ZM178.069 435.84C177.957 435.831 177.845 435.85 177.742 435.896C177.639 435.941 177.549 436.011 177.479 436.1C177.437 436.218 177.424 436.344 177.442 436.467C177.459 436.591 177.506 436.709 177.579 436.81C177.883 437.344 178.325 437.787 178.859 438.09C179.332 438.362 179.827 438.593 180.339 438.78C180.196 438.048 179.94 437.343 179.579 436.69C179.415 436.463 179.206 436.271 178.966 436.126C178.725 435.982 178.458 435.888 178.179 435.85L178.069 435.84Z" fill="#8424DE"/>
<path d="M177.621 441.28C177.404 441.277 177.189 441.243 176.981 441.18C176.81 441.132 176.655 441.038 176.532 440.91C176.409 440.782 176.323 440.623 176.281 440.45C176.284 440.281 176.329 440.115 176.413 439.968C176.497 439.821 176.617 439.698 176.761 439.61C177.294 439.227 177.918 438.993 178.571 438.93C179.21 438.875 179.852 438.875 180.491 438.93H180.731L180.581 439.11C180.091 439.829 179.49 440.467 178.801 441C178.436 441.186 178.031 441.282 177.621 441.28ZM179.431 439.14C179.155 439.125 178.878 439.125 178.601 439.14C177.992 439.197 177.409 439.414 176.911 439.77C176.805 439.836 176.716 439.925 176.65 440.031C176.584 440.136 176.543 440.256 176.531 440.38C176.564 440.507 176.631 440.622 176.724 440.714C176.817 440.805 176.934 440.87 177.061 440.9C177.608 441.055 178.194 440.986 178.691 440.71C179.288 440.265 179.811 439.728 180.241 439.12L179.431 439.14Z" fill="#8424DE"/>
<path d="M72.6092 439.3C68.0192 431.99 57.6092 412.18 78.6892 408.3C99.7692 404.42 170.049 437.85 170.049 437.85L165.599 451.3L100.149 441C100.149 441 109.149 452.95 98.2392 452.41C82.4392 450.83 78.6492 447.05 72.6092 439.3Z" fill="#263238"/>
<path opacity="0.7" d="M101.699 441.35L83.6992 435.7C83.6992 435.7 98.7592 444.91 104.289 446.01L101.699 441.35Z" fill="black"/>
<path d="M35 270.84H71.6C73.1913 270.84 74.7174 271.472 75.8426 272.597C76.9679 273.723 77.6 275.249 77.6 276.84V296.6C77.6 298.191 76.9679 299.718 75.8426 300.843C74.7174 301.968 73.1913 302.6 71.6 302.6H62.84L62.78 308.6L56.19 302.6H35C33.4087 302.6 31.8826 301.968 30.7574 300.843C29.6321 299.718 29 298.191 29 296.6V276.83C29.0026 275.241 29.636 273.717 30.7609 272.594C31.8858 271.471 33.4104 270.84 35 270.84Z" fill="#8424DE"/>
<path d="M48.7886 283.59L42.9986 286.28L48.7686 288.98V291.15L41.0586 287.41V285.16L48.7686 281.42L48.7886 283.59Z" fill="white"/>
<path d="M66.3506 285.16V287.41L58.6406 291.15V289L64.4106 286.3L58.6406 283.61V281.44L66.3506 285.16Z" fill="white"/>
<path d="M55.0686 279.9L51.3086 292.9H53.1886L56.9486 279.9H55.0686Z" fill="white"/>
<path d="M63.1494 269.49H44.3594C44.2931 269.49 44.2295 269.464 44.1826 269.417C44.1357 269.37 44.1094 269.306 44.1094 269.24C44.1094 269.174 44.1357 269.11 44.1826 269.063C44.2295 269.016 44.2931 268.99 44.3594 268.99H63.1494C63.2157 268.99 63.2793 269.016 63.3262 269.063C63.373 269.11 63.3994 269.174 63.3994 269.24C63.3994 269.306 63.373 269.37 63.3262 269.417C63.2793 269.464 63.2157 269.49 63.1494 269.49Z" fill="#8424DE"/>
<path d="M68.3398 269.5H65.3398C65.2735 269.5 65.21 269.474 65.1631 269.427C65.1162 269.38 65.0898 269.316 65.0898 269.25C65.0898 269.184 65.1162 269.12 65.1631 269.073C65.21 269.026 65.2735 269 65.3398 269H68.3398C68.4061 269 68.4697 269.026 68.5166 269.073C68.5635 269.12 68.5898 269.184 68.5898 269.25C68.5898 269.316 68.5635 269.38 68.5166 269.427C68.4697 269.474 68.4061 269.5 68.3398 269.5Z" fill="#8424DE"/>
</svg>
