<svg width="44" height="52" viewBox="0 0 44 52" fill="none" xmlns="http://www.w3.org/2000/svg">
<path d="M20.3125 49.2358C20.8476 49.548 21.1151 49.704 21.4926 49.785C21.7856 49.8478 22.2131 49.8478 22.5061 49.785C22.8836 49.704 23.1511 49.548 23.6862 49.2358C28.3939 46.4893 41.3327 37.862 41.3327 25.9999V14.4424C41.3327 12.5103 41.3327 11.5442 41.0167 10.7138C40.7375 9.98015 40.2839 9.32556 39.695 8.80659C39.0284 8.21912 38.1238 7.87991 36.3147 7.20148L23.357 2.34235C22.8546 2.15395 22.6034 2.05975 22.345 2.0224C22.1157 1.98928 21.8829 1.98928 21.6537 2.0224C21.3953 2.05975 21.1441 2.15395 20.6417 2.34235L7.68399 7.20148C5.87486 7.87991 4.9703 8.21912 4.30369 8.80659C3.71481 9.32556 3.26118 9.98015 2.98202 10.7138C2.66602 11.5442 2.66602 12.5103 2.66602 14.4424V25.9999C2.66602 37.862 15.6048 46.4893 20.3125 49.2358Z" stroke="#8424DE" stroke-width="3.83" stroke-linecap="round" stroke-linejoin="round"/>
</svg>
