<svg width="44" height="52" viewBox="0 0 44 52" fill="none" xmlns="http://www.w3.org/2000/svg">
<path d="M24.416 15.1249L17.166 22.3749L26.8327 27.2082L19.5827 34.4582M41.3327 25.9999C41.3327 37.862 28.3939 46.4893 23.6862 49.2358C23.1511 49.548 22.8836 49.704 22.5061 49.785C22.2131 49.8478 21.7856 49.8478 21.4926 49.785C21.1151 49.704 20.8476 49.548 20.3125 49.2358C15.6048 46.4893 2.66602 37.862 2.66602 25.9999V14.4424C2.66602 12.5103 2.66602 11.5442 2.98202 10.7138C3.26118 9.98015 3.71481 9.32556 4.30369 8.80659C4.9703 8.21912 5.87486 7.87991 7.68399 7.20148L20.6417 2.34235C21.1441 2.15395 21.3953 2.05975 21.6537 2.0224C21.8829 1.98928 22.1157 1.98928 22.345 2.0224C22.6034 2.05975 22.8546 2.15395 23.357 2.34235L36.3147 7.20148C38.1238 7.87991 39.0284 8.21912 39.695 8.80659C40.2839 9.32556 40.7375 9.98015 41.0167 10.7138C41.3327 11.5442 41.3327 12.5103 41.3327 14.4424V25.9999Z" stroke="url(#paint0_linear_73_316)" stroke-width="3.83" stroke-linecap="round" stroke-linejoin="round"/>
<defs>
<linearGradient id="paint0_linear_73_316" x1="41.3327" y1="1.99756" x2="-5.43917" y2="39.8052" gradientUnits="userSpaceOnUse">
<stop offset="0.270833" stop-color="#8424DE"/>
<stop offset="0.557292" stop-color="#5B61E4"/>
<stop offset="1" stop-color="#83D9FF"/>
</linearGradient>
</defs>
</svg>
