<svg width="150" height="176" viewBox="0 0 150 176" fill="none" xmlns="http://www.w3.org/2000/svg">
<path d="M140.789 18.5527C138.396 18.7457 135.995 18.8039 133.595 18.727C132.745 18.5458 131.874 18.4871 131.008 18.5527H130.731C123.955 18.0577 117.25 16.8388 110.731 14.9165C102.555 12.3596 95.0216 8.06497 88.6399 2.32356C87.0898 0.821675 85.0181 -0.0119952 82.866 0.000130444H73.0736C70.8788 0.0161933 68.7664 0.843074 67.138 2.32356C60.3643 8.04772 52.5077 12.3316 44.0426 14.9165C37.4264 16.8303 30.6308 18.0488 23.7648 18.5527H23.4877C22.6178 18.4871 21.743 18.5458 20.8895 18.727C18.4939 18.804 16.0959 18.7458 13.7068 18.5527C12.4764 18.4581 11.2397 18.6124 10.0696 19.0065C8.89955 19.4006 7.81979 20.0265 6.8941 20.8473C5.96842 21.6681 5.21556 22.6671 4.67998 23.7854C4.14439 24.9038 3.83692 26.1187 3.77573 27.3585L0.0111851 125.128C-0.0745719 127.108 0.33388 129.077 1.19924 130.857C2.0646 132.637 3.3593 134.17 4.96515 135.317L59.4126 173.839C61.4183 175.254 63.8106 176.009 66.2604 176H76.0413C78.5421 175.991 80.9844 175.239 83.0623 173.839L140.466 135.317C142.157 134.194 143.56 132.687 144.564 130.917C145.567 129.147 146.141 127.164 146.24 125.128L149.993 27.3585C150.042 26.1497 149.834 24.9442 149.383 23.8227C148.932 22.7013 148.247 21.6898 147.376 20.856C146.505 20.0222 145.466 19.3854 144.33 18.9881C143.194 18.5909 141.987 18.4425 140.789 18.5527Z" fill="#8424DE"/>
<path opacity="0.8" d="M140.789 18.5527C138.396 18.7457 135.995 18.8039 133.595 18.727C132.745 18.5458 131.874 18.4871 131.008 18.5527H130.731C123.955 18.0577 117.25 16.8388 110.731 14.9165C102.555 12.3596 95.0216 8.06497 88.6399 2.32356C87.0898 0.821675 85.0181 -0.0119952 82.866 0.000130444H73.0736C70.8788 0.0161933 68.7664 0.843074 67.138 2.32356C60.3643 8.04772 52.5077 12.3316 44.0426 14.9165C37.4264 16.8303 30.6308 18.0488 23.7648 18.5527H23.4877C22.6178 18.4871 21.743 18.5458 20.8895 18.727C18.4939 18.804 16.0959 18.7458 13.7068 18.5527C12.4764 18.4581 11.2397 18.6124 10.0696 19.0065C8.89955 19.4006 7.81979 20.0265 6.8941 20.8473C5.96842 21.6681 5.21556 22.6671 4.67998 23.7854C4.14439 24.9038 3.83692 26.1187 3.77573 27.3585L0.0111851 125.128C-0.0745719 127.108 0.33388 129.077 1.19924 130.857C2.0646 132.637 3.3593 134.17 4.96515 135.317L59.4126 173.839C61.4183 175.254 63.8106 176.009 66.2604 176H76.0413C78.5421 175.991 80.9844 175.239 83.0623 173.839L140.466 135.317C142.157 134.194 143.56 132.687 144.564 130.917C145.567 129.147 146.141 127.164 146.24 125.128L149.993 27.3585C150.042 26.1497 149.834 24.9442 149.383 23.8227C148.932 22.7013 148.247 21.6898 147.376 20.856C146.505 20.0222 145.466 19.3854 144.33 18.9881C143.194 18.5909 141.987 18.4425 140.789 18.5527Z" fill="white"/>
<path d="M6.37558 124.943L9.96691 31.4593C10.0465 29.7454 10.7753 28.1271 12.0037 26.9368C13.232 25.7464 14.8667 25.0742 16.5722 25.0583H18.6854C27.8231 24.944 36.9025 23.5761 45.6724 20.9923C54.0141 18.449 61.8359 14.424 68.7679 9.10794C69.9094 8.17199 71.3369 7.66089 72.8096 7.66089C74.2822 7.66089 75.7097 8.17199 76.8513 9.10794C83.4298 14.4577 90.9628 18.4952 99.046 21.0039C107.71 23.6008 116.693 24.9693 125.733 25.0699H127.684C128.525 25.0626 129.359 25.2281 130.134 25.5564C130.91 25.8846 131.61 26.3686 132.193 26.9788C132.776 27.589 133.228 28.3125 133.523 29.1049C133.818 29.8973 133.949 30.742 133.909 31.5871L130.317 124.954C130.269 126.006 129.975 127.032 129.46 127.948C128.944 128.864 128.221 129.645 127.349 130.228L70.3037 168.565C69.2452 169.291 67.9936 169.68 66.7124 169.68C65.4311 169.68 64.1796 169.291 63.121 168.565L9.00845 130.228C8.16244 129.642 7.47748 128.85 7.01719 127.926C6.55689 127.002 6.33619 125.975 6.37558 124.943Z" fill="#8424DE"/>
<path opacity="0.2" d="M22.2305 120.005L25.2791 40.5323C33.4428 39.8826 41.5207 38.4075 49.3907 36.1294C57.4189 33.7004 65.0716 30.1579 72.1281 25.6042C78.8873 30.1791 86.2805 33.7257 94.0688 36.1294C101.822 38.4174 109.79 39.8929 117.846 40.5323L114.785 120.005L67.2781 151.883L22.2305 120.005Z" fill="white"/>
<path opacity="0.2" d="M38.1992 111.699L40.4048 54.2988C44.6313 53.4972 48.8924 52.4865 53.1073 51.2667C59.4239 49.3947 65.5457 46.9126 71.3873 43.855C77.0353 46.9229 82.9782 49.4063 89.1246 51.2667C93.2972 52.4827 97.4659 53.4933 101.631 54.2988L99.4252 111.699L68.0154 132.854L38.1992 111.699Z" fill="white"/>
</svg>
