<svg width="21" height="18" viewBox="0 0 21 18" fill="none" xmlns="http://www.w3.org/2000/svg">
<path fill-rule="evenodd" clip-rule="evenodd" d="M18.5242 0.538104C18.7701 0.435124 19.2598 0.502462 19.5242 0.538104C19.3147 0.37373 19.7886 0.573746 19.5242 0.538104C19.7337 0.702477 20.4277 1.29061 20.5242 1.5381C20.6207 1.7856 20.5675 2.27616 20.5242 2.5381L18.5242 15.5381C18.3053 16.852 16.7352 18.1926 15.5242 17.5381C14.5112 16.9906 12.8775 15.4183 11.5242 14.5381C10.8476 14.0975 8.26947 13.5421 8.52422 12.5381C8.74314 11.6797 12.534 8.45593 14.5242 6.5381C15.3054 5.78464 15.4467 4.84503 14.5242 5.5381C12.2325 7.2589 7.74021 9.80147 6.52422 10.5381C5.45151 11.1876 5.19291 11.649 4.52422 11.5381C3.30424 11.3361 2.44766 10.9193 1.52422 10.5381C0.27638 10.0233 0.338075 8.03513 1.52422 7.5381L18.5242 0.538104Z" fill="#8424DE"/>
</svg>
