<svg width="21" height="20" viewBox="0 0 21 20" fill="none" xmlns="http://www.w3.org/2000/svg">
<path id="Vector" d="M14.4588 12C14.5388 11.34 14.5988 10.68 14.5988 10C14.5988 9.32 14.5388 8.66 14.4588 8H17.8388C17.9988 8.64 18.0988 9.31 18.0988 10C18.0988 10.69 17.9988 11.36 17.8388 12M12.6888 17.56C13.2888 16.45 13.7488 15.25 14.0688 14H17.0188C16.0499 15.6683 14.5129 16.932 12.6888 17.56ZM12.4388 12H7.75875C7.65875 11.34 7.59875 10.68 7.59875 10C7.59875 9.32 7.65875 8.65 7.75875 8H12.4388C12.5288 8.65 12.5988 9.32 12.5988 10C12.5988 10.68 12.5288 11.34 12.4388 12ZM10.0988 17.96C9.26875 16.76 8.59875 15.43 8.18876 14H12.0088C11.5988 15.43 10.9288 16.76 10.0988 17.96ZM6.09875 6H3.17875C4.13761 4.32721 5.67355 3.06149 7.49875 2.44C6.89875 3.55 6.44875 4.75 6.09875 6ZM3.17875 14H6.09875C6.44875 15.25 6.89875 16.45 7.49875 17.56C5.67738 16.9317 4.1436 15.6677 3.17875 14ZM2.35876 12C2.19876 11.36 2.09875 10.69 2.09875 10C2.09875 9.31 2.19876 8.64 2.35876 8H5.73875C5.65875 8.66 5.59875 9.32 5.59875 10C5.59875 10.68 5.65875 11.34 5.73875 12M10.0988 2.03C10.9288 3.23 11.5988 4.57 12.0088 6H8.18876C8.59875 4.57 9.26875 3.23 10.0988 2.03ZM17.0188 6H14.0688C13.7558 4.76146 13.2923 3.5659 12.6888 2.44C14.5288 3.07 16.0588 4.34 17.0188 6ZM10.0988 0C4.56875 0 0.0987549 4.5 0.0987549 10C0.0987549 12.6522 1.15232 15.1957 3.02769 17.0711C3.95627 17.9997 5.05866 18.7362 6.27192 19.2388C7.48518 19.7413 8.78554 20 10.0988 20C12.7509 20 15.2945 18.9464 17.1698 17.0711C19.0452 15.1957 20.0988 12.6522 20.0988 10C20.0988 8.68678 19.8401 7.38642 19.3376 6.17317C18.835 4.95991 18.0984 3.85752 17.1698 2.92893C16.2412 2.00035 15.1388 1.26375 13.9256 0.761205C12.7123 0.258658 11.412 0 10.0988 0Z" fill="#EBEBEB"/>
</svg>
